<svg xmlns="http://www.w3.org/2000/svg" width="190" height="112" viewBox="0 0 190 112">
  <g id="Grupo_1204596" data-name="Grupo 1204596" transform="translate(-1230.051 -896)">
    <rect id="Rect치ngulo_411327" data-name="Rect치ngulo 411327" width="190" height="112" transform="translate(1230.051 896)" fill="#ffc94a"/>
    <g id="Grupo_1203283" data-name="Grupo 1203283" transform="translate(475.561 -1639.134)">
      <g id="Rect치ngulo_410589" data-name="Rect치ngulo 410589" transform="translate(787.781 2575.623)" fill="#a1c6f2" stroke="#6f89a8" stroke-width="1">
        <rect width="129.063" height="43.021" rx="8" stroke="none"/>
        <rect x="0.5" y="0.5" width="128.063" height="42.021" rx="7.5" fill="none"/>
      </g>
      <g id="mountain-range_6312364" transform="translate(805.57 2547.836)">
        <path id="Trazado_1243992" data-name="Trazado 1243992" d="M175.068,117.149l7.654-7.654-3.295-3.294-3.2,1.27-5.336,5.336-.835,2.762,2.309,2.309Z" transform="translate(-141.12 -88.237)" fill="#f6e869"/>
        <path id="Trazado_1243993" data-name="Trazado 1243993" d="M172.016,95.863l-2.1-2.1-7.654,7.654-1.118,2.309,1.509,1.509Z" transform="translate(-133.708 -77.9)" fill="#efdf2c"/>
        <path id="Trazado_1243994" data-name="Trazado 1243994" d="M350.364,192.178l2.861-2.857V175.645a5.15,5.15,0,0,0-5.149-5.149,4.887,4.887,0,0,1-3.948-2.011l-6.286-8.645a4.882,4.882,0,0,0-7.352-.624,4.822,4.822,0,0,0-.9,1.2l-6.354,11.913-.754,5.071Z" transform="translate(-267.758 -131.136)" fill="#6dc647"/>
        <path id="Trazado_1243995" data-name="Trazado 1243995" d="M301.336,247.327l-2.72,4.469,32.237,19.258,2.545-3.22v-7.3a8.722,8.722,0,0,0-1.246-.7l-9.7-4.408a.973.973,0,0,1-.445-.406l-2.9-5.076a8.8,8.8,0,0,0-7.626-4.428h-6.135a.983.983,0,0,1-.792-.4l-1.145-1.574-1.716,3.218A4.777,4.777,0,0,1,301.336,247.327Z" transform="translate(-247.932 -202.347)" fill="#4fb02a"/>
        <path id="Trazado_1243996" data-name="Trazado 1243996" d="M133.964,230.066l-9.7-4.408a4.866,4.866,0,0,1-.81-.471,29.888,29.888,0,0,0-2.308-3.126l-2-3.5a4.878,4.878,0,0,0-4.237-2.46h-6.135a4.882,4.882,0,0,1-3.948-2.011l-6.253-8.6a4.884,4.884,0,0,0-8.288.528l-8.07,15.131a4.883,4.883,0,0,1-4.306,2.584H74.282c-14.743,5.16-16.864,25.281-2.659,30.619h60.32a4.881,4.881,0,0,0,4.881-4.88V234.51a4.88,4.88,0,0,0-2.86-4.444Z" transform="translate(-51.357 -169.024)" fill="#8bd270"/>
        <path id="Trazado_1243997" data-name="Trazado 1243997" d="M29.16,323.443h-6.61a4.86,4.86,0,0,0-1.922.4l-5.709,2.447a4.878,4.878,0,0,0-2.833,3.39L7.843,348.086a4.879,4.879,0,0,0,4.756,5.976H26.5A29.779,29.779,0,0,1,29.16,323.443Z" transform="translate(-6.235 -268.734)" fill="#6dc647"/>
        <circle id="Elipse_12341" data-name="Elipse 12341" cx="3.818" cy="3.818" r="3.818" transform="translate(40.928 48.346)" fill="#fa5c6f"/>
        <path id="Trazado_1243998" data-name="Trazado 1243998" d="M221.143,409.781h-6.692a4.368,4.368,0,0,1-3.533-1.8l-6.7-9.2a4.377,4.377,0,0,0-.458-.53c-5.565-.649-12.6,14.121-10.189,17.948h33.768l-2.406-4.213A4.374,4.374,0,0,0,221.143,409.781Z" transform="translate(-160.253 -330.87)" fill="#c0e8f9"/>
        <path id="Trazado_1243999" data-name="Trazado 1243999" d="M173.692,393.426a4.371,4.371,0,0,1,1.071-1.311,4.367,4.367,0,0,0-5.029-.809l-.534.266a4.375,4.375,0,0,0-1.9,1.853l-8.292,15.545a4.312,4.312,0,0,1-.826,1.093h6.393a4.312,4.312,0,0,0,.826-1.093Z" transform="translate(-131.25 -324.736)" fill="#a6dff4"/>
        <path id="Trazado_1244000" data-name="Trazado 1244000" d="M158.372,156.275l2.7-2.7-3.295-3.295-1.664-.238-1.9,1.9a3.7,3.7,0,0,0,.175,5.222A3.813,3.813,0,0,0,158.372,156.275Z" transform="translate(-127.123 -124.664)" fill="#5f7080"/>
        <path id="Trazado_1244001" data-name="Trazado 1244001" d="M148.488,143.73l2.615-2.615-2.1-2.1-2.7,2.7a3.811,3.811,0,0,0,1.413,6.29,3.8,3.8,0,0,1,.776-4.271Z" transform="translate(-120.449 -115.498)" fill="#546370"/>
        <path id="Trazado_1244002" data-name="Trazado 1244002" d="M230.5,19.686a11.45,11.45,0,0,0-10.594-12.02c-13.318,3.232-12.8,18.838-.763,22.869A11.449,11.449,0,0,0,230.5,19.686Z" transform="translate(-174.317 -6.369)" fill="#78cbed"/>
        <path id="Trazado_1244003" data-name="Trazado 1244003" d="M202.892,23.858c-2.206-6.386.1-13.158,5.2-16.345a11.45,11.45,0,1,0-.763,22.869A14.877,14.877,0,0,1,202.892,23.858Z" transform="translate(-162.505 -6.216)" fill="#34b6e2"/>
        <path id="Trazado_1244004" data-name="Trazado 1244004" d="M85.467,48.829a1.268,1.268,0,0,0,1.269-1.269V44.51a6.415,6.415,0,0,0-6.418-6.418A3.628,3.628,0,0,1,77.4,36.6l-6.286-8.645a6.149,6.149,0,0,0-10.4.724L53.268,42.637,48.2,35.673a6.116,6.116,0,0,0-2.188-1.866V25.374A12.722,12.722,0,1,0,32.9,17.365l-7.951,7.951a5.086,5.086,0,1,0,7.193,7.193L40.1,24.558a12.819,12.819,0,0,0,3.381.814v7.774A6.158,6.158,0,0,0,37.8,36.4L29.734,51.527a3.606,3.606,0,0,1-3.187,1.913H16.314a6.1,6.1,0,0,0-2.422.5L8.184,56.384a6.165,6.165,0,0,0-3.571,4.272L3.3,66.365a1.269,1.269,0,1,0,2.473.57l1.315-5.709a3.621,3.621,0,0,1,2.1-2.509l5.711-2.447a3.575,3.575,0,0,1,1.421-.292H26.547a6.14,6.14,0,0,0,5.426-3.256l8.07-15.132a3.606,3.606,0,0,1,3.435-1.9V47.238a5.086,5.086,0,1,0,2.537,0V36.993c.181.22-.317-.442,6.357,8.724l.066.092a6.17,6.17,0,0,0,4.974,2.533h6.135a3.617,3.617,0,0,1,3.135,1.821l2.9,5.078a6.112,6.112,0,0,0,2.794,2.548l9.7,4.408A3.621,3.621,0,0,1,84.2,65.486V80.448a3.616,3.616,0,0,1-3.613,3.611H67.828l-2.041-3.575a5.655,5.655,0,0,0-4.9-2.841H54.2a3.106,3.106,0,0,1-2.507-1.276l-6.7-9.2a5.619,5.619,0,0,0-7.079-1.728l-.537.268a5.608,5.608,0,0,0-2.451,2.39L26.637,83.64a3.033,3.033,0,0,1-.269.419h-20a3.61,3.61,0,0,1-3.52-4.422l1.593-6.916a1.269,1.269,0,0,0-2.472-.57L.371,79.066A6.147,6.147,0,0,0,6.363,86.6H80.585a6.156,6.156,0,0,0,6.15-6.148V53.5a1.269,1.269,0,0,0-2.537,0v7.014a6.115,6.115,0,0,0-1.067-.625l-9.7-4.408a3.59,3.59,0,0,1-1.641-1.5l-2.9-5.077a6.159,6.159,0,0,0-5.338-3.1H57.412a3.628,3.628,0,0,1-2.448-.957l7.985-14.972a3.612,3.612,0,0,1,6.109-.425L75.344,38.1a6.174,6.174,0,0,0,4.974,2.532A3.879,3.879,0,0,1,84.2,44.51V47.56a1.268,1.268,0,0,0,1.269,1.269ZM33.948,27.118l-3.6-3.6,3.787-3.787a12.734,12.734,0,0,0,3.6,3.6Zm-3.6,3.6a2.549,2.549,0,0,1-3.6-3.6l1.8-1.8,3.6,3.6Zm5.2-13.607h0a10.189,10.189,0,1,1,10.46,5.713v-10.1a1.269,1.269,0,1,0-2.537,0v10.1a10.177,10.177,0,0,1-7.923-5.71ZM47.3,52.163a2.549,2.549,0,1,1-2.549-2.549A2.552,2.552,0,0,1,47.3,52.163ZM37.168,69.286a3.085,3.085,0,0,1,1.347-1.314l.536-.267a3.09,3.09,0,0,1,3.894.95l6.695,9.2A5.651,5.651,0,0,0,54.2,80.181H60.89a3.112,3.112,0,0,1,2.694,1.563l1.322,2.315H29.289Z" transform="translate(0)"/>
      </g>
    </g>
  </g>
</svg>
