<svg xmlns="http://www.w3.org/2000/svg" xmlns:xlink="http://www.w3.org/1999/xlink" width="315" height="230.641" viewBox="0 0 315 230.641">
  <defs>
    <clipPath id="clip-path">
      <rect id="Rectángulo_411769" data-name="Rectángulo 411769" width="184.449" height="204.7" fill="none"/>
    </clipPath>
    <clipPath id="clip-path-2">
      <rect id="Rectángulo_411768" data-name="Rectángulo 411768" width="184.449" height="204.701" fill="none"/>
    </clipPath>
    <clipPath id="clip-path-3">
      <rect id="Rectángulo_411717" data-name="Rectángulo 411717" width="5.3" height="6.806" fill="none"/>
    </clipPath>
    <clipPath id="clip-path-5">
      <rect id="Rectángulo_411719" data-name="Rectángulo 411719" width="21.204" height="27.834" fill="none"/>
    </clipPath>
    <clipPath id="clip-path-6">
      <rect id="Rectángulo_411720" data-name="Rectángulo 411720" width="13.255" height="27.834" fill="none"/>
    </clipPath>
    <clipPath id="clip-path-8">
      <rect id="Rectángulo_411722" data-name="Rectángulo 411722" width="18.675" height="20.766" fill="none"/>
    </clipPath>
    <clipPath id="clip-path-9">
      <rect id="Rectángulo_411723" data-name="Rectángulo 411723" width="12.658" height="13.544" fill="none"/>
    </clipPath>
    <clipPath id="clip-path-10">
      <rect id="Rectángulo_411724" data-name="Rectángulo 411724" width="12.079" height="13.831" fill="none"/>
    </clipPath>
    <clipPath id="clip-path-11">
      <rect id="Rectángulo_411725" data-name="Rectángulo 411725" width="11.532" height="14.483" fill="none"/>
    </clipPath>
    <clipPath id="clip-path-12">
      <rect id="Rectángulo_411726" data-name="Rectángulo 411726" width="14.314" height="11.778" fill="none"/>
    </clipPath>
    <clipPath id="clip-path-13">
      <rect id="Rectángulo_411729" data-name="Rectángulo 411729" width="32.517" height="14.578" fill="none"/>
    </clipPath>
    <clipPath id="clip-path-14">
      <rect id="Rectángulo_411731" data-name="Rectángulo 411731" width="7.191" height="6.353" fill="none"/>
    </clipPath>
    <clipPath id="clip-path-15">
      <rect id="Rectángulo_411732" data-name="Rectángulo 411732" width="7.455" height="5.573" fill="none"/>
    </clipPath>
    <clipPath id="clip-path-16">
      <rect id="Rectángulo_411733" data-name="Rectángulo 411733" width="6.566" height="7.06" fill="none"/>
    </clipPath>
    <clipPath id="clip-path-17">
      <rect id="Rectángulo_411734" data-name="Rectángulo 411734" width="7.383" height="5.891" fill="none"/>
    </clipPath>
    <clipPath id="clip-path-18">
      <rect id="Rectángulo_411737" data-name="Rectángulo 411737" width="39.987" height="7.948" fill="none"/>
    </clipPath>
    <clipPath id="clip-path-19">
      <rect id="Rectángulo_411741" data-name="Rectángulo 411741" width="12.966" height="13.252" fill="none"/>
    </clipPath>
    <clipPath id="clip-path-20">
      <rect id="Rectángulo_411743" data-name="Rectángulo 411743" width="10.438" height="11.927" fill="none"/>
    </clipPath>
    <clipPath id="clip-path-21">
      <rect id="Rectángulo_411744" data-name="Rectángulo 411744" width="21.853" height="11.497" fill="none"/>
    </clipPath>
    <clipPath id="clip-path-22">
      <rect id="Rectángulo_411745" data-name="Rectángulo 411745" width="21.128" height="19.16" fill="none"/>
    </clipPath>
    <clipPath id="clip-path-23">
      <rect id="Rectángulo_411747" data-name="Rectángulo 411747" width="30.652" height="5.11" fill="none"/>
    </clipPath>
    <clipPath id="clip-path-24">
      <rect id="Rectángulo_411748" data-name="Rectángulo 411748" width="15.144" height="4.47" fill="none"/>
    </clipPath>
    <clipPath id="clip-path-25">
      <rect id="Rectángulo_411750" data-name="Rectángulo 411750" width="23.237" height="10.327" fill="none"/>
    </clipPath>
    <clipPath id="clip-path-26">
      <rect id="Rectángulo_411751" data-name="Rectángulo 411751" width="7.509" height="6.728" fill="none"/>
    </clipPath>
    <clipPath id="clip-path-27">
      <rect id="Rectángulo_411752" data-name="Rectángulo 411752" width="14.092" height="22.774" fill="none"/>
    </clipPath>
    <clipPath id="clip-path-28">
      <rect id="Rectángulo_411753" data-name="Rectángulo 411753" width="41.132" height="41.132" fill="none"/>
    </clipPath>
    <clipPath id="clip-path-29">
      <rect id="Rectángulo_411754" data-name="Rectángulo 411754" width="16.856" height="19.228" fill="none"/>
    </clipPath>
    <clipPath id="clip-path-30">
      <rect id="Rectángulo_411755" data-name="Rectángulo 411755" width="26.37" height="19.16" fill="none"/>
    </clipPath>
    <clipPath id="clip-path-31">
      <rect id="Rectángulo_411756" data-name="Rectángulo 411756" width="30.69" height="19.16" fill="none"/>
    </clipPath>
    <clipPath id="clip-path-32">
      <rect id="Rectángulo_411757" data-name="Rectángulo 411757" width="15.697" height="31.612" fill="none"/>
    </clipPath>
    <clipPath id="clip-path-33">
      <rect id="Rectángulo_411758" data-name="Rectángulo 411758" width="2.813" height="2.813" fill="none"/>
    </clipPath>
    <clipPath id="clip-path-37">
      <rect id="Rectángulo_411762" data-name="Rectángulo 411762" width="1.239" height="1.24" fill="none"/>
    </clipPath>
    <clipPath id="clip-path-38">
      <rect id="Rectángulo_411763" data-name="Rectángulo 411763" width="1.239" height="1.239" fill="none"/>
    </clipPath>
    <clipPath id="clip-path-39">
      <rect id="Rectángulo_411764" data-name="Rectángulo 411764" width="1.026" height="1.026" fill="none"/>
    </clipPath>
    <clipPath id="clip-path-40">
      <rect id="Rectángulo_411765" data-name="Rectángulo 411765" width="1.24" height="1.24" fill="none"/>
    </clipPath>
    <clipPath id="clip-path-42">
      <rect id="Rectángulo_411767" data-name="Rectángulo 411767" width="20.577" height="19.858" fill="none"/>
    </clipPath>
  </defs>
  <g id="Grupo_1204533" data-name="Grupo 1204533" transform="translate(-390.051 -593)">
    <rect id="Rectángulo_411255" data-name="Rectángulo 411255" width="315" height="230.641" transform="translate(390.051 593)" fill="#5a8441"/>
    <g id="Grupo_1204532" data-name="Grupo 1204532" transform="translate(455.051 605.361)">
      <g id="Grupo_1204531" data-name="Grupo 1204531" clip-path="url(#clip-path)">
        <g id="Grupo_1204530" data-name="Grupo 1204530" transform="translate(0 0)">
          <g id="Grupo_1204529" data-name="Grupo 1204529" clip-path="url(#clip-path-2)">
            <path id="Trazado_1261867" data-name="Trazado 1261867" d="M186.827,126.912a80.413,80.413,0,0,1-8.341,35.781c-.061.131-.122.257-.187.383-.6,1.211-1.244,2.4-1.908,3.577-.252.449-.514.893-.776,1.337a80.8,80.8,0,0,1-139.133,0c-.266-.444-.524-.888-.776-1.337-.664-1.174-1.3-2.366-1.908-3.577-.065-.126-.126-.252-.187-.383a80.416,80.416,0,0,1-8.346-35.781c0-.547,0-1.094.019-1.641q.049-2.525.252-5.012a80.785,80.785,0,0,1,160.949-.814q.337,3.689.341,7.467" transform="translate(-13.453 -24.561)" fill="#abd9dd"/>
            <path id="Trazado_1261868" data-name="Trazado 1261868" d="M333.1,210.406a80.442,80.442,0,0,1-8.528,36.165H300.019l-.033-.178c.669-1.449-.337-3.455.224-5.124a5.4,5.4,0,0,1,4.451-3.455c-.888-3.455,0-9.243,4.788-8.907-.44-4.348,2.118-8.131,6.8-8.131.112-2.342,0-3.563,1.894-5.349a6,6,0,0,1,5.793-1.781c-2.151-3.759,3.6-7.836,6.125-5.349a8.757,8.757,0,0,1,2.7-5.358q.337,3.689.341,7.467" transform="translate(-159.728 -108.055)" fill="#60ba8b"/>
            <path id="Trazado_1261869" data-name="Trazado 1261869" d="M57.494,247.319l-.033.178H33.8a80.445,80.445,0,0,1-8.533-36.165c0-.547,0-1.094.019-1.641q.049-2.525.252-5.012a9.643,9.643,0,0,1,1.884,4.545c1.314-1.29,3.488-.814,4.979.468a3.819,3.819,0,0,1,1.141,4.881,6.011,6.011,0,0,1,5.8,1.781c1.894,1.786,1.781,3.006,1.894,5.349,4.675,0,7.238,3.782,6.793,8.131,4.788-.337,5.681,5.452,4.788,8.907A5.4,5.4,0,0,1,57.27,242.2c.561,1.669-.449,3.675.224,5.124" transform="translate(-13.453 -108.981)" fill="#60ba8b"/>
            <path id="Trazado_1261870" data-name="Trazado 1261870" d="M60.215,188.194a5.242,5.242,0,0,1-5.241,5.241H22.7q.049-2.525.252-5.012a80.23,80.23,0,0,1,1.206-8.8,6.726,6.726,0,0,1,10.655-.07,5.573,5.573,0,0,1,3.31-1.089,5.633,5.633,0,0,1,2.347.519,6.732,6.732,0,0,1,12.75,4.278,5.233,5.233,0,0,1,6.99,4.937" transform="translate(-12.089 -93.029)" fill="#fff"/>
            <path id="Trazado_1261871" data-name="Trazado 1261871" d="M264.227,116.7a6.265,6.265,0,1,0-2.09-12.164A8.049,8.049,0,0,0,246.9,99.42a6.666,6.666,0,0,0-6.764.679,8.043,8.043,0,0,0-14.357,4.341,6.264,6.264,0,1,0-1.822,12.258Z" transform="translate(-115.909 -50.223)" fill="#fff"/>
            <path id="Trazado_1261872" data-name="Trazado 1261872" d="M187.99,295.439c-.061.131-.122.257-.187.383-.6,1.211-1.244,2.4-1.908,3.577-.253.449-.514.893-.776,1.337H45.987c-.267-.444-.524-.888-.776-1.337-.664-1.174-1.3-2.366-1.908-3.577-.065-.126-.126-.253-.187-.383Z" transform="translate(-22.957 -157.307)" fill="#d0482d"/>
            <path id="Trazado_1261873" data-name="Trazado 1261873" d="M188.284,303.91a80.8,80.8,0,0,1-140.685,0Z" transform="translate(-25.344 -161.817)" fill="#60ba8b"/>
            <path id="Trazado_1261874" data-name="Trazado 1261874" d="M131.395,335.892s-1.922-6.655-4.833-6.51-.092,4.553-.092,4.553-3.51-5.8-6.074-5.476.732,5.476.732,5.476-2.02-3.577-4.7-3.31.985,5.266.985,5.266Z" transform="translate(-61.469 -174.881)" fill="#519e78"/>
            <path id="Trazado_1261875" data-name="Trazado 1261875" d="M253.515,312.418c-2.533-1.058-4.491,1.4-5.117,2.376.748-1.249,3.2-5.01.008-5.917-1.731-.492-3.69.425-4.77,3.5.646-1.262-.2-2.506-1.908-2.591-2-.1-3.285,1.718-3.723,4.554a3.073,3.073,0,0,0-2.444-1.387c-2.634,0-3.832,4.52-3.832,4.52h21s4-3.712.79-5.053" transform="translate(-123.385 -164.395)" fill="#519e78"/>
            <path id="Trazado_1261876" data-name="Trazado 1261876" d="M123.992,196.1a.8.8,0,0,1-.059-1.594q.52-.039,1.085-.077c5.988-.411,15.039-1.034,18.731-10.827a.8.8,0,0,1,1.365-.222c.048.058,4.833,5.826,11.964,6.261,4.744.286,9.476-1.8,14.083-6.223a.812.812,0,0,1,.6-.22.8.8,0,0,1,.571.3c.059.074,6.038,7.409,13.281,7.145,4.169-.154,8.028-2.78,11.47-7.8a.8.8,0,0,1,1.317.9c-3.746,5.468-8.031,8.327-12.736,8.5-6.78.245-12.286-5.168-14.018-7.09-4.758,4.35-9.7,6.4-14.688,6.087-6.042-.375-10.422-4.088-12.208-5.888-4.324,9.624-13.849,10.279-19.629,10.676-.372.026-.731.05-1.074.076l-.061,0" transform="translate(-65.595 -97.168)" fill="#a86c1c"/>
            <rect id="Rectángulo_411715" data-name="Rectángulo 411715" width="5.3" height="53.007" transform="translate(55.213 85.122)" fill="#eecaab"/>
            <rect id="Rectángulo_411716" data-name="Rectángulo 411716" width="5.3" height="53.007" transform="translate(124.124 85.122)" fill="#eecaab"/>
            <g id="Grupo_1204411" data-name="Grupo 1204411" transform="translate(55.213 85.122)" opacity="0.1">
              <g id="Grupo_1204410" data-name="Grupo 1204410">
                <g id="Grupo_1204409" data-name="Grupo 1204409" clip-path="url(#clip-path-3)">
                  <path id="Trazado_1261877" data-name="Trazado 1261877" d="M118.09,182.059h5.3v5.8a9.813,9.813,0,0,1-1.325-.825,11.408,11.408,0,0,1-3.975,1.83Z" transform="translate(-118.09 -182.059)"/>
                </g>
              </g>
            </g>
            <g id="Grupo_1204414" data-name="Grupo 1204414" transform="translate(124.124 85.122)" opacity="0.1">
              <g id="Grupo_1204413" data-name="Grupo 1204413">
                <g id="Grupo_1204412" data-name="Grupo 1204412" clip-path="url(#clip-path-3)">
                  <path id="Trazado_1261878" data-name="Trazado 1261878" d="M270.779,182.059v6.806a11.4,11.4,0,0,1-3.975-1.83,10.4,10.4,0,0,1-1.325.83v-5.805Z" transform="translate(-265.479 -182.059)"/>
                </g>
              </g>
            </g>
            <path id="Trazado_1261879" data-name="Trazado 1261879" d="M191.014,154.708c0,4.395-5.3,5.3-6.625,5.3s-6.624-.91-6.624-5.3c0,4.395-5.3,5.3-6.625,5.3s-6.63-.91-6.63-5.3c0,4.395-5.3,5.3-6.625,5.3s-6.625-.91-6.625-5.3c0,4.395-5.3,5.3-6.624,5.3s-6.63-.91-6.63-5.3c0,4.395-5.3,5.3-6.625,5.3s-6.625-.91-6.625-5.3l-.037.59c-.447,3.89-5.326,4.714-6.588,4.714-1.33,0-6.63-.91-6.63-5.3,0,4.395-5.3,5.3-6.624,5.3s-6.625-.91-6.625-5.3c0-5.3,17.224-22.529,21.2-22.529h50.357c3.975,0,21.2,17.229,21.2,22.529" transform="translate(-52.316 -70.379)" fill="#d0482d"/>
            <g id="Grupo_1204417" data-name="Grupo 1204417" transform="translate(59.187 61.8)" opacity="0.2">
              <g id="Grupo_1204416" data-name="Grupo 1204416">
                <g id="Grupo_1204415" data-name="Grupo 1204415" clip-path="url(#clip-path-5)">
                  <path id="Trazado_1261880" data-name="Trazado 1261880" d="M147.795,132.179s-7.949,19.879-7.949,22.529l-.037.59c-.447,3.89-5.326,4.714-6.587,4.714-1.33,0-6.63-.91-6.63-5.3,0-3.975,13.255-22.529,13.255-22.529Z" transform="translate(-126.591 -132.179)" fill="#fff"/>
                </g>
              </g>
            </g>
            <g id="Grupo_1204420" data-name="Grupo 1204420" transform="translate(85.691 61.8)" opacity="0.2">
              <g id="Grupo_1204419" data-name="Grupo 1204419">
                <g id="Grupo_1204418" data-name="Grupo 1204418" clip-path="url(#clip-path-6)">
                  <path id="Trazado_1261881" data-name="Trazado 1261881" d="M196.532,154.708c0,4.395-5.3,5.3-6.625,5.3s-6.63-.91-6.63-5.3c0-3.975,3.975-22.529,3.975-22.529h5.305s3.975,18.554,3.975,22.529" transform="translate(-183.277 -132.179)" fill="#fff"/>
                </g>
              </g>
            </g>
            <g id="Grupo_1204423" data-name="Grupo 1204423" transform="translate(104.245 61.8)" opacity="0.2">
              <g id="Grupo_1204422" data-name="Grupo 1204422">
                <g id="Grupo_1204421" data-name="Grupo 1204421" clip-path="url(#clip-path-5)">
                  <path id="Trazado_1261882" data-name="Trazado 1261882" d="M244.165,154.708c0,4.395-5.3,5.3-6.625,5.3s-6.63-.91-6.63-5.3c0-2.65-7.949-22.529-7.949-22.529h7.949s13.255,18.554,13.255,22.529" transform="translate(-222.961 -132.179)" fill="#fff"/>
                </g>
              </g>
            </g>
            <path id="Trazado_1261883" data-name="Trazado 1261883" d="M228.434,240.9c1.081-1.765,4.914,2.264,4.914,2.264s6.239-5.19,14.853-.387c0,0,2.926-5.8,4.8-4.307s-.883,6.681-.883,6.681a20.506,20.506,0,0,1,0,14.357s3.423,4.638,2.1,5.853-4.417-1.435-4.417-1.435-1.381,2.209-7.454,2.209-7.89-1.834-7.89-1.834-1.994,2.276-3.651,1.834,1.326-5.025,1.326-5.025-3.534-4.639-1.049-13.97c0,0-4.307-3.534-2.651-6.239" transform="translate(-121.428 -126.843)" fill="#a86c1c"/>
            <g id="Grupo_1204426" data-name="Grupo 1204426" transform="translate(110.943 116.218)" opacity="0.1">
              <g id="Grupo_1204425" data-name="Grupo 1204425">
                <g id="Grupo_1204424" data-name="Grupo 1204424" clip-path="url(#clip-path-8)">
                  <path id="Trazado_1261884" data-name="Trazado 1261884" d="M247.315,269.335c-4.355,0-6.715-.845-8.6-4.5-1.852-3.584-2.4-12.357,1.449-14.751,5.323-3.313,14.9-1.085,15.639,5.526.76,6.817-1.021,13.722-8.486,13.722" transform="translate(-237.287 -248.569)" fill="#fff"/>
                </g>
              </g>
            </g>
            <path id="Trazado_1261885" data-name="Trazado 1261885" d="M254.468,258.938a1.352,1.352,0,0,1,.378,1.453c-.468,1.2-2.98,1.623-4.1,1.756a22.423,22.423,0,0,0,.41,5.768.533.533,0,0,1-.394.638.512.512,0,0,1-.123.016.534.534,0,0,1-.521-.41,21.285,21.285,0,0,1-.426-3.043c-1.239-.176-4.028-.719-4.533-2a1.31,1.31,0,0,1,.3-1.389,1.645,1.645,0,0,1,1.293-.644c1.059,0,2.145,1.075,2.879,2a19.983,19.983,0,0,1,.442-3.948c-1.149-.474-3.666-1.66-3.8-3.011a1.341,1.341,0,0,1,.745-1.3,1.88,1.88,0,0,1,1.038-.33c1.282,0,2.112,1.484,2.575,2.693.138-.383.293-.766.468-1.139.006-1.452.213-5.608,2.224-5.608a1.728,1.728,0,0,1,.83.234,1.655,1.655,0,0,1,.9,1.314c.154,1.714-2.389,3.991-2.99,4.507a13.955,13.955,0,0,0-.995,3.1,2.964,2.964,0,0,1,2.091-1.3,1.738,1.738,0,0,1,1.309.644" transform="translate(-130.488 -133.347)" fill="#ffad55"/>
            <path id="Trazado_1261886" data-name="Trazado 1261886" d="M185.295,228.85a6.814,6.814,0,0,1-.288,1.04,8.073,8.073,0,0,1-1.042,1.968,7.889,7.889,0,0,1-.515.682c-.055.065-.111.131-.165.185a6.444,6.444,0,0,1-2.448,1.843,4.794,4.794,0,0,1-1.5.34c-5.111.3-10.024-7.833-8.991-12.767a4.783,4.783,0,0,1,.322-1.024,4.067,4.067,0,0,1,1.181-1.571,2.9,2.9,0,0,1,.451-.3,3.875,3.875,0,0,1,1.007-.408,6.4,6.4,0,0,1,2.161-.151,10.2,10.2,0,0,1,2.142.434c4.191,1.293,8.536,5.176,7.687,9.731" transform="translate(-90.626 -116.423)" fill="#519e78"/>
            <g id="Grupo_1204429" data-name="Grupo 1204429" transform="translate(80.874 103.52)" opacity="0.2">
              <g id="Grupo_1204428" data-name="Grupo 1204428">
                <g id="Grupo_1204427" data-name="Grupo 1204427" clip-path="url(#clip-path-9)">
                  <path id="Trazado_1261887" data-name="Trazado 1261887" d="M185.543,229.9a5.672,5.672,0,0,1-.24.866,8,8,0,0,1-1.3,2.207c-.046.055-.092.109-.137.154a5.371,5.371,0,0,1-2.039,1.534,4,4,0,0,1-1.251.283c-4.257.246-8.35-6.525-7.49-10.635a3.957,3.957,0,0,1,.268-.853,3.383,3.383,0,0,1,.984-1.309,2.441,2.441,0,0,1,.375-.251,3.22,3.22,0,0,1,.838-.34,5.344,5.344,0,0,1,1.8-.126,8.514,8.514,0,0,1,1.785.362c3.491,1.077,7.11,4.312,6.4,8.106" transform="translate(-172.974 -221.41)" fill="#fff"/>
                </g>
              </g>
            </g>
            <path id="Trazado_1261888" data-name="Trazado 1261888" d="M181,237.368a4.793,4.793,0,0,1-1.5.34c-1.066-.714-2.312-1.857-2.376-3.317-.088-1.911-2.32-3.242-2.984-3.384a1.871,1.871,0,0,1-1.112-.9,4.984,4.984,0,0,1-.625-3.551c.153-.679-.97-1.288-1.894-1.613a4.753,4.753,0,0,1,.322-1.025c1.092.382,2.971,1.275,2.609,2.87a3.953,3.953,0,0,0,.484,2.747.991.991,0,0,0,.437.435c1.008.215,3.714,1.881,3.822,4.375.063,1.331,1.785,2.491,2.819,3.025" transform="translate(-90.784 -119.225)" fill="#2c6e55"/>
            <path id="Trazado_1261889" data-name="Trazado 1261889" d="M186.349,232.063a7.98,7.98,0,0,1-.515.682c-.056.066-.111.131-.165.185a4.994,4.994,0,0,1-2.955-3.2c-.225-.864-1.192-1.4-2.213-1.96-1.429-.792-3.056-1.692-2.878-3.746.112-1.333-.619-1.955-1.472-2.674a3.864,3.864,0,0,1-1.468-1.9,3.884,3.884,0,0,1,1.007-.408c.07.547.5.94,1.15,1.5a3.953,3.953,0,0,1,1.842,3.575c-.106,1.274.812,1.879,2.333,2.722,1.179.65,2.394,1.322,2.731,2.632a4.134,4.134,0,0,0,2.6,2.594" transform="translate(-93.01 -116.628)" fill="#2c6e55"/>
            <path id="Trazado_1261890" data-name="Trazado 1261890" d="M191.284,228.883a6.811,6.811,0,0,1-.288,1.04,3.711,3.711,0,0,1-2.349-2.9c-.086-.716-.962-1.189-1.893-1.687-1.226-.656-2.615-1.4-2.725-3-.123-1.808-1.934-3.179-2.575-3.613a10.2,10.2,0,0,1,2.142.434,5.188,5.188,0,0,1,1.495,3.108c.072,1.016,1.088,1.562,2.165,2.137,1.129.607,2.3,1.228,2.445,2.5a2.629,2.629,0,0,0,1.583,1.988" transform="translate(-96.616 -116.456)" fill="#2c6e55"/>
            <path id="Trazado_1261891" data-name="Trazado 1261891" d="M191.5,249.842a6.866,6.866,0,0,1-1.072.127,8.1,8.1,0,0,1-2.216-.22,7.962,7.962,0,0,1-.826-.219c-.082-.026-.164-.053-.234-.082a6.447,6.447,0,0,1-2.631-1.569,4.8,4.8,0,0,1-.883-1.261c-2.207-4.619,3.458-12.243,8.416-13.154a4.756,4.756,0,0,1,1.07-.089,4.068,4.068,0,0,1,1.9.5,2.92,2.92,0,0,1,.449.3,3.888,3.888,0,0,1,.759.777,6.413,6.413,0,0,1,.957,1.943,10.208,10.208,0,0,1,.409,2.147c.388,4.368-1.562,9.86-6.1,10.8" transform="translate(-97.516 -124.259)" fill="#519e78"/>
            <g id="Grupo_1204432" data-name="Grupo 1204432" transform="translate(86.944 110.572)" opacity="0.2">
              <g id="Grupo_1204431" data-name="Grupo 1204431">
                <g id="Grupo_1204430" data-name="Grupo 1204430" clip-path="url(#clip-path-10)">
                  <path id="Trazado_1261892" data-name="Trazado 1261892" d="M192.916,250.212a5.761,5.761,0,0,1-.893.106,6.751,6.751,0,0,1-1.845-.183,6.508,6.508,0,0,1-.688-.183c-.068-.022-.136-.044-.195-.068a5.371,5.371,0,0,1-2.192-1.307,3.994,3.994,0,0,1-.735-1.051c-1.839-3.847,2.881-10.2,7.01-10.957a3.979,3.979,0,0,1,.892-.075,3.388,3.388,0,0,1,1.584.416,2.459,2.459,0,0,1,.375.253,3.245,3.245,0,0,1,.632.648,5.343,5.343,0,0,1,.8,1.618,8.5,8.5,0,0,1,.34,1.789c.323,3.639-1.3,8.213-5.081,8.994" transform="translate(-185.958 -236.493)" fill="#fff"/>
                </g>
              </g>
            </g>
            <path id="Trazado_1261893" data-name="Trazado 1261893" d="M185.079,247.879a4.82,4.82,0,0,1-.884-1.261c.258-1.257.845-2.842,2.173-3.455,1.736-.8,2.123-3.374,2-4.042a1.872,1.872,0,0,1,.414-1.37,4.983,4.983,0,0,1,3.05-1.923c.687-.115.825-1.385.777-2.363a4.724,4.724,0,0,1,1.069-.09c.06,1.155-.056,3.233-1.669,3.5a3.954,3.954,0,0,0-2.36,1.487.989.989,0,0,0-.237.569c.182,1.015-.336,4.15-2.6,5.194-1.208.562-1.63,2.595-1.733,3.754" transform="translate(-98.075 -124.259)" fill="#2c6e55"/>
            <path id="Trazado_1261894" data-name="Trazado 1261894" d="M192.772,250.666a7.991,7.991,0,0,1-.826-.219c-.081-.026-.163-.053-.234-.082a5,5,0,0,1,1.841-3.945c.714-.535.844-1.633.977-2.791.192-1.622.41-3.469,2.378-4.082,1.276-.4,1.575-1.312,1.918-2.374a3.862,3.862,0,0,1,1.207-2.08,3.852,3.852,0,0,1,.759.778c-.48.271-.682.815-.953,1.632a3.954,3.954,0,0,1-2.613,3.057c-1.22.384-1.432,1.462-1.636,3.19-.156,1.337-.318,2.716-1.4,3.524a4.128,4.128,0,0,0-1.416,3.392" transform="translate(-102.077 -125.176)" fill="#2c6e55"/>
            <path id="Trazado_1261895" data-name="Trazado 1261895" d="M199.789,253.857a6.866,6.866,0,0,1-1.072.127,3.712,3.712,0,0,1,1.8-3.272c.63-.351.737-1.34.846-2.39.144-1.383.307-2.95,1.748-3.659,1.627-.8,2.211-2.993,2.37-3.75a10.207,10.207,0,0,1,.409,2.147,5.189,5.189,0,0,1-2.311,2.559c-.914.451-1.035,1.6-1.159,2.812-.135,1.275-.267,2.59-1.389,3.209a2.63,2.63,0,0,0-1.24,2.217" transform="translate(-105.807 -128.274)" fill="#2c6e55"/>
            <path id="Trazado_1261896" data-name="Trazado 1261896" d="M140.277,232.1a6.76,6.76,0,0,1-.628.878,8.08,8.08,0,0,1-1.655,1.49,7.738,7.738,0,0,1-.719.463c-.074.043-.149.085-.217.117a6.446,6.446,0,0,1-2.932.888,4.787,4.787,0,0,1-1.527-.2c-4.9-1.479-6.721-10.8-4.055-15.079a4.737,4.737,0,0,1,.654-.851,4.066,4.066,0,0,1,1.65-1.069,2.914,2.914,0,0,1,.526-.128,3.889,3.889,0,0,1,1.086-.037,6.4,6.4,0,0,1,2.081.6,10.228,10.228,0,0,1,1.862,1.144c3.49,2.655,6.236,7.795,3.874,11.78" transform="translate(-67.79 -116.369)" fill="#519e78"/>
            <g id="Grupo_1204435" data-name="Grupo 1204435" transform="translate(60.683 103.636)" opacity="0.2">
              <g id="Grupo_1204434" data-name="Grupo 1204434">
                <g id="Grupo_1204433" data-name="Grupo 1204433" clip-path="url(#clip-path-11)">
                  <path id="Trazado_1261897" data-name="Trazado 1261897" d="M140.585,232.942a5.643,5.643,0,0,1-.523.731,6.752,6.752,0,0,1-1.378,1.241,6.646,6.646,0,0,1-.6.385c-.062.036-.124.071-.182.1a5.362,5.362,0,0,1-2.442.74,4,4,0,0,1-1.272-.164c-4.082-1.232-5.6-9-3.378-12.561a3.991,3.991,0,0,1,.546-.709,3.381,3.381,0,0,1,1.374-.891,2.446,2.446,0,0,1,.439-.107,3.219,3.219,0,0,1,.9-.031,5.344,5.344,0,0,1,1.733.5,8.489,8.489,0,0,1,1.551.953c2.908,2.212,5.195,6.493,3.227,9.813" transform="translate(-129.789 -221.658)" fill="#fff"/>
                </g>
              </g>
            </g>
            <path id="Trazado_1261898" data-name="Trazado 1261898" d="M135.525,237.367a4.8,4.8,0,0,1-1.527-.2c-.756-1.037-1.533-2.538-1.091-3.932.575-1.825-1.064-3.842-1.639-4.2a1.871,1.871,0,0,1-.735-1.229,4.984,4.984,0,0,1,.633-3.549c.378-.585-.468-1.543-1.224-2.165a4.743,4.743,0,0,1,.655-.851c.894.734,2.352,2.218,1.463,3.592a3.952,3.952,0,0,0-.49,2.745.994.994,0,0,0,.261.559c.872.548,2.841,3.043,2.086,5.422-.4,1.272.82,2.953,1.607,3.81" transform="translate(-69.188 -117.799)" fill="#2c6e55"/>
            <path id="Trazado_1261899" data-name="Trazado 1261899" d="M142.6,234.468a7.953,7.953,0,0,1-.718.463c-.075.043-.149.085-.218.117a4.994,4.994,0,0,1-1.676-4.017c.085-.888-.639-1.724-1.4-2.6-1.07-1.234-2.288-2.639-1.415-4.507.564-1.213.09-2.049-.463-3.017a3.867,3.867,0,0,1-.723-2.293,3.886,3.886,0,0,1,1.085-.037c-.122.537.144,1.053.564,1.8a3.954,3.954,0,0,1,.5,3.991c-.537,1.16.117,2.043,1.256,3.357.883,1.016,1.793,2.065,1.66,3.411a4.132,4.132,0,0,0,1.554,3.331" transform="translate(-72.396 -116.369)" fill="#2c6e55"/>
            <path id="Trazado_1261900" data-name="Trazado 1261900" d="M148.5,232.809a6.759,6.759,0,0,1-.628.878,3.711,3.711,0,0,1-1.207-3.533c.164-.7-.5-1.447-1.2-2.235-.925-1.037-1.974-2.213-1.527-3.756.506-1.74-.723-3.65-1.176-4.278a10.228,10.228,0,0,1,1.862,1.144,5.19,5.19,0,0,1,.336,3.432c-.282.979.483,1.841,1.3,2.751.851.958,1.735,1.942,1.437,3.187a2.631,2.631,0,0,0,.8,2.41" transform="translate(-76.017 -117.078)" fill="#2c6e55"/>
            <path id="Trazado_1261901" data-name="Trazado 1261901" d="M149.669,243.055a6.865,6.865,0,0,1-.929-.548,8.092,8.092,0,0,1-1.629-1.518,7.769,7.769,0,0,1-.524-.675c-.049-.07-.1-.141-.136-.207a6.445,6.445,0,0,1-1.143-2.843,4.8,4.8,0,0,1,.062-1.539c1.044-5.011,10.17-7.642,14.666-5.362a4.741,4.741,0,0,1,.906.577,4.069,4.069,0,0,1,1.21,1.549,2.925,2.925,0,0,1,.173.514,3.887,3.887,0,0,1,.132,1.078,6.411,6.411,0,0,1-.417,2.125,10.214,10.214,0,0,1-.976,1.955c-2.339,3.71-7.218,6.9-11.4,4.892" transform="translate(-77.351 -122.216)" fill="#519e78"/>
            <g id="Grupo_1204438" data-name="Grupo 1204438" transform="translate(69.375 108.502)" opacity="0.2">
              <g id="Grupo_1204437" data-name="Grupo 1204437">
                <g id="Grupo_1204436" data-name="Grupo 1204436" clip-path="url(#clip-path-12)">
                  <path id="Trazado_1261902" data-name="Trazado 1261902" d="M152.043,243.326a5.714,5.714,0,0,1-.774-.457,6.735,6.735,0,0,1-1.357-1.264,6.56,6.56,0,0,1-.437-.562c-.041-.058-.081-.117-.113-.173a5.362,5.362,0,0,1-.951-2.368,3.988,3.988,0,0,1,.051-1.282c.87-4.175,8.472-6.366,12.217-4.466a3.972,3.972,0,0,1,.755.481,3.386,3.386,0,0,1,1.008,1.291,2.472,2.472,0,0,1,.144.427,3.237,3.237,0,0,1,.11.9,5.341,5.341,0,0,1-.346,1.77,8.5,8.5,0,0,1-.814,1.629c-1.948,3.09-6.012,5.745-9.492,4.076" transform="translate(-148.381 -232.064)" fill="#fff"/>
                </g>
              </g>
            </g>
            <path id="Trazado_1261903" data-name="Trazado 1261903" d="M145.307,238.209a4.8,4.8,0,0,1,.062-1.539c.967-.843,2.394-1.749,3.821-1.432,1.868.412,3.733-1.4,4.043-2a1.871,1.871,0,0,1,1.16-.839,4.983,4.983,0,0,1,3.591.319c.616.325,1.5-.6,2.05-1.409a4.743,4.743,0,0,1,.906.577c-.653.955-2,2.537-3.45,1.772a3.953,3.953,0,0,0-2.778-.246.989.989,0,0,0-.533.309c-.469.917-2.782,3.1-5.218,2.553-1.3-.286-2.87,1.075-3.654,1.935" transform="translate(-77.351 -123.16)" fill="#2c6e55"/>
            <path id="Trazado_1261904" data-name="Trazado 1261904" d="M148.451,244.939a7.86,7.86,0,0,1-.524-.675c-.049-.07-.1-.141-.136-.207a4.991,4.991,0,0,1,3.854-2.022c.893.007,1.661-.787,2.469-1.628,1.136-1.174,2.428-2.511,4.365-1.805,1.258.455,2.048-.089,2.965-.726a3.86,3.86,0,0,1,2.221-.922,3.887,3.887,0,0,1,.132,1.078c-.546-.075-1.037.236-1.747.72a3.954,3.954,0,0,1-3.932.848c-1.2-.433-2.025.3-3.234,1.545-.935.969-1.9,1.967-3.252,1.953a4.132,4.132,0,0,0-3.182,1.84" transform="translate(-78.692 -126.166)" fill="#2c6e55"/>
            <path id="Trazado_1261905" data-name="Trazado 1261905" d="M153.616,250.654a6.866,6.866,0,0,1-.929-.548,3.71,3.71,0,0,1,3.413-1.513c.714.1,1.4-.62,2.121-1.389.952-1.013,2.032-2.161,3.608-1.851,1.778.351,3.573-1.041,4.158-1.547a10.214,10.214,0,0,1-.976,1.955,5.19,5.19,0,0,1-3.389.635c-1-.2-1.791.644-2.626,1.535-.879.932-1.783,1.9-3.049,1.711a2.632,2.632,0,0,0-2.331,1.012" transform="translate(-81.299 -129.815)" fill="#2c6e55"/>
            <rect id="Rectángulo_411727" data-name="Rectángulo 411727" width="39.757" height="14.578" transform="translate(60.445 115.597)" fill="#a86c1c"/>
            <g id="Grupo_1204441" data-name="Grupo 1204441" transform="translate(64.065 115.597)" opacity="0.1">
              <g id="Grupo_1204440" data-name="Grupo 1204440">
                <g id="Grupo_1204439" data-name="Grupo 1204439" clip-path="url(#clip-path-13)">
                  <rect id="Rectángulo_411728" data-name="Rectángulo 411728" width="32.517" height="14.578" transform="translate(0)" fill="#fff"/>
                </g>
              </g>
            </g>
            <rect id="Rectángulo_411730" data-name="Rectángulo 411730" width="39.756" height="2.65" transform="translate(60.447 115.595)" fill="#685338"/>
            <path id="Trazado_1261906" data-name="Trazado 1261906" d="M135.739,274.181a3.746,3.746,0,1,1-3.746-3.746,3.746,3.746,0,0,1,3.746,3.746" transform="translate(-68.286 -143.993)" fill="#ffad55"/>
            <g id="Grupo_1204444" data-name="Grupo 1204444" transform="translate(60.261 127.581)" opacity="0.15">
              <g id="Grupo_1204443" data-name="Grupo 1204443">
                <g id="Grupo_1204442" data-name="Grupo 1204442" clip-path="url(#clip-path-14)">
                  <path id="Trazado_1261907" data-name="Trazado 1261907" d="M136.078,275.477a3.746,3.746,0,0,1-7.191,1.472,3.749,3.749,0,0,0,6.137-4.077,3.738,3.738,0,0,1,1.054,2.606" transform="translate(-128.887 -272.871)"/>
                </g>
              </g>
            </g>
            <path id="Trazado_1261908" data-name="Trazado 1261908" d="M133.634,265.745a3.788,3.788,0,0,1,1.132,2.533,5.351,5.351,0,0,1-.228,1.616c-.126.447-.433.3-.409-.081a3.453,3.453,0,0,0-.717-2.579c-.137-.19-.568-.364-.651-.561-.736-.558.276-1.614.874-.929" transform="translate(-70.551 -141.377)" fill="#685338"/>
            <path id="Trazado_1261909" data-name="Trazado 1261909" d="M204.757,274.539a3.745,3.745,0,1,1-2.654-4.584,3.745,3.745,0,0,1,2.654,4.584" transform="translate(-105.102 -143.67)" fill="#ec6a52"/>
            <g id="Grupo_1204447" data-name="Grupo 1204447" transform="translate(92.327 128.079)" opacity="0.15">
              <g id="Grupo_1204446" data-name="Grupo 1204446">
                <g id="Grupo_1204445" data-name="Grupo 1204445" clip-path="url(#clip-path-15)">
                  <path id="Trazado_1261910" data-name="Trazado 1261910" d="M204.8,276.725a3.746,3.746,0,0,1-7.327-.431,3.749,3.749,0,0,0,6.98-2.359,3.738,3.738,0,0,1,.347,2.789" transform="translate(-197.471 -273.936)"/>
                </g>
              </g>
            </g>
            <path id="Trazado_1261911" data-name="Trazado 1261911" d="M205.919,265.069a3.791,3.791,0,0,1,.441,2.739,5.373,5.373,0,0,1-.637,1.5c-.238.4-.5.183-.374-.183a3.452,3.452,0,0,0-.029-2.677c-.083-.219-.455-.5-.485-.71-.568-.728.683-1.489,1.084-.672" transform="translate(-108.988 -140.948)" fill="#685338"/>
            <path id="Trazado_1261912" data-name="Trazado 1261912" d="M187.942,264.538a3.746,3.746,0,1,1-4.723-2.4,3.746,3.746,0,0,1,4.723,2.4" transform="translate(-96.18 -139.477)" fill="#ffad55"/>
            <g id="Grupo_1204450" data-name="Grupo 1204450" transform="translate(85.383 122.91)" opacity="0.15">
              <g id="Grupo_1204449" data-name="Grupo 1204449">
                <g id="Grupo_1204448" data-name="Grupo 1204448" clip-path="url(#clip-path-16)">
                  <path id="Trazado_1261913" data-name="Trazado 1261913" d="M189,265.032a3.746,3.746,0,0,1-6.38,3.63,3.749,3.749,0,0,0,4.569-5.78,3.738,3.738,0,0,1,1.811,2.15" transform="translate(-182.617 -262.882)"/>
                </g>
              </g>
            </g>
            <path id="Trazado_1261914" data-name="Trazado 1261914" d="M182.419,258.437a3.789,3.789,0,0,1,1.862,2.056,5.354,5.354,0,0,1,.285,1.607c.019.464-.317.424-.414.05a3.453,3.453,0,0,0-1.482-2.229c-.189-.138-.653-.17-.793-.331-.873-.3-.238-1.621.543-1.154" transform="translate(-96.616 -137.552)" fill="#685338"/>
            <path id="Trazado_1261915" data-name="Trazado 1261915" d="M161.311,274.878a3.746,3.746,0,1,1-3.1-4.295,3.745,3.745,0,0,1,3.1,4.295" transform="translate(-81.927 -144.046)" fill="#ec6a52"/>
            <g id="Grupo_1204453" data-name="Grupo 1204453" transform="translate(72.049 128.09)" opacity="0.15">
              <g id="Grupo_1204452" data-name="Grupo 1204452">
                <g id="Grupo_1204451" data-name="Grupo 1204451" clip-path="url(#clip-path-17)">
                  <path id="Trazado_1261916" data-name="Trazado 1261916" d="M161.434,276.7a3.746,3.746,0,0,1-7.334.306,3.749,3.749,0,0,0,6.708-3.047,3.738,3.738,0,0,1,.626,2.74" transform="translate(-154.1 -273.961)"/>
                </g>
              </g>
            </g>
            <path id="Trazado_1261917" data-name="Trazado 1261917" d="M161.182,265.7a3.787,3.787,0,0,1,.713,2.681,5.347,5.347,0,0,1-.483,1.559c-.2.422-.476.232-.391-.145a3.45,3.45,0,0,0-.3-2.66c-.1-.209-.5-.45-.554-.657-.638-.668.53-1.549,1.011-.777" transform="translate(-85.184 -141.314)" fill="#685338"/>
            <path id="Trazado_1261918" data-name="Trazado 1261918" d="M169.185,273.561s-1.228-2.468.459-3.336a1.974,1.974,0,0,1,2.63.561s-.08-3.25,2.342-2.732a2.133,2.133,0,0,1,1.794,2.721s1.488-2.2,3.152-1.26.119,2.565.119,2.565,1.336-1.058,2.383-.267,0,1.749,0,1.749Z" transform="translate(-89.853 -142.695)" fill="#519e78"/>
            <path id="Trazado_1261919" data-name="Trazado 1261919" d="M140.629,275.882s-.682-2.806.6-2.982a1.605,1.605,0,0,1,1.732.886s-.258-1.526,1.11-1.8c1.886-.377,1.853,1.158,1.853,1.158a.822.822,0,0,1,1.427-.253c.984.837.123,1.481.123,1.481s.9-1.164,1.843-.586.248,2.1.248,2.1Z" transform="translate(-74.782 -144.788)" fill="#519e78"/>
            <rect id="Rectángulo_411735" data-name="Rectángulo 411735" width="49.341" height="7.948" transform="translate(55.194 130.183)" fill="#a86c1c"/>
            <g id="Grupo_1204456" data-name="Grupo 1204456" transform="translate(59.871 130.183)" opacity="0.1">
              <g id="Grupo_1204455" data-name="Grupo 1204455">
                <g id="Grupo_1204454" data-name="Grupo 1204454" clip-path="url(#clip-path-18)">
                  <rect id="Rectángulo_411736" data-name="Rectángulo 411736" width="39.987" height="7.948" transform="translate(0)" fill="#fff"/>
                </g>
              </g>
            </g>
            <rect id="Rectángulo_411738" data-name="Rectángulo 411738" width="49.339" height="2.65" transform="translate(55.196 130.18)" fill="#685338"/>
            <rect id="Rectángulo_411739" data-name="Rectángulo 411739" width="25.178" height="13.252" transform="translate(30.035 124.879)" fill="#a86c1c"/>
            <g id="Grupo_1204459" data-name="Grupo 1204459" transform="translate(36.141 124.879)" opacity="0.1">
              <g id="Grupo_1204458" data-name="Grupo 1204458">
                <g id="Grupo_1204457" data-name="Grupo 1204457" clip-path="url(#clip-path-19)">
                  <rect id="Rectángulo_411740" data-name="Rectángulo 411740" width="12.966" height="13.252" transform="translate(0)" fill="#fff"/>
                </g>
              </g>
            </g>
            <rect id="Rectángulo_411742" data-name="Rectángulo 411742" width="25.178" height="2.651" transform="translate(30.035 124.879)" fill="#685338"/>
            <path id="Trazado_1261920" data-name="Trazado 1261920" d="M68.545,255s-6.046-4.887-5.052-6.17,3.768,1.615,3.768,1.615-1.077-6.347.87-6.052,1.326,6.176,1.326,6.176.828-2.692,1.822-2.071-1.284,6.5-1.284,6.5Z" transform="translate(-33.748 -130.122)" fill="#519e78"/>
            <path id="Trazado_1261921" data-name="Trazado 1261921" d="M85.856,255.648s-4.224-9.525-1.657-10.022,2.4,5.881,2.4,5.881,1.491-4.017,2.4-3.355-.539,4.514-.539,4.514,1.449-1.615,2.485-.828-1.863,3.81-1.863,3.81Z" transform="translate(-44.391 -130.769)" fill="#519e78"/>
            <path id="Trazado_1261922" data-name="Trazado 1261922" d="M103.492,256.736s-5.135-7.786-2.94-8.945,3.4,4.845,3.4,4.845,1.036-2.567,2.112-1.864-1.036,5.964-1.036,5.964Z" transform="translate(-53.248 -131.857)" fill="#519e78"/>
            <path id="Trazado_1261923" data-name="Trazado 1261923" d="M290.233,236.81s-1.654-4.782-3.253-2.921c-1.822,2.12,3.253,2.921,3.253,2.921" transform="translate(-152.593 -124.305)" fill="#519e78"/>
            <path id="Trazado_1261924" data-name="Trazado 1261924" d="M297.094,228.227s5.025-.595,3.548-2.555c-1.682-2.233-3.548,2.555-3.548,2.555" transform="translate(-158.188 -119.843)" fill="#519e78"/>
            <path id="Trazado_1261925" data-name="Trazado 1261925" d="M286.584,256.425s5.025-.595,3.548-2.555c-1.682-2.233-3.548,2.555-3.548,2.555" transform="translate(-152.592 -134.857)" fill="#519e78"/>
            <path id="Trazado_1261926" data-name="Trazado 1261926" d="M294.507,218.884s-4.14-4.373-1.325-5.3c3.52-1.16,1.325,5.3,1.325,5.3" transform="translate(-155.583 -113.648)" fill="#519e78"/>
            <path id="Trazado_1261927" data-name="Trazado 1261927" d="M286.563,242.684a.532.532,0,0,1-.476-.294c-.028-.057-2.774-5.692,1.425-9.891,3.731-3.731,2.517-10.058,2.5-10.121a.532.532,0,1,1,1.044-.209c.057.282,1.334,6.953-2.8,11.082-3.662,3.662-1.25,8.613-1.225,8.662a.532.532,0,0,1-.476.77" transform="translate(-151.844 -118.066)" fill="#2c6e55"/>
            <path id="Trazado_1261928" data-name="Trazado 1261928" d="M298.35,248.483c.219-4.259,3.342-5.4,5.689-8.2a5.214,5.214,0,0,0,1.309-3.274c-.017-1.3,0-3.475.53-1.681a6.3,6.3,0,0,1-2.321,6.544c-1.859,1.433-3.389,2.946-3.96,5.319a13.1,13.1,0,0,1-.184,1.336.532.532,0,0,1-1.063-.045" transform="translate(-158.857 -124.938)" fill="#2c6e55"/>
            <path id="Trazado_1261929" data-name="Trazado 1261929" d="M312.034,233.238s1.473-4.841-.914-4.275c-2.72.644.914,4.275.914,4.275" transform="translate(-165.118 -121.887)" fill="#519e78"/>
            <path id="Trazado_1261930" data-name="Trazado 1261930" d="M301.529,248.964s-1.654-4.782-3.253-2.921c-1.822,2.12,3.253,2.921,3.253,2.921" transform="translate(-158.607 -130.777)" fill="#519e78"/>
            <path id="Trazado_1261931" data-name="Trazado 1261931" d="M311.366,245.263s4.61,2.086,4.358-.355c-.287-2.781-4.358.355-4.358.355" transform="translate(-165.788 -129.789)" fill="#519e78"/>
            <path id="Trazado_1261932" data-name="Trazado 1261932" d="M292.337,265.583a1.325,1.325,0,0,0-1.325-1.325H272.46a1.325,1.325,0,1,0,0,2.65h18.553a1.325,1.325,0,0,0,1.325-1.325" transform="translate(-144.366 -140.704)" fill="#ec6a52"/>
            <path id="Trazado_1261933" data-name="Trazado 1261933" d="M292.522,269.927s0,9.276-3.976,11.927h-10.6c-3.976-2.651-3.976-11.927-3.976-11.927Z" transform="translate(-145.875 -143.723)" fill="#685338"/>
            <g id="Grupo_1204462" data-name="Grupo 1204462" transform="translate(132.151 126.204)" opacity="0.1">
              <g id="Grupo_1204461" data-name="Grupo 1204461">
                <g id="Grupo_1204460" data-name="Grupo 1204460" clip-path="url(#clip-path-20)">
                  <path id="Trazado_1261934" data-name="Trazado 1261934" d="M293.085,269.927s0,9.276-2.237,11.927h-5.965c-2.237-2.651-2.237-11.927-2.237-11.927Z" transform="translate(-282.647 -269.927)" fill="#fff"/>
                </g>
              </g>
            </g>
            <path id="Trazado_1261935" data-name="Trazado 1261935" d="M53.495,107.564a26.747,26.747,0,1,1-51.87-9.141,27.082,27.082,0,0,1,1.964-4.2,26.744,26.744,0,0,1,49.906,13.339" transform="translate(0 -43.047)" fill="#519e78"/>
            <g id="Grupo_1204465" data-name="Grupo 1204465" transform="translate(1.625 43.88)" opacity="0.2">
              <g id="Grupo_1204464" data-name="Grupo 1204464">
                <g id="Grupo_1204463" data-name="Grupo 1204463" clip-path="url(#clip-path-21)">
                  <path id="Trazado_1261936" data-name="Trazado 1261936" d="M25.329,95.766a1.877,1.877,0,0,1-1.917,1.917H11.92a1.915,1.915,0,1,0,0,3.83h2.553a1.917,1.917,0,1,1,0,3.833h-11a27.057,27.057,0,0,1,1.964-4.2,26.6,26.6,0,0,1,6.181-7.3H23.412a1.877,1.877,0,0,1,1.917,1.917" transform="translate(-3.476 -93.849)" fill="#fff"/>
                </g>
              </g>
            </g>
            <g id="Grupo_1204468" data-name="Grupo 1204468" transform="translate(32.367 45.357)" opacity="0.2">
              <g id="Grupo_1204467" data-name="Grupo 1204467">
                <g id="Grupo_1204466" data-name="Grupo 1204466" clip-path="url(#clip-path-22)">
                  <path id="Trazado_1261937" data-name="Trazado 1261937" d="M90.354,116.169H80.718a1.915,1.915,0,0,1,0-3.829h2.557a1.917,1.917,0,0,0,0-3.834H71.138a1.915,1.915,0,0,1,0-3.829h9.58a1.917,1.917,0,1,0,0-3.834h-4.47a1.917,1.917,0,1,1,0-3.834h5.989a26.794,26.794,0,0,1,8.117,19.16" transform="translate(-69.226 -97.009)" fill="#fff"/>
                </g>
              </g>
            </g>
            <rect id="Rectángulo_411746" data-name="Rectángulo 411746" width="3.193" height="3.832" transform="translate(36.197 60.686)" fill="#d0482d"/>
            <path id="Trazado_1261938" data-name="Trazado 1261938" d="M58.9,125.912v7.664H28.246V123.359a26.126,26.126,0,0,1,1.982-9.58c1.108-2.628,2.511-4.47,3.764-4.47h5.751s3.829,0,5.106,3.193c.159.393.332.823.524,1.276,1.347,3.24,3.31,7.663,3.31,7.663h2.553c7.663,0,7.663,4.47,7.663,4.47" transform="translate(-15.04 -58.201)" fill="#ffad55"/>
            <g id="Grupo_1204471" data-name="Grupo 1204471" transform="translate(13.206 70.263)" opacity="0.2">
              <g id="Grupo_1204470" data-name="Grupo 1204470">
                <g id="Grupo_1204469" data-name="Grupo 1204469" clip-path="url(#clip-path-23)">
                  <path id="Trazado_1261939" data-name="Trazado 1261939" d="M28.246,155.389H58.9v-5.11H28.246Zm21.713-1.916H39.1v-1.912H49.959Z" transform="translate(-28.246 -150.279)"/>
                </g>
              </g>
            </g>
            <path id="Trazado_1261940" data-name="Trazado 1261940" d="M81.577,150.055v4.611H70.835a7.028,7.028,0,0,1,10.742-4.611" transform="translate(-37.716 -79.291)" fill="#d0482d"/>
            <g id="Grupo_1204474" data-name="Grupo 1204474" transform="translate(15.189 51.108)" opacity="0.2">
              <g id="Grupo_1204473" data-name="Grupo 1204473">
                <g id="Grupo_1204472" data-name="Grupo 1204472" clip-path="url(#clip-path-24)">
                  <path id="Trazado_1261941" data-name="Trazado 1261941" d="M47.63,113.779H32.486c1.108-2.628,2.511-4.47,3.764-4.47H42s3.829,0,5.106,3.193c.159.393.332.823.524,1.276" transform="translate(-32.486 -109.309)"/>
                </g>
              </g>
            </g>
            <path id="Trazado_1261942" data-name="Trazado 1261942" d="M37.54,123.149v12.685H33.706v-5.746c0-2.922,1.6-6.373,3.834-6.938" transform="translate(-17.947 -65.57)" fill="#685338"/>
            <path id="Trazado_1261943" data-name="Trazado 1261943" d="M56.946,131.268v4.47h-9.58V122.969h4.47c3.834,0,5.11,6.387,5.11,8.3" transform="translate(-25.22 -65.475)" fill="#685338"/>
            <path id="Trazado_1261944" data-name="Trazado 1261944" d="M78.361,114.95c1.157.88,1.809-.8,1.809-.8a1.977,1.977,0,0,0,2.289.516c1.437-.569.984-1.42.984-1.42a1.842,1.842,0,0,0,2.076.346,1.471,1.471,0,0,0,.718-1.73,1.968,1.968,0,0,0,2.714-.692c.931-1.517-.825-2.182-.825-2.182s.931-1.836-.559-2.874-2.023.985-2.023.985-.452-1.843-1.969-1.281a1.616,1.616,0,0,0-.851,2.186,1.431,1.431,0,0,0-2.049.027,1.456,1.456,0,0,0-.293,2s-1.25-.985-2.022.213a2.228,2.228,0,0,0,.319,2.475s-1.543,1.3-.319,2.235" transform="translate(-41.472 -56.287)" fill="#fff"/>
            <path id="Trazado_1261945" data-name="Trazado 1261945" d="M34.826,148.122H26.652l-8.6-8.6a9.9,9.9,0,0,1,16.77,8.6" transform="translate(-9.614 -72.747)" fill="#d0482d"/>
            <path id="Trazado_1261946" data-name="Trazado 1261946" d="M32.007,149.433a7.344,7.344,0,1,0-7.344,7.344,7.344,7.344,0,0,0,7.344-7.344" transform="translate(-9.222 -75.655)" fill="#685338"/>
            <path id="Trazado_1261947" data-name="Trazado 1261947" d="M32.54,153.8a3.512,3.512,0,1,0-3.512,3.512A3.512,3.512,0,0,0,32.54,153.8" transform="translate(-13.586 -80.019)" fill="#fff"/>
            <path id="Trazado_1261948" data-name="Trazado 1261948" d="M84.993,158.853a4.47,4.47,0,1,0-4.47,4.47,4.47,4.47,0,0,0,4.47-4.47" transform="translate(-40.494 -82.201)" fill="#685338"/>
            <path id="Trazado_1261949" data-name="Trazado 1261949" d="M85.392,162.126a1.6,1.6,0,1,0-1.6,1.6,1.6,1.6,0,0,0,1.6-1.6" transform="translate(-43.767 -85.474)" fill="#fff"/>
            <rect id="Rectángulo_411749" data-name="Rectángulo 411749" width="8.941" height="2.107" transform="translate(22.786 68.157)" fill="#d0482d"/>
            <path id="Trazado_1261950" data-name="Trazado 1261950" d="M54.287,173.509a26.76,26.76,0,0,1-41.981,0Z" transform="translate(-6.552 -92.385)" fill="#a86c1c"/>
            <path id="Trazado_1261951" data-name="Trazado 1261951" d="M331.077,118.884a26.555,26.555,0,0,1-5.494,7.785c-.309.309-.622.6-.949.893a26.921,26.921,0,0,1-4.428,3.193,26.747,26.747,0,1,1,10.87-11.871" transform="translate(-149.132 -43.048)" fill="#519e78"/>
            <path id="Trazado_1261952" data-name="Trazado 1261952" d="M300.355,110.662s-8.649.129-9.424,8.52a4.984,4.984,0,0,1,3.615-.387,4.514,4.514,0,0,0-2.324,4.131,4.125,4.125,0,0,1,3.421-1.1s-.839,3.615,1.162,5.293a8.8,8.8,0,0,1,3.163-2.388,5.5,5.5,0,0,0,2.453,5.035,5.579,5.579,0,0,1,2.13-3.163S307,128.8,307.2,131.123c0,0,2.126-2.195,2.193-4.2,0,0,3.1,2.259,3.1,3.809,0,0,2.062-3.227,1.419-5.035,0,0,3.487.13,4.455,2.969a8.154,8.154,0,0,0,.9-5.035s3.227,0,4.389,2.195c0,0,.065-4.454-1.743-6.132,0,0,2.324-.258,3.163,1.194,0,0-1.549-6.68-4.454-8.036,0,0,2.388-.387,3.486.581,0,0-2.656-5.274-9.682-3.808Z" transform="translate(-154.907 -58.235)" fill="#ffad55"/>
            <g id="Grupo_1204477" data-name="Grupo 1204477" transform="translate(141.575 54.041)" opacity="0.15">
              <g id="Grupo_1204476" data-name="Grupo 1204476">
                <g id="Grupo_1204475" data-name="Grupo 1204475" clip-path="url(#clip-path-25)">
                  <path id="Trazado_1261953" data-name="Trazado 1261953" d="M307.839,115.582s-4.518,1.162-5.035,4.2c0,0,.894-.841,2.964-.388a4.692,4.692,0,0,0,.263,4.164,6.107,6.107,0,0,1,2.582-1.775s-.9,2.259,0,3.486a9.55,9.55,0,0,1,3.679-3.421s2.453,1.162,3.1,3.1a3.946,3.946,0,0,0,.775-2.776s4.26,1.937,5.228,3.744a6.735,6.735,0,0,0,.71-3.615s2.388.968,3.163,2.13c0,0-.258-3.294-1.549-5.035a4.425,4.425,0,0,1,2.324,0,6.862,6.862,0,0,0-4.97-3.807Z" transform="translate(-302.804 -115.582)"/>
                </g>
              </g>
            </g>
            <path id="Trazado_1261954" data-name="Trazado 1261954" d="M322.738,99.592c0-2.5-2.023-7.231-4.518-7.231S313.7,97.1,313.7,99.592a4.518,4.518,0,1,0,9.036,0" transform="translate(-167.031 -49.177)" fill="#efe6d6"/>
            <path id="Trazado_1261955" data-name="Trazado 1261955" d="M320.851,109.185c0-2.5-2.023-7.231-4.518-7.231s-4.518,4.735-4.518,7.231a4.518,4.518,0,1,0,9.036,0" transform="translate(-166.027 -54.285)" fill="#f7f1e6"/>
            <path id="Trazado_1261956" data-name="Trazado 1261956" d="M335.585,109.694c0-2.5-2.023-7.231-4.518-7.231s-4.518,4.736-4.518,7.231a4.518,4.518,0,1,0,9.037,0" transform="translate(-173.871 -54.556)" fill="#fff"/>
            <path id="Trazado_1261957" data-name="Trazado 1261957" d="M346.352,124.726s-5.527-8.937,0-10.641,6.22,4.443,6.22,4.443,2.613-3.668,5.712-1.447,1.188,5.941,1.188,5.941,3.513-.775,4.6,3.771-2.221,5.734-2.221,5.734a4.533,4.533,0,0,1,3.255,4.806c-.052,4.078-6.457,4.027-6.457,4.027s.718-11.625-2.118-15.084a7.2,7.2,0,0,0-10.176-1.55" transform="translate(-183.108 -60.585)" fill="#ec6a52"/>
            <path id="Trazado_1261958" data-name="Trazado 1261958" d="M334.641,160.835s-6.164,7.985-2.631,10.343a3.908,3.908,0,0,0,4.553,0Z" transform="translate(-176.198 -85.636)" fill="#ec6a52"/>
            <path id="Trazado_1261959" data-name="Trazado 1261959" d="M333.832,146.059l-1.1,6.274-.341,1.936c-5-.584-6.976-6.148-7.168-6.719-.009-.033-.014-.047-.014-.047,2.581.206,8.626-1.445,8.626-1.445" transform="translate(-173.157 -77.769)" fill="#ec6a52"/>
            <g id="Grupo_1204480" data-name="Grupo 1204480" transform="translate(152.063 69.773)" opacity="0.2">
              <g id="Grupo_1204479" data-name="Grupo 1204479">
                <g id="Grupo_1204478" data-name="Grupo 1204478" clip-path="url(#clip-path-26)">
                  <path id="Trazado_1261960" data-name="Trazado 1261960" d="M332.745,154.021l-.341,1.936c-5-.584-6.976-6.149-7.167-6.719l.023-.009a12.2,12.2,0,0,0,7.485,4.792" transform="translate(-325.236 -149.229)"/>
                </g>
              </g>
            </g>
            <path id="Trazado_1261961" data-name="Trazado 1261961" d="M356.759,153.93c-.309.309-.622.6-.949.893a26.919,26.919,0,0,1-4.428,3.193,26.6,26.6,0,0,1-10.052,3.38,29.291,29.291,0,0,1-1.721-5.007,31.631,31.631,0,0,1-.907-9.734c.019-.327.042-.655.079-.991s.065-.664.112-1a28.823,28.823,0,0,1,.622-3.282,22.772,22.772,0,0,1,.809-2.609c.094-.262.2-.519.3-.762a12.484,12.484,0,0,1,2.039-3.366,8.033,8.033,0,0,1,1.3-1.22q.168-.126.337-.238a.075.075,0,0,0,.023-.019h0s.009,0,.014-.009c.075-.051.154-.1.229-.145a6.576,6.576,0,0,1,2.015-.809c.089-.019.182-.037.271-.051.07-.014.136-.024.206-.033.1-.019.2-.028.3-.037.075-.009.15-.014.224-.019a.865.865,0,0,1,.108,0c.112,0,.224-.009.332-.009a7.491,7.491,0,0,1,1.777.22c.187.046.369.1.542.158a7.115,7.115,0,0,1,1.889.93c2.674,1.9,5.288,4.577,4.222,14.026a20.536,20.536,0,0,0-.094,3.68,18.743,18.743,0,0,0,.4,2.866" transform="translate(-180.308 -70.309)" fill="#efe6d6"/>
            <g id="Grupo_1204483" data-name="Grupo 1204483" transform="translate(162.359 61.74)" opacity="0.15">
              <g id="Grupo_1204482" data-name="Grupo 1204482">
                <g id="Grupo_1204481" data-name="Grupo 1204481" clip-path="url(#clip-path-27)">
                  <path id="Trazado_1261962" data-name="Trazado 1261962" d="M361.348,153.93c-.309.309-.622.6-.949.893a20,20,0,0,1-.29-6.5,32.539,32.539,0,0,0,.22-5.063v-.043a16.266,16.266,0,0,0-.477-3.362,9.1,9.1,0,0,0-3.965-5.559,7.479,7.479,0,0,0-3.1-1.225,6.021,6.021,0,0,0-.664-.065,6.613,6.613,0,0,0-4.171,1.117,7.694,7.694,0,0,0-.692.524c.2-.234.411-.449.622-.649a7.318,7.318,0,0,1,.673-.571q.168-.126.337-.238a.075.075,0,0,0,.023-.019h0s.009,0,.014-.009c.075-.051.154-.1.229-.145a6.576,6.576,0,0,1,2.015-.809c.089-.019.182-.037.271-.051.07-.014.136-.024.206-.033.1-.019.2-.028.3-.037a1.808,1.808,0,0,1,.224-.014.438.438,0,0,1,.108-.009c.112,0,.224-.009.332-.009a7.491,7.491,0,0,1,1.777.22c.187.046.369.1.542.158a7.116,7.116,0,0,1,1.889.93c2.674,1.9,5.288,4.577,4.222,14.026a20.536,20.536,0,0,0-.094,3.68,18.746,18.746,0,0,0,.4,2.866" transform="translate(-347.256 -132.049)"/>
                </g>
              </g>
            </g>
            <path id="Trazado_1261963" data-name="Trazado 1261963" d="M354.287,148.731a1.989,1.989,0,1,0-1.989,1.988,1.989,1.989,0,0,0,1.989-1.988" transform="translate(-186.523 -78.133)" fill="#685338"/>
            <path id="Trazado_1261964" data-name="Trazado 1261964" d="M354.138,149.163a.818.818,0,1,0-.818.818.818.818,0,0,0,.818-.818" transform="translate(-187.691 -78.986)" fill="#fff"/>
            <path id="Trazado_1261965" data-name="Trazado 1261965" d="M140.054,350.164A26.743,26.743,0,1,0,166.8,323.421a26.743,26.743,0,0,0-26.743,26.743" transform="translate(-74.572 -172.206)" fill="#519e78"/>
            <g id="Grupo_1204486" data-name="Grupo 1204486" transform="translate(71.659 157.392)" opacity="0.1">
              <g id="Grupo_1204485" data-name="Grupo 1204485">
                <g id="Grupo_1204484" data-name="Grupo 1204484" clip-path="url(#clip-path-28)">
                  <path id="Trazado_1261966" data-name="Trazado 1261966" d="M153.265,357.2a20.566,20.566,0,1,0,20.566-20.566A20.566,20.566,0,0,0,153.265,357.2" transform="translate(-153.265 -336.632)" fill="#fff"/>
                </g>
              </g>
            </g>
            <path id="Trazado_1261967" data-name="Trazado 1261967" d="M195.745,327.911c-.987-.808-4.426,4.644-4.426,4.644s1.646-4.275-.158-4.335.286,1.838-2.128,6.212-4.184,5.754-2.866,6.6,2.439-2.843,5.478-4.062,5.338-2.044,5.341-3.27-4.474.378-4.474.378,4.691-4.968,3.232-6.162" transform="translate(-98.886 -174.553)" fill="#60ba8b"/>
            <path id="Trazado_1261968" data-name="Trazado 1261968" d="M152.428,364.883c.2-.471.415-.953.638-1.44v-.006c.384-.828.795-1.678,1.237-2.538.271-.537.548-1.079.837-1.614.26-.49.526-.972.79-1.449.286-.5.571-1,.862-1.5.4-.676.8-1.339,1.2-1.972.172-.274.343-.536.52-.791.319-.471.633-.895.957-1.293v-.006a12.954,12.954,0,0,1,2.678-2.6,7.236,7.236,0,0,1,1.043-.624,5.622,5.622,0,0,1,6.025.4c3.112,2.177,5.327,6.945-.106,12.366s-16.47,11.4-18.09,10.072c-.83-.681-.079-3.509,1.409-7.01" transform="translate(-80.227 -185.488)" fill="#ffad55"/>
            <g id="Grupo_1204489" data-name="Grupo 1204489" transform="translate(72.201 163.568)" opacity="0.15">
              <g id="Grupo_1204488" data-name="Grupo 1204488">
                <g id="Grupo_1204487" data-name="Grupo 1204487" clip-path="url(#clip-path-29)">
                  <path id="Trazado_1261969" data-name="Trazado 1261969" d="M175.214,350.467a7.279,7.279,0,0,1,1.043-.625c1.2,2.771,4.781,4.8,5.628,4.993a.6.6,0,1,1-.273,1.173,12.218,12.218,0,0,1-6.4-5.541" transform="translate(-165.494 -349.842)"/>
                  <path id="Trazado_1261970" data-name="Trazado 1261970" d="M167.438,358.036c.319-.471.633-.895.957-1.293.516,4.243,5.966,6.85,7.472,7.186a.6.6,0,1,1-.267,1.173c-1.613-.358-6.865-2.825-8.162-7.066" transform="translate(-161.354 -353.516)"/>
                  <path id="Trazado_1261971" data-name="Trazado 1261971" d="M161.918,366.916c.286-.5.571-1,.862-1.5a4.105,4.105,0,0,0,2.558,3.438.6.6,0,1,1-.326,1.161,5.076,5.076,0,0,1-3.094-3.1" transform="translate(-158.415 -358.136)"/>
                  <path id="Trazado_1261972" data-name="Trazado 1261972" d="M158.437,373.333c.271-.537.548-1.079.837-1.614.615,4.162,4.906,5.8,6,5.853a.6.6,0,0,1-.052,1.207,8.858,8.858,0,0,1-6.783-5.446" transform="translate(-156.561 -361.49)"/>
                  <path id="Trazado_1261973" data-name="Trazado 1261973" d="M154.425,382.052c.2-.471.415-.953.638-1.44a6.719,6.719,0,0,0,3.69,3.694.6.6,0,0,1-.519,1.088,8.132,8.132,0,0,1-3.809-3.342" transform="translate(-154.425 -366.225)"/>
                </g>
              </g>
            </g>
            <path id="Trazado_1261974" data-name="Trazado 1261974" d="M173.889,390.169c-2.139,2.706-1.983,7.057,1.215,8.685a24.977,24.977,0,0,1,8.025,5.79c2.031,2.411,7.884,5.871,12.911.632s5.11-12.621-1.341-15.56c-3.354-1.528-6.757,1.626-10.63.179s-7.788-2.752-10.18.274" transform="translate(-91.827 -206.768)" fill="#a86c1c"/>
            <path id="Trazado_1261975" data-name="Trazado 1261975" d="M203.286,414.225c1.125-.121.864,2.062,1.74,2.1s2.074.024,1.666,1.148a2.531,2.531,0,0,1-4.381.655c-1.836-2.119-1.354-3.65.974-3.9" transform="translate(-107.124 -220.552)" fill="#685338"/>
            <path id="Trazado_1261976" data-name="Trazado 1261976" d="M183.675,393.147c-.493.594-2.186,1.137-1.111,1.9s3.313.1,3.313-1.427-1.4-1.437-2.2-.472" transform="translate(-97.02 -208.956)" fill="#685338"/>
            <path id="Trazado_1261977" data-name="Trazado 1261977" d="M215.274,397.111c-.757.928,1.979,4.233,3.487,2.522s-1.982-4.367-3.487-2.522" transform="translate(-114.554 -211.109)" fill="#685338"/>
            <path id="Trazado_1261978" data-name="Trazado 1261978" d="M217.554,418.46a.592.592,0,1,0-.833.085.592.592,0,0,0,.833-.085" transform="translate(-115.277 -222.295)" fill="#685338"/>
            <path id="Trazado_1261979" data-name="Trazado 1261979" d="M223.135,358.151c-.921,3.489-2.42,4.837-6.022,5.6-.969.208-2.1.37-3.409.52a13.05,13.05,0,0,1-1.822.08c-2.739-.045-7.664-.85-8.249-5.948-.817-7.113,7.248-6.095,6.248-11.484a3.276,3.276,0,0,1,2.044,1.849l0-.016a6.009,6.009,0,0,1,1.828-2.277,4.305,4.305,0,0,0,.671,1.872s.612-1.681,1.565-2.129c0,0,.146,3.006,2.607,4s5.708,3.507,4.536,7.937" transform="translate(-108.394 -184.344)" fill="#fff"/>
            <path id="Trazado_1261980" data-name="Trazado 1261980" d="M222.017,364.042c-.97.208-2.1.37-3.409.52a13.06,13.06,0,0,1-1.822.08s-4.294-2.461-3.985-7.4,3.809-5.41,4.027-8.184l0-.017a6.012,6.012,0,0,1,1.828-2.277,4.3,4.3,0,0,0,.671,1.872c.235,1.67,2.549,2.93,4.274,7.43a7.983,7.983,0,0,1-1.587,7.974" transform="translate(-113.297 -184.636)" fill="#efe6d6"/>
            <path id="Trazado_1261981" data-name="Trazado 1261981" d="M193.539,26.743a26.741,26.741,0,0,1-53.431,1.674c-.033-.556-.051-1.112-.051-1.674a26.746,26.746,0,0,1,52.8-6.045,27.065,27.065,0,0,1,.683,6.045" transform="translate(-74.573 0.001)" fill="#ffad55"/>
            <g id="Grupo_1204492" data-name="Grupo 1204492" transform="translate(65.483 9.258)" opacity="0.2">
              <g id="Grupo_1204491" data-name="Grupo 1204491">
                <g id="Grupo_1204490" data-name="Grupo 1204490" clip-path="url(#clip-path-30)">
                  <path id="Trazado_1261982" data-name="Trazado 1261982" d="M166.426,29.379a1.874,1.874,0,0,1-1.912,1.917h-9.58a1.915,1.915,0,1,0,0,3.829h4.47a1.917,1.917,0,0,1,0,3.834h-19.3c-.033-.556-.051-1.112-.051-1.674A26.648,26.648,0,0,1,146.564,19.8h8.369a1.917,1.917,0,1,1,0,3.834h-2.557a1.915,1.915,0,0,0,0,3.829h12.138a1.874,1.874,0,0,1,1.912,1.917" transform="translate(-140.056 -19.799)" fill="#fff"/>
                </g>
              </g>
            </g>
            <g id="Grupo_1204495" data-name="Grupo 1204495" transform="translate(87.593 1.539)" opacity="0.2">
              <g id="Grupo_1204494" data-name="Grupo 1204494">
                <g id="Grupo_1204493" data-name="Grupo 1204493" clip-path="url(#clip-path-31)">
                  <path id="Trazado_1261983" data-name="Trazado 1261983" d="M218.036,22.45h-19.2a1.917,1.917,0,0,1,0-3.834H201.4a1.915,1.915,0,0,0,0-3.829H189.258a1.917,1.917,0,0,1,0-3.833h9.58a1.917,1.917,0,0,0,0-3.834h-4.47a1.876,1.876,0,0,1-1.917-1.912,1.877,1.877,0,0,1,1.917-1.917h6.564a26.8,26.8,0,0,1,17.1,19.161" transform="translate(-187.346 -3.289)" fill="#fff"/>
                </g>
              </g>
            </g>
            <path id="Trazado_1261984" data-name="Trazado 1261984" d="M218.105,41.9s1.413-3.442,3.777-4.671,4.294-5.195,4.294-5.195,0,5.189-3.886,6.738-4.185,3.127-4.185,3.127" transform="translate(-116.13 -17.056)" fill="#519e78"/>
            <path id="Trazado_1261985" data-name="Trazado 1261985" d="M211.6,55.369a5.52,5.52,0,0,1-.89-5.461c1.114-3.37-.788-7.881-.788-7.881a8.683,8.683,0,0,1-.87,4.484c-1.087,1.739-1.346,7.009,2.548,8.858" transform="translate(-110.94 -22.377)" fill="#519e78"/>
            <path id="Trazado_1261986" data-name="Trazado 1261986" d="M216.191,60.918a6.659,6.659,0,0,1,3.126-3.595c2.271-1.044,2.673-4.636,2.673-4.636a10.17,10.17,0,0,1-3.5,2.838c-1.927.787-2.3,5.393-2.3,5.393" transform="translate(-115.111 -28.053)" fill="#519e78"/>
            <path id="Trazado_1261987" data-name="Trazado 1261987" d="M212.79,23.778s-.4,3.074,1.149,4.705a13.387,13.387,0,0,1,2.369,4.9s.125-4.125-1.279-5.746a14.561,14.561,0,0,1-2.239-3.86" transform="translate(-113.276 -12.66)" fill="#519e78"/>
            <path id="Trazado_1261988" data-name="Trazado 1261988" d="M221.246,25.595s.107-7.148,3.531-8.969a10.992,10.992,0,0,1-3.531,8.969" transform="translate(-117.803 -8.852)" fill="#519e78"/>
            <path id="Trazado_1261989" data-name="Trazado 1261989" d="M214.933,46.929c-4.478-5.407-.039-11.4,1.1-17.127a16.844,16.844,0,0,0-.225-7.894,12.257,12.257,0,0,0-1.178-2.642c-.427-.749-.1-1.016.392-.243,3.333,5.247,2.319,11.468.672,17.133-.788,2.707-1.624,5.228.043,7.823.268.418.78.788,1.008,1.206,1.306,1.162-.685,3.083-1.808,1.743" transform="translate(-113.398 -9.881)" fill="#2c6e55"/>
            <path id="Trazado_1261990" data-name="Trazado 1261990" d="M193.649,71.089a26.749,26.749,0,0,1-51.893,0h12.189s0,5.293,5.293,5.293,5.293-5.293,5.293-5.293h7.4s0,5.293,5.293,5.293,5.293-5.293,5.293-5.293Z" transform="translate(-75.478 -37.851)" fill="#a86c1c"/>
            <path id="Trazado_1261991" data-name="Trazado 1261991" d="M178.705,66.27c0,2.338-1.421,4.231-3.175,4.231a2.466,2.466,0,0,1-.865-.159,4.229,4.229,0,0,1-2.31-4.072,4.439,4.439,0,0,1,1.926-3.89,2.449,2.449,0,0,1,1.248-.346c1.753,0,3.175,1.9,3.175,4.236" transform="translate(-91.771 -33.03)" fill="#519e78"/>
            <path id="Trazado_1261992" data-name="Trazado 1261992" d="M180.9,66.27c0,2.338-1.421,4.231-3.175,4.231a2.466,2.466,0,0,1-.865-.159A3.947,3.947,0,0,1,178,66.8c1.515-1.421-.79-3.75-1.524-4.418a2.449,2.449,0,0,1,1.248-.346c1.753,0,3.175,1.9,3.175,4.236" transform="translate(-93.965 -33.03)" fill="#2c6e55"/>
            <path id="Trazado_1261993" data-name="Trazado 1261993" d="M200.552,94.44a26.737,26.737,0,0,1-32.986,4.147,5.682,5.682,0,0,1,3-1.188c1.842-.187,3.5.276,5.339.276,4.32,0,6.532-5.522,11.128-4.325,1.566.369,1.566,1.286,3.039.645,1.192-.552,2.024-1.473,3.31-1.749a6.967,6.967,0,0,1,7.168,2.193" transform="translate(-89.221 -48.985)" fill="#685338"/>
            <path id="Trazado_1261994" data-name="Trazado 1261994" d="M162.338,85.22c-.906.662.238,2.98,1.669,2.7s2.622-2.583,1.59-2.861-1.311,1.391-1.669.954-.556-1.55-1.589-.795" transform="translate(-86.265 -45.239)" fill="#685338"/>
            <path id="Trazado_1261995" data-name="Trazado 1261995" d="M230.918,83.105c.448.64,4.459-.617,3.3-2.075s-4.08.953-3.3,2.075" transform="translate(-122.883 -42.902)" fill="#685338"/>
            <path id="Trazado_1261996" data-name="Trazado 1261996" d="M194.3,85.873c.749.634,2.356-1.967,1.57-2.526s-3.028,1.292-1.57,2.526" transform="translate(-103.197 -44.323)" fill="#685338"/>
            <path id="Trazado_1261997" data-name="Trazado 1261997" d="M192.858,80.757c1.21-.062.425-1.907-.3-1.738s-.8,1.794.3,1.738" transform="translate(-102.241 -42.067)" fill="#685338"/>
            <path id="Trazado_1261998" data-name="Trazado 1261998" d="M330,282.673a26.728,26.728,0,0,1-36.534,9.79,26.469,26.469,0,0,1-6.569-5.339,26.739,26.739,0,1,1,43.1-4.451" transform="translate(-149.134 -129.149)" fill="#ffad55"/>
            <path id="Trazado_1261999" data-name="Trazado 1261999" d="M322.1,268.963h-9.132c0,4.215-4.215,7.025-4.215,10.537v16.86c0,3.512,2.107,4.214,4.917,4.214h16.86c2.81,0,4.917-.7,4.917-4.214V279.5c0-3.512-4.215-6.322-4.215-10.537Z" transform="translate(-164.394 -143.209)" fill="#ec6a52"/>
            <g id="Grupo_1204498" data-name="Grupo 1204498" transform="translate(149.854 125.754)" opacity="0.1">
              <g id="Grupo_1204497" data-name="Grupo 1204497">
                <g id="Grupo_1204496" data-name="Grupo 1204496" clip-path="url(#clip-path-32)">
                  <path id="Trazado_1262000" data-name="Trazado 1262000" d="M328.358,268.963h-5.37c0,4.215-2.478,7.025-2.478,10.537v16.86c0,3.512,1.239,4.214,2.891,4.214h9.914c1.652,0,2.891-.7,2.891-4.214V279.5c0-3.512-2.478-6.322-2.478-10.537Z" transform="translate(-320.51 -268.963)" fill="#fff"/>
                </g>
              </g>
            </g>
            <path id="Trazado_1262001" data-name="Trazado 1262001" d="M316.164,265.763a1.4,1.4,0,1,1,0-2.81h18.264a1.4,1.4,0,0,1,0,2.81Z" transform="translate(-167.594 -140.009)" fill="#685338"/>
            <path id="Trazado_1262002" data-name="Trazado 1262002" d="M335.443,305.648s-3.512,1.4-13.347,1.4-13.347-1.4-13.347-1.4V293s3.512,1.4,13.347,1.4,13.347-1.4,13.347-1.4Z" transform="translate(-164.394 -156.01)" fill="#fff"/>
            <path id="Trazado_1262003" data-name="Trazado 1262003" d="M330.77,310.026c-4.919,0-7.023-4.217-4.919-6.326a3.109,3.109,0,0,1,2.964-1.1,13.223,13.223,0,0,0,1.954.4,13.223,13.223,0,0,0,1.954-.4,3.109,3.109,0,0,1,2.964,1.1c2.1,2.109,0,6.326-4.919,6.326" transform="translate(-173.068 -161.089)" fill="#ec6a52"/>
            <path id="Trazado_1262004" data-name="Trazado 1262004" d="M336.464,305.17c-.739.664-1.58-.528-1.58-.528,0,1.407-1.23,1.23-1.23,1.23s-1.23.178-1.23-1.23c0,0-.842,1.192-1.58.528-1.23-1.113.856-2.5.856-2.5v-.009a13.223,13.223,0,0,0,1.954.4,13.224,13.224,0,0,0,1.954-.4v.009s2.085,1.389.856,2.5" transform="translate(-175.952 -161.151)" fill="#519e78"/>
            <path id="Trazado_1262005" data-name="Trazado 1262005" d="M336.818,301.192c.074-1.051-.266-1.517.463-2.52.172-.214.578-.795.841-.856.6-.558,1.378.471.7.9-.177.361-1.029.678-1.314,1.073-.4.548-.036,1.5-.69,1.4" transform="translate(-179.331 -158.486)" fill="#685338"/>
            <g id="Grupo_1204501" data-name="Grupo 1204501" transform="translate(150.515 132.695)" opacity="0.2">
              <g id="Grupo_1204500" data-name="Grupo 1204500">
                <g id="Grupo_1204499" data-name="Grupo 1204499" clip-path="url(#clip-path-33)">
                  <path id="Trazado_1262006" data-name="Trazado 1262006" d="M324.736,285.215a1.407,1.407,0,1,0-1.406,1.406,1.407,1.407,0,0,0,1.406-1.406" transform="translate(-321.923 -283.809)" fill="#fff"/>
                </g>
              </g>
            </g>
            <g id="Grupo_1204504" data-name="Grupo 1204504" transform="translate(162.348 133.441)" opacity="0.2">
              <g id="Grupo_1204503" data-name="Grupo 1204503">
                <g id="Grupo_1204502" data-name="Grupo 1204502" clip-path="url(#clip-path-33)">
                  <path id="Trazado_1262007" data-name="Trazado 1262007" d="M350.045,286.813a1.407,1.407,0,1,0-1.406,1.406,1.407,1.407,0,0,0,1.406-1.406" transform="translate(-347.232 -285.407)" fill="#fff"/>
                </g>
              </g>
            </g>
            <g id="Grupo_1204507" data-name="Grupo 1204507" transform="translate(147.702 151.159)" opacity="0.2">
              <g id="Grupo_1204506" data-name="Grupo 1204506">
                <g id="Grupo_1204505" data-name="Grupo 1204505" clip-path="url(#clip-path-33)">
                  <path id="Trazado_1262008" data-name="Trazado 1262008" d="M318.72,324.707a1.407,1.407,0,1,0-1.406,1.406,1.407,1.407,0,0,0,1.406-1.406" transform="translate(-315.907 -323.301)" fill="#fff"/>
                </g>
              </g>
            </g>
            <g id="Grupo_1204510" data-name="Grupo 1204510" transform="translate(164.541 152.566)" opacity="0.2">
              <g id="Grupo_1204509" data-name="Grupo 1204509">
                <g id="Grupo_1204508" data-name="Grupo 1204508" clip-path="url(#clip-path-33)">
                  <path id="Trazado_1262009" data-name="Trazado 1262009" d="M354.736,327.715a1.407,1.407,0,1,0-1.406,1.406,1.407,1.407,0,0,0,1.406-1.406" transform="translate(-351.923 -326.309)" fill="#fff"/>
                </g>
              </g>
            </g>
            <g id="Grupo_1204513" data-name="Grupo 1204513" transform="translate(153.757 131.455)" opacity="0.3">
              <g id="Grupo_1204512" data-name="Grupo 1204512">
                <g id="Grupo_1204511" data-name="Grupo 1204511" clip-path="url(#clip-path-37)">
                  <path id="Trazado_1262010" data-name="Trazado 1262010" d="M330.1,281.777a.62.62,0,1,0-.62.62.62.62,0,0,0,.62-.62" transform="translate(-328.858 -281.157)" fill="#fff"/>
                </g>
              </g>
            </g>
            <g id="Grupo_1204516" data-name="Grupo 1204516" transform="translate(149.895 129.629)" opacity="0.3">
              <g id="Grupo_1204515" data-name="Grupo 1204515">
                <g id="Grupo_1204514" data-name="Grupo 1204514" clip-path="url(#clip-path-38)">
                  <path id="Trazado_1262011" data-name="Trazado 1262011" d="M321.837,277.871a.62.62,0,1,0-.62.62.62.62,0,0,0,.62-.62" transform="translate(-320.598 -277.251)" fill="#fff"/>
                </g>
              </g>
            </g>
            <g id="Grupo_1204519" data-name="Grupo 1204519" transform="translate(148.762 133.588)" opacity="0.3">
              <g id="Grupo_1204518" data-name="Grupo 1204518">
                <g id="Grupo_1204517" data-name="Grupo 1204517" clip-path="url(#clip-path-39)">
                  <path id="Trazado_1262012" data-name="Trazado 1262012" d="M319.2,286.233a.513.513,0,1,0-.513.513.513.513,0,0,0,.513-.513" transform="translate(-318.175 -285.72)" fill="#fff"/>
                </g>
              </g>
            </g>
            <g id="Grupo_1204522" data-name="Grupo 1204522" transform="translate(165.161 131.455)" opacity="0.3">
              <g id="Grupo_1204521" data-name="Grupo 1204521">
                <g id="Grupo_1204520" data-name="Grupo 1204520" clip-path="url(#clip-path-40)">
                  <path id="Trazado_1262013" data-name="Trazado 1262013" d="M354.49,281.777a.62.62,0,1,0-.62.62.62.62,0,0,0,.62-.62" transform="translate(-353.25 -281.157)" fill="#fff"/>
                </g>
              </g>
            </g>
            <g id="Grupo_1204525" data-name="Grupo 1204525" transform="translate(164.541 152.566)" opacity="0.3">
              <g id="Grupo_1204524" data-name="Grupo 1204524">
                <g id="Grupo_1204523" data-name="Grupo 1204523" clip-path="url(#clip-path-38)">
                  <path id="Trazado_1262014" data-name="Trazado 1262014" d="M353.164,326.928a.62.62,0,1,0-.62.62.62.62,0,0,0,.62-.62" transform="translate(-351.924 -326.309)" fill="#fff"/>
                </g>
              </g>
            </g>
            <path id="Trazado_1262015" data-name="Trazado 1262015" d="M371.448,305.9a26.759,26.759,0,0,1-5.713,6.906c-2.333-2.9-4.671-6.036-5.087-9.856a26.349,26.349,0,0,1,5.625.4c-3.306-1.945-7.448-5.12-8.336-11.647,3.016-1.1,7.228,1.309,9.94,2.511-.7-2.913-1.908-4.919-1.8-8.033,1.5-.065,5.872,1.767,8.8,3.516a26.588,26.588,0,0,1-3.427,16.2" transform="translate(-190.584 -152.379)" fill="#519e78"/>
            <path id="Trazado_1262016" data-name="Trazado 1262016" d="M302.724,256.337a13.5,13.5,0,0,1-10.66-1.1c6.223,7.326,4.5,12.619,4.5,12.619a17.3,17.3,0,0,1-10.524-6.663,24.557,24.557,0,0,1,1.809,10.525,10.706,10.706,0,0,1-7.261-3.535,26.767,26.767,0,0,1,16.093-21.091c7.392,4.647,6.045,9.248,6.045,9.248" transform="translate(-149.399 -131.563)" fill="#519e78"/>
            <path id="Trazado_1262017" data-name="Trazado 1262017" d="M309.065,341.48a26.788,26.788,0,0,1-14.419-8.35,14.349,14.349,0,0,1,5.382-4.171s1.318,2.01.533,6.611c.1-.295,1.847-4.989,8.294-6.443a11.628,11.628,0,0,1,.21,12.353" transform="translate(-156.885 -175.154)" fill="#519e78"/>
            <path id="Trazado_1262018" data-name="Trazado 1262018" d="M40.121,292.466a26.736,26.736,0,1,1,9.79-36.53,26.443,26.443,0,0,1,2.74,6.709,26.746,26.746,0,0,1-12.53,29.82" transform="translate(-0.003 -129.151)" fill="#ffad55"/>
            <path id="Trazado_1262019" data-name="Trazado 1262019" d="M40.775,293.22s-1.28,1.472-3.115,3.579c-4.043,4.646-10.8,12.348-12.529,14.081-2.523,2.523-4.539.5-4.539.5s-2.022-2.016.5-4.539c1.734-1.733,9.441-8.486,14.081-12.529,2.107-1.835,3.579-3.11,3.579-3.11l1.008,1.008Z" transform="translate(-10.556 -155.052)" fill="#d0482d"/>
            <path id="Trazado_1262020" data-name="Trazado 1262020" d="M58.255,293.22s-1.28,1.472-3.115,3.579a5.983,5.983,0,0,1-2.486-2.485c2.107-1.835,3.579-3.11,3.579-3.11l1.008,1.008Z" transform="translate(-28.036 -155.052)" fill="#519e78"/>
            <g id="Grupo_1204528" data-name="Grupo 1204528" transform="translate(9.644 137.239)" opacity="0.15">
              <g id="Grupo_1204527" data-name="Grupo 1204527">
                <g id="Grupo_1204526" data-name="Grupo 1204526" clip-path="url(#clip-path-42)">
                  <path id="Trazado_1262021" data-name="Trazado 1262021" d="M41.2,294.459s-1.281,1.473-3.119,3.577c-4.04,4.647-10.8,12.348-12.526,14.083-2.525,2.525-4.54.5-4.54.5a2.75,2.75,0,0,1-.393-.542c.762.425,2.258.842,4-.893s8.486-9.435,12.526-14.083c1.777-2.038,3.03-3.479,3.119-3.572Z" transform="translate(-20.626 -293.529)"/>
                </g>
              </g>
            </g>
            <path id="Trazado_1262022" data-name="Trazado 1262022" d="M57.866,276.862c6.483,6.483,11.829.612,13.667-3.111s2.269-7.095,1.754-7.31c-1.314-.549-1.858,2.729-2.912,4.839s-5.068,7.591-9.38,4.655c0,0,11.238-11.6,10.32-12.521s-12.521,10.32-12.521,10.32c-2.936-4.312,2.545-8.325,4.655-9.38s5.388-1.6,4.839-2.912c-.216-.515-3.587-.084-7.31,1.754s-9.594,7.184-3.111,13.667" transform="translate(-29.265 -139.097)" fill="#a86c1c"/>
            <path id="Trazado_1262023" data-name="Trazado 1262023" d="M60.094,315.339a26.674,26.674,0,0,1-22.578,1.945c1.721-2.169,1.735-5.765,3.825-7.729,2.852-2.515,6.536-.168,9.889-1.005,4.362-1.174,4.694-5.2,6.036-8.72,2.179-5.026,4.694-2.847,8.715-3.853,4.526-1.174,3.352-6.873,5.868-9.72a5.548,5.548,0,0,1,.776-.739,26.746,26.746,0,0,1-12.53,29.82" transform="translate(-19.975 -152.025)" fill="#a86c1c"/>
            <path id="Trazado_1262024" data-name="Trazado 1262024" d="M33.977,243.565a9.658,9.658,0,0,0-2.553,1.047c-1.842,1.337-2.01,2.847-2.847,4.858-2.179,4.862-4.862,3.689-8.715,5.868-3.857,2.347-4.026,7.2-5.7,10.894-2.179,4.358-4.862,5.194-9.052,7.041A9.209,9.209,0,0,0,.992,276.5a26.736,26.736,0,0,1,32.986-32.939" transform="translate(-0.003 -129.151)" fill="#a86c1c"/>
            <path id="Trazado_1262025" data-name="Trazado 1262025" d="M42.136,261.468c.749.634,2.356-1.966,1.57-2.526s-3.029,1.292-1.57,2.526" transform="translate(-22.179 -137.819)" fill="#685338"/>
            <path id="Trazado_1262026" data-name="Trazado 1262026" d="M95.069,314.871c.749.634,2.356-1.967,1.57-2.526s-3.029,1.292-1.57,2.526" transform="translate(-50.363 -166.254)" fill="#685338"/>
            <path id="Trazado_1262027" data-name="Trazado 1262027" d="M82.185,336.053c.751-.631-1.539-2.655-2.223-1.976s.759,3.2,2.223,1.976" transform="translate(-42.483 -177.807)" fill="#685338"/>
            <path id="Trazado_1262028" data-name="Trazado 1262028" d="M18.628,280.614c1.136.961,3.573-2.984,2.382-3.832s-4.595,1.96-2.382,3.832" transform="translate(-9.529 -147.29)" fill="#685338"/>
            <path id="Trazado_1262029" data-name="Trazado 1262029" d="M52.46,341.108c.059,1.487,4.614.617,4.434-.834s-4.55-2.061-4.434.834" transform="translate(-27.931 -180.533)" fill="#685338"/>
            <path id="Trazado_1262030" data-name="Trazado 1262030" d="M85.636,317.589c1.136.961,3.573-2.984,2.382-3.832s-4.594,1.959-2.382,3.832" transform="translate(-45.208 -166.978)" fill="#685338"/>
            <path id="Trazado_1262031" data-name="Trazado 1262031" d="M19.187,273.919c.633.536,1.991-1.663,1.327-2.135s-2.56,1.092-1.327,2.135" transform="translate(-10 -144.666)" fill="#685338"/>
          </g>
        </g>
      </g>
    </g>
  </g>
</svg>
