<svg xmlns="http://www.w3.org/2000/svg" width="76.345" height="76.344" viewBox="0 0 76.345 76.344">
  <g id="Grupo_1204323" data-name="Grupo 1204323" transform="translate(-342.051 -1909)">
    <g id="Grupo_1202985" data-name="Grupo 1202985" transform="translate(-679.916 -1183.655)">
      <g id="Grupo_1200255" data-name="Grupo 1200255">
        <g id="Grupo_1187152" data-name="Grupo 1187152">
          <g id="Grupo_1185946" data-name="Grupo 1185946" transform="translate(-3.07)">
            <g id="Grupo_1184280" data-name="Grupo 1184280">
              <g id="Grupo_1182168" data-name="Grupo 1182168">
                <g id="Grupo_1178877" data-name="Grupo 1178877">
                  <g id="Grupo_1111311" data-name="Grupo 1111311">
                    <g id="Grupo_1098742" data-name="Grupo 1098742" transform="translate(1025.482 3093.101)">
                      <rect id="Rect치ngulo_400898" data-name="Rect치ngulo 400898" width="76.345" height="76.345" rx="38.172" transform="translate(-0.445 -0.445)" fill="#ffc94a" opacity="0.859"/>
                      <rect id="Rect치ngulo_400907" data-name="Rect치ngulo 400907" width="76.345" height="76.345" rx="38.172" transform="translate(-0.446 -0.445)" fill="none"/>
                    </g>
                  </g>
                </g>
              </g>
            </g>
          </g>
        </g>
      </g>
    </g>
    <g id="Geographical_Indications" transform="translate(246.45 1842.6)">
      <g id="Grupo_1204322" data-name="Grupo 1204322" transform="translate(110.6 77.4)">
        <circle id="Elipse_12815" data-name="Elipse 12815" cx="1.091" cy="1.091" r="1.091" transform="translate(30.345 17.805)" fill="#fff"/>
        <g id="Grupo_1204321" data-name="Grupo 1204321" transform="translate(1.658 11.361)">
          <path id="Trazado_1261194" data-name="Trazado 1261194" d="M175.3,222.2a3.153,3.153,0,0,1,2.066,2.167h8.859v-8.539a30.6,30.6,0,0,1-9.034-1.527A27.944,27.944,0,0,0,175.3,222.2Z" transform="translate(-167.546 -205.746)" fill="#75b4e2"/>
          <path id="Trazado_1261195" data-name="Trazado 1261195" d="M201.35,373.252V364.8a29.512,29.512,0,0,0-8.35,1.382C195.022,370.2,197.99,372.874,201.35,373.252Z" transform="translate(-182.672 -334.353)" fill="#75b4e2"/>
          <path id="Trazado_1261196" data-name="Trazado 1261196" d="M332.4,183.162a2.755,2.755,0,0,1,1.237.815c.335-.175.655-.349.975-.524A18.062,18.062,0,0,0,333,182.1Z" transform="translate(-301.793 -178.231)" fill="#75b4e2"/>
          <path id="Trazado_1261197" data-name="Trazado 1261197" d="M193,162.57a28.922,28.922,0,0,0,8.35,1.382V155.5C197.99,155.878,195.007,158.54,193,162.57Z" transform="translate(-182.672 -155.5)" fill="#75b4e2"/>
          <path id="Trazado_1261198" data-name="Trazado 1261198" d="M175.3,296.967a27.7,27.7,0,0,0,1.891,7.9,30.6,30.6,0,0,1,9.034-1.527V294.8h-8.859A3.153,3.153,0,0,1,175.3,296.967Z" transform="translate(-167.546 -274.536)" fill="#75b4e2"/>
          <path id="Trazado_1261199" data-name="Trazado 1261199" d="M167.966,167.148a16.58,16.58,0,0,1,2.822-3.448,19.6,19.6,0,0,0-6.488,4.044,19.772,19.772,0,0,0,2.618,1.266C167.253,168.355,167.6,167.744,167.966,167.148Z" transform="translate(-158.147 -162.507)" fill="#75b4e2"/>
          <path id="Trazado_1261200" data-name="Trazado 1261200" d="M128.11,209.736a29.334,29.334,0,0,1,1.993-8.379,23.206,23.206,0,0,1-3.128-1.557A19.5,19.5,0,0,0,122,211.99h3.753A3.17,3.17,0,0,1,128.11,209.736Z" transform="translate(-122 -193.356)" fill="#75b4e2"/>
          <path id="Trazado_1261201" data-name="Trazado 1261201" d="M128.11,297.04a3.153,3.153,0,0,1-2.357-2.24H122a19.342,19.342,0,0,0,4.975,12.19,23.2,23.2,0,0,1,3.128-1.557A29.433,29.433,0,0,1,128.11,297.04Z" transform="translate(-122 -274.536)" fill="#75b4e2"/>
          <path id="Trazado_1261202" data-name="Trazado 1261202" d="M168.051,379.962c-.364-.6-.713-1.207-1.033-1.862a22.96,22.96,0,0,0-2.618,1.266,19.6,19.6,0,0,0,6.488,4.044A15.755,15.755,0,0,1,168.051,379.962Z" transform="translate(-158.232 -345.718)" fill="#75b4e2"/>
        </g>
        <path id="Trazado_1261203" data-name="Trazado 1261203" d="M158.4,280.4a1.5,1.5,0,1,0,1.5-1.5A1.5,1.5,0,0,0,158.4,280.4Z" transform="translate(-151.447 -249.587)" fill="#fff"/>
        <path id="Trazado_1261204" data-name="Trazado 1261204" d="M338.4,303.761a2.711,2.711,0,0,1,1.033,2.124,1.759,1.759,0,0,1-.015.276c.524.262,1.018.538,1.5.829a19.5,19.5,0,0,0,4.975-12.19h-5.979A30.668,30.668,0,0,1,338.4,303.761Z" transform="translate(-305.262 -263.175)" fill="#75b4e2"/>
        <path id="Trazado_1261205" data-name="Trazado 1261205" d="M268.35,365.716a29.638,29.638,0,0,0-6.75-.916v8.452c2.939-.335,5.572-2.415,7.55-5.615A2.718,2.718,0,0,1,268.35,365.716Z" transform="translate(-239.634 -322.992)" fill="#75b4e2"/>
        <path id="Trazado_1261206" data-name="Trazado 1261206" d="M271.07,303.25a.709.709,0,0,1,.175.015,29.092,29.092,0,0,0,1.4-8.365H261.6v8.539a31.3,31.3,0,0,1,7.23.989A2.757,2.757,0,0,1,271.07,303.25Z" transform="translate(-239.634 -263.26)" fill="#75b4e2"/>
        <path id="Trazado_1261207" data-name="Trazado 1261207" d="M306.448,384.246a2.842,2.842,0,0,1-.495-.044l-.131.218A16.583,16.583,0,0,1,303,387.868a19.388,19.388,0,0,0,6.473-4.044c-.32-.189-.64-.364-.975-.524A2.646,2.646,0,0,1,306.448,384.246Z" transform="translate(-275.012 -338.801)" fill="#75b4e2"/>
        <circle id="Elipse_12816" data-name="Elipse 12816" cx="1.091" cy="1.091" r="1.091" transform="translate(30.345 41.619)" fill="#fff"/>
        <path id="Trazado_1261208" data-name="Trazado 1261208" d="M339.5,200.529a1.759,1.759,0,0,1,.015.276,2.743,2.743,0,0,1-1.018,2.124,31.157,31.157,0,0,1,1.513,8.961h5.979a19.342,19.342,0,0,0-4.975-12.19C340.522,199.991,340.027,200.267,339.5,200.529Z" transform="translate(-305.347 -181.909)" fill="#75b4e2"/>
        <circle id="Elipse_12817" data-name="Elipse 12817" cx="1.091" cy="1.091" r="1.091" transform="translate(30.345 4.83)" fill="#fbc749"/>
        <path id="Trazado_1261209" data-name="Trazado 1261209" d="M304.235,164.949l-.538-.916c-.2-.087-.393-.16-.6-.233A10.614,10.614,0,0,1,304.235,164.949Z" transform="translate(-275.097 -151.231)" fill="#75b4e2"/>
        <path id="Trazado_1261210" data-name="Trazado 1261210" d="M271.345,219.164c-.058,0-.116.015-.175.015A2.717,2.717,0,0,1,268.93,218a31.413,31.413,0,0,1-7.23.989v8.539h11.041A30.125,30.125,0,0,0,271.345,219.164Z" transform="translate(-239.72 -197.547)" fill="#75b4e2"/>
        <path id="Trazado_1261211" data-name="Trazado 1261211" d="M301.662,101.487l3.637-6.313a4.312,4.312,0,0,0,.626-2.211,4.262,4.262,0,0,0-8.525,0,4.347,4.347,0,0,0,.611,2.2Zm0-11.245a2.735,2.735,0,1,1-2.735,2.735A2.741,2.741,0,0,1,301.662,90.242Z" transform="translate(-270.226 -87.056)" fill="#e85558"/>
        <path id="Trazado_1261212" data-name="Trazado 1261212" d="M269.15,161.015c-1.964-3.2-4.611-5.281-7.55-5.615v8.452a30.59,30.59,0,0,0,6.75-.916A2.718,2.718,0,0,1,269.15,161.015Z" transform="translate(-239.634 -144.053)" fill="#75b4e2"/>
        <path id="Trazado_1261213" data-name="Trazado 1261213" d="M144.291,91.205l2.793-4.859a5.91,5.91,0,1,0-10.125-.015l.96,1.658a21.167,21.167,0,1,0,6.372,3.215ZM124.9,89.954a16.887,16.887,0,0,0-2.822,3.448c-.364.6-.713,1.207-1.033,1.862A22.961,22.961,0,0,1,118.426,94,19.159,19.159,0,0,1,124.9,89.954Zm-7.666,5.237a23.2,23.2,0,0,0,3.128,1.557,28.97,28.97,0,0,0-1.993,8.379,3.153,3.153,0,0,0-2.357,2.24h-3.753A19.53,19.53,0,0,1,117.233,95.191Zm1.818,11.507a1.5,1.5,0,1,1-1.5,1.5A1.5,1.5,0,0,1,119.052,106.7Zm-6.779,2.328h3.753a3.131,3.131,0,0,0,2.357,2.24,29.451,29.451,0,0,0,1.993,8.379,23.2,23.2,0,0,0-3.128,1.557A19.271,19.271,0,0,1,112.273,109.025Zm6.153,13.4a19.774,19.774,0,0,1,2.618-1.266c.32.64.669,1.266,1.033,1.862a16.581,16.581,0,0,0,2.822,3.448A19.388,19.388,0,0,1,118.426,122.423Zm12.51,5.237c-3.36-.378-6.328-3.055-8.35-7.07a28.921,28.921,0,0,1,8.35-1.382Zm0-10.1a30.6,30.6,0,0,0-9.034,1.527,27.7,27.7,0,0,1-1.891-7.9,3.153,3.153,0,0,0,2.066-2.167h8.859Zm0-10.183h-8.859a3.153,3.153,0,0,0-2.066-2.168,27.7,27.7,0,0,1,1.891-7.9,30.6,30.6,0,0,0,9.034,1.527Zm0-10.168a29.424,29.424,0,0,1-8.35-1.382c2.022-4.015,4.99-6.692,8.35-7.07Zm14.14-3.229c-.32.189-.64.364-.975.524a2.641,2.641,0,0,0-1.236-.815l.611-1.062A20.169,20.169,0,0,1,145.076,93.984ZM143.127,96.3a1.091,1.091,0,1,1-1.091-1.091A1.1,1.1,0,0,1,143.127,96.3Zm-5.339-12.976a4.262,4.262,0,1,1,8.525,0,4.312,4.312,0,0,1-.626,2.211l-3.637,6.313L138.4,85.517a4.245,4.245,0,0,1-.611-2.2Zm1.949,7.8a14.34,14.34,0,0,0-1.135-1.164c.2.073.393.16.6.233Zm-7.172-2.357c2.938.335,5.571,2.415,7.55,5.615a2.718,2.718,0,0,0-.8,1.92,29.639,29.639,0,0,1-6.75.916Zm0,10.1a31.413,31.413,0,0,0,7.23-.989,2.717,2.717,0,0,0,2.24,1.178.708.708,0,0,0,.175-.015,29.6,29.6,0,0,1,1.4,8.365H132.566Zm0,10.168h11.041a29.007,29.007,0,0,1-1.4,8.365c-.058,0-.116-.015-.175-.015a2.741,2.741,0,0,0-2.24,1.164,31.412,31.412,0,0,0-7.23-.989Zm10.561,11.085a1.091,1.091,0,1,1-1.091-1.091A1.1,1.1,0,0,1,143.127,120.11Zm-10.561,7.55v-8.452a30.591,30.591,0,0,1,6.75.916,2.692,2.692,0,0,0,.8,1.92C138.152,125.245,135.5,127.325,132.566,127.66Zm6.037-1.193a16.887,16.887,0,0,0,2.822-3.448l.131-.218a2.745,2.745,0,0,0,2.56-.9c.335.175.655.349.975.524A19.6,19.6,0,0,1,138.6,126.467Zm7.652-5.251c-.48-.291-.989-.567-1.5-.829a1.761,1.761,0,0,0,.015-.276,2.711,2.711,0,0,0-1.033-2.124,31.157,31.157,0,0,0,1.513-8.961h5.979A19.342,19.342,0,0,1,146.255,121.215Zm-1-13.834a30.667,30.667,0,0,0-1.513-8.961,2.7,2.7,0,0,0,1.018-2.124,1.759,1.759,0,0,0-.015-.276c.524-.262,1.018-.538,1.513-.829a19.5,19.5,0,0,1,4.975,12.19Z" transform="translate(-110.6 -77.4)" fill="#17171d"/>
        <path id="Trazado_1261214" data-name="Trazado 1261214" d="M310.635,104.67a2.735,2.735,0,1,0-2.735-2.735A2.741,2.741,0,0,0,310.635,104.67Zm0-3.811a1.091,1.091,0,1,1-1.091,1.091A1.1,1.1,0,0,1,310.635,100.858Z" transform="translate(-279.199 -96.029)" fill="#17171d"/>
      </g>
    </g>
  </g>
</svg>
