<svg xmlns="http://www.w3.org/2000/svg" width="76.345" height="76.344" viewBox="0 0 76.345 76.344">
  <g id="Grupo_1204309" data-name="Grupo 1204309" transform="translate(-551.853 -1908.655)">
    <g id="Grupo_1202986" data-name="Grupo 1202986" transform="translate(-470.113 -1184)">
      <g id="Grupo_1200255" data-name="Grupo 1200255">
        <g id="Grupo_1187152" data-name="Grupo 1187152">
          <g id="Grupo_1185946" data-name="Grupo 1185946" transform="translate(-3.07)">
            <g id="Grupo_1184280" data-name="Grupo 1184280">
              <g id="Grupo_1182168" data-name="Grupo 1182168">
                <g id="Grupo_1178877" data-name="Grupo 1178877">
                  <g id="Grupo_1111311" data-name="Grupo 1111311">
                    <g id="Grupo_1098742" data-name="Grupo 1098742" transform="translate(1025.482 3093.101)">
                      <rect id="Rectángulo_400898" data-name="Rectángulo 400898" width="76.345" height="76.345" rx="38.172" transform="translate(-0.445 -0.445)" fill="#ffc94a" opacity="0.859"/>
                      <rect id="Rectángulo_400907" data-name="Rectángulo 400907" width="76.345" height="76.345" rx="38.172" transform="translate(-0.446 -0.445)" fill="none"/>
                    </g>
                  </g>
                </g>
              </g>
            </g>
          </g>
        </g>
      </g>
    </g>
    <g id="planta" transform="translate(546.209 1918.5)">
      <g id="Grupo_1204306" data-name="Grupo 1204306" transform="translate(24.613 13.575)">
        <path id="Trazado_1261141" data-name="Trazado 1261141" d="M74.062,135.576a3.2,3.2,0,0,0-3.2-3.2H68.728v12.55h5.334S74.062,135.576,74.062,135.576Z" transform="translate(-68.728 -132.376)" fill="#fea084"/>
        <path id="Trazado_1261142" data-name="Trazado 1261142" d="M391.253,135.576a3.2,3.2,0,0,1,3.2-3.2h2.134v12.55h-5.334v-9.349Z" transform="translate(-358.182 -132.376)" fill="#fea084"/>
      </g>
      <path id="Trazado_1261143" data-name="Trazado 1261143" d="M329.092,91.5v11.918h0a3.2,3.2,0,0,0-3.141.58l-6.362,5.3a3.194,3.194,0,0,0-1.165,2.47v11.737h8.534v-3.2a3.2,3.2,0,0,1,1.318-2.589l5.9-4.427a3.2,3.2,0,0,0,1.315-2.586V91.5a3.2,3.2,0,1,0-6.4,0Z" transform="translate(-268.207 -79.245)" fill="#ffd2ba"/>
      <g id="Grupo_1204307" data-name="Grupo 1204307" transform="translate(55.618 9.056)">
        <path id="Trazado_1261144" data-name="Trazado 1261144" d="M377.995,88.711a3.2,3.2,0,0,1,1.634,2.79V103.57a5.214,5.214,0,0,0-3.267-2.221v2.073a3.2,3.2,0,0,1,2.133,3.018h0a3.192,3.192,0,0,1-1.165,2.47l-5.082,4.2-.008.021a3.193,3.193,0,0,0-1.147,2.454v7.928h3.134v-3.2a3.2,3.2,0,0,1,1.319-2.589l5.9-4.427a3.2,3.2,0,0,0,1.315-2.586V91.5a3.2,3.2,0,0,0-4.767-2.79Z" transform="translate(-371.094 -88.301)" fill="#ffbc99"/>
        <path id="Trazado_1261145" data-name="Trazado 1261145" d="M392.173,252.526a.68.68,0,0,0,.963.1l.9-.74a1.667,1.667,0,0,0-.484-2.851l-.041-.015a1.668,1.668,0,0,0-1.614.309l-.013.011-.843.7a.68.68,0,0,0-.1.948Z" transform="translate(-388.772 -232.461)" fill="#ffbc99"/>
      </g>
      <rect id="Rectángulo_411662" data-name="Rectángulo 411662" width="12.802" height="4.27" transform="translate(48.084 43.194)" fill="#dcf3f4"/>
      <rect id="Rectángulo_411663" data-name="Rectángulo 411663" width="3.211" height="4.26" transform="translate(57.684 43.203)" fill="#b0cdcf"/>
      <rect id="Rectángulo_411664" data-name="Rectángulo 411664" width="17.068" height="5.334" transform="translate(45.95 46.394)" fill="#25739e"/>
      <rect id="Rectángulo_411665" data-name="Rectángulo 411665" width="3.2" height="5.334" transform="translate(59.818 46.394)" fill="#216486"/>
      <path id="Trazado_1261146" data-name="Trazado 1261146" d="M33.514,91.5v11.918h0a3.2,3.2,0,0,1,3.141.58l6.362,5.3a3.194,3.194,0,0,1,1.165,2.47v11.737H35.648v-3.2a3.2,3.2,0,0,0-1.318-2.589l-5.9-4.427a3.2,3.2,0,0,1-1.315-2.586V91.5a3.2,3.2,0,1,1,6.4,0Z" transform="translate(-6.767 -79.245)" fill="#ffd2ba"/>
      <g id="Grupo_1204308" data-name="Grupo 1204308" transform="translate(20.346 9.056)">
        <path id="Trazado_1261147" data-name="Trazado 1261147" d="M31.88,88.711a3.2,3.2,0,0,0-1.634,2.79V103.57a5.214,5.214,0,0,1,3.267-2.221v2.073a3.2,3.2,0,0,0-2.133,3.018h0a3.192,3.192,0,0,0,1.165,2.47l5.082,4.2.007.021a3.193,3.193,0,0,1,1.147,2.454v7.928H35.648v-3.2a3.2,3.2,0,0,0-1.319-2.589l-5.9-4.427a3.2,3.2,0,0,1-1.315-2.586V91.5a3.2,3.2,0,0,1,4.767-2.79Z" transform="translate(-27.113 -88.301)" fill="#ffbc99"/>
        <path id="Trazado_1261148" data-name="Trazado 1261148" d="M86.149,252.526a.68.68,0,0,1-.963.1l-.9-.74a1.667,1.667,0,0,1,.483-2.851l.041-.015a1.668,1.668,0,0,1,1.614.309l.013.011.843.7a.68.68,0,0,1,.1.948Z" transform="translate(-77.882 -232.461)" fill="#ffbc99"/>
      </g>
      <rect id="Rectángulo_411666" data-name="Rectángulo 411666" width="12.802" height="4.27" transform="translate(26.747 43.194)" fill="#dcf3f4"/>
      <rect id="Rectángulo_411667" data-name="Rectángulo 411667" width="3.211" height="4.26" transform="translate(26.737 43.203)" fill="#b0cdcf"/>
      <rect id="Rectángulo_411668" data-name="Rectángulo 411668" width="17.068" height="5.334" transform="translate(24.614 46.394)" fill="#25739e"/>
      <rect id="Rectángulo_411669" data-name="Rectángulo 411669" width="3.2" height="5.334" transform="translate(24.614 46.394)" fill="#216486"/>
      <path id="Trazado_1261149" data-name="Trazado 1261149" d="M212.869,5.07a9.854,9.854,0,0,0,0,17.069,9.854,9.854,0,0,0,0-17.069Z" transform="translate(-169.053 -4.549)" fill="#4fd255"/>
      <path id="Trazado_1261150" data-name="Trazado 1261150" d="M242,5.07a9.9,9.9,0,0,0-1.6,1.154,9.847,9.847,0,0,1,0,14.76,9.9,9.9,0,0,0,1.6,1.154A9.854,9.854,0,0,0,242,5.07Z" transform="translate(-198.18 -4.549)" fill="#2cb855"/>
      <path id="Trazado_1261151" data-name="Trazado 1261151" d="M289.549,162.748a4.927,4.927,0,0,0-6.827,5.121,4.927,4.927,0,0,0,6.827-5.121Z" transform="translate(-236.134 -145.703)" fill="#4fd255"/>
      <path id="Trazado_1261152" data-name="Trazado 1261152" d="M289.56,163.432a4.949,4.949,0,0,0-1.079-.318,4.917,4.917,0,0,1-5.752,4.314,4.948,4.948,0,0,0,0,1.125,4.927,4.927,0,0,0,6.827-5.121Z" transform="translate(-236.145 -146.387)" fill="#2cb855"/>
      <path id="Trazado_1261153" data-name="Trazado 1261153" d="M162.082,162.748a4.927,4.927,0,0,1,6.827,5.121,4.927,4.927,0,0,1-6.827-5.121Z" transform="translate(-127.865 -145.703)" fill="#4fd255"/>
      <path id="Trazado_1261154" data-name="Trazado 1261154" d="M162.082,163.432a4.949,4.949,0,0,1,1.079-.318,4.917,4.917,0,0,0,5.752,4.314,4.948,4.948,0,0,1,0,1.125,4.927,4.927,0,0,1-6.827-5.121Z" transform="translate(-127.865 -146.387)" fill="#2cb855"/>
      <path id="Trazado_1261155" data-name="Trazado 1261155" d="M288.184,80.765a3.978,3.978,0,0,0-3.973,3.973v.623a3.98,3.98,0,0,0-3.2,3.9v7.666l-6.022,5.018a3.962,3.962,0,0,0-1.446,3.066v9.9h-1.361a.773.773,0,0,0-.773.773V118.1h-1.361a.773.773,0,0,0-.773.773v5.334a.773.773,0,0,0,1.545,0v-4.562h15.523v4.562a.773.773,0,0,0,1.545,0v-5.334a.773.773,0,0,0-.773-.773h-1.361v-2.428a.773.773,0,0,0-.773-.773h-1.361v-1.361a2.438,2.438,0,0,1,1-1.964l.009-.006,5.894-4.421a3.989,3.989,0,0,0,1.632-3.21v-19.2A3.978,3.978,0,0,0,288.184,80.765Zm-3.973,6.192v8.756c-.1-.007-.2-.012-.294-.012a3.985,3.985,0,0,0-1.361.24V89.258A2.431,2.431,0,0,1,284.21,86.957Zm0,31.147H272.954v-1.655H284.21V118.1Zm6.4-14.163a2.443,2.443,0,0,1-1.006,1.968l-5.9,4.423a3.988,3.988,0,0,0-1.632,3.21V114.9h-6.989v-9.9a2.424,2.424,0,0,1,.887-1.876l6.3-5.248,0,0,.066-.055a2.428,2.428,0,1,1,3.117,3.723l-6.051,5a.773.773,0,0,0,.984,1.192l6.051-5a3.972,3.972,0,0,0-.688-6.585V84.738a2.428,2.428,0,1,1,4.855,0v19.2Z" transform="translate(-224.098 -72.482)"/>
      <path id="Trazado_1261156" data-name="Trazado 1261156" d="M313.8,476.118h-2.134a.773.773,0,0,0,0,1.545H313.8a.773.773,0,0,0,0-1.545Z" transform="translate(-261.446 -427.296)"/>
      <path id="Trazado_1261157" data-name="Trazado 1261157" d="M41.682,118.1H40.321v-2.428a.773.773,0,0,0-.773-.773H38.188v-9.9a3.961,3.961,0,0,0-1.443-3.063L30.72,96.925V89.259a3.979,3.979,0,0,0-3.2-3.9v-.623a3.973,3.973,0,0,0-7.946,0v19.2a3.985,3.985,0,0,0,1.624,3.2l5.9,4.426.009.006a2.438,2.438,0,0,1,1,1.964V114.9H26.747a.773.773,0,0,0-.773.773V118.1H24.613a.773.773,0,0,0-.773.773v5.334a.773.773,0,1,0,1.545,0V119.65h2.836a.773.773,0,0,0,0-1.545h-.7V116.45H38.776V118.1h-7.1a.773.773,0,0,0,0,1.545H40.91v4.562a.773.773,0,1,0,1.545,0v-5.334A.773.773,0,0,0,41.682,118.1ZM29.175,89.259v6.683a3.976,3.976,0,0,0-1.361-.241c-.1,0-.2,0-.294.012V86.958A2.431,2.431,0,0,1,29.175,89.259Zm-1.153,21.074L22.116,105.9a2.439,2.439,0,0,1-1-1.962v-19.2a2.428,2.428,0,0,1,4.855,0V96.155a3.972,3.972,0,0,0-.688,6.585l6.051,5a.773.773,0,0,0,.984-1.192l-6.052-5a2.428,2.428,0,1,1,3.124-3.717l.062.051h0l6.3,5.252a2.422,2.422,0,0,1,.884,1.874v9.9H29.653v-1.361A3.987,3.987,0,0,0,28.022,110.333Z" transform="translate(0 -72.483)"/>
      <path id="Trazado_1261158" data-name="Trazado 1261158" d="M168.138,476.118H166a.773.773,0,1,0,0,1.545h2.134a.773.773,0,0,0,0-1.545Z" transform="translate(-130.723 -427.296)"/>
      <path id="Trazado_1261159" data-name="Trazado 1261159" d="M168.893,30.645a.773.773,0,0,0-.773-.773h-2.428V24.63l2.124-1.593a5.7,5.7,0,0,0,7.469-6.084.773.773,0,0,0-.465-.619,5.7,5.7,0,0,0-7.933,5.467l-1.2.9V18.276A10.625,10.625,0,0,0,165.306.105a.773.773,0,0,0-.774,0,10.625,10.625,0,0,0-.386,18.171V22.7l-1.2-.9a5.7,5.7,0,0,0-7.933-5.467.773.773,0,0,0-.465.619,5.7,5.7,0,0,0,7.469,6.084l2.124,1.593v5.241h-2.428a.773.773,0,0,0,0,1.545h6.4A.773.773,0,0,0,168.893,30.645Zm1.2-12.392a4.172,4.172,0,0,1,3.691-.654,4.153,4.153,0,0,1-5.352,4.013A4.172,4.172,0,0,1,170.09,18.252Zm-12.37,2.706a4.172,4.172,0,0,1-1.661-3.36,4.153,4.153,0,0,1,5.352,4.013A4.172,4.172,0,0,1,157.719,20.958Zm3.045-11.65a9.119,9.119,0,0,1,4.155-7.629,9.077,9.077,0,0,1,.773,14.7V11.92l1.706-.853a.773.773,0,0,0-.691-1.382l-1.015.508V7.175a.773.773,0,1,0-1.545,0v.883l-1.015-.508a.773.773,0,1,0-.691,1.382l1.707.853v6.589A9.117,9.117,0,0,1,160.764,9.309Z" transform="translate(-121.103 0)"/>
    </g>
  </g>
</svg>
