<svg xmlns="http://www.w3.org/2000/svg" width="76.345" height="76.344" viewBox="0 0 76.345 76.344">
  <g id="Grupo_1204314" data-name="Grupo 1204314" transform="translate(-973.051 -1909)">
    <g id="Grupo_1202988" data-name="Grupo 1202988" transform="translate(-48.916 -1183.655)">
      <g id="Grupo_1200255" data-name="Grupo 1200255">
        <g id="Grupo_1187152" data-name="Grupo 1187152">
          <g id="Grupo_1185946" data-name="Grupo 1185946" transform="translate(-3.07)">
            <g id="Grupo_1184280" data-name="Grupo 1184280">
              <g id="Grupo_1182168" data-name="Grupo 1182168">
                <g id="Grupo_1178877" data-name="Grupo 1178877">
                  <g id="Grupo_1111311" data-name="Grupo 1111311">
                    <g id="Grupo_1098742" data-name="Grupo 1098742" transform="translate(1025.482 3093.101)">
                      <rect id="Rect치ngulo_400898" data-name="Rect치ngulo 400898" width="76.345" height="76.345" rx="38.172" transform="translate(-0.445 -0.445)" fill="#ffc94a" opacity="0.859"/>
                      <rect id="Rect치ngulo_400907" data-name="Rect치ngulo 400907" width="76.345" height="76.345" rx="38.172" transform="translate(-0.446 -0.445)" fill="none"/>
                    </g>
                  </g>
                </g>
              </g>
            </g>
          </g>
        </g>
      </g>
    </g>
    <g id="comunidad" transform="translate(985.051 1920)">
      <path id="Trazado_1261169" data-name="Trazado 1261169" d="M11.826,36.913V38.55H2V36.913a4.913,4.913,0,0,1,9.826,0Z" transform="translate(-0.181 -5.617)" fill="#fcd770"/>
      <path id="Trazado_1261170" data-name="Trazado 1261170" d="M33.525,54.753a4.9,4.9,0,0,1,2.3,4.16V60.55H26V58.913a4.911,4.911,0,0,1,7.525-4.16Z" transform="translate(-4.53 -9.604)" fill="#fcd770"/>
      <path id="Trazado_1261171" data-name="Trazado 1261171" d="M17.826,56.913V58.55H8V56.913a4.913,4.913,0,0,1,9.826,0Z" transform="translate(-1.268 -9.241)" fill="#ff826e"/>
      <path id="Trazado_1261172" data-name="Trazado 1261172" d="M59.826,36.913V38.55H50V36.913a4.913,4.913,0,0,1,9.826,0Z" transform="translate(-8.879 -5.617)" fill="#ff826e"/>
      <path id="Trazado_1261173" data-name="Trazado 1261173" d="M15.525,12.753a4.9,4.9,0,0,1,2.3,4.16V18.55H8V16.913a4.911,4.911,0,0,1,7.525-4.16Z" transform="translate(-1.268 -1.993)" fill="#e6e9ed"/>
      <path id="Trazado_1261174" data-name="Trazado 1261174" d="M46.3,12.753a4.911,4.911,0,0,1,7.525,4.16V18.55H44V16.913A4.9,4.9,0,0,1,46.3,12.753Z" transform="translate(-7.792 -1.993)" fill="#e6e9ed"/>
      <path id="Trazado_1261175" data-name="Trazado 1261175" d="M35.826,14.913V16.55H26V14.913a4.913,4.913,0,0,1,9.826,0Z" transform="translate(-4.53 -1.631)" fill="#b4dd7f"/>
      <path id="Trazado_1261176" data-name="Trazado 1261176" d="M35.826,36.913V38.55H26V36.913a4.913,4.913,0,0,1,9.826,0Z" transform="translate(-4.53 -5.617)" fill="#b4dd7f"/>
      <path id="Trazado_1261177" data-name="Trazado 1261177" d="M53.826,56.913V58.55H44V56.913a4.913,4.913,0,0,1,9.826,0Z" transform="translate(-7.792 -9.241)" fill="#b4dd7f"/>
      <g id="Grupo_1204313" data-name="Grupo 1204313" transform="translate(3.456 1.819)">
        <path id="Trazado_1261178" data-name="Trazado 1261178" d="M46.516,49.036A3.239,3.239,0,0,1,46,47.275,3.275,3.275,0,0,1,49.275,44a3.288,3.288,0,0,1,3.275,3.275,3.274,3.274,0,0,1-6.035,1.76Z" transform="translate(-11.61 -9.61)" fill="#f0d0b4"/>
        <circle id="Elipse_12809" data-name="Elipse 12809" cx="3.5" cy="3.5" r="3.5" transform="translate(19.543 35.947)" fill="#f0d0b4"/>
        <path id="Trazado_1261179" data-name="Trazado 1261179" d="M16.035,49.036A3.274,3.274,0,0,1,10,47.275,3.288,3.288,0,0,1,13.275,44a3.275,3.275,0,0,1,3.275,3.275A3.239,3.239,0,0,1,16.035,49.036Z" transform="translate(-5.087 -9.61)" fill="#f0d0b4"/>
        <circle id="Elipse_12810" data-name="Elipse 12810" cx="3.5" cy="3.5" r="3.5" transform="translate(19.543 17.947)" fill="#f0d0b4"/>
        <path id="Trazado_1261180" data-name="Trazado 1261180" d="M55.275,24a3.277,3.277,0,1,1-.794.1,3.2,3.2,0,0,1,.794-.1Z" transform="translate(-12.698 -5.986)" fill="#f0d0b4"/>
        <circle id="Elipse_12811" data-name="Elipse 12811" cx="3" cy="3" r="3" transform="translate(34.543 1.947)" fill="#f0d0b4"/>
        <path id="Trazado_1261181" data-name="Trazado 1261181" d="M34.035,7.036a3.272,3.272,0,1,1,.516-1.76A3.269,3.269,0,0,1,34.035,7.036Z" transform="translate(-8.349 -2)" fill="#f0d0b4"/>
        <ellipse id="Elipse_12812" data-name="Elipse 12812" cx="3.5" cy="3" rx="3.5" ry="3" transform="translate(4.543 1.947)" fill="#f0d0b4"/>
        <path id="Trazado_1261182" data-name="Trazado 1261182" d="M8.069,24.1a3.273,3.273,0,1,1-.794-.1A3.2,3.2,0,0,1,8.069,24.1Z" transform="translate(-4 -5.986)" fill="#f0d0b4"/>
      </g>
      <path id="Trazado_1261183" data-name="Trazado 1261183" d="M51.766,33.752V31.3a5.734,5.734,0,0,0-3.094-5.083,4.076,4.076,0,0,0-2.637-7.2c-.1,0-.2.023-.3.03L44.9,17.376h1.95V14.92a5.734,5.734,0,0,0-3.094-5.083,4.094,4.094,0,1,0-5.275,0,.329.329,0,0,0-.029.015L30.235,6.426a4.043,4.043,0,0,0,.242-1.332,4.094,4.094,0,0,0-8.188,0,4.043,4.043,0,0,0,.242,1.332L14.312,9.851c-.01,0-.02-.009-.029-.015a4.094,4.094,0,1,0-5.276,0A5.734,5.734,0,0,0,5.913,14.92v2.456h1.95L7.03,19.044c-.1-.007-.2-.03-.3-.03a4.076,4.076,0,0,0-2.637,7.2A5.734,5.734,0,0,0,1,31.3v2.456H7.035L8.528,36.86a4.025,4.025,0,0,0,.479,5.728,5.734,5.734,0,0,0-3.094,5.083v2.456H17.376V47.672a5.734,5.734,0,0,0-3.094-5.083,4.054,4.054,0,0,0,.371-.35l7.561,3.151a5.7,5.7,0,0,0-1.562,3.92v2.456H32.114V49.309a5.7,5.7,0,0,0-1.562-3.92l7.561-3.151a4.055,4.055,0,0,0,.371.35,5.734,5.734,0,0,0-3.094,5.083v2.456H46.853V47.672a5.734,5.734,0,0,0-3.094-5.083,4.025,4.025,0,0,0,.479-5.728l1.493-3.108ZM50.128,31.3v.819H41.94V31.3a4.094,4.094,0,0,1,8.188,0ZM48.49,23.108a2.456,2.456,0,1,1-2.456-2.456A2.459,2.459,0,0,1,48.49,23.108ZM44.135,19.5a4.041,4.041,0,0,0-1.355,6.062H29.637a4.053,4.053,0,0,0,.8-2.079l6.109-6.109h6.524ZM30.477,31.3v.819H22.289V31.3a4.094,4.094,0,0,1,8.188,0ZM26.383,43.578a2.456,2.456,0,1,1,2.456-2.456A2.459,2.459,0,0,1,26.383,43.578Zm-2.456-20.47a2.456,2.456,0,1,1,2.456,2.456A2.459,2.459,0,0,1,23.926,23.108ZM22.289,14.1v-.819a4.094,4.094,0,0,1,8.188,0V14.1Zm22.926.819v.819H37.027V14.92a4.094,4.094,0,0,1,8.188,0Zm-6.55-8.188a2.456,2.456,0,1,1,2.456,2.456A2.459,2.459,0,0,1,38.665,6.732ZM36.952,11a5.7,5.7,0,0,0-1.562,3.92v1.3l-5.257,5.257A4.105,4.105,0,0,0,27.2,19.1V15.738h4.913V13.282A5.734,5.734,0,0,0,29.02,8.2a4.054,4.054,0,0,0,.371-.35ZM26.383,2.638a2.456,2.456,0,1,1-2.456,2.456A2.459,2.459,0,0,1,26.383,2.638ZM23.745,8.2a5.734,5.734,0,0,0-3.094,5.083v2.456h4.913V19.1a4.105,4.105,0,0,0-2.931,2.379l-5.257-5.257v-1.3A5.7,5.7,0,0,0,15.814,11l7.561-3.151a4.055,4.055,0,0,0,.371.35ZM9.188,6.732a2.456,2.456,0,1,1,2.456,2.456A2.459,2.459,0,0,1,9.188,6.732ZM7.55,14.92a4.094,4.094,0,0,1,8.188,0v.819H7.55Zm2.144,2.456h6.524l6.109,6.109a4.053,4.053,0,0,0,.8,2.079H9.986A4.041,4.041,0,0,0,8.63,19.5ZM4.275,23.108a2.456,2.456,0,1,1,2.456,2.456A2.459,2.459,0,0,1,4.275,23.108ZM2.638,31.3a4.094,4.094,0,0,1,8.188,0v.819H2.638Zm9.826,2.456V31.3A5.71,5.71,0,0,0,10.735,27.2H22.379a5.711,5.711,0,0,0-1.71,3.737l-5.914,5.914a4,4,0,0,0-4.907-1.029l-1-2.072Zm3.275,13.92v.819H7.55v-.819a4.094,4.094,0,0,1,8.188,0Zm-6.55-8.188a2.456,2.456,0,1,1,2.456,2.456A2.459,2.459,0,0,1,9.188,39.484Zm6.55,0a4.042,4.042,0,0,0-.176-1.123l5.089-5.089v.48h4.913V37.11a4.073,4.073,0,0,0-1.819,7.116.329.329,0,0,0-.029.015L15.5,40.817a4.073,4.073,0,0,0,.241-1.333ZM30.477,50.128H22.289v-.819a4.094,4.094,0,0,1,8.188,0ZM29.05,44.241c-.01,0-.02-.009-.029-.015A4.074,4.074,0,0,0,27.2,37.11V33.752h4.913v-.48L37.2,38.361a3.735,3.735,0,0,0,.066,2.455Zm16.165,3.431v.819H37.027v-.819a4.094,4.094,0,0,1,8.188,0Zm-6.55-8.188a2.456,2.456,0,1,1,2.456,2.456A2.459,2.459,0,0,1,38.665,39.484Zm4.254-3.66a4,4,0,0,0-4.908,1.029L32.1,30.939a5.711,5.711,0,0,0-1.71-3.737H42.03A5.712,5.712,0,0,0,40.3,31.3v2.456h3.612Z"/>
    </g>
  </g>
</svg>
