<svg xmlns="http://www.w3.org/2000/svg" width="76.345" height="76.344" viewBox="0 0 76.345 76.344">
  <g id="Grupo_1204320" data-name="Grupo 1204320" transform="translate(-1181.853 -1908.655)">
    <g id="Grupo_1202989" data-name="Grupo 1202989" transform="translate(159.887 -1184)">
      <g id="Grupo_1200255" data-name="Grupo 1200255">
        <g id="Grupo_1187152" data-name="Grupo 1187152">
          <g id="Grupo_1185946" data-name="Grupo 1185946" transform="translate(-3.07)">
            <g id="Grupo_1184280" data-name="Grupo 1184280">
              <g id="Grupo_1182168" data-name="Grupo 1182168">
                <g id="Grupo_1178877" data-name="Grupo 1178877">
                  <g id="Grupo_1111311" data-name="Grupo 1111311">
                    <g id="Grupo_1098742" data-name="Grupo 1098742" transform="translate(1025.482 3093.101)">
                      <rect id="Rectángulo_400898" data-name="Rectángulo 400898" width="76.345" height="76.345" rx="38.172" transform="translate(-0.445 -0.445)" fill="#ffc94a" opacity="0.859"/>
                      <rect id="Rectángulo_400907" data-name="Rectángulo 400907" width="76.345" height="76.345" rx="38.172" transform="translate(-0.446 -0.445)" fill="none"/>
                    </g>
                  </g>
                </g>
              </g>
            </g>
          </g>
        </g>
      </g>
    </g>
    <g id="plan-de-accion" transform="translate(1193.362 1903.241)">
      <g id="Grupo_1204317" data-name="Grupo 1204317" transform="translate(0.781 19.671)">
        <g id="Grupo_1204316" data-name="Grupo 1204316" transform="translate(0 0.453)">
          <path id="Trazado_1261184" data-name="Trazado 1261184" d="M39.92,122.384H9.209A1.709,1.709,0,0,1,7.5,120.675V81.861a1.709,1.709,0,0,1,1.709-1.709H39.92a1.709,1.709,0,0,1,1.709,1.709v38.814A1.709,1.709,0,0,1,39.92,122.384Z" transform="translate(-7.5 -75.006)" fill="#e49280"/>
          <path id="Trazado_1261185" data-name="Trazado 1261185" d="M300.758,80.152h-2.093a1.709,1.709,0,0,1,1.709,1.709v38.814a1.709,1.709,0,0,1-1.709,1.709h2.093a1.709,1.709,0,0,0,1.709-1.709V81.861A1.709,1.709,0,0,0,300.758,80.152Z" transform="translate(-268.338 -75.006)" fill="#dd7f66"/>
          <rect id="Rectángulo_411670" data-name="Rectángulo 411670" width="34.941" height="26.838" transform="translate(30.483 8.792) rotate(90)" fill="#eaf6ff"/>
          <rect id="Rectángulo_411671" data-name="Rectángulo 411671" width="2.093" height="34.941" transform="translate(28.391 8.792)" fill="#d8ecfe"/>
          <path id="Trazado_1261186" data-name="Trazado 1261186" d="M101.936,33.825v-.743A2.339,2.339,0,0,0,99.6,30.743h0a2.339,2.339,0,0,0-2.339,2.339v.743H93.865A1.648,1.648,0,0,0,92.3,34.958L91.268,38.1a1.093,1.093,0,0,0,1.039,1.434h14.5a1.093,1.093,0,0,0,1.044-1.417l-.972-3.133a1.648,1.648,0,0,0-1.574-1.16Z" transform="translate(-82.493 -30.743)" fill="#8ebac5"/>
          <g id="Grupo_1204315" data-name="Grupo 1204315" transform="translate(16.057)">
            <path id="Trazado_1261187" data-name="Trazado 1261187" d="M162.956,33.082h0a.743.743,0,0,0,.743.743h1.35v-.743a2.339,2.339,0,0,0-2.339-2.339h0a2.328,2.328,0,0,0-1.046.247A2.338,2.338,0,0,1,162.956,33.082Z" transform="translate(-161.663 -30.743)" fill="#7ca1b1"/>
            <path id="Trazado_1261188" data-name="Trazado 1261188" d="M211.082,64.623l-.972-3.133a1.648,1.648,0,0,0-1.574-1.16h-2.093a1.648,1.648,0,0,1,1.574,1.16l.972,3.133a1.093,1.093,0,0,1-1.044,1.417h2.093A1.093,1.093,0,0,0,211.082,64.623Z" transform="translate(-201.78 -57.248)" fill="#7ca1b1"/>
          </g>
        </g>
        <rect id="Rectángulo_411672" data-name="Rectángulo 411672" width="4.044" height="4.044" transform="translate(7.291 12.891)" fill="#60b7ff"/>
        <rect id="Rectángulo_411673" data-name="Rectángulo 411673" width="4.044" height="4.044" transform="translate(7.291 20.759)" fill="#60b7ff"/>
        <rect id="Rectángulo_411674" data-name="Rectángulo 411674" width="4.044" height="4.044" transform="translate(7.291 28.628)" fill="#60b7ff"/>
        <rect id="Rectángulo_411675" data-name="Rectángulo 411675" width="4.044" height="4.044" transform="translate(7.291 36.496)" fill="#60b7ff"/>
        <circle id="Elipse_12813" data-name="Elipse 12813" cx="10.015" cy="10.015" r="10.015" transform="translate(26.838 4.898)" fill="#fe76a8"/>
        <path id="Trazado_1261189" data-name="Trazado 1261189" d="M338.562,73.41a10.024,10.024,0,0,0-2.646.354,10.018,10.018,0,0,1,0,19.323,10.016,10.016,0,1,0,2.646-19.677Z" transform="translate(-301.709 -68.512)" fill="#fe5694"/>
        <ellipse id="Elipse_12814" data-name="Elipse 12814" cx="6.37" cy="6.37" rx="6.37" ry="6.37" transform="translate(28.532 11.465) rotate(-22.5)" fill="#eaf6ff"/>
        <path id="Trazado_1261190" data-name="Trazado 1261190" d="M390.127,115.636a10.02,10.02,0,0,1,0,11.235,6.367,6.367,0,0,0,0-11.235Z" transform="translate(-350.273 -106.34)" fill="#d8ecfe"/>
        <path id="Trazado_1261191" data-name="Trazado 1261191" d="M337.891,148.859a2.724,2.724,0,1,1,2.724-2.724A2.728,2.728,0,0,1,337.891,148.859Z" transform="translate(-301.038 -131.221)" fill="#fe76a8"/>
        <path id="Trazado_1261192" data-name="Trazado 1261192" d="M453.262,46.29l2.278.837a1.032,1.032,0,0,0,1.086-.239l1.769-1.769a.7.7,0,0,0,0-.983l-1.489-1.489Z" transform="translate(-406.832 -40.953)" fill="#d8ecfe"/>
        <path id="Trazado_1261193" data-name="Trazado 1261193" d="M445.515,31.727l-.837-2.278a1.032,1.032,0,0,1,.239-1.086l1.769-1.769a.7.7,0,0,1,.983,0l1.489,1.489Z" transform="translate(-399.085 -26.39)" fill="#eaf6ff"/>
      </g>
      <g id="Grupo_1204319" data-name="Grupo 1204319" transform="translate(0 18.89)">
        <g id="Grupo_1204318" data-name="Grupo 1204318" transform="translate(0 0.453)">
          <path id="Trazado_1261194" data-name="Trazado 1261194" d="M33.2,116.444H2.49A2.493,2.493,0,0,1,0,113.954V75.14a2.493,2.493,0,0,1,2.49-2.49H6.571a.781.781,0,0,1,0,1.562H2.49a.929.929,0,0,0-.928.928v38.813a.929.929,0,0,0,.928.928H33.2a.929.929,0,0,0,.928-.928V92.385a.781.781,0,1,1,1.562,0v21.569A2.493,2.493,0,0,1,33.2,116.444Z" transform="translate(0 -67.504)"/>
          <path id="Trazado_1261195" data-name="Trazado 1261195" d="M245.905,74.3a.781.781,0,0,1-.244-.039.919.919,0,0,0-.288-.046h-7.751a.781.781,0,0,1,0-1.562h7.751a2.479,2.479,0,0,1,.777.125.781.781,0,0,1-.244,1.523Z" transform="translate(-212.171 -67.504)"/>
          <path id="Trazado_1261196" data-name="Trazado 1261196" d="M62.62,144.153H35.781a.781.781,0,0,1-.781-.781V108.431a.781.781,0,0,1,.781-.781H60.732a.781.781,0,1,1,0,1.562H36.562v33.378H61.838V121.829a.781.781,0,1,1,1.562,0v21.543A.781.781,0,0,1,62.62,144.153Z" transform="translate(-31.354 -98.858)"/>
          <path id="Trazado_1261197" data-name="Trazado 1261197" d="M92.889,23.243a3.124,3.124,0,0,1,3.12,3.082H98.6a2.418,2.418,0,0,1,2.32,1.71l.972,3.133a1.874,1.874,0,0,1-1.79,2.43H85.6a1.875,1.875,0,0,1-1.781-2.459L84.849,28a2.424,2.424,0,0,1,2.308-1.671h2.612A3.124,3.124,0,0,1,92.889,23.243Zm7.212,8.792a.312.312,0,0,0,.3-.4L99.428,28.5a.863.863,0,0,0-.828-.61H95.228a.781.781,0,0,1-.781-.781v-.743a1.558,1.558,0,1,0-3.116,0v.743a.781.781,0,0,1-.781.781H87.157a.865.865,0,0,0-.823.6L85.3,31.625a.312.312,0,0,0,.3.41Z" transform="translate(-75.004 -23.243)"/>
        </g>
        <path id="Rectángulo_411676" data-name="Rectángulo 411676" d="M-6.719-7.5h4.044a.781.781,0,0,1,.781.781v4.044a.781.781,0,0,1-.781.781H-6.719A.781.781,0,0,1-7.5-2.674V-6.719A.781.781,0,0,1-6.719-7.5Zm3.263,1.562H-5.938v2.482h2.482Z" transform="translate(14.791 20.391)"/>
        <path id="Rectángulo_411677" data-name="Rectángulo 411677" d="M-6.719-7.5h4.044a.781.781,0,0,1,.781.781v4.044a.781.781,0,0,1-.781.781H-6.719A.781.781,0,0,1-7.5-2.674V-6.719A.781.781,0,0,1-6.719-7.5Zm3.263,1.562H-5.938v2.482h2.482Z" transform="translate(14.791 28.259)"/>
        <path id="Rectángulo_411678" data-name="Rectángulo 411678" d="M-6.719-7.5h4.044a.781.781,0,0,1,.781.781v4.044a.781.781,0,0,1-.781.781H-6.719A.781.781,0,0,1-7.5-2.674V-6.719A.781.781,0,0,1-6.719-7.5Zm3.263,1.562H-5.938v2.482h2.482Z" transform="translate(14.791 36.128)"/>
        <path id="Rectángulo_411679" data-name="Rectángulo 411679" d="M-6.719-7.5h4.044a.781.781,0,0,1,.781.781v4.044a.781.781,0,0,1-.781.781H-6.719A.781.781,0,0,1-7.5-2.674V-6.719A.781.781,0,0,1-6.719-7.5Zm3.263,1.562H-5.938v2.482h2.482Z" transform="translate(14.791 43.996)"/>
        <path id="Línea_567" data-name="Línea 567" d="M4.566-5.938H-6.719A.781.781,0,0,1-7.5-6.719.781.781,0,0,1-6.719-7.5H4.566a.781.781,0,0,1,.781.781A.781.781,0,0,1,4.566-5.938Z" transform="translate(23.053 22.413)"/>
        <path id="Línea_568" data-name="Línea 568" d="M4.566-5.938H-6.719A.781.781,0,0,1-7.5-6.719.781.781,0,0,1-6.719-7.5H4.566a.781.781,0,0,1,.781.781A.781.781,0,0,1,4.566-5.938Z" transform="translate(23.053 30.281)"/>
        <path id="Línea_569" data-name="Línea 569" d="M4.566-5.938H-6.719A.781.781,0,0,1-7.5-6.719.781.781,0,0,1-6.719-7.5H4.566a.781.781,0,0,1,.781.781A.781.781,0,0,1,4.566-5.938Z" transform="translate(23.053 38.15)"/>
        <path id="Línea_570" data-name="Línea 570" d="M4.566-5.938H-6.719A.781.781,0,0,1-7.5-6.719.781.781,0,0,1-6.719-7.5H4.566a.781.781,0,0,1,.781.781A.781.781,0,0,1,4.566-5.938Z" transform="translate(23.053 46.018)"/>
        <path id="Elipse_12815" data-name="Elipse 12815" d="M3.3-7.5A10.8,10.8,0,1,1-7.5,3.3,10.809,10.809,0,0,1,3.3-7.5Zm0,20.031A9.234,9.234,0,1,0-5.938,3.3,9.245,9.245,0,0,0,3.3,12.531Z" transform="translate(34.338 12.398)"/>
        <path id="Trazado_1261198" data-name="Trazado 1261198" d="M302.086,115.212a7.2,7.2,0,0,1-6.853-5.1.781.781,0,0,1,1.5-.448,5.589,5.589,0,1,0,0-3.192.781.781,0,1,1-1.5-.446,7.151,7.151,0,1,1,6.855,9.191Z" transform="translate(-264.452 -92.367)"/>
        <path id="Trazado_1261199" data-name="Trazado 1261199" d="M331.173,142.921a3.506,3.506,0,1,1,3.506-3.506A3.51,3.51,0,0,1,331.173,142.921Zm0-5.449a1.943,1.943,0,1,0,1.943,1.943A1.945,1.945,0,0,0,331.173,137.472Z" transform="translate(-293.538 -123.721)"/>
        <path id="Línea_571" data-name="Línea 571" d="M-6.719,8.243a.779.779,0,0,1-.552-.229.781.781,0,0,1,0-1.1L6.909-7.271a.781.781,0,0,1,1.1,0,.781.781,0,0,1,0,1.1L-6.166,8.014A.779.779,0,0,1-6.719,8.243Z" transform="translate(44.353 8.232)"/>
        <path id="Trazado_1261200" data-name="Trazado 1261200" d="M449.177,41.253h0a1.807,1.807,0,0,1-.626-.111l-2.278-.837a.781.781,0,0,1-.283-1.286l3.644-3.644a.781.781,0,0,1,1.1,0l1.489,1.489a1.478,1.478,0,0,1,0,2.088l-1.769,1.769A1.8,1.8,0,0,1,449.177,41.253Zm-1.217-1.994,1.131.416.087.015a.25.25,0,0,0,.178-.074l1.709-1.709-.876-.876Z" transform="translate(-399.332 -33.453)"/>
        <path id="Trazado_1261201" data-name="Trazado 1261201" d="M438.8,25.789a.781.781,0,0,1-.733-.512L437.232,23a1.819,1.819,0,0,1,.42-1.908l1.769-1.769a1.476,1.476,0,0,1,2.088,0L443,20.812a.781.781,0,0,1,0,1.1l-3.644,3.644A.781.781,0,0,1,438.8,25.789Zm1.663-5.3L438.756,22.2a.252.252,0,0,0-.058.264l.416,1.131,2.227-2.227Z" transform="translate(-391.591 -18.89)"/>
      </g>
    </g>
  </g>
</svg>
