<svg xmlns="http://www.w3.org/2000/svg" width="76.345" height="76.345" viewBox="0 0 76.345 76.345">
  <g id="Grupo_1204330" data-name="Grupo 1204330" transform="translate(-446.828 -964.655)">
    <g id="Grupo_1202985" data-name="Grupo 1202985" transform="translate(-575.139 -2128)">
      <g id="Grupo_1200255" data-name="Grupo 1200255">
        <g id="Grupo_1187152" data-name="Grupo 1187152">
          <g id="Grupo_1185946" data-name="Grupo 1185946" transform="translate(-3.07)">
            <g id="Grupo_1184280" data-name="Grupo 1184280">
              <g id="Grupo_1182168" data-name="Grupo 1182168">
                <g id="Grupo_1178877" data-name="Grupo 1178877">
                  <g id="Grupo_1111311" data-name="Grupo 1111311">
                    <g id="Grupo_1098742" data-name="Grupo 1098742" transform="translate(1025.482 3093.101)">
                      <rect id="Rect치ngulo_400898" data-name="Rect치ngulo 400898" width="76.345" height="76.345" rx="38.172" transform="translate(-0.445 -0.445)" fill="#ffc94a" opacity="0.859"/>
                      <rect id="Rect치ngulo_400907" data-name="Rect치ngulo 400907" width="76.345" height="76.345" rx="38.172" transform="translate(-0.446 -0.445)" fill="none"/>
                    </g>
                  </g>
                </g>
              </g>
            </g>
          </g>
        </g>
      </g>
    </g>
    <g id="_x30_1_x2C__River_x2C__water_x2C__environment_x2C__trees_x2C__nature_x2C__landscape" transform="translate(460.707 978.535)">
      <g id="Grupo_1204329" data-name="Grupo 1204329" transform="translate(1 1)">
        <path id="Trazado_1261320" data-name="Trazado 1261320" d="M53.716,155.939H31.337L18.657,149.6,8.5,144.293V121H53.716v4.8l-.9,2.137.9,1.973Z" transform="translate(-7.815 -110.039)" fill="#61aa5e"/>
        <path id="Trazado_1261321" data-name="Trazado 1261321" d="M53.716,173.5v4.111H33.506a2.4,2.4,0,1,0,0,4.8h1.42a10.619,10.619,0,1,1,0,21.238H8.546L8.5,192H33.506a2.4,2.4,0,1,0,0-4.8H29.053a6.851,6.851,0,1,1,0-13.7Z" transform="translate(-7.815 -157.743)" fill="#afffff"/>
        <circle id="Elipse_12818" data-name="Elipse 12818" cx="3.083" cy="3.083" r="3.083" transform="translate(12.332 0.685)" fill="#f7e45b"/>
        <g id="Grupo_1204327" data-name="Grupo 1204327" transform="translate(4.111 0.685)">
          <path id="Trazado_1261322" data-name="Trazado 1261322" d="M50.111,93.127c-2.27,0-4.111-2.464-4.111-7.193C46,81.378,47.777,76,50.111,76c1.311,0,2.478,1.735,3.23,4.111a19.887,19.887,0,0,1,.881,5.823C54.221,90.664,52.38,93.127,50.111,93.127Z" transform="translate(-46 -69.834)" fill="#73cb71"/>
          <path id="Trazado_1261323" data-name="Trazado 1261323" d="M233.5,15.123c0-3.153,1.227-6.623,2.74-6.623,2.193,0,3.8,7.339,1.891,10.276C236.742,20.912,233.5,20.274,233.5,15.123Z" transform="translate(-216.373 -8.5)" fill="#73cb71"/>
          <path id="Trazado_1261324" data-name="Trazado 1261324" d="M323.5,15.123c0-3.153,1.227-6.623,2.74-6.623,2.193,0,3.8,7.339,1.891,10.276C326.742,20.912,323.5,20.274,323.5,15.123Z" transform="translate(-298.152 -8.5)" fill="#73cb71"/>
          <path id="Trazado_1261325" data-name="Trazado 1261325" d="M414.345,18.776c-1.91-2.937-.3-10.276,1.891-10.276s3.8,7.339,1.891,10.276A2.133,2.133,0,0,1,414.345,18.776Z" transform="translate(-379.926 -8.5)" fill="#73cb71"/>
        </g>
        <g id="Grupo_1204328" data-name="Grupo 1204328" transform="translate(0 0)">
          <path id="Trazado_1261326" data-name="Trazado 1261326" d="M46.9,11.276H44.4a8.878,8.878,0,0,0,.443-2.969C44.846,5.244,43.655,1,41.42,1s-3.425,4.244-3.425,7.308a8.878,8.878,0,0,0,.443,2.969H36.182a8.876,8.876,0,0,0,.443-2.969C36.625,5.244,35.434,1,33.2,1s-3.425,4.244-3.425,7.308a8.878,8.878,0,0,0,.443,2.969H27.96A8.876,8.876,0,0,0,28.4,8.308C28.4,5.244,27.213,1,24.978,1s-3.425,4.244-3.425,7.308A8.878,8.878,0,0,0,22,11.276H12.944c-1.943-5.5-5.514-5.47-7.446,0H1.685A.685.685,0,0,0,1,11.961V46.9a.685.685,0,0,0,.685.685H17.068a.685.685,0,1,0,0-1.37H2.413l-.04-10.276H26.691a3.083,3.083,0,0,0,0-6.166H22.238a6.166,6.166,0,0,1,0-12.332H46.216v2.74H26.691a3.083,3.083,0,1,0,0,6.166h1.42a9.955,9.955,0,0,1,9.934,9.884v.05a9.945,9.945,0,0,1-9.934,9.934H22.549a.685.685,0,1,0,0,1.37H46.9a.685.685,0,0,0,.685-.685V29.774a.685.685,0,1,0-1.37,0V46.216H33.5c10.366-5.648,6.132-21.238-5.391-21.238h-1.42a1.713,1.713,0,1,1,0-3.425H46.216v2.74a.685.685,0,1,0,1.37,0V11.961A.685.685,0,0,0,46.9,11.276ZM41.42,2.37c.793,0,2.055,2.717,2.055,5.937,0,1.967-.529,3.417-1.37,3.918V9.449a.685.685,0,1,0-1.37,0v2.776c-.841-.5-1.37-1.951-1.37-3.918C39.365,5.087,40.627,2.37,41.42,2.37Zm-2.24,10.276a3,3,0,0,0,1.555,1.05v2.376H33.884V13.7a3,3,0,0,0,1.555-1.05ZM33.2,2.37c.793,0,2.055,2.717,2.055,5.937,0,1.967-.529,3.417-1.37,3.918V9.449a.685.685,0,1,0-1.37,0v2.776c-.841-.5-1.37-1.951-1.37-3.918C31.144,5.087,32.406,2.37,33.2,2.37ZM30.96,12.646a3,3,0,0,0,1.555,1.05v2.376H25.663V13.7a3,3,0,0,0,1.555-1.05ZM24.978,2.37c.793,0,2.055,2.717,2.055,5.937,0,1.967-.529,3.417-1.37,3.918V9.449a.685.685,0,0,0-1.37,0v2.776c-.841-.5-1.37-1.951-1.37-3.918C22.923,5.087,24.185,2.37,24.978,2.37ZM9.221,8.536c2.38,0,3.425,6.866,3.425,9.249a9.743,9.743,0,0,1-1.1,5.011A3.027,3.027,0,0,1,9.906,24.19V18.812a.685.685,0,0,0-1.37,0V24.19C3.878,22.75,6.08,8.536,9.221,8.536ZM14.7,23.608a7.545,7.545,0,0,0,7.536,7.536h4.453a1.713,1.713,0,1,1,0,3.425H2.37V12.646H5.081a20.772,20.772,0,0,0-.655,5.138c0,5.222,2.083,7.418,4.111,7.812v3.492H7.166a.685.685,0,1,0,0,1.37h4.111a.685.685,0,1,0,0-1.37H9.906V25.6c2.027-.394,4.111-2.59,4.111-7.812a20.772,20.772,0,0,0-.655-5.138h9.377a3,3,0,0,0,1.555,1.05v2.376H22.238A7.533,7.533,0,0,0,14.7,23.608Zm27.4-7.536V13.7a3,3,0,0,0,1.555-1.05h2.556v3.425Z" transform="translate(-1 -1)"/>
          <path id="Trazado_1261327" data-name="Trazado 1261327" d="M132.268,8.536A3.768,3.768,0,1,0,128.5,4.768,3.772,3.772,0,0,0,132.268,8.536Zm0-6.166a2.4,2.4,0,1,1-2.4,2.4A2.4,2.4,0,0,1,132.268,2.37Z" transform="translate(-116.854 -1)"/>
          <path id="Trazado_1261328" data-name="Trazado 1261328" d="M57.646,406.685a.685.685,0,0,0-.685-.685H46.685a.685.685,0,0,0,0,1.37H56.961A.685.685,0,0,0,57.646,406.685Z" transform="translate(-41.889 -369.005)"/>
          <path id="Trazado_1261329" data-name="Trazado 1261329" d="M190.555,406.685a.685.685,0,0,0-.685-.685h-.685a.685.685,0,0,0,0,1.37h.685A.685.685,0,0,0,190.555,406.685Z" transform="translate(-171.373 -369.005)"/>
          <path id="Trazado_1261330" data-name="Trazado 1261330" d="M228.74,407.37a.685.685,0,0,0,0-1.37h-2.055a.685.685,0,0,0,0,1.37Z" transform="translate(-205.447 -369.005)"/>
          <path id="Trazado_1261331" data-name="Trazado 1261331" d="M119.666,443.5h-5.481a.685.685,0,0,0,0,1.37h5.481a.685.685,0,0,0,0-1.37Z" transform="translate(-103.224 -403.08)"/>
          <path id="Trazado_1261332" data-name="Trazado 1261332" d="M76.685,443.5a.685.685,0,0,0,0,1.37h.685a.685.685,0,1,0,0-1.37Z" transform="translate(-69.149 -403.08)"/>
          <path id="Trazado_1261333" data-name="Trazado 1261333" d="M264.185,391.379h2.4a7.2,7.2,0,0,0,7.193-7.193.685.685,0,1,0-1.37,0,5.83,5.83,0,0,1-5.823,5.823h-2.4a.685.685,0,1,0,0,1.37Z" transform="translate(-239.522 -348.561)"/>
          <circle id="Elipse_12819" data-name="Elipse 12819" cx="0.685" cy="0.685" r="0.685" transform="translate(45.216 25.348)"/>
          <circle id="Elipse_12820" data-name="Elipse 12820" cx="0.685" cy="0.685" r="0.685" transform="translate(18.064 45.216)"/>
        </g>
      </g>
    </g>
  </g>
</svg>
