<svg xmlns="http://www.w3.org/2000/svg" width="76.345" height="76.344" viewBox="0 0 76.345 76.344">
  <g id="Grupo_1204367" data-name="Grupo 1204367" transform="translate(4734 -1121)">
    <g id="Grupo_1204360" data-name="Grupo 1204360" transform="translate(-5286.051 -11191)">
      <g id="Grupo_1203920" data-name="Grupo 1203920" transform="translate(-469.916 9219.345)">
        <g id="Grupo_1200255" data-name="Grupo 1200255">
          <g id="Grupo_1187152" data-name="Grupo 1187152">
            <g id="Grupo_1185946" data-name="Grupo 1185946" transform="translate(-3.07)">
              <g id="Grupo_1184280" data-name="Grupo 1184280">
                <g id="Grupo_1182168" data-name="Grupo 1182168">
                  <g id="Grupo_1178877" data-name="Grupo 1178877">
                    <g id="Grupo_1111311" data-name="Grupo 1111311">
                      <g id="Grupo_1098742" data-name="Grupo 1098742" transform="translate(1025.482 3093.101)">
                        <rect id="Rectángulo_400898" data-name="Rectángulo 400898" width="76.345" height="76.345" rx="38.172" transform="translate(-0.445 -0.445)" fill="#ffc94a" opacity="0.859"/>
                        <rect id="Rectángulo_400907" data-name="Rectángulo 400907" width="76.345" height="76.345" rx="38.172" transform="translate(-0.446 -0.445)" fill="none"/>
                      </g>
                    </g>
                  </g>
                </g>
              </g>
            </g>
          </g>
        </g>
      </g>
    </g>
    <g id="suelo" transform="translate(-4719 1129.737)">
      <g id="Grupo_1204365" data-name="Grupo 1204365" transform="translate(0.689 6.952)">
        <path id="Trazado_1261451" data-name="Trazado 1261451" d="M7.5,174.813V189.72H53.176V174.813a.919.919,0,0,0-.919-.919H8.419A.919.919,0,0,0,7.5,174.813Z" transform="translate(-7.5 -159.177)" fill="#e8ad8c"/>
        <path id="Trazado_1261452" data-name="Trazado 1261452" d="M469.073,173.894H466.5a.919.919,0,0,1,.919.919V189.72h2.573V174.813A.919.919,0,0,0,469.073,173.894Z" transform="translate(-424.316 -159.177)" fill="#e19974"/>
        <path id="Trazado_1261453" data-name="Trazado 1261453" d="M7.5,359.161V346.1H53.176v13.063a.919.919,0,0,1-.919.919H8.419A.919.919,0,0,1,7.5,359.161Z" transform="translate(-7.5 -315.555)" fill="#99e6fc"/>
        <path id="Trazado_1261454" data-name="Trazado 1261454" d="M467.419,346.1v13.063a.919.919,0,0,1-.919.919h2.573a.919.919,0,0,0,.919-.919V346.1Z" transform="translate(-424.316 -315.555)" fill="#62dbfb"/>
        <path id="Trazado_1261455" data-name="Trazado 1261455" d="M238.665,13.763a1.754,1.754,0,0,0-1.754,1.754,10.461,10.461,0,0,0,1.529,4.036.263.263,0,0,0,.455,0,10.046,10.046,0,0,0,1.525-4.038A1.754,1.754,0,0,0,238.665,13.763Z" transform="translate(-215.827 -13.763)" fill="#99e6fc"/>
        <path id="Trazado_1261456" data-name="Trazado 1261456" d="M181.426,69.573A1.425,1.425,0,0,0,180,71.035a1.451,1.451,0,0,0,1.342,1.381,4.855,4.855,0,0,1,2.969,1.156.184.184,0,0,0,.306-.149C184.428,70.483,182.411,69.573,181.426,69.573Z" transform="translate(-164.147 -64.444)" fill="#99e6fc"/>
        <path id="Trazado_1261457" data-name="Trazado 1261457" d="M284.949,69.573a1.425,1.425,0,0,1,1.425,1.462,1.451,1.451,0,0,1-1.342,1.381,4.855,4.855,0,0,0-2.969,1.156.184.184,0,0,1-.306-.149C281.947,70.483,283.964,69.573,284.949,69.573Z" transform="translate(-256.551 -64.444)" fill="#99e6fc"/>
        <path id="Trazado_1261458" data-name="Trazado 1261458" d="M229.137,150.236v19.521h4.938V150.236a.46.46,0,0,0-.46-.46H229.6A.46.46,0,0,0,229.137,150.236Z" transform="translate(-208.768 -137.276)" fill="#99e6fc"/>
        <path id="Trazado_1261459" data-name="Trazado 1261459" d="M404.537,269.453l-.88,1.3a.607.607,0,0,0-.024.64l.482.843a.607.607,0,0,0,.741.267l1.865-.7a.607.607,0,0,1,.214-.039h1.689a.607.607,0,0,0,.607-.607v-.735a.607.607,0,0,0-.5-.6l-3.585-.63A.607.607,0,0,0,404.537,269.453Z" transform="translate(-367.154 -245.711)" fill="#918291"/>
        <path id="Trazado_1261460" data-name="Trazado 1261460" d="M40.64,272.852h4a.492.492,0,0,0,.492-.492v-1.433a.492.492,0,0,0-.252-.43l-2.236-1.248a.492.492,0,0,0-.563.059l-1.354,1.181a.493.493,0,0,0-.151.241l-.411,1.5A.492.492,0,0,0,40.64,272.852Z" transform="translate(-37.147 -245.712)" fill="#918291"/>
        <path id="Trazado_1261461" data-name="Trazado 1261461" d="M155.232,229.5l1.439.982a.547.547,0,0,1,.238.451v.649a.547.547,0,0,1-.359.513l-.874.319a.547.547,0,0,0-.339.364l-.24.849a.547.547,0,0,1-.746.351l-1.506-.664a.546.546,0,0,1-.238-.8l1.858-2.863A.546.546,0,0,1,155.232,229.5Z" transform="translate(-139.192 -209.59)" fill="#918291"/>
        <path id="Trazado_1261462" data-name="Trazado 1261462" d="M83.836,207.583l1.095-1.272a.738.738,0,0,1,.559-.257h1.723a.738.738,0,0,1,.651.391l.6,1.127a.738.738,0,0,1-.032.749l-.446.688a.738.738,0,0,1-.752.324l-2.973-.543A.738.738,0,0,1,83.836,207.583Z" transform="translate(-76.657 -188.382)" fill="#918291"/>
        <path id="Trazado_1261463" data-name="Trazado 1261463" d="M421.446,198.8h-2.14a.532.532,0,0,0-.42.205l-1.178,1.514a.532.532,0,0,0-.012.638l.491.681a.532.532,0,0,0,.646.176l1.8-.794a.533.533,0,0,1,.191-.045l1.14-.05a.532.532,0,0,0,.472-.728l-.5-1.263A.532.532,0,0,0,421.446,198.8Z" transform="translate(-379.907 -181.792)" fill="#918291"/>
        <path id="Trazado_1261464" data-name="Trazado 1261464" d="M310.221,281.932l1.462.794a.549.549,0,0,0,.661-.105l.761-.806a.549.549,0,0,0,.144-.458l-.181-1.209a.549.549,0,0,0-.706-.443l-2.042.634a.549.549,0,0,0-.386.524v.587A.549.549,0,0,0,310.221,281.932Z" transform="translate(-282.139 -255.241)" fill="#918291"/>
        <path id="Trazado_1261465" data-name="Trazado 1261465" d="M333.01,221.177l2.39.215a.589.589,0,0,1,.488.354l.945,2.2a.589.589,0,0,1-.206.716l-.3.209a.589.589,0,0,1-.67,0l-.94-.649a.589.589,0,0,0-.376-.1l-1.711.12a.589.589,0,0,1-.619-.7l.37-1.89A.589.589,0,0,1,333.01,221.177Z" transform="translate(-302.176 -202.113)" fill="#918291"/>
      </g>
      <g id="Grupo_1204366" data-name="Grupo 1204366" transform="translate(0 6.263)">
        <path id="Trazado_1261466" data-name="Trazado 1261466" d="M296.419,183.6h-20.37a.689.689,0,0,1,0-1.379h19.68V168a.23.23,0,0,0-.23-.23h-5.6a.689.689,0,1,1,0-1.379h5.6A1.61,1.61,0,0,1,297.108,168v14.908A.689.689,0,0,1,296.419,183.6Z" transform="translate(-250.053 -151.674)"/>
        <path id="Línea_567" data-name="Línea 567" d="M3.822-6.121H-6.811A.689.689,0,0,1-7.5-6.811.689.689,0,0,1-6.811-7.5H3.822a.689.689,0,0,1,.689.689A.689.689,0,0,1,3.822-6.121Z" transform="translate(32.807 22.216)"/>
        <path id="Trazado_1261467" data-name="Trazado 1261467" d="M21.059,183.6H.689A.689.689,0,0,1,0,182.906V168a1.61,1.61,0,0,1,1.608-1.608h19.45a.689.689,0,1,1,0,1.379H1.608a.23.23,0,0,0-.23.23v14.218h19.68a.689.689,0,0,1,0,1.379Z" transform="translate(0 -151.674)"/>
        <path id="Trazado_1261468" data-name="Trazado 1261468" d="M227.729,353.961H201.42a.689.689,0,1,1,0-1.379h26.309a.23.23,0,0,0,.23-.23V339.289a.689.689,0,0,1,1.379,0v13.063A1.61,1.61,0,0,1,227.729,353.961Z" transform="translate(-182.283 -308.057)"/>
        <path id="Trazado_1261469" data-name="Trazado 1261469" d="M15.921,353.961H1.608A1.61,1.61,0,0,1,0,352.352V339.289a.689.689,0,0,1,1.379,0v13.063a.23.23,0,0,0,.23.23H15.921a.689.689,0,0,1,0,1.379Z" transform="translate(0 -308.057)"/>
        <path id="Trazado_1261470" data-name="Trazado 1261470" d="M231.855,6.263A2.447,2.447,0,0,1,234.3,8.707a10.4,10.4,0,0,1-1.621,4.388.944.944,0,0,1-.82.468.956.956,0,0,1-.824-.475,10.766,10.766,0,0,1-1.622-4.381A2.446,2.446,0,0,1,231.855,6.263Zm.006,5.475a7.578,7.578,0,0,0,1.06-3.032,1.065,1.065,0,0,0-2.13,0A7.813,7.813,0,0,0,231.86,11.738Z" transform="translate(-208.327 -6.263)"/>
        <path id="Trazado_1261471" data-name="Trazado 1261471" d="M174.615,62.073c1.388,0,3.668,1.22,3.88,4.495a.873.873,0,0,1-1.449.711,4.152,4.152,0,0,0-2.574-.987,2.133,2.133,0,0,1-1.971-2.05,2.115,2.115,0,0,1,2.114-2.169Zm2.309,3.462a2.685,2.685,0,0,0-2.309-2.083.736.736,0,0,0-.736.755.766.766,0,0,0,.713.711A6.173,6.173,0,0,1,176.924,65.535Z" transform="translate(-156.647 -56.944)"/>
        <path id="Trazado_1261472" data-name="Trazado 1261472" d="M278.138,62.073a2.115,2.115,0,0,1,2.114,2.169,2.133,2.133,0,0,1-1.971,2.05,4.153,4.153,0,0,0-2.574.987.873.873,0,0,1-1.449-.711C274.47,63.293,276.751,62.073,278.138,62.073Zm-2.309,3.462a6.173,6.173,0,0,1,2.332-.616.766.766,0,0,0,.713-.712.736.736,0,0,0-.736-.755A2.685,2.685,0,0,0,275.83,65.535Z" transform="translate(-249.052 -56.944)"/>
        <path id="Trazado_1261473" data-name="Trazado 1261473" d="M227.263,163.635a.689.689,0,0,1-.689-.689V143.655h-3.559v19.291a.689.689,0,0,1-1.379,0V143.425a1.15,1.15,0,0,1,1.149-1.149H226.8a1.15,1.15,0,0,1,1.149,1.149v19.521A.689.689,0,0,1,227.263,163.635Z" transform="translate(-201.267 -129.776)"/>
        <path id="Trazado_1261474" data-name="Trazado 1261474" d="M398.215,261.686h0a1.3,1.3,0,0,1,.225.02l3.585.63a1.294,1.294,0,0,1,1.072,1.277v.735a1.3,1.3,0,0,1-1.3,1.3h-1.689l-1.836.7a1.3,1.3,0,0,1-1.583-.57l-.482-.843a1.288,1.288,0,0,1,.051-1.368l.88-1.3A1.294,1.294,0,0,1,398.215,261.686Zm3.5,2-3.464-.609-.85,1.26.447.7,1.8-.68a1.292,1.292,0,0,1,.458-.083h1.607Z" transform="translate(-359.64 -238.212)"/>
        <path id="Trazado_1261475" data-name="Trazado 1261475" d="M37.825,266.73h-4a1.182,1.182,0,0,1-1.14-1.493l.411-1.5a1.178,1.178,0,0,1,.363-.579l1.354-1.181a1.182,1.182,0,0,1,1.352-.141l2.236,1.248a1.183,1.183,0,0,1,.606,1.032v1.433A1.183,1.183,0,0,1,37.825,266.73Zm-3.742-1.379h3.545v-1.121l-2.014-1.124-1.205,1.05Z" transform="translate(-29.643 -238.212)"/>
        <path id="Trazado_1261476" data-name="Trazado 1261476" d="M148.114,221.909a1.23,1.23,0,0,1,.7.215l1.439.982a1.235,1.235,0,0,1,.539,1.021v.649a1.24,1.24,0,0,1-.812,1.161l-.805.294-.221.778a1.241,1.241,0,0,1-1.189.9,1.228,1.228,0,0,1-.5-.105l-1.506-.664a1.236,1.236,0,0,1-.538-1.8l1.858-2.863A1.232,1.232,0,0,1,148.114,221.909Zm1.3,2.293-1.256-.857-1.687,2.6,1.2.53.2-.691a1.239,1.239,0,0,1,.766-.824l.78-.284Z" transform="translate(-131.692 -202.09)"/>
        <path id="Trazado_1261477" data-name="Trazado 1261477" d="M78.668,198.554h1.723a1.425,1.425,0,0,1,1.259.756l.6,1.128a1.428,1.428,0,0,1-.062,1.449l-.446.688a1.425,1.425,0,0,1-1.454.627l-2.973-.543a1.427,1.427,0,0,1-.825-2.335l1.095-1.272A1.426,1.426,0,0,1,78.668,198.554Zm1.869,3.29.5-.709-.6-1.177-1.766-.026a.048.048,0,0,0-.037.017l-1.095,1.272Z" transform="translate(-69.146 -180.882)"/>
        <path id="Trazado_1261478" data-name="Trazado 1261478" d="M412.512,191.3h2.14a1.215,1.215,0,0,1,1.136.771l.5,1.263A1.222,1.222,0,0,1,415.205,195l-1.14.05-1.748.781a1.221,1.221,0,0,1-1.482-.4l-.491-.681a1.228,1.228,0,0,1,.027-1.465l1.178-1.514A1.214,1.214,0,0,1,412.512,191.3Zm2.033,1.379h-1.956l-1.059,1.361.356.493,1.681-.753a1.218,1.218,0,0,1,.438-.1l.92-.04Z" transform="translate(-372.423 -174.292)"/>
        <path id="Trazado_1261479" data-name="Trazado 1261479" d="M305.134,276.671h0a1.242,1.242,0,0,1-.59-.15l-1.462-.794a1.237,1.237,0,0,1-.647-1.088v-.587a1.232,1.232,0,0,1,.871-1.182l2.042-.634a1.237,1.237,0,0,1,1.592,1l.181,1.209a1.23,1.23,0,0,1-.324,1.033l-.761.806A1.243,1.243,0,0,1,305.134,276.671Zm-1.321-2.115,1.293.7.64-.678-.147-.985-1.786.561Z" transform="translate(-274.639 -247.741)"/>
        <path id="Trazado_1261480" data-name="Trazado 1261480" d="M326.146,213.675l.115.005,2.39.215a1.277,1.277,0,0,1,1.06.769l.945,2.2a1.282,1.282,0,0,1-.446,1.555l-.3.209a1.278,1.278,0,0,1-1.454,0l-.94-.649-1.647.137a1.316,1.316,0,0,1-1.076-.463,1.274,1.274,0,0,1-.268-1.058l.37-1.891A1.281,1.281,0,0,1,326.146,213.675Zm2.322,1.588-2.24-.2-.327,1.673,1.581-.111a1.338,1.338,0,0,1,.816.223l.883.61.177-.123Z" transform="translate(-294.676 -194.613)"/>
        <path id="Trazado_1261481" data-name="Trazado 1261481" d="M351.776,393.135a4.693,4.693,0,0,1-2.416-.608,3.731,3.731,0,0,0-3.585,0,4.693,4.693,0,0,1-2.416.608,4.638,4.638,0,0,1-2.365-.582.689.689,0,1,1,.622-1.23,3.3,3.3,0,0,0,1.742.433,3.381,3.381,0,0,0,1.793-.459,5.1,5.1,0,0,1,4.832,0,3.381,3.381,0,0,0,1.793.459.689.689,0,1,1,0,1.379Z" transform="translate(-309.313 -355.36)"/>
        <path id="Trazado_1261482" data-name="Trazado 1261482" d="M64.184,393.135a4.691,4.691,0,0,1-2.416-.608,3.73,3.73,0,0,0-3.584,0,5.1,5.1,0,0,1-4.831,0,3.729,3.729,0,0,0-3.585,0,5.1,5.1,0,0,1-4.831,0,3.38,3.38,0,0,0-1.792-.459.689.689,0,1,1,0-1.379,4.692,4.692,0,0,1,2.416.608,3.729,3.729,0,0,0,3.584,0,5.1,5.1,0,0,1,4.831,0,3.729,3.729,0,0,0,3.584,0,5.1,5.1,0,0,1,4.831,0,3.73,3.73,0,0,0,3.585,0,5.111,5.111,0,0,1,1.277-.493.689.689,0,1,1,.3,1.346,3.8,3.8,0,0,0-.953.377A4.692,4.692,0,0,1,64.184,393.135Z" transform="translate(-38.553 -355.36)"/>
        <path id="Trazado_1261483" data-name="Trazado 1261483" d="M195.976,434.905a4.693,4.693,0,0,1-2.416-.608,3.731,3.731,0,0,0-3.585,0,5.1,5.1,0,0,1-4.832,0,3.729,3.729,0,0,0-3.585,0,5.1,5.1,0,0,1-4.831,0,3.729,3.729,0,0,0-3.584,0,4.691,4.691,0,0,1-2.416.608,5.209,5.209,0,0,1-1.139-.115.689.689,0,0,1,.3-1.346,3.853,3.853,0,0,0,.84.082,3.379,3.379,0,0,0,1.792-.459,5.1,5.1,0,0,1,4.831,0,3.729,3.729,0,0,0,3.585,0,5.1,5.1,0,0,1,4.831,0,3.73,3.73,0,0,0,3.585,0,5.105,5.105,0,0,1,4.832,0,3.381,3.381,0,0,0,1.793.459.689.689,0,1,1,0,1.379Z" transform="translate(-153.512 -393.291)"/>
        <path id="Trazado_1261484" data-name="Trazado 1261484" d="M47.352,434.905a4.692,4.692,0,0,1-2.416-.608,3.38,3.38,0,0,0-1.792-.459.689.689,0,0,1,0-1.379,4.692,4.692,0,0,1,2.416.608,3.729,3.729,0,0,0,3.584,0,4.692,4.692,0,0,1,2.416-.608l.222,0a.689.689,0,0,1-.047,1.378l-.175,0a3.38,3.38,0,0,0-1.792.459A4.692,4.692,0,0,1,47.352,434.905Z" transform="translate(-38.553 -393.291)"/>
      </g>
    </g>
  </g>
</svg>
