<svg xmlns="http://www.w3.org/2000/svg" xmlns:xlink="http://www.w3.org/1999/xlink" width="76.345" height="76.345" viewBox="0 0 76.345 76.345">
  <defs>
    <clipPath id="clip-path">
      <path id="path477" d="M0-682.665H56.146v56.146H0Z" transform="translate(0 682.665)"/>
    </clipPath>
  </defs>
  <g id="Grupo_1204353" data-name="Grupo 1204353" transform="translate(-552.051 -12312)">
    <g id="Grupo_1203920" data-name="Grupo 1203920" transform="translate(-469.916 9219.345)">
      <g id="Grupo_1200255" data-name="Grupo 1200255">
        <g id="Grupo_1187152" data-name="Grupo 1187152">
          <g id="Grupo_1185946" data-name="Grupo 1185946" transform="translate(-3.07)">
            <g id="Grupo_1184280" data-name="Grupo 1184280">
              <g id="Grupo_1182168" data-name="Grupo 1182168">
                <g id="Grupo_1178877" data-name="Grupo 1178877">
                  <g id="Grupo_1111311" data-name="Grupo 1111311">
                    <g id="Grupo_1098742" data-name="Grupo 1098742" transform="translate(1025.482 3093.101)">
                      <rect id="Rect치ngulo_400898" data-name="Rect치ngulo 400898" width="76.345" height="76.345" rx="38.172" transform="translate(-0.445 -0.445)" fill="#ffc94a" opacity="0.859"/>
                      <rect id="Rect치ngulo_400907" data-name="Rect치ngulo 400907" width="76.345" height="76.345" rx="38.172" transform="translate(-0.446 -0.445)" fill="none"/>
                    </g>
                  </g>
                </g>
              </g>
            </g>
          </g>
        </g>
      </g>
    </g>
    <g id="g471" transform="translate(562.051 13003.665)">
      <g id="g473" transform="translate(0 -682.665)">
        <g id="g475" clip-path="url(#clip-path)">
          <g id="g481" transform="translate(11.536 2.108)">
            <path id="path483" d="M-66-37.7a16.667,16.667,0,0,0-5.915,8.38,13.54,13.54,0,0,1,7.056,3.192,16.815,16.815,0,0,0,21.19.766,16.784,16.784,0,0,0,3.811-4.01,16.872,16.872,0,0,0-2.557-4.969A16.831,16.831,0,0,0-66-37.7" transform="translate(71.913 41.079)" fill="#d6eb7d"/>
          </g>
          <g id="g485" transform="translate(10.44 1.021)">
            <path id="path487" d="M-23.878-75.726a17.861,17.861,0,0,1-11.792-4.41,12.4,12.4,0,0,0-6.486-2.931,1.1,1.1,0,0,1-.775-.5,1.1,1.1,0,0,1-.12-.914,17.844,17.844,0,0,1,2.608-5.186,1.1,1.1,0,0,1,1.532-.24,1.1,1.1,0,0,1,.24,1.532A15.6,15.6,0,0,0-40.539-85a14.486,14.486,0,0,1,6.315,3.211,15.767,15.767,0,0,0,19.807.715,15.7,15.7,0,0,0,3.256-3.31,15.816,15.816,0,0,0-2.221-4.139,15.8,15.8,0,0,0-17.993-5.34,1.1,1.1,0,0,1-1.407-.653,1.1,1.1,0,0,1,.653-1.407,18,18,0,0,1,20.506,6.09A17.963,17.963,0,0,1-8.9-84.538a1.1,1.1,0,0,1-.136.946,17.874,17.874,0,0,1-4.06,4.272A17.881,17.881,0,0,1-23.878-75.726Z" transform="translate(43.1 96.998)"/>
          </g>
          <g id="g489" transform="translate(20.913 7.491)">
            <path id="path491" d="M-298.069-116.29a1.1,1.1,0,0,1-.88-.441,22.146,22.146,0,0,0-17.9-8.983,22.336,22.336,0,0,0-6.517.966,1.1,1.1,0,0,1-1.369-.729,1.1,1.1,0,0,1,.729-1.369,24.528,24.528,0,0,1,7.157-1.061,24.321,24.321,0,0,1,19.657,9.864,1.1,1.1,0,0,1-.223,1.535A1.092,1.092,0,0,1-298.069-116.29Z" transform="translate(324.781 127.906)"/>
          </g>
          <g id="g493" transform="translate(31.439 8.857)">
            <path id="path495" d="M-12.236-49.686a1.094,1.094,0,0,1-.849-.4,1.1,1.1,0,0,1,.153-1.543l4.212-3.454a1.1,1.1,0,0,1,1.543.153,1.1,1.1,0,0,1-.153,1.543l-4.212,3.454A1.092,1.092,0,0,1-12.236-49.686Z" transform="translate(13.334 55.334)"/>
          </g>
          <g id="g497" transform="translate(25.5 5.038)">
            <path id="path499" d="M-43.366-38.585a1.092,1.092,0,0,1-.725-.274l-2.79-2.459a1.1,1.1,0,0,1-.1-1.548,1.1,1.1,0,0,1,1.548-.1l2.79,2.459a1.1,1.1,0,0,1,.1,1.548A1.094,1.094,0,0,1-43.366-38.585Z" transform="translate(47.252 43.237)"/>
          </g>
          <g id="g501" transform="translate(1.097 25.478)">
            <path id="path503" d="M-114.4-299.1a16.668,16.668,0,0,0,10.214.932,13.539,13.539,0,0,1-.764-7.707,16.815,16.815,0,0,0-9.932-18.734,16.787,16.787,0,0,0-5.379-1.3,16.875,16.875,0,0,0-3.024,4.7A16.831,16.831,0,0,0-114.4-299.1" transform="translate(124.65 325.906)" fill="#d6eb7d"/>
          </g>
          <g id="g505" transform="translate(-0.006 24.382)">
            <path id="path507" d="M-120.162-308.9h0a17.653,17.653,0,0,1-6.968-1.427,17.853,17.853,0,0,1-9.635-9.864,17.72,17.72,0,0,1,.174-13.685,17.961,17.961,0,0,1,3.221-5,1.1,1.1,0,0,1,.887-.355,17.872,17.872,0,0,1,5.73,1.38,17.969,17.969,0,0,1,10.58,19.957,12.4,12.4,0,0,0,.7,7.082,1.1,1.1,0,0,1-.046.921,1.1,1.1,0,0,1-.732.561A17.975,17.975,0,0,1-120.162-308.9ZM-132.1-337a15.816,15.816,0,0,0-2.474,3.993,15.542,15.542,0,0,0-.151,12,15.675,15.675,0,0,0,8.459,8.66,15.472,15.472,0,0,0,6.107,1.251,15.686,15.686,0,0,0,2.214-.157,14.483,14.483,0,0,1-.377-7.074,15.767,15.767,0,0,0-9.284-17.511A15.7,15.7,0,0,0-132.1-337Z" transform="translate(138.054 339.239)"/>
          </g>
          <g id="g509" transform="translate(4.079 18.792)">
            <path id="path511" d="M-28.274,15.245a1.093,1.093,0,0,1-.748-.3,24.525,24.525,0,0,1-4.5-5.667,24.32,24.32,0,0,1-1.286-21.955,1.1,1.1,0,0,1,1.441-.574,1.1,1.1,0,0,1,.574,1.441A22.146,22.146,0,0,0-31.62,8.186a22.334,22.334,0,0,0,4.1,5.161,1.1,1.1,0,0,1,.053,1.55A1.094,1.094,0,0,1-28.274,15.245Z" transform="translate(36.827 13.337)"/>
          </g>
          <g id="g513" transform="translate(4.472 32.24)">
            <path id="path515" d="M-69.121-32.574a1.094,1.094,0,0,1-.386-.071l-5.1-1.921a1.1,1.1,0,0,1-.64-1.413,1.1,1.1,0,0,1,1.413-.64l5.1,1.921a1.1,1.1,0,0,1,.64,1.413A1.1,1.1,0,0,1-69.121-32.574Z" transform="translate(75.315 36.689)"/>
          </g>
          <g id="g517" transform="translate(6.241 39.296)">
            <path id="path519" d="M-21.175-7.5a1.1,1.1,0,0,1-.218-.022,1.1,1.1,0,0,1-.858-1.292l.735-3.646a1.1,1.1,0,0,1,1.292-.858,1.1,1.1,0,0,1,.858,1.292L-20.1-8.377A1.1,1.1,0,0,1-21.175-7.5Z" transform="translate(22.273 13.336)"/>
          </g>
          <g id="g521" transform="translate(32.948 24.857)">
            <path id="path523" d="M-245.249-103.91a16.667,16.667,0,0,0-4.3-9.312,13.54,13.54,0,0,1-6.293,4.515A16.815,16.815,0,0,0-267.1-90.739a16.784,16.784,0,0,0,1.567,5.306,16.877,16.877,0,0,0,5.582.27,16.831,16.831,0,0,0,14.7-18.747" transform="translate(267.228 113.222)" fill="#d6eb7d"/>
          </g>
          <g id="g525" transform="translate(31.854 23.761)">
            <path id="path527" d="M-261.757-126.556a1.1,1.1,0,0,1,.807.354,17.714,17.714,0,0,1,4.581,9.923A17.853,17.853,0,0,1-260.093-103a17.72,17.72,0,0,1-11.938,6.692,18.394,18.394,0,0,1-2.125.124,17.861,17.861,0,0,1-3.819-.412,1.1,1.1,0,0,1-.751-.591,17.872,17.872,0,0,1-1.67-5.652A17.969,17.969,0,0,1-268.4-121.982a12.4,12.4,0,0,0,5.781-4.152,1.1,1.1,0,0,1,.82-.421Zm-12.4,28.176a16.194,16.194,0,0,0,1.871-.109,15.542,15.542,0,0,0,10.47-5.87,15.675,15.675,0,0,0,3.27-11.656,15.5,15.5,0,0,0-3.213-7.754,14.485,14.485,0,0,1-5.938,3.864,15.767,15.767,0,0,0-10.522,16.8,15.7,15.7,0,0,0,1.239,4.475A15.7,15.7,0,0,0-274.156-98.38Z" transform="translate(280.53 126.556)"/>
          </g>
          <g id="g529" transform="translate(27.896 34.963)">
            <path id="path531" d="M-12.239-211.76a1.1,1.1,0,0,1-1.088-.968,1.1,1.1,0,0,1,.96-1.218,22.147,22.147,0,0,0,16.729-11.01,22.334,22.334,0,0,0,2.422-6.127A1.1,1.1,0,0,1,8.1-231.9a1.1,1.1,0,0,1,.821,1.316,24.525,24.525,0,0,1-2.659,6.728,24.321,24.321,0,0,1-18.371,12.092A1.107,1.107,0,0,1-12.239-211.76Z" transform="translate(13.335 231.932)"/>
          </g>
          <g id="g533" transform="translate(39.427 42.176)">
            <path id="path535" d="M-11.354-5.767a1.1,1.1,0,0,1-1.081-.919l-.886-5.375a1.1,1.1,0,0,1,.9-1.26,1.1,1.1,0,0,1,1.26.9l.886,5.375a1.1,1.1,0,0,1-.9,1.26A1.1,1.1,0,0,1-11.354-5.767Z" transform="translate(13.335 13.335)"/>
          </g>
          <g id="g537" transform="translate(45.171 40.668)">
            <path id="path539" d="M-12.24-24.381a1.1,1.1,0,0,1-1.039-.747,1.1,1.1,0,0,1,.69-1.389L-9.065-27.7a1.1,1.1,0,0,1,1.389.69,1.1,1.1,0,0,1-.69,1.389l-3.525,1.186A1.1,1.1,0,0,1-12.24-24.381Z" transform="translate(13.337 27.761)"/>
          </g>
          <g id="g541" transform="translate(17.451 5.486)">
            <path id="path543"/>
          </g>
        </g>
      </g>
    </g>
  </g>
</svg>
