<svg xmlns="http://www.w3.org/2000/svg" width="76.345" height="76.345" viewBox="0 0 76.345 76.345">
  <g id="Grupo_1204556" data-name="Grupo 1204556" transform="translate(-557.051 -9746.299)">
    <g id="Grupo_1204538" data-name="Grupo 1204538" transform="translate(5 -2565.701)">
      <g id="Grupo_1203920" data-name="Grupo 1203920" transform="translate(-469.916 9219.345)">
        <g id="Grupo_1200255" data-name="Grupo 1200255">
          <g id="Grupo_1187152" data-name="Grupo 1187152">
            <g id="Grupo_1185946" data-name="Grupo 1185946" transform="translate(-3.07)">
              <g id="Grupo_1184280" data-name="Grupo 1184280">
                <g id="Grupo_1182168" data-name="Grupo 1182168">
                  <g id="Grupo_1178877" data-name="Grupo 1178877">
                    <g id="Grupo_1111311" data-name="Grupo 1111311">
                      <g id="Grupo_1098742" data-name="Grupo 1098742" transform="translate(1025.482 3093.101)">
                        <rect id="Rect치ngulo_400898" data-name="Rect치ngulo 400898" width="76.345" height="76.345" rx="38.172" transform="translate(-0.445 -0.445)" fill="#ffc94a" opacity="0.859"/>
                        <rect id="Rect치ngulo_400907" data-name="Rect치ngulo 400907" width="76.345" height="76.345" rx="38.172" transform="translate(-0.446 -0.445)" fill="none"/>
                      </g>
                    </g>
                  </g>
                </g>
              </g>
            </g>
          </g>
        </g>
      </g>
    </g>
    <g id="proteccion-ambiental" transform="translate(567.982 9754.652)">
      <circle id="Elipse_12843" data-name="Elipse 12843" cx="15.242" cy="15.242" r="15.242" transform="translate(12.008 12.937)" fill="#cbe1ff"/>
      <path id="Trazado_1262032" data-name="Trazado 1262032" d="M32.486,41.7l-.635,3.81a15.245,15.245,0,0,1-11.414-2.6l.94-3.709a2.541,2.541,0,0,0-.347-2.024l-1.3-1.939a2.578,2.578,0,0,1-.356-2.024l.356-1.414a2.524,2.524,0,0,0-1.973-3.091l-3.531-.72A15.217,15.217,0,0,1,23.062,16.58l4.081,1.634a2.2,2.2,0,0,1,1.194,2.93l-3.4,7.663a2.2,2.2,0,0,0,.787,2.718l.881.576a2.174,2.174,0,0,1,.864,2.515l-.618,1.871a2.2,2.2,0,0,0,2.786,2.777A2.2,2.2,0,0,1,32.486,41.7Z" transform="translate(-2.027 -2.305)" fill="#6ed974"/>
      <circle id="Elipse_12844" data-name="Elipse 12844" cx="3.175" cy="3.175" r="3.175" transform="translate(44.397 34.953)" fill="#ffd098"/>
      <path id="Trazado_1262033" data-name="Trazado 1262033" d="M44,56.7l5.081-2.54v5.927H59.242V52.464A2.967,2.967,0,0,0,56.278,49.5H50.495a4.241,4.241,0,0,0-2.54.847L44,53.31Z" transform="translate(-6.589 -7.349)" fill="#ff8080"/>
      <circle id="Elipse_12845" data-name="Elipse 12845" cx="3.175" cy="3.175" r="3.175" transform="translate(24.075 34.953)" fill="#ffd098"/>
      <path id="Trazado_1262034" data-name="Trazado 1262034" d="M20,56.7l5.081-2.54v5.927H35.242V54.157l5.081,2.54V53.31l-3.5-2.625A5.926,5.926,0,0,0,33.269,49.5H26.495a4.241,4.241,0,0,0-2.54.847L20,53.31Z" transform="translate(-2.911 -7.349)" fill="#4d99ff"/>
      <circle id="Elipse_12846" data-name="Elipse 12846" cx="3.175" cy="3.175" r="3.175" transform="translate(3.752 34.953)" fill="#ffd098"/>
      <path id="Trazado_1262035" data-name="Trazado 1262035" d="M17.242,53.31l-3.954-2.964a4.241,4.241,0,0,0-2.54-.847H4.964A2.967,2.967,0,0,0,2,52.464v7.621H12.161V54.157l5.081,2.54Z" transform="translate(-0.153 -7.349)" fill="#ffde66"/>
      <path id="Trazado_1262036" data-name="Trazado 1262036" d="M32.877,3.517c1.49-1.49,4.488-.9,4.488-.9s.593,3.006-.9,4.488-4.488.9-4.488.9-.593-3.006.9-4.488Z" transform="translate(-4.729 -0.148)" fill="#9ae674"/>
      <path id="Trazado_1262037" data-name="Trazado 1262037" d="M27.226,7.223c-1.321-1.321-.9-3.9-.9-3.9s2.566-.423,3.9.9.9,3.9.9,3.9S28.555,8.544,27.226,7.223Z" transform="translate(-3.871 -0.265)" fill="#9ae674"/>
      <path id="Trazado_1262038" data-name="Trazado 1262038" d="M46.973,25.269l-5.648,4.573A1.117,1.117,0,0,1,39.5,28.808l.313-1.914a1.13,1.13,0,0,0-1.1-1.321,1.088,1.088,0,0,0-.66.237,1.118,1.118,0,0,1-1.727-1.253l2.71-7.917a15.3,15.3,0,0,1,7.934,8.62Z" transform="translate(-5.404 -2.314)" fill="#6ed974"/>
      <path id="Trazado_1262039" data-name="Trazado 1262039" d="M18.357,37.773a14.371,14.371,0,0,1-3.667-9.594,14.558,14.558,0,0,1,.076-1.5l2.642.533a1.717,1.717,0,0,1,1.109.762,1.667,1.667,0,0,1,.212,1.3l-.373,1.44A3.464,3.464,0,0,0,18.84,33.4l1.287,1.931a1.687,1.687,0,0,1,.271.728l1.677-.229a3.346,3.346,0,0,0-.542-1.44l-1.287-1.931A1.712,1.712,0,0,1,20,31.109l.364-1.423a3.388,3.388,0,0,0-2.625-4.132l-2.693-.542A14.411,14.411,0,0,1,22.913,15.2l3.726,1.482a1.4,1.4,0,0,1,.762.762,1.367,1.367,0,0,1-.008,1.05L23.98,26.147a3.07,3.07,0,0,0,1.1,3.777l.872.576a1.3,1.3,0,0,1,.584,1.262l1.677.212a2.987,2.987,0,0,0-1.338-2.887L26,28.518a1.363,1.363,0,0,1-.491-1.677l3.412-7.663a3.033,3.033,0,0,0,.034-2.371,3.078,3.078,0,0,0-1.694-1.694l-2-.8a14.475,14.475,0,0,1,3.81-.525,14.264,14.264,0,0,1,5.318,1.033L31.948,22a1.964,1.964,0,0,0,3.04,2.193.259.259,0,0,1,.373.051.252.252,0,0,1,.051.22L35.1,26.375a1.963,1.963,0,0,0,1.939,2.295,1.972,1.972,0,0,0,1.245-.449l4.683-3.777a14.2,14.2,0,0,1,.517,3.768,14.371,14.371,0,0,1-3.667,9.594l1.262,1.126A16.074,16.074,0,0,0,29.932,12.158V8.83c.161.008.33.017.508.017a5.244,5.244,0,0,0,3.726-1.262c1.787-1.787,1.16-5.106,1.126-5.25a.85.85,0,0,0-.669-.669c-.144-.025-3.463-.66-5.25,1.126a3.5,3.5,0,0,0-.525.686c-.025-.025-.051-.059-.076-.085-1.617-1.609-4.5-1.152-4.632-1.135a.845.845,0,0,0-.694.694c-.017.119-.474,3.015,1.135,4.632A5.052,5.052,0,0,0,28.137,8.8h.085v3.37A16.074,16.074,0,0,0,17.078,38.941l1.262-1.126ZM42.388,22.692l-5.182,4.183a.258.258,0,0,1-.313.025.261.261,0,0,1-.127-.279l.313-1.914a1.964,1.964,0,0,0-.423-1.592,2,2,0,0,0-2.684-.313.234.234,0,0,1-.313,0,.251.251,0,0,1-.1-.3L35.944,15.5a14.5,14.5,0,0,1,6.444,7.172ZM30.576,3.961a4.243,4.243,0,0,1,3.133-.745,4.2,4.2,0,0,1-.745,3.133,4.133,4.133,0,0,1-2.981.754A7.068,7.068,0,0,0,29.865,5.6a2.924,2.924,0,0,1,.7-1.643Zm-4.793,2.4a3.558,3.558,0,0,1-.711-2.515,3.642,3.642,0,0,1,2.515.711A3.558,3.558,0,0,1,28.3,7.069,3.642,3.642,0,0,1,25.783,6.358Z" transform="translate(-1.836 0)"/>
      <path id="Trazado_1262040" data-name="Trazado 1262040" d="M49.977,47.223a4.022,4.022,0,1,0-4.844-.025H43.906a5.13,5.13,0,0,0-3.048,1.016L37.411,50.8l-2.989-2.244A6.834,6.834,0,0,0,30.358,47.2h-.669a4.022,4.022,0,1,0-4.877,0H23.583a5.13,5.13,0,0,0-3.048,1.016L17.089,50.8l-3.446-2.583A5.13,5.13,0,0,0,10.594,47.2H9.366a4.022,4.022,0,1,0-4.844.025A3.805,3.805,0,0,0,1,51.008v7.621a.849.849,0,0,0,.847.847H12.008a.849.849,0,0,0,.847-.847V54.073L16.708,56a.871.871,0,0,0,.754,0l3.853-1.931v4.556a.849.849,0,0,0,.847.847H32.322a.849.849,0,0,0,.847-.847V54.073L37.022,56a.871.871,0,0,0,.754,0c.237-.11,3.853-1.922,3.853-1.922v4.556a.849.849,0,0,0,.847.847H52.636a.849.849,0,0,0,.847-.847V51.016a3.805,3.805,0,0,0-3.523-3.785ZM6.927,41.694A2.329,2.329,0,1,1,4.6,44.022,2.327,2.327,0,0,1,6.927,41.694ZM16.242,53.87l-3.853-1.931a.857.857,0,0,0-.821.034.846.846,0,0,0-.4.72v5.081H2.694V51A2.118,2.118,0,0,1,4.81,48.883h5.783a3.389,3.389,0,0,1,2.032.677l3.616,2.71v1.592ZM27.25,41.694a2.329,2.329,0,1,1-2.329,2.329A2.327,2.327,0,0,1,27.25,41.694ZM36.564,53.87l-3.853-1.931a.857.857,0,0,0-.821.034.846.846,0,0,0-.4.72v5.081H23.025V52.693a.846.846,0,0,0-.4-.72.835.835,0,0,0-.821-.034L17.952,53.87V52.278l3.616-2.71a3.389,3.389,0,0,1,2.032-.677h6.774a5.13,5.13,0,0,1,3.048,1.016l3.158,2.371V53.87ZM47.572,41.694a2.329,2.329,0,1,1-2.329,2.329A2.327,2.327,0,0,1,47.572,41.694Zm4.234,16.089H43.339V52.7a.846.846,0,0,0-.4-.72.835.835,0,0,0-.821-.034l-3.853,1.931V52.287l3.616-2.71a3.389,3.389,0,0,1,2.032-.677H49.7a2.118,2.118,0,0,1,2.117,2.117v6.774Z" transform="translate(0 -5.894)"/>
    </g>
  </g>
</svg>
