<svg xmlns="http://www.w3.org/2000/svg" width="76.345" height="76.345" viewBox="0 0 76.345 76.345">
  <g id="Grupo_1204555" data-name="Grupo 1204555" transform="translate(-967.051 -9746.299)">
    <g id="Grupo_1204539" data-name="Grupo 1204539" transform="translate(415 -2565.701)">
      <g id="Grupo_1203920" data-name="Grupo 1203920" transform="translate(-469.916 9219.345)">
        <g id="Grupo_1200255" data-name="Grupo 1200255">
          <g id="Grupo_1187152" data-name="Grupo 1187152">
            <g id="Grupo_1185946" data-name="Grupo 1185946" transform="translate(-3.07)">
              <g id="Grupo_1184280" data-name="Grupo 1184280">
                <g id="Grupo_1182168" data-name="Grupo 1182168">
                  <g id="Grupo_1178877" data-name="Grupo 1178877">
                    <g id="Grupo_1111311" data-name="Grupo 1111311">
                      <g id="Grupo_1098742" data-name="Grupo 1098742" transform="translate(1025.482 3093.101)">
                        <rect id="Rect치ngulo_400898" data-name="Rect치ngulo 400898" width="76.345" height="76.345" rx="38.172" transform="translate(-0.445 -0.445)" fill="#3e5b2c" opacity="0.859"/>
                        <rect id="Rect치ngulo_400907" data-name="Rect치ngulo 400907" width="76.345" height="76.345" rx="38.172" transform="translate(-0.446 -0.445)" fill="none"/>
                      </g>
                    </g>
                  </g>
                </g>
              </g>
            </g>
          </g>
        </g>
      </g>
    </g>
    <g id="ambiental" transform="translate(962.975 9758.386)">
      <g id="Grupo_1204545" data-name="Grupo 1204545" transform="translate(17.339 0.764)">
        <path id="Trazado_1262041" data-name="Trazado 1262041" d="M227.716,371.38h10.139v-5.355a2.533,2.533,0,0,0-4-1.966l-2.99,2.137h-3.146v5.183Z" transform="translate(-206.965 -327.303)" fill="#fed2a4"/>
        <path id="Trazado_1262042" data-name="Trazado 1262042" d="M124.884,356.358a2.531,2.531,0,0,0-3.532-.589l-9.094,6.5a3.351,3.351,0,0,1-.336.208v0l-1.112.881-1.84-.034v-.43l.44-.2a2.523,2.523,0,0,0-.934-4.87H105.82a5.139,5.139,0,0,1-2.861-.864,4.879,4.879,0,0,0-6.013.458l-.538.493a2.881,2.881,0,0,1-1.947.757h-.845v10.135h14.955a10.125,10.125,0,0,0,5.888-1.888l9.836-7.03A2.535,2.535,0,0,0,124.884,356.358Z" transform="translate(-86.53 -319.857)" fill="#ffe5c2"/>
        <path id="Trazado_1262043" data-name="Trazado 1262043" d="M24.067,384.545a.844.844,0,0,0,.844.845h5.4a.844.844,0,0,0,.844-.845V372.721a.844.844,0,0,0-.844-.845h-5.4a.844.844,0,0,0-.844.845Z" transform="translate(-24.067 -334.747)" fill="#c8effe"/>
        <g id="Grupo_1204542" data-name="Grupo 1204542" transform="translate(32.463 35.439)">
          <g id="Grupo_1204541" data-name="Grupo 1204541">
            <g id="Grupo_1204540" data-name="Grupo 1204540">
              <path id="Trazado_1262044" data-name="Trazado 1262044" d="M348.546,356.358a2.531,2.531,0,0,0-3.532-.589l-2.359,1.689a2.533,2.533,0,0,1,3.028,4.06l2.275-1.626A2.535,2.535,0,0,0,348.546,356.358Z" transform="translate(-342.655 -355.297)" fill="#fed2a4"/>
            </g>
          </g>
        </g>
        <path id="Trazado_1262045" data-name="Trazado 1262045" d="M69.542,371.876H67.183a.844.844,0,0,1,.844.845v11.825a.844.844,0,0,1-.844.845h2.359a.844.844,0,0,0,.844-.845V372.721A.844.844,0,0,0,69.542,371.876Z" transform="translate(-62.79 -334.747)" fill="#99e6fc"/>
        <g id="Grupo_1204544" data-name="Grupo 1204544" transform="translate(13.521)">
          <g id="Grupo_1204543" data-name="Grupo 1204543" transform="translate(1.664)">
            <path id="Trazado_1262046" data-name="Trazado 1262046" d="M224.724,39.89a15.222,15.222,0,0,0,4.658-6.653L227.21,19.059a15.218,15.218,0,0,0-7.843-5.457l-9.866.425a15.222,15.222,0,0,0-5.77,4.017h0L202.9,37.289a15.259,15.259,0,0,0,5.293,4.442Z" transform="translate(-199.862 -12.98)" fill="#01d0fb"/>
            <path id="Trazado_1262047" data-name="Trazado 1262047" d="M354.8,28.173A15.167,15.167,0,0,1,348.9,40.2l2.739-.3a15.222,15.222,0,0,0,4.658-6.653l-2.172-14.179a15.218,15.218,0,0,0-7.843-5.457l-2.068.089A15.2,15.2,0,0,1,354.8,28.173Z" transform="translate(-326.776 -12.98)" fill="#01c0fa"/>
            <path id="Trazado_1262048" data-name="Trazado 1262048" d="M180.177,72.393v-.478a1.548,1.548,0,0,1,1.548-1.548,4.051,4.051,0,0,0,3.624-2.24l.478-.956a4.052,4.052,0,0,0,.428-1.812v-2.7a2.418,2.418,0,0,0-2.418-2.418h-.9a2.418,2.418,0,0,1-2.294-1.653,2.026,2.026,0,0,0-1.922-1.385h-1.76a15.192,15.192,0,0,0-.832,19.244h0A4.051,4.051,0,0,0,180.177,72.393Z" transform="translate(-173.087 -52.136)" fill="#9be69d"/>
            <path id="Trazado_1262049" data-name="Trazado 1262049" d="M363.127,77.942l-.858-7.909-3.505-2.893h-2.227a4.051,4.051,0,0,0-3.624,2.24l-.478.956a4.052,4.052,0,0,0-.428,1.812v1.843a2.026,2.026,0,0,0,1.12,1.812l2.076,1.038a4.051,4.051,0,0,0,1.812.428h1.069a1.013,1.013,0,0,1,1.013,1.013v1.013a2.025,2.025,0,0,0,1.843,2.017Z" transform="translate(-333.776 -61.063)" fill="#9be69d"/>
            <path id="Trazado_1262050" data-name="Trazado 1262050" d="M421.355,76.256a15.167,15.167,0,0,1-.862,5.055c.06.005.121.009.182.009h2.173a15.212,15.212,0,0,0-2.172-14.18h-2.36A15.125,15.125,0,0,1,421.355,76.256Z" transform="translate(-393.328 -61.063)" fill="#6fd7a3"/>
            <path id="Trazado_1262051" data-name="Trazado 1262051" d="M275.77,8.217l-2.729-.286h-.973a15.114,15.114,0,0,0-4.382,1l.382.765a4.052,4.052,0,0,0,3.624,2.24h2.489a2.026,2.026,0,0,0,1.685-.9l1.218-1.828Z" transform="translate(-258.046 -7.887)" fill="#9be69d"/>
            <path id="Trazado_1262052" data-name="Trazado 1262052" d="M310.612,7.545a15.1,15.1,0,0,1,5.025,1.276l.467-.7h0a15.2,15.2,0,0,0-4.312-.622Q311.2,7.5,310.612,7.545Z" transform="translate(-296.599 -7.5)" fill="#6fd7a3"/>
            <path id="Trazado_1262053" data-name="Trazado 1262053" d="M261.267,243.157l2.8-.334,5.3-2.345,1.067-2.071h0l-.422-.591a4.052,4.052,0,0,0-3.3-1.7h-2.484a4.71,4.71,0,0,0-3.919,2.1h0a2.114,2.114,0,0,1-1.759.941h0a4.05,4.05,0,0,0-3.7,2.416,15.1,15.1,0,0,0,5.7,1.59Z" transform="translate(-246.513 -212.824)" fill="#9be69d"/>
            <path id="Trazado_1262054" data-name="Trazado 1262054" d="M320.516,258.574a15.151,15.151,0,0,1-9.9,4.757q.584.045,1.179.045a15.131,15.131,0,0,0,9.662-3.468l.009-.007h0Z" transform="translate(-296.599 -232.99)" fill="#6fd7a3"/>
          </g>
          <path id="Trazado_1262055" data-name="Trazado 1262055" d="M172,163.459a16.859,16.859,0,0,0-13.583-6.854q-.433,0-.861.022a.846.846,0,0,0-.8.891,16.883,16.883,0,0,0,16.86,15.968c.189,0,.377,0,.565-.01Z" transform="translate(-156.756 -141.412)" fill="#6fd7a3"/>
          <path id="Trazado_1262056" data-name="Trazado 1262056" d="M284.543,213.68a17.049,17.049,0,0,0,2.146.136c.189,0,.377,0,.565-.011l-2.179-10.016a16.98,16.98,0,0,0-2.028-2.278,19.258,19.258,0,0,0,1.5,12.169Z" transform="translate(-269.828 -181.742)" fill="#3ec3a4"/>
          <path id="Trazado_1262057" data-name="Trazado 1262057" d="M305.657,90.96a16.8,16.8,0,0,0,2.253,8.43,16.884,16.884,0,0,0,14.329-24.83.845.845,0,0,0-.8-.444A16.883,16.883,0,0,0,305.657,90.96Z" transform="translate(-290.484 -67.326)" fill="#6fd7a3"/>
          <path id="Trazado_1262058" data-name="Trazado 1262058" d="M341.018,74.559a.845.845,0,0,0-.8-.444,16.905,16.905,0,0,0-1.739.2.84.84,0,0,1,.2.241,16.886,16.886,0,0,1-12.11,24.61c.041.073.081.147.122.22a16.885,16.885,0,0,0,14.329-24.83Z" transform="translate(-309.264 -67.325)" fill="#3ec3a4"/>
        </g>
      </g>
      <g id="Grupo_1204554" data-name="Grupo 1204554" transform="translate(16.576 0)">
        <g id="Grupo_1204548" data-name="Grupo 1204548" transform="translate(0 35.439)">
          <path id="Trazado_1262059" data-name="Trazado 1262059" d="M24.092,379.423H18.184a1.61,1.61,0,0,1-1.608-1.609v-6.757a.764.764,0,0,1,1.528,0v6.757a.08.08,0,0,0,.08.08h5.908a.08.08,0,0,0,.08-.08V365.99a.08.08,0,0,0-.08-.08H18.184a.08.08,0,0,0-.08.08v1.5a.764.764,0,0,1-1.528,0v-1.5a1.61,1.61,0,0,1,1.608-1.609h5.908A1.61,1.61,0,0,1,25.7,365.99v11.824A1.61,1.61,0,0,1,24.092,379.423Z" transform="translate(-16.576 -362.691)"/>
          <g id="Grupo_1204547" data-name="Grupo 1204547" transform="translate(7.596)">
            <g id="Grupo_1204546" data-name="Grupo 1204546" transform="translate(16.3 0.845)">
              <path id="Trazado_1262060" data-name="Trazado 1262060" d="M251.857,360.225a.764.764,0,0,1-.445-1.386l2.99-2.137a3.3,3.3,0,0,1,5.21,2.559.764.764,0,0,1-1.527.056,1.768,1.768,0,0,0-2.794-1.372l-2.99,2.137A.761.761,0,0,1,251.857,360.225Z" transform="translate(-251.092 -356.087)"/>
            </g>
            <path id="Trazado_1262061" data-name="Trazado 1262061" d="M106.333,362.839H91.887a.764.764,0,1,1,0-1.528h14.446a9.307,9.307,0,0,0,5.442-1.745l9.835-7.03a1.77,1.77,0,0,0-.737-3.186,1.755,1.755,0,0,0-1.318.305l-9.094,6.5a4.116,4.116,0,0,1-2.407.772h-1.82a.764.764,0,1,1,0-1.528h1.82a2.6,2.6,0,0,0,1.518-.487l9.094-6.5a3.3,3.3,0,0,1,3.832,5.367l-9.835,7.03A10.827,10.827,0,0,1,106.333,362.839Z" transform="translate(-91.123 -347.797)"/>
          </g>
          <path id="Trazado_1262062" data-name="Trazado 1262062" d="M106.178,364.378h-5.007a.764.764,0,1,1,0-1.528h5.007a1.86,1.86,0,0,0,1.318-.557,1.726,1.726,0,0,0,.506-1.247,1.777,1.777,0,0,0-1.767-1.735h-2.655a5.913,5.913,0,0,1-3.292-1,4.115,4.115,0,0,0-5.065.39l-.538.493a3.636,3.636,0,0,1-2.463.958h-.336a.764.764,0,0,1,0-1.528h.336a2.111,2.111,0,0,0,1.43-.556l.538-.493a5.643,5.643,0,0,1,6.946-.535,4.389,4.389,0,0,0,2.443.74h2.655a3.313,3.313,0,0,1,3.3,3.235,3.243,3.243,0,0,1-.943,2.346A3.4,3.4,0,0,1,106.178,364.378Z" transform="translate(-83.527 -355.248)"/>
        </g>
        <g id="Grupo_1204553" data-name="Grupo 1204553" transform="translate(13.528)">
          <g id="Grupo_1204550" data-name="Grupo 1204550" transform="translate(1.664)">
            <path id="Trazado_1262063" data-name="Trazado 1262063" d="M184.422,9.48a.764.764,0,0,1-.671-1.129,15.962,15.962,0,0,1,27.423-1.073.764.764,0,0,1-1.282.832,14.433,14.433,0,0,0-24.8.97A.764.764,0,0,1,184.422,9.48Z" transform="translate(-181.825 0)"/>
            <path id="Trazado_1262064" data-name="Trazado 1262064" d="M166.428,117.162a.764.764,0,0,1-.764-.764,16.014,16.014,0,0,1,.5-3.987.764.764,0,1,1,1.48.381,14.484,14.484,0,0,0-.454,3.606A.764.764,0,0,1,166.428,117.162Z" transform="translate(-165.664 -100.44)"/>
            <g id="Grupo_1204549" data-name="Grupo 1204549" transform="translate(3.87 0.622)">
              <path id="Trazado_1262065" data-name="Trazado 1262065" d="M267.521,11.06h-2.489A4.789,4.789,0,0,1,260.725,8.4l-.382-.765a.764.764,0,0,1,1.367-.684l.382.765a3.269,3.269,0,0,0,2.94,1.817h2.489a1.259,1.259,0,0,0,1.05-.562l1.685-2.528a.764.764,0,1,1,1.272.848l-1.685,2.528A2.784,2.784,0,0,1,267.521,11.06Z" transform="translate(-254.492 -6.102)"/>
              <path id="Trazado_1262066" data-name="Trazado 1262066" d="M210.058,64.3a.764.764,0,0,1-.166-1.51,3.274,3.274,0,0,0,2.223-1.738l.478-.956a3.3,3.3,0,0,0,.347-1.47v-2.7a1.656,1.656,0,0,0-1.654-1.654h-.9a3.178,3.178,0,0,1-3.019-2.176,1.26,1.26,0,0,0-1.2-.863h-1.76a.764.764,0,1,1,0-1.528h1.76a2.786,2.786,0,0,1,2.647,1.908,1.652,1.652,0,0,0,1.569,1.131h.9a3.186,3.186,0,0,1,3.182,3.182v2.7a4.841,4.841,0,0,1-.508,2.154l-.478.956a4.8,4.8,0,0,1-3.256,2.546A.767.767,0,0,1,210.058,64.3Z" transform="translate(-203.643 -45.258)"/>
              <path id="Trazado_1262067" data-name="Trazado 1262067" d="M345.349,67.01a.764.764,0,0,1-.764-.764v-.834a4.841,4.841,0,0,1,.508-2.154l.478-.956a4.789,4.789,0,0,1,4.307-2.662h4.587a.764.764,0,0,1,0,1.528h-4.587a3.269,3.269,0,0,0-2.94,1.817l-.478.956a3.3,3.3,0,0,0-.347,1.47v.834A.764.764,0,0,1,345.349,67.01Z" transform="translate(-330.223 -54.185)"/>
            </g>
          </g>
          <g id="Grupo_1204552" data-name="Grupo 1204552" transform="translate(0 6.787)">
            <path id="Trazado_1262068" data-name="Trazado 1262068" d="M301.215,93.415a.764.764,0,0,1-.662-.382,17.648,17.648,0,0,1,14.139-26.418l.1,0a1.606,1.606,0,0,1,1.417.849A17.649,17.649,0,0,1,301.24,93.414Zm13.651-25.233a16.081,16.081,0,0,0-13.214,23.683,16.121,16.121,0,0,0,13.214-23.683Z" transform="translate(-283.03 -66.611)"/>
            <path id="Trazado_1262069" data-name="Trazado 1262069" d="M211.507,211.323a.761.761,0,0,1-.344-.082c-3.54-1.79-9.846-5.649-12.3-11.38a.764.764,0,0,1,1.4-.6c2.349,5.483,8.885,9.252,11.586,10.617a.764.764,0,0,1-.345,1.446Z" transform="translate(-193.76 -185.327)"/>
            <path id="Trazado_1262070" data-name="Trazado 1262070" d="M321.076,145.181a.765.765,0,0,1-.391-1.421c.087-.052,8.679-5.323,10.037-18.821a.764.764,0,1,1,1.521.153c-1.44,14.305-10.4,19.758-10.779,19.983A.76.76,0,0,1,321.076,145.181Z" transform="translate(-302.89 -118.377)"/>
            <g id="Grupo_1204551" data-name="Grupo 1204551" transform="translate(0 8.405)">
              <path id="Trazado_1262071" data-name="Trazado 1262071" d="M166.958,167.509a17.635,17.635,0,0,1-17.618-16.691,1.61,1.61,0,0,1,1.526-1.695q.447-.023.9-.023a17.727,17.727,0,0,1,14.194,7.163.764.764,0,0,1-1.229.909,16.192,16.192,0,0,0-12.965-6.544q-.414,0-.822.021l-.077.087a16.107,16.107,0,0,0,16.092,15.244c.18,0,.36,0,.539-.01a.764.764,0,1,1,.051,1.528C167.352,167.5,167.156,167.509,166.958,167.509Z" transform="translate(-149.338 -149.1)"/>
            </g>
          </g>
        </g>
      </g>
    </g>
  </g>
</svg>
