<svg xmlns="http://www.w3.org/2000/svg" width="76.345" height="76.345" viewBox="0 0 76.345 76.345">
  <g id="Grupo_1204357" data-name="Grupo 1204357" transform="translate(-972.051 -12312)">
    <g id="Grupo_1203922" data-name="Grupo 1203922" transform="translate(-49.916 9219.345)">
      <g id="Grupo_1200255" data-name="Grupo 1200255">
        <g id="Grupo_1187152" data-name="Grupo 1187152">
          <g id="Grupo_1185946" data-name="Grupo 1185946" transform="translate(-3.07)">
            <g id="Grupo_1184280" data-name="Grupo 1184280">
              <g id="Grupo_1182168" data-name="Grupo 1182168">
                <g id="Grupo_1178877" data-name="Grupo 1178877">
                  <g id="Grupo_1111311" data-name="Grupo 1111311">
                    <g id="Grupo_1098742" data-name="Grupo 1098742" transform="translate(1025.482 3093.101)">
                      <rect id="Rect치ngulo_400898" data-name="Rect치ngulo 400898" width="76.345" height="76.345" rx="38.172" transform="translate(-0.445 -0.445)" fill="#ffc94a" opacity="0.859"/>
                      <rect id="Rect치ngulo_400907" data-name="Rect치ngulo 400907" width="76.345" height="76.345" rx="38.172" transform="translate(-0.446 -0.445)" fill="none"/>
                    </g>
                  </g>
                </g>
              </g>
            </g>
          </g>
        </g>
      </g>
    </g>
    <g id="mundo-verde" transform="translate(985.051 12324.98)">
      <circle id="Elipse_12824" data-name="Elipse 12824" cx="19.738" cy="19.738" r="19.738" transform="translate(0.987 5.545)" fill="#bef7f0"/>
      <g id="Grupo_1204355" data-name="Grupo 1204355" transform="translate(0.987 8.352)">
        <path id="Trazado_1261421" data-name="Trazado 1261421" d="M231.875,349.094l-6.851-.148a6.2,6.2,0,0,0-7.1,3.572l-2.87,6.838A19.735,19.735,0,0,0,231.875,349.094Z" transform="translate(-194.815 -322.692)" fill="#a3ed5c"/>
        <path id="Trazado_1261422" data-name="Trazado 1261422" d="M10,101.377a19.746,19.746,0,0,0,14.663,19.078l-1.406-4.69a7.682,7.682,0,0,1,3.985-9.109l.992-.485a2.525,2.525,0,0,0,1.069-3.546h0a2.525,2.525,0,0,0-2.178-1.248H24.768A2.916,2.916,0,0,1,22.4,96.759l2.129-2.96A2.917,2.917,0,0,0,24.4,90.23l-4.816-5.784A19.727,19.727,0,0,0,10,101.377Z" transform="translate(-9.999 -84.446)" fill="#a3ed5c"/>
      </g>
      <g id="Grupo_1204356" data-name="Grupo 1204356" transform="translate(20.134 1.006)">
        <path id="Trazado_1261423" data-name="Trazado 1261423" d="M302.576,10.018c-.041.033-4.848,4.031-5.439,10.126-.039.406-.06.822-.059,1.246.011,6.79,5.528,6.328,5.528,6.328s5.518.48,5.507-6.31c0-.424-.023-.84-.064-1.247C307.432,14.061,302.576,10.018,302.576,10.018Z" transform="translate(-287.89 -10.018)" fill="#59aa33"/>
        <path id="Trazado_1261424" data-name="Trazado 1261424" d="M208.165,155.25c4.793,4.809,8.356.568,8.356.568s4.228-3.574-.566-8.383-11.874-4.159-11.929-4.153C204.025,143.282,203.371,150.441,208.165,155.25Z" transform="translate(-203.995 -130.099)" fill="#59aa33"/>
        <path id="Trazado_1261425" data-name="Trazado 1261425" d="M371.84,143.283c-.056-.006-7.136-.656-11.929,4.153s-.566,8.383-.566,8.383,3.562,4.242,8.356-.568S371.84,143.283,371.84,143.283Z" transform="translate(-342.46 -130.1)" fill="#59aa33"/>
      </g>
      <path id="Trazado_1261426" data-name="Trazado 1261426" d="M288.066,13.365h0a.987.987,0,0,0,.985-.988c0-.381.018-.768.055-1.149a11.928,11.928,0,0,1,.189-1.246l3.166,3.166a.99.99,0,0,0,.133.111v2.4a.987.987,0,1,0,1.974,0V10.567l2.66-2.66a12.579,12.579,0,0,1,.825,3.342c.039.381.058.767.059,1.149a.987.987,0,0,0,.987.985h0a.987.987,0,0,0,.985-.989c0-.447-.024-.9-.069-1.344C299.37,4.623,294.407.423,294.2.248a.987.987,0,0,0-1.251-.01c-.052.042-5.165,4.233-5.8,10.8-.043.446-.065.9-.064,1.343A.987.987,0,0,0,288.066,13.365Zm8.26-7.346-1.757,1.757v-4.3A17.515,17.515,0,0,1,296.326,6.019ZM292.6,3.424v6.712c0,.015,0,.03,0,.045v.308l-2.658-2.658A16.305,16.305,0,0,1,292.6,3.424Z" transform="translate(-258.744 0)"/>
      <path id="Trazado_1261427" data-name="Trazado 1261427" d="M492.853,491.98h-.011a.987.987,0,1,0,0,1.974h.011a.987.987,0,0,0,0-1.974Z" transform="translate(-443.309 -443.405)"/>
      <path id="Trazado_1261428" data-name="Trazado 1261428" d="M46.324,168.638H35.83v-3.608l1.455-1.455a.987.987,0,0,0-1.4-1.4l-.059.059v-2.7a20.576,20.576,0,0,0,4.469-7.353.987.987,0,0,0-1.863-.651,18.578,18.578,0,0,1-2.605,4.93v-7.083l1.223-1.227a6.1,6.1,0,0,0,3.481,1.342q.121.005.241.005a7.565,7.565,0,0,0,5.3-2.586c5.061-5.078,4.451-12.444,4.423-12.755a.987.987,0,0,0-.878-.891c-.075-.008-7.569-.744-12.733,4.437a9.553,9.553,0,0,0-2.047,2.883,9.556,9.556,0,0,0-2.046-2.883c-5.165-5.182-12.658-4.446-12.733-4.437a.987.987,0,0,0-.878.891c-.028.311-.638,7.678,4.423,12.755a7.564,7.564,0,0,0,5.3,2.586c.08,0,.161,0,.241-.005a6.1,6.1,0,0,0,3.481-1.342l1.223,1.227v8.748l-.651-.651a.987.987,0,1,0-1.4,1.4l2.047,2.047v3.7h0v4.017H.991a.987.987,0,0,0,0,1.974H46.323a.987.987,0,0,0,0-1.974ZM40.04,137.657a15.21,15.21,0,0,1,7.06-2.378l-7.06,7.083Zm7.633,2.91H44.616l3.866-3.878A17.161,17.161,0,0,1,47.672,140.566Zm-2.993,4.956a5.6,5.6,0,0,1-4.041,2,4.064,4.064,0,0,1-2.179-.782l4.189-4.2h4.188A12.029,12.029,0,0,1,44.68,145.523Zm-6.614-6.193v5.013l-1,1a4.1,4.1,0,0,1-.776-2.163A5.412,5.412,0,0,1,38.066,139.33Zm-4.67,3.83a4.1,4.1,0,0,1-.777,2.184l-1-1V139.33A5.431,5.431,0,0,1,33.4,143.16Zm-10.81-7.881a15.21,15.21,0,0,1,7.06,2.377v4.706ZM21.2,136.688l3.866,3.878H22.013A17.18,17.18,0,0,1,21.2,136.688Zm7.865,10.837a5.581,5.581,0,0,1-4.062-2,12.016,12.016,0,0,1-2.157-2.983h4.188l2.9,2.908h0l1.291,1.3A4.067,4.067,0,0,1,29.068,147.525Z" transform="translate(-0.004 -120.062)"/>
      <path id="Trazado_1261429" data-name="Trazado 1261429" d="M260.035,56.886l.021.007a.987.987,0,1,0,.579-1.887l-.012,0a.987.987,0,0,0-.589,1.884Z" transform="translate(-233.745 -49.515)"/>
      <path id="Trazado_1261430" data-name="Trazado 1261430" d="M15.319,86.737a.992.992,0,0,0,.149.041A20.756,20.756,0,0,0,31.2,84.614a.987.987,0,1,0-1-1.7,18.7,18.7,0,0,1-7.524,2.465L25,80.015a5.209,5.209,0,0,1,5.969-3l1.036.243a.987.987,0,0,0,.45-1.922l-1.037-.243a7.181,7.181,0,0,0-8.23,4.141l-2.706,6.246a18.724,18.724,0,0,1-4.051-.493l-1.244-4.15a6.673,6.673,0,0,1,3.473-7.939l.992-.485a3.512,3.512,0,0,0-1.542-6.668H15.756a1.93,1.93,0,0,1-1.567-3.056l2.129-2.96a3.9,3.9,0,0,0-.169-4.777L12.1,50.083a18.636,18.636,0,0,1,8.628-2.106c.587,0,1.179.027,1.761.082a.987.987,0,0,0,.183-1.965c-.642-.06-1.3-.09-1.944-.09a20.6,20.6,0,0,0-10.544,2.89.984.984,0,0,0-.207.123,20.721,20.721,0,0,0,5.344,37.721ZM10.376,51.1l4.257,5.113a1.929,1.929,0,0,1,.084,2.361l-2.129,2.96a3.9,3.9,0,0,0,3.169,6.183h2.356a1.544,1.544,0,0,1,1.327.76,1.538,1.538,0,0,1-.651,2.16l-.992.485A8.639,8.639,0,0,0,13.3,81.4l.868,2.895a18.745,18.745,0,0,1-3.791-33.2Z" transform="translate(0 -41.445)"/>
    </g>
  </g>
</svg>
