<svg xmlns="http://www.w3.org/2000/svg" xmlns:xlink="http://www.w3.org/1999/xlink" width="92.002" height="92.002" viewBox="0 0 92.002 92.002">
  <defs>
    <clipPath id="clip-path">
      <path id="path3540" d="M0-682.665H67v67H0Z" transform="translate(0 682.665)"/>
    </clipPath>
  </defs>
  <g id="Grupo_1204376" data-name="Grupo 1204376" transform="translate(-753.999 -17026.398)">
    <g id="Grupo_1204046" data-name="Grupo 1204046" transform="translate(-267.968 13933.744)">
      <g id="Grupo_1200255" data-name="Grupo 1200255" transform="translate(1021.967 3092.655)">
        <g id="Grupo_1187152" data-name="Grupo 1187152">
          <g id="Grupo_1185946" data-name="Grupo 1185946">
            <g id="Grupo_1184280" data-name="Grupo 1184280">
              <g id="Grupo_1182168" data-name="Grupo 1182168">
                <g id="Grupo_1178877" data-name="Grupo 1178877">
                  <g id="Grupo_1111311" data-name="Grupo 1111311">
                    <g id="Grupo_1098742" data-name="Grupo 1098742" transform="translate(0 0)">
                      <rect id="Rect치ngulo_400898" data-name="Rect치ngulo 400898" width="92.001" height="92.001" rx="46.001" transform="translate(0.001 0)" fill="#fff9eb" opacity="0.859"/>
                      <rect id="Rect치ngulo_400907" data-name="Rect치ngulo 400907" width="92.001" height="92.001" rx="46.001" transform="translate(0 0)" fill="none"/>
                    </g>
                  </g>
                </g>
              </g>
            </g>
          </g>
        </g>
      </g>
    </g>
    <g id="g3534" transform="translate(763.667 17719.664)">
      <g id="g3536" transform="translate(0 -682.665)">
        <g id="g3538" clip-path="url(#clip-path)">
          <g id="g3544" transform="translate(37.188 1.761)">
            <path id="path3546" d="M-93.576-95.254h-6.786a.714.714,0,0,1-.684-.509l-2.683-8.938a.714.714,0,0,1,.684-.919h12.068a.714.714,0,0,1,.686.913l-2.6,8.938a.714.714,0,0,1-.686.515" transform="translate(103.76 105.62)" fill="#ffbd86"/>
          </g>
          <g id="g3548" transform="translate(37.188 1.761)">
            <path id="path3550" d="M-63.028-90.58l-2.683-8.938a.714.714,0,0,1,.684-.919h-4.146a.714.714,0,0,0-.684.919l2.683,8.938a.714.714,0,0,0,.684.509h4.146a.714.714,0,0,1-.684-.509" transform="translate(69.887 100.437)" fill="#f6a96c"/>
          </g>
          <g id="g3552" transform="translate(36.206 0.78)">
            <path id="path3554" d="M-102.6-103.291h-6.786a1.685,1.685,0,0,1-1.624-1.208l-2.683-8.938a1.68,1.68,0,0,1,.263-1.5,1.68,1.68,0,0,1,1.36-.684H-100a1.681,1.681,0,0,1,1.356.678,1.681,1.681,0,0,1,.272,1.491l-2.6,8.938A1.7,1.7,0,0,1-102.6-103.291Zm-6.587-1.963h6.386l2.443-8.4h-11.352Z" transform="translate(113.769 115.62)"/>
          </g>
          <g id="g3556" transform="translate(44.182 22.463)">
            <path id="path3558" d="M-80.107-125.979a5,5,0,0,1-4.992-4.992,5,5,0,0,1,4.992-4.992,5,5,0,0,1,4.992,4.992,5,5,0,0,1-4.992,4.992m0-13.71a8.718,8.718,0,0,0-8.718,8.718,8.718,8.718,0,0,0,8.718,8.718,8.718,8.718,0,0,0,8.718-8.718,8.718,8.718,0,0,0-8.718-8.718" transform="translate(88.825 139.689)" fill="#62dbfb"/>
          </g>
          <g id="g3560" transform="translate(43.201 21.481)">
            <path id="path3562" d="M-89.126-130.291a9.71,9.71,0,0,1-9.7-9.7,9.71,9.71,0,0,1,9.7-9.7,9.673,9.673,0,0,1,5.133,1.471.981.981,0,0,1,.312,1.352.981.981,0,0,1-1.352.312,7.712,7.712,0,0,0-4.093-1.172,7.745,7.745,0,0,0-7.736,7.736,7.745,7.745,0,0,0,7.736,7.736,7.745,7.745,0,0,0,7.736-7.736,7.647,7.647,0,0,0-.878-3.579.981.981,0,0,1,.415-1.325.981.981,0,0,1,1.325.415,9.723,9.723,0,0,1,1.1,4.488A9.71,9.71,0,0,1-89.126-130.291Zm0-3.726A5.98,5.98,0,0,1-95.1-139.99a5.98,5.98,0,0,1,5.974-5.974,5.98,5.98,0,0,1,5.974,5.974A5.98,5.98,0,0,1-89.126-134.016Zm0-9.984a4.015,4.015,0,0,0-4.011,4.011,4.015,4.015,0,0,0,4.011,4.011,4.015,4.015,0,0,0,4.011-4.011A4.015,4.015,0,0,0-89.126-144Z" transform="translate(98.825 149.689)"/>
          </g>
          <g id="g3564" transform="translate(21.854 12.268)">
            <path id="path3566" d="M-251.464-161.4v-17.565h-10.33v17.523a3.378,3.378,0,0,1-2.781,3.331,17.3,17.3,0,0,0-14.255,16.978h0A15.183,15.183,0,0,0-263.692-126H-249.8a15.183,15.183,0,0,0,15.138-15.138h0a17.307,17.307,0,0,0-14.058-16.944,3.377,3.377,0,0,1-2.741-3.324" transform="translate(278.83 178.966)" fill="#c8effe"/>
          </g>
          <g id="g3568" transform="translate(21.854 12.268)">
            <path id="path3570" d="M-37.878-376.8h0a17.3,17.3,0,0,1,14.255-16.978,3.378,3.378,0,0,0,2.781-3.331v-20.7h-4.122v17.523a3.378,3.378,0,0,1-2.781,3.331A17.3,17.3,0,0,0-42-379.969a15.18,15.18,0,0,0,8.13,13.406A15.076,15.076,0,0,1-37.878-376.8" transform="translate(42 417.802)" fill="#99e6fc"/>
          </g>
          <g id="g3572" transform="translate(20.873 11.287)">
            <path id="path3574" d="M-270.813-188.966h10.33a.981.981,0,0,1,.981.981v17.565a2.4,2.4,0,0,0,1.941,2.359A18.242,18.242,0,0,1-242.7-150.153a16.138,16.138,0,0,1-16.12,16.12H-272.71a16.138,16.138,0,0,1-16.12-16.12A18.2,18.2,0,0,1-273.764-168.1a2.391,2.391,0,0,0,1.97-2.365v-17.523A.981.981,0,0,1-270.813-188.966Zm9.349,1.963h-8.367v16.541a4.351,4.351,0,0,1-3.592,4.3,16.241,16.241,0,0,0-13.444,16.012A14.173,14.173,0,0,0-272.71-136h13.888a14.173,14.173,0,0,0,14.157-14.157,16.278,16.278,0,0,0-13.259-15.979,4.359,4.359,0,0,1-3.54-4.288Z" transform="translate(288.83 188.966)"/>
          </g>
          <g id="g3576" transform="translate(25.126 36.344)">
            <path id="path3578" d="M-315.638-44.14a14.043,14.043,0,0,0-8.121-4.776l-14.677-.027a14.031,14.031,0,0,0-8.229,4.745,13.943,13.943,0,0,0-3.323,9.012A11.88,11.88,0,0,0-338.12-23.321h13.888a11.88,11.88,0,0,0,11.867-11.867,13.95,13.95,0,0,0-3.272-8.953" transform="translate(349.987 48.944)" fill="#fac600"/>
          </g>
          <g id="g3580" transform="translate(25.126 36.344)">
            <path id="path3582" d="M-63.13-126.407a13.943,13.943,0,0,1,3.323-9.012,14.032,14.032,0,0,1,8.165-4.732l-6.806-.013a14.032,14.032,0,0,0-8.229,4.745A13.943,13.943,0,0,0-70-126.407,11.88,11.88,0,0,0-58.133-114.54h6.87A11.88,11.88,0,0,1-63.13-126.407" transform="translate(70 140.164)" fill="#e8b801"/>
          </g>
          <g id="g3584" transform="translate(24.144 35.363)">
            <path id="path3586" d="M-362.919-90.768h-13.888a12.863,12.863,0,0,1-12.848-12.848,14.926,14.926,0,0,1,3.556-9.647,15.016,15.016,0,0,1,8.807-5.076.988.988,0,0,1,.172-.015l14.677.027a.981.981,0,0,1,.18.017,15.029,15.029,0,0,1,8.691,5.109,15.037,15.037,0,0,1,3.116,6.24.981.981,0,0,1-.734,1.178.981.981,0,0,1-1.178-.734,13.065,13.065,0,0,0-2.707-5.422,13.064,13.064,0,0,0-7.464-4.426l-14.5-.027a13.052,13.052,0,0,0-7.568,4.4,12.961,12.961,0,0,0-3.089,8.376,10.9,10.9,0,0,0,10.885,10.885h13.888a10.894,10.894,0,0,0,10.8-9.547.981.981,0,0,1,1.094-.854.981.981,0,0,1,.854,1.094A12.859,12.859,0,0,1-362.919-90.768Z" transform="translate(389.655 118.354)"/>
          </g>
          <g id="g3588" transform="translate(33.209 8.813)">
            <path id="path3590" d="M-155.92-41.08H-168.63a3.387,3.387,0,0,1-2.782-1.456l-1.355-1.951a.677.677,0,0,1,.557-1.064h16.29a2.235,2.235,0,0,1,2.235,2.235,2.235,2.235,0,0,1-2.235,2.235" transform="translate(172.888 45.551)" fill="#99e6fc"/>
          </g>
          <g id="g3592" transform="translate(33.209 8.813)">
            <path id="path3594" d="M-76.369-27.7l-1.355-1.951a.677.677,0,0,1,.557-1.064H-84a.677.677,0,0,0-.557,1.064L-83.2-27.7a3.387,3.387,0,0,0,2.782,1.456h6.834A3.387,3.387,0,0,1-76.369-27.7" transform="translate(84.68 30.72)" fill="#62dbfb"/>
          </g>
          <g id="g3596" transform="translate(32.228 7.831)">
            <path id="path3598" d="M-164.935-49.117h-12.709a4.369,4.369,0,0,1-3.589-1.878l-1.354-1.951a1.654,1.654,0,0,1-.107-1.715,1.654,1.654,0,0,1,1.47-.89h16.29a3.22,3.22,0,0,1,3.217,3.217A3.22,3.22,0,0,1-164.935-49.117Zm-15.708-4.471,1.023,1.474a2.406,2.406,0,0,0,1.976,1.034h12.709a1.255,1.255,0,0,0,1.254-1.254,1.255,1.255,0,0,0-1.254-1.254Z" transform="translate(182.885 55.551)"/>
          </g>
          <g id="g3600" transform="translate(18.32 25.862)">
            <path id="path3602" d="M0-144.7c0,6.677,1.684,12.564,4.247,16.048,2.563-3.484,4.247-9.371,4.247-16.048,0-6.38-1.538-12.04-3.911-15.569a.406.406,0,0,0-.672,0C1.538-156.744,0-151.085,0-144.7" transform="translate(0 160.453)" fill="#09a76d"/>
          </g>
          <g id="g3604" transform="translate(18.32 25.862)">
            <path id="path3606" d="M-25.252-144.7a31.379,31.379,0,0,1,2.873-13.785,16.629,16.629,0,0,0-1.038-1.785.406.406,0,0,0-.672,0C-26.462-156.744-28-151.085-28-144.7c0,6.677,1.684,12.564,4.247,16.048a15.955,15.955,0,0,0,1.374-2.264A31.378,31.378,0,0,1-25.252-144.7" transform="translate(28 160.453)" fill="#02905d"/>
          </g>
          <g id="g3608" transform="translate(17.339 24.881)">
            <path id="path3610" d="M-4.771-170.453a1.384,1.384,0,0,1,1.151.612c2.591,3.855,4.078,9.729,4.078,16.117,0,6.636-1.659,12.852-4.438,16.629a.981.981,0,0,1-.791.4.982.982,0,0,1-.791-.4C-8.341-140.872-10-147.088-10-153.723c0-6.388,1.486-12.262,4.078-16.117A1.384,1.384,0,0,1-4.771-170.453Zm0,30.99c2.061-3.509,3.266-8.706,3.266-14.261,0-5.5-1.21-10.747-3.266-14.259-2.055,3.512-3.266,8.754-3.266,14.259C-8.037-148.168-6.832-142.971-4.771-139.462Z" transform="translate(10 170.453)"/>
          </g>
          <g id="g3612" transform="translate(21.586 35.907)">
            <path id="path3614" d="M-9.019,15.759A.981.981,0,0,1-10,14.778v-23.8A.981.981,0,0,1-9.019-10a.981.981,0,0,1,.981.981v23.8A.981.981,0,0,1-9.019,15.759Z" transform="translate(10 10)"/>
          </g>
          <g id="g3616" transform="translate(0.981 35.316)">
            <path id="path3618" d="M-75.823-131.014c4.721,4.721,10.075,7.693,14.35,8.344-.651-4.275-3.623-9.629-8.344-14.35-4.511-4.512-9.6-7.426-13.775-8.244a.406.406,0,0,0-.475.475c.818,4.174,3.732,9.263,8.244,13.775" transform="translate(84.074 145.271)" fill="#09a76d"/>
          </g>
          <g id="g3620" transform="translate(0.981 35.316)">
            <path id="path3622" d="M-97.2-112.263a31.665,31.665,0,0,1-7.627-11.519,17.2,17.2,0,0,0-2.468-.69.406.406,0,0,0-.475.475c.818,4.174,3.732,9.263,8.244,13.775,4.721,4.721,10.075,7.693,14.35,8.344a16.244,16.244,0,0,0-.717-2.832A31.9,31.9,0,0,1-97.2-112.263" transform="translate(107.783 124.481)" fill="#02905d"/>
          </g>
          <g id="g3624" transform="translate(0 34.335)">
            <path id="path3626" d="M-84.823-29.527a.981.981,0,0,1-.148-.011c-4.636-.706-10.2-3.929-14.9-8.62-4.517-4.517-7.62-9.722-8.513-14.28A1.384,1.384,0,0,1-108-53.685a1.384,1.384,0,0,1,1.247-.381,25.286,25.286,0,0,1,9.56,4.486.981.981,0,0,1,.223,1.37.981.981,0,0,1-1.37.223,24.953,24.953,0,0,0-7.913-3.952c1.03,3.936,3.881,8.5,7.773,12.391,3.928,3.928,8.455,6.751,12.393,7.775-1.024-3.938-3.847-8.465-7.775-12.393q-.5-.5-1.017-.978a.981.981,0,0,1-.051-1.387.981.981,0,0,1,1.387-.051q.539.5,1.069,1.029c4.692,4.692,7.915,10.261,8.62,14.9a.981.981,0,0,1-.276.842A.982.982,0,0,1-84.823-29.527Z" transform="translate(108.407 54.092)"/>
          </g>
          <g id="g3628" transform="translate(7.916 42.25)">
            <path id="path3630" d="M7.808,8.79A.978.978,0,0,1,7.114,8.5L-9.713-8.325a.981.981,0,0,1,0-1.388.981.981,0,0,1,1.388,0L8.5,7.114A.981.981,0,0,1,7.808,8.79Z" transform="translate(10 10)"/>
          </g>
          <g id="g3632" transform="translate(5.634 50.188)">
            <path id="path3634" d="M-153.367-69.152c0,4.156-3.736,7.526-8.345,7.526s-8.345-3.369-8.345-7.526,3.736-7.526,8.345-7.526,8.345,3.369,8.345,7.526" transform="translate(170.057 76.677)" fill="#8bc727"/>
          </g>
          <g id="g3636" transform="translate(5.634 50.188)">
            <path id="path3638" d="M-37.758-69.152a7.72,7.72,0,0,1,6.291-7.3,9.223,9.223,0,0,0-2.054-.23c-4.609,0-8.345,3.369-8.345,7.526s3.736,7.526,8.345,7.526a9.223,9.223,0,0,0,2.054-.23,7.72,7.72,0,0,1-6.291-7.3" transform="translate(41.867 76.677)" fill="#81b823"/>
          </g>
          <g id="g3640" transform="translate(4.653 49.207)">
            <path id="path3642" d="M-170.73-86.677c5.143,0,9.327,3.816,9.327,8.507s-4.184,8.507-9.327,8.507-9.327-3.816-9.327-8.507S-175.873-86.677-170.73-86.677Zm0,15.051c4.06,0,7.364-2.936,7.364-6.544s-3.3-6.544-7.364-6.544-7.364,2.936-7.364,6.544S-174.791-71.626-170.73-71.626Z" transform="translate(180.057 86.677)"/>
          </g>
          <g id="g3644" transform="translate(8.08 55.838)">
            <path id="path3646" d="M-9.019-6.249A.981.981,0,0,1-10-7.23V-9.019A.981.981,0,0,1-9.019-10a.981.981,0,0,1,.981.981V-7.23A.981.981,0,0,1-9.019-6.249Z" transform="translate(10 10)"/>
          </g>
          <g id="g3648" transform="translate(16.808 49.347)">
            <path id="path3650" d="M-127.239-127.239c-2.939,2.939-7.963,2.679-11.222-.58s-3.518-8.283-.58-11.222,7.963-2.679,11.222.58,3.518,8.283.58,11.222" transform="translate(141.086 141.086)" fill="#8bc727"/>
          </g>
          <g id="g3652" transform="translate(16.808 49.349)">
            <path id="path3654" d="M-61.53-121.9c-3.259-3.259-3.518-8.283-.58-11.222a6.9,6.9,0,0,1,3.074-1.776,7.368,7.368,0,0,0-7.145,1.776c-2.939,2.939-2.679,7.963.58,11.222a8.484,8.484,0,0,0,8.149,2.355A8.967,8.967,0,0,1-61.53-121.9" transform="translate(68.226 135.163)" fill="#81b823"/>
          </g>
          <g id="g3656" transform="translate(15.827 48.366)">
            <path id="path3658" d="M-141.34-133.231a9.781,9.781,0,0,1-6.836-2.912,9.749,9.749,0,0,1-2.9-6.375,8.094,8.094,0,0,1,2.321-6.236,8.086,8.086,0,0,1,5.774-2.332,9.781,9.781,0,0,1,6.836,2.912,9.749,9.749,0,0,1,2.9,6.375,8.094,8.094,0,0,1-2.321,6.236A8.086,8.086,0,0,1-141.34-133.231Zm-1.642-15.892a6.137,6.137,0,0,0-4.386,1.758,6.156,6.156,0,0,0-1.748,4.746,7.79,7.79,0,0,0,2.328,5.088,7.806,7.806,0,0,0,5.448,2.337,6.137,6.137,0,0,0,4.386-1.758,6.156,6.156,0,0,0,1.748-4.747,7.79,7.79,0,0,0-2.328-5.088A7.805,7.805,0,0,0-142.982-149.123Z" transform="translate(151.088 151.086)"/>
          </g>
          <g id="g3660" transform="translate(19.663 52.202)">
            <path id="path3662" d="M-21.9-6.773A.978.978,0,0,1-22.6-7.06a.981.981,0,0,1,0-1.388l1.265-1.265a.981.981,0,0,1,1.388,0,.981.981,0,0,1,0,1.388L-21.208-7.06A.978.978,0,0,1-21.9-6.773Z" transform="translate(22.884 10)"/>
          </g>
        </g>
      </g>
    </g>
  </g>
</svg>
