<svg xmlns="http://www.w3.org/2000/svg" width="76.345" height="76.345" viewBox="0 0 76.345 76.345">
  <g id="Grupo_1204372" data-name="Grupo 1204372" transform="translate(-972.051 -13740)">
    <g id="Grupo_1203933" data-name="Grupo 1203933" transform="translate(-49.916 10647.345)">
      <g id="Grupo_1200255" data-name="Grupo 1200255">
        <g id="Grupo_1187152" data-name="Grupo 1187152">
          <g id="Grupo_1185946" data-name="Grupo 1185946" transform="translate(-3.07)">
            <g id="Grupo_1184280" data-name="Grupo 1184280">
              <g id="Grupo_1182168" data-name="Grupo 1182168">
                <g id="Grupo_1178877" data-name="Grupo 1178877">
                  <g id="Grupo_1111311" data-name="Grupo 1111311">
                    <g id="Grupo_1098742" data-name="Grupo 1098742" transform="translate(1025.482 3093.101)">
                      <rect id="Rect치ngulo_400898" data-name="Rect치ngulo 400898" width="76.345" height="76.345" rx="38.172" transform="translate(-0.445 -0.445)" fill="#ffe9b5" opacity="0.859"/>
                      <rect id="Rect치ngulo_400907" data-name="Rect치ngulo 400907" width="76.345" height="76.345" rx="38.172" transform="translate(-0.446 -0.445)" fill="none"/>
                    </g>
                  </g>
                </g>
              </g>
            </g>
          </g>
        </g>
      </g>
    </g>
    <g id="reciclar-senal" transform="translate(954.951 13722.686)">
      <path id="Trazado_1261496" data-name="Trazado 1261496" d="M60.147,240v4.258a1.084,1.084,0,0,1-1.086,1.084l-9.883-.017a6.426,6.426,0,0,1-5.554-9.638l4.921-8.523-2.781-1.606,4.12-.712,4.122-.712,1.443,3.924,1.444,3.926-2.783-1.606L49.188,238.9l9.877.017A1.084,1.084,0,0,1,60.147,240Z" transform="translate(-9.58 -171.426)" fill="#2ecc71"/>
      <path id="Trazado_1261497" data-name="Trazado 1261497" d="M100.662,375.894a1.084,1.084,0,0,0,1.086-1.084v-4.258a1.084,1.084,0,0,0-1.082-1.084l-9.877-.017-1.347,2.335a2.777,2.777,0,0,0,1.771,4.092Z" transform="translate(-51.181 -301.98)" fill="#105e30" opacity="0.25"/>
      <path id="Trazado_1261498" data-name="Trazado 1261498" d="M277.673,261.243a6.451,6.451,0,0,1-6.447,6.425l-9.877-.017v3.23l-2.7-3.234L256,264.455l2.7-3.234,2.659-3.191v3.2l9.888.017-4.95-8.541a1.084,1.084,0,0,1,.4-1.482l3.687-2.129a1.084,1.084,0,0,1,1.48.4l4.946,8.535a6.41,6.41,0,0,1,.877,3.222Z" transform="translate(-201.145 -193.72)" fill="#2ecc71"/>
      <path id="Trazado_1261499" data-name="Trazado 1261499" d="M361.544,249.484a1.084,1.084,0,0,0-1.48-.4l-3.687,2.129a1.084,1.084,0,0,0-.4,1.482l4.95,8.541h2.7a2.775,2.775,0,0,0,2.657-3.579Z" transform="translate(-290.84 -193.718)" fill="#105e30" opacity="0.25"/>
      <path id="Trazado_1261500" data-name="Trazado 1261500" d="M174.944,57.326l-1.457,3.962-1.43,3.887-4.16-.719-4.081-.706,2.751-1.588-4.959-8.556-4.914,8.512a1.084,1.084,0,0,1-1.48.4l-3.688-2.128a1.084,1.084,0,0,1-.4-1.481l4.916-8.512a6.425,6.425,0,0,1,11.123-.009l4.964,8.564Z" transform="translate(-106.803 -12.459)" fill="#2ecc71"/>
      <path id="Trazado_1261501" data-name="Trazado 1261501" d="M155.843,74.66h-.006l-4.7,8.145a1.084,1.084,0,0,0,.4,1.481l3.688,2.128a1.084,1.084,0,0,0,1.48-.4l4.914-8.512-1.348-2.334a2.771,2.771,0,0,0-4.423-.511Z" transform="translate(-106.809 -36.356)" fill="#105e30" opacity="0.25"/>
      <path id="Trazado_1261502" data-name="Trazado 1261502" d="M49.487,225.045l-8-.014,3.442-5.962,1.845,1.065a1.084,1.084,0,0,0,1.559-1.313l-2.887-7.85a1.083,1.083,0,0,0-1.2-.694L36,211.7a1.084,1.084,0,0,0-.358,2.007l1.843,1.064-4.378,7.585a7.509,7.509,0,0,0,6.49,11.264l9.883.017h0a2.168,2.168,0,0,0,2.167-2.167v-4.258A2.171,2.171,0,0,0,49.487,225.045Zm-14.506,3.734a5.29,5.29,0,0,1,0-5.338l4.921-8.523a1.084,1.084,0,0,0-.4-1.481l-.19-.11,4.4-.761,1.542,4.193-.191-.11a1.084,1.084,0,0,0-1.481.4L38.67,225.57,37.322,227.9a3.82,3.82,0,0,0-.413,2.826A5.332,5.332,0,0,1,34.981,228.779Zm14.5,2.692-9.3-.016a1.689,1.689,0,0,1-.984-2.466l1.034-1.792,9.249.015v4.259Z" transform="translate(0 -158.966)"/>
      <path id="Trazado_1261503" data-name="Trazado 1261503" d="M268.15,244.7l-4.947-8.535a2.171,2.171,0,0,0-2.959-.79l-3.687,2.129a2.168,2.168,0,0,0-.792,2.964l4.005,6.911-6.921-.012v-2.114a1.084,1.084,0,0,0-1.917-.694l-5.354,6.425a1.084,1.084,0,0,0,0,1.388l5.354,6.425a1.084,1.084,0,0,0,1.916-.694V255.96l8.791.015h.015a7.509,7.509,0,0,0,6.495-11.275Zm-10.51-5.319,3.687-2.129,4.664,8.047a1.688,1.688,0,0,1-1.642,2.082h-2.071Zm8.638,11.756a5.283,5.283,0,0,1-4.624,2.67h-.01l-9.877-.017h0a1.084,1.084,0,0,0-1.084,1.084v.236l-2.86-3.432,2.86-3.431v.2a1.084,1.084,0,0,0,1.082,1.084l9.888.017h2.7A3.819,3.819,0,0,0,267,248.493a5.349,5.349,0,0,1-.726,2.644Z" transform="translate(-191.561 -181.268)"/>
      <path id="Trazado_1261504" data-name="Trazado 1261504" d="M141.406,48.544l3.688,2.128a2.17,2.17,0,0,0,2.961-.794l3.978-6.889,3.474,6L153.7,50.029a1.084,1.084,0,0,0,.357,2.007l8.242,1.424a1.083,1.083,0,0,0,1.2-.694l2.887-7.849a1.084,1.084,0,0,0-1.559-1.313l-1.875,1.083-4.421-7.628a7.437,7.437,0,0,0-6.5-3.744h0a7.434,7.434,0,0,0-6.5,3.755l-4.915,8.513a2.168,2.168,0,0,0,.794,2.961Zm10.619-13.061h0a5.291,5.291,0,0,1,4.623,2.664l4.964,8.564a1.084,1.084,0,0,0,1.48.4l.22-.127-1.542,4.192-4.4-.76.159-.091a1.084,1.084,0,0,0,.4-1.482l-4.958-8.556-1.347-2.333a3.819,3.819,0,0,0-2.24-1.771A5.331,5.331,0,0,1,152.025,35.482Zm-4.914,3.179a1.683,1.683,0,0,1,2.633.37l1.035,1.793-4.6,7.97-3.688-2.128Z" transform="translate(-97.225)"/>
    </g>
  </g>
</svg>
