<svg xmlns="http://www.w3.org/2000/svg" width="76.345" height="76.345" viewBox="0 0 76.345 76.345">
  <g id="Grupo_1204371" data-name="Grupo 1204371" transform="translate(-562.051 -13740)">
    <g id="Grupo_1203931" data-name="Grupo 1203931" transform="translate(-459.916 10647.345)">
      <g id="Grupo_1200255" data-name="Grupo 1200255">
        <g id="Grupo_1187152" data-name="Grupo 1187152">
          <g id="Grupo_1185946" data-name="Grupo 1185946" transform="translate(-3.07)">
            <g id="Grupo_1184280" data-name="Grupo 1184280">
              <g id="Grupo_1182168" data-name="Grupo 1182168">
                <g id="Grupo_1178877" data-name="Grupo 1178877">
                  <g id="Grupo_1111311" data-name="Grupo 1111311">
                    <g id="Grupo_1098742" data-name="Grupo 1098742" transform="translate(1025.482 3093.101)">
                      <rect id="Rectángulo_400898" data-name="Rectángulo 400898" width="76.345" height="76.345" rx="38.172" transform="translate(-0.445 -0.445)" fill="#ffe9b5" opacity="0.859"/>
                      <rect id="Rectángulo_400907" data-name="Rectángulo 400907" width="76.345" height="76.345" rx="38.172" transform="translate(-0.446 -0.445)" fill="none"/>
                    </g>
                  </g>
                </g>
              </g>
            </g>
          </g>
        </g>
      </g>
    </g>
    <g id="Fertilizer" transform="translate(548.066 13755)">
      <g id="Filled" transform="translate(32.691 0.704)">
        <path id="Trazado_1261482" data-name="Trazado 1261482" d="M78.038,179.472l-1.409-2.113s.7-2.113.7-11.271c0-3.247-2.113-14.088-2.113-14.088h-32.4S40.7,162.841,40.7,166.088c0,9.157.7,11.271.7,11.271L40,179.472a1.675,1.675,0,0,0,2.52,1.409s9.455,2.113,16.5,2.113,16.5-2.113,16.5-2.113A1.675,1.675,0,0,0,78.038,179.472Z" transform="translate(-40 -139.321)" fill="#66bb6a"/>
        <path id="Trazado_1261483" data-name="Trazado 1261483" d="M157.781,173.384c0-2.747-1.512-10.929-1.978-13.384h-3.821a35.256,35.256,0,0,1-23.767,29.174,73.542,73.542,0,0,0,11.252,1.116c7.044,0,16.5-2.113,16.5-2.113a1.675,1.675,0,0,0,2.52-1.409l-1.409-2.113S157.781,182.541,157.781,173.384Z" transform="translate(-120.448 -146.616)" fill="#49ad4d"/>
        <rect id="Rectángulo_411691" data-name="Rectángulo 411691" width="23.95" height="17.61" rx="8.805" transform="translate(7.044 20.428)" fill="#e2dbd5"/>
        <path id="Trazado_1261484" data-name="Trazado 1261484" d="M244.248,279.6a8.771,8.771,0,0,0-2.208-5.831,35.354,35.354,0,0,1-12.057,14.636h5.461a8.805,8.805,0,0,0,8.805-8.805Z" transform="translate(-213.254 -250.371)" fill="#d9d1cc"/>
        <path id="Trazado_1261485" data-name="Trazado 1261485" d="M218.781,360a3.522,3.522,0,0,0-3.522,3.522H222.3A3.522,3.522,0,0,0,218.781,360Z" transform="translate(-199.827 -329.006)" fill="#f09b73"/>
        <path id="Trazado_1261486" data-name="Trazado 1261486" d="M102.793,8C97,8,88,19.271,88,19.271h29.585S108.581,8,102.793,8Z" transform="translate(-83.774 -8)" fill="#f09b73"/>
        <g id="Grupo_1204370" data-name="Grupo 1204370" transform="translate(0 11.271)">
          <rect id="Rectángulo_411692" data-name="Rectángulo 411692" width="38.038" height="2.818" rx="1.409" fill="#81c784"/>
          <rect id="Rectángulo_411693" data-name="Rectángulo 411693" width="38.038" height="2.818" rx="1.409" transform="translate(0 2.818)" fill="#81c784"/>
          <path id="Trazado_1261487" data-name="Trazado 1261487" d="M189.663,283.588a3.439,3.439,0,0,1-3.448.28c-1.768-.948-2.956-3.714-2.956-3.714s2.961-.542,4.729.406A3.439,3.439,0,0,1,189.663,283.588Z" transform="translate(-170.645 -267.321)" fill="#81c784"/>
        </g>
        <path id="Trazado_1261488" data-name="Trazado 1261488" d="M255.26,283.588a3.439,3.439,0,0,0,3.449.28c1.768-.948,2.956-3.714,2.956-3.714s-2.961-.542-4.729.406A3.439,3.439,0,0,0,255.26,283.588Z" transform="translate(-236.305 -256.05)" fill="#66bb6a"/>
        <path id="Trazado_1261489" data-name="Trazado 1261489" d="M246.251,30.641a16.225,16.225,0,0,1-6.544,9.277h16.227S251.108,33.878,246.251,30.641Z" transform="translate(-222.123 -28.647)" fill="#e58b6c"/>
        <path id="Trazado_1261490" data-name="Trazado 1261490" d="M238.138,363.526a7.07,7.07,0,0,1-3.238,3.212h5.315a3.522,3.522,0,0,0-2.076-3.211Z" transform="translate(-217.739 -332.222)" fill="#e58b6c"/>
        <circle id="Elipse_12826" data-name="Elipse 12826" cx="1.409" cy="1.409" r="1.409" transform="translate(14.793 2.113)" fill="#f2bba5"/>
        <circle id="Elipse_12827" data-name="Elipse 12827" cx="0.704" cy="0.704" r="0.704" transform="translate(17.61 5.635)" fill="#f2bba5"/>
        <circle id="Elipse_12828" data-name="Elipse 12828" cx="1.409" cy="1.409" r="1.409" transform="translate(2.113 19.019)" fill="#c8e6c9"/>
        <circle id="Elipse_12829" data-name="Elipse 12829" cx="0.704" cy="0.704" r="0.704" transform="translate(4.931 22.541)" fill="#c8e6c9"/>
      </g>
      <g id="Outline" transform="translate(31.985)">
        <path id="Trazado_1261491" data-name="Trazado 1261491" d="M70.078,242.885c.2-.918.651-3.819.651-11.138a55.017,55.017,0,0,0-.863-7.158.7.7,0,1,0-1.39.227,55.032,55.032,0,0,1,.845,6.931c0,8.8-.664,11.033-.668,11.048a.7.7,0,0,0,.082.614l1.274,1.911a1,1,0,0,1-1.484.591.7.7,0,0,0-.469-.057c-.094.021-9.462,2.1-16.346,2.1s-16.252-2.075-16.345-2.1a.7.7,0,0,0-.469.057,1,1,0,0,1-1.484-.591c2.6-4.205.688,1.557.688-13.572a54.965,54.965,0,0,1,.845-6.931.7.7,0,1,0-1.39-.227,54.973,54.973,0,0,0-.864,7.158c0,7.319.453,10.22.651,11.138L32.1,244.74a2.021,2.021,0,0,0,.959,2.349,2.493,2.493,0,0,0,2.219.188,91.167,91.167,0,0,0,16.427,2.081,91.16,91.16,0,0,0,16.427-2.081,2.494,2.494,0,0,0,2.219-.188,2.021,2.021,0,0,0,.959-2.349Z" transform="translate(-31.985 -204.275)"/>
        <path id="Trazado_1261492" data-name="Trazado 1261492" d="M69.332,128H34.112a2.115,2.115,0,0,0-1.574,3.522,2.115,2.115,0,0,0,1.574,3.522h35.22a2.115,2.115,0,0,0,1.574-3.522A2.115,2.115,0,0,0,69.332,128Zm-23.95,4.226h23.95a.7.7,0,0,1,0,1.409H34.112a.7.7,0,0,1,0-1.409h5.635a.7.7,0,1,0,0-1.409H34.112a.7.7,0,0,1,0-1.409h35.22a.7.7,0,0,1,0,1.409H45.383a.7.7,0,1,0,0,1.409Z" transform="translate(-31.997 -116.729)"/>
        <path id="Trazado_1261493" data-name="Trazado 1261493" d="M188,283.952a.7.7,0,1,0,0-1.409h-1.539a4.236,4.236,0,0,0-3.436-3.428v-1.686a3.786,3.786,0,0,0,3.056-.228c1.964-1.053,3.218-3.935,3.27-4.057a.7.7,0,0,0-.521-.971c-.131-.024-3.226-.574-5.189.478a3.665,3.665,0,0,0-1.31,1.169,3.664,3.664,0,0,0-1.31-1.169c-1.963-1.052-5.058-.5-5.189-.478a.7.7,0,0,0-.52.971c.052.122,1.307,3,3.27,4.057a3.782,3.782,0,0,0,3.034.235v1.671a4.236,4.236,0,0,0-3.478,3.436H176.73a.7.7,0,1,0,0,1.409Zm-.379-10.505c-1.113,1.981-2.552,3.467-4.566,2.479,0-.042-.008-.085-.013-.132C183.387,273.618,185.425,273.283,187.622,273.447Zm-6.012,2.479c-2.016.988-3.452-.5-4.566-2.479,2.2-.164,4.235.172,4.579,2.347C181.618,275.841,181.614,275.884,181.61,275.926Zm-2.03,6.618a2.82,2.82,0,0,1,5.44,0Z" transform="translate(-162.641 -248.058)"/>
        <path id="Trazado_1261494" data-name="Trazado 1261494" d="M127.849,251.019a9.51,9.51,0,1,0,0-19.019h-6.34a9.51,9.51,0,0,0,0,19.019Zm-14.44-9.51a8.11,8.11,0,0,1,8.1-8.1h6.34a8.1,8.1,0,0,1,0,16.2h-6.34A8.11,8.11,0,0,1,113.409,241.51Z" transform="translate(-104.955 -211.572)"/>
        <path id="Trazado_1261495" data-name="Trazado 1261495" d="M109.072,9.635c4.9-5.3,9.1-8.226,11.823-8.226s6.925,2.922,11.823,8.226a.7.7,0,1,0,1.035-.956C130.1,4.72,124.9,0,120.895,0s-9.2,4.72-12.858,8.679a.7.7,0,1,0,1.035.956Z" transform="translate(-101.17)"/>
        <circle id="Elipse_12830" data-name="Elipse 12830" cx="0.704" cy="0.704" r="0.704" transform="translate(9.863 14.088)"/>
        <circle id="Elipse_12831" data-name="Elipse 12831" cx="0.704" cy="0.704" r="0.704" transform="translate(15.498 5.635)"/>
        <circle id="Elipse_12832" data-name="Elipse 12832" cx="0.704" cy="0.704" r="0.704" transform="translate(17.612 2.818)"/>
        <circle id="Elipse_12833" data-name="Elipse 12833" cx="0.704" cy="0.704" r="0.704" transform="translate(19.02 4.931)"/>
        <circle id="Elipse_12834" data-name="Elipse 12834" cx="0.704" cy="0.704" r="0.704" transform="translate(21.134 3.522)"/>
        <circle id="Elipse_12835" data-name="Elipse 12835" cx="0.704" cy="0.704" r="0.704" transform="translate(22.542 6.34)"/>
        <circle id="Elipse_12836" data-name="Elipse 12836" cx="0.704" cy="0.704" r="0.704" transform="translate(25.36 8.453)"/>
        <circle id="Elipse_12837" data-name="Elipse 12837" cx="0.704" cy="0.704" r="0.704" transform="translate(20.429 8.453)"/>
        <circle id="Elipse_12838" data-name="Elipse 12838" cx="0.704" cy="0.704" r="0.704" transform="translate(16.907 8.453)"/>
        <circle id="Elipse_12839" data-name="Elipse 12839" cx="0.704" cy="0.704" r="0.704" transform="translate(12.681 8.453)"/>
      </g>
    </g>
  </g>
</svg>
