<svg xmlns="http://www.w3.org/2000/svg" width="76.345" height="76.345" viewBox="0 0 76.345 76.345">
  <g id="Grupo_1204332" data-name="Grupo 1204332" transform="translate(-657.051 -965)">
    <g id="Grupo_1202986" data-name="Grupo 1202986" transform="translate(-364.916 -2127.655)">
      <g id="Grupo_1200255" data-name="Grupo 1200255">
        <g id="Grupo_1187152" data-name="Grupo 1187152">
          <g id="Grupo_1185946" data-name="Grupo 1185946" transform="translate(-3.07)">
            <g id="Grupo_1184280" data-name="Grupo 1184280">
              <g id="Grupo_1182168" data-name="Grupo 1182168">
                <g id="Grupo_1178877" data-name="Grupo 1178877">
                  <g id="Grupo_1111311" data-name="Grupo 1111311">
                    <g id="Grupo_1098742" data-name="Grupo 1098742" transform="translate(1025.482 3093.101)">
                      <rect id="Rect치ngulo_400898" data-name="Rect치ngulo 400898" width="76.345" height="76.345" rx="38.172" transform="translate(-0.445 -0.445)" fill="#ffc94a" opacity="0.859"/>
                      <rect id="Rect치ngulo_400907" data-name="Rect치ngulo 400907" width="76.345" height="76.345" rx="38.172" transform="translate(-0.446 -0.445)" fill="none"/>
                    </g>
                  </g>
                </g>
              </g>
            </g>
          </g>
        </g>
      </g>
    </g>
    <g id="bi" transform="translate(667.067 975.691)">
      <path id="Trazado_1261334" data-name="Trazado 1261334" d="M19.387,7.025a6.389,6.389,0,0,0-6.878,7.565h0a6.389,6.389,0,0,0,6.878-7.565Z" transform="translate(-1.439 -1.023)" fill="#36b385"/>
      <path id="Trazado_1261335" data-name="Trazado 1261335" d="M11,14.269A6.389,6.389,0,0,1,4.119,6.7h0A6.389,6.389,0,0,1,11,14.269Z" transform="translate(-0.156 -0.694)" fill="#3abf8e"/>
      <ellipse id="Elipse_12821" data-name="Elipse 12821" cx="21.177" cy="19.483" rx="21.177" ry="19.483" transform="translate(6.386 13.601)" fill="#4db4ff"/>
      <ellipse id="Elipse_12822" data-name="Elipse 12822" cx="17.789" cy="16.095" rx="17.789" ry="16.095" transform="translate(9.774 16.989)" fill="#5ebbff"/>
      <ellipse id="Elipse_12823" data-name="Elipse 12823" cx="16.095" cy="14.401" rx="16.095" ry="14.401" transform="translate(11.468 18.683)" fill="#73c3ff"/>
      <path id="Trazado_1261336" data-name="Trazado 1261336" d="M20.071,17.75l-.974,1.7a4.5,4.5,0,0,0-.271,3.922,4.609,4.609,0,0,1,.322,1.677,4.5,4.5,0,0,1-.762,2.516l-1.33,1.991a1.639,1.639,0,0,0,.2,2.05,1.639,1.639,0,0,1,.483,1.152,1.616,1.616,0,0,1-.906,1.457l-.923.466a4.681,4.681,0,0,0-2.524,3.422l-.11.661a4.668,4.668,0,0,0,.966,3.7,4.708,4.708,0,0,1,.313,5.421l-1.144,1.821A18.686,18.686,0,0,1,7,35.751c0-8.115,5.4-15.078,13.071-18Z" transform="translate(-0.614 -2.667)" fill="#3ecc98"/>
      <path id="Trazado_1261337" data-name="Trazado 1261337" d="M45.235,54.791a3.389,3.389,0,0,0-1.779-.889l-1.3-.22a2.085,2.085,0,0,1-1.694-1.643,2.084,2.084,0,0,0-3.075-1.4l-2.939,1.686a2.092,2.092,0,0,1-1.033.271H30.5a2.607,2.607,0,0,0-2.338,1.449l-.254.491a2.607,2.607,0,0,1-2.338,1.449,2.624,2.624,0,0,0-2.431,1.643l-.474,1.177c.525.2,1.067.381,1.618.534h.017a22.791,22.791,0,0,0,6.277.873,22.106,22.106,0,0,0,14.663-5.43Z" transform="translate(-3.009 -7.654)" fill="#3ecc98"/>
      <path id="Trazado_1261338" data-name="Trazado 1261338" d="M51.878,41.712l-6.5-3.253a1.552,1.552,0,0,1-.864-1.4V32.648a1.548,1.548,0,0,0-.339-.974l-2.516-3.143a1.558,1.558,0,0,0-1.389-.576l-6.023.669a1.562,1.562,0,0,1-1.279-.449l-1.753-1.753a1.554,1.554,0,0,1,0-2.2,1.564,1.564,0,0,0,.432-1.415l-.593-2.939a1.58,1.58,0,0,1,.1-.923l1.254-2.922c11.419.288,20.576,8.894,20.576,19.466a17.973,17.973,0,0,1-1.11,6.226Z" transform="translate(-4.247 -2.402)" fill="#3ecc98"/>
      <path id="Trazado_1261339" data-name="Trazado 1261339" d="M19.1,19.453a4.5,4.5,0,0,0-.271,3.922,4.136,4.136,0,0,1,.169.551,14.021,14.021,0,0,0-6.912,11.825A13.266,13.266,0,0,0,15.09,44.12a4.724,4.724,0,0,1,.178,1.288,4.628,4.628,0,0,1-.712,2.482l-1.144,1.821A18.686,18.686,0,0,1,7,35.751c0-8.115,5.4-15.078,13.071-18Z" transform="translate(-0.614 -2.667)" fill="#3abf8e"/>
      <path id="Trazado_1261340" data-name="Trazado 1261340" d="M45.235,55.1a22.106,22.106,0,0,1-14.663,5.43,22.791,22.791,0,0,1-6.277-.873c-.008,0-.008-.008-.017-.008-.551-.152-1.093-.33-1.618-.534l.474-1.177A2.624,2.624,0,0,1,25.566,56.3a2.57,2.57,0,0,0,2.109-1.084,17.646,17.646,0,0,0,12.8-2.812,2.072,2.072,0,0,0,1.677,1.593l1.3.22a3.389,3.389,0,0,1,1.779.889Z" transform="translate(-3.009 -7.965)" fill="#3abf8e"/>
      <path id="Trazado_1261341" data-name="Trazado 1261341" d="M53.036,35.486a17.973,17.973,0,0,1-1.11,6.226l-4.583-2.3a12.888,12.888,0,0,0,.61-3.93c0-7.954-7.209-14.4-16.095-14.4-.169,0-.339,0-.508.008L31.1,19.866a1.58,1.58,0,0,1,.1-.923L32.46,16.02C43.879,16.308,53.036,24.914,53.036,35.486Z" transform="translate(-4.296 -2.402)" fill="#3abf8e"/>
      <g id="Grupo_1204331" data-name="Grupo 1204331" transform="translate(6.386 0.309)">
        <path id="Trazado_1261342" data-name="Trazado 1261342" d="M19.1,19.453a4.523,4.523,0,0,0-.568,2.778,15.757,15.757,0,0,0-8.141,13.52,15.217,15.217,0,0,0,4.71,10.9,4.438,4.438,0,0,1-.542,1.237l-1.144,1.821A18.686,18.686,0,0,1,7,35.751c0-8.115,5.4-15.078,13.071-18Z" transform="translate(-7 -2.976)" fill="#36b385"/>
        <path id="Trazado_1261343" data-name="Trazado 1261343" d="M45.235,55.347a22.106,22.106,0,0,1-14.663,5.43,22.791,22.791,0,0,1-6.277-.873c-.008,0-.008-.008-.017-.008-.551-.152-1.093-.33-1.618-.534l.474-1.177A2.6,2.6,0,0,1,25.066,56.6a19.57,19.57,0,0,0,5.506.788A18.906,18.906,0,0,0,41.482,54a2.036,2.036,0,0,0,.669.237l1.3.22A3.389,3.389,0,0,1,45.235,55.347Z" transform="translate(-9.395 -8.519)" fill="#36b385"/>
        <path id="Trazado_1261344" data-name="Trazado 1261344" d="M53.04,35.486a17.973,17.973,0,0,1-1.11,6.226l-3.05-1.525a14.743,14.743,0,0,0,.771-4.7c0-8.886-7.963-16.095-17.789-16.095-.254,0-.508.008-.762.017a1.5,1.5,0,0,1,.11-.466l1.254-2.922C43.883,16.308,53.04,24.914,53.04,35.486Z" transform="translate(-10.685 -2.711)" fill="#36b385"/>
        <path id="Trazado_1261345" data-name="Trazado 1261345" d="M43.439,2.026a4.967,4.967,0,0,0-5.345,5.887h0a4.967,4.967,0,0,0,5.345-5.887Z" transform="translate(-11.741 -0.568)" fill="#36b385"/>
        <path id="Trazado_1261346" data-name="Trazado 1261346" d="M36.909,7.646a4.967,4.967,0,0,1-5.345-5.887h0A4.967,4.967,0,0,1,36.909,7.646Z" transform="translate(-10.742 -0.309)" fill="#36b385"/>
        <path id="Trazado_1261347" data-name="Trazado 1261347" d="M40.747,36.525a5.684,5.684,0,0,0-6.116,6.726h0A5.684,5.684,0,0,0,40.747,36.525Z" transform="translate(-11.209 -5.843)" fill="#36b385"/>
        <path id="Trazado_1261348" data-name="Trazado 1261348" d="M33.287,42.958a5.684,5.684,0,0,1-6.116-6.726h0A5.684,5.684,0,0,1,33.287,42.958Z" transform="translate(-10.069 -5.549)" fill="#36b385"/>
        <path id="Trazado_1261349" data-name="Trazado 1261349" d="M58.747,10.525a5.684,5.684,0,0,0-6.116,6.726h0a5.684,5.684,0,0,0,6.116-6.726Z" transform="translate(-13.962 -1.867)" fill="#36b385"/>
        <path id="Trazado_1261350" data-name="Trazado 1261350" d="M51.287,16.958a5.684,5.684,0,0,1-6.116-6.726h0A5.684,5.684,0,0,1,51.287,16.958Z" transform="translate(-12.821 -1.573)" fill="#36b385"/>
      </g>
      <path id="Trazado_1261351" data-name="Trazado 1261351" d="M36,8.606v9.335a.847.847,0,1,0,1.694,0V8.606a5.719,5.719,0,0,0,4.015-1.889,5.758,5.758,0,0,0,1.406-5.006.845.845,0,0,0-.754-.686,5.753,5.753,0,0,0-4.854,1.881,6.251,6.251,0,0,0-.669.906,5.775,5.775,0,0,0-5.523-2.787.854.854,0,0,0-.754.686,5.783,5.783,0,0,0,1.406,5.006,5.719,5.719,0,0,0,4.015,1.889Zm2.77-4.566A4.093,4.093,0,0,1,41.531,2.7a4.04,4.04,0,0,1-1.076,2.872,4.093,4.093,0,0,1-2.762,1.338,4.111,4.111,0,0,1,1.076-2.88Zm-3.846,0A4.1,4.1,0,0,1,36,6.921a4.13,4.13,0,0,1-3.837-4.21,4.093,4.093,0,0,1,2.762,1.338Z" transform="translate(-4.201 -0.105)"/>
      <path id="Trazado_1261352" data-name="Trazado 1261352" d="M32.388,43.963v8.9a.847.847,0,0,0,1.694,0v-8.9a6.52,6.52,0,0,0,6.209-7.742.845.845,0,0,0-.754-.686,6.494,6.494,0,0,0-5.447,2.109,6.728,6.728,0,0,0-.856,1.177,6.319,6.319,0,0,0-.856-1.177,6.494,6.494,0,0,0-5.447-2.109.854.854,0,0,0-.754.686,6.52,6.52,0,0,0,6.209,7.742Zm2.956-5.184A4.781,4.781,0,0,1,38.707,37.2a4.835,4.835,0,0,1-4.617,5.074A4.809,4.809,0,0,1,35.344,38.779Zm-4.21,0a4.784,4.784,0,0,1,1.254,3.5A4.836,4.836,0,0,1,27.771,37.2,4.8,4.8,0,0,1,31.134,38.779Z" transform="translate(-3.529 -5.382)"/>
      <path id="Trazado_1261353" data-name="Trazado 1261353" d="M44.188,10.211A6.52,6.52,0,0,0,50.4,17.953V31.092a.847.847,0,1,0,1.694,0V17.953A6.52,6.52,0,0,0,58.3,10.211a.845.845,0,0,0-.754-.686A6.494,6.494,0,0,0,52.1,11.634a6.728,6.728,0,0,0-.856,1.177,6.319,6.319,0,0,0-.856-1.177,6.494,6.494,0,0,0-5.447-2.109.854.854,0,0,0-.754.686Zm9.157,2.567A4.781,4.781,0,0,1,56.708,11.2a4.835,4.835,0,0,1-4.617,5.074A4.809,4.809,0,0,1,53.346,12.777Zm-4.21,0a4.784,4.784,0,0,1,1.254,3.5A4.835,4.835,0,0,1,45.773,11.2,4.8,4.8,0,0,1,49.135,12.777Z" transform="translate(-6.282 -1.405)"/>
      <path id="Trazado_1261354" data-name="Trazado 1261354" d="M10.113,15.308V28.023a.847.847,0,1,0,1.694,0V15.308a7.233,7.233,0,0,0,6.98-8.6.845.845,0,0,0-.754-.686,7.176,7.176,0,0,0-6.04,2.338,7.683,7.683,0,0,0-1.042,1.482A7.33,7.33,0,0,0,9.91,8.362,7.166,7.166,0,0,0,3.87,6.024a.854.854,0,0,0-.754.686,7.233,7.233,0,0,0,6.98,8.6Zm3.134-5.8A5.49,5.49,0,0,1,17.2,7.693a5.549,5.549,0,0,1-5.387,5.921A5.472,5.472,0,0,1,13.247,9.505ZM4.709,7.693A5.549,5.549,0,0,1,10.1,13.614,5.549,5.549,0,0,1,4.709,7.693Z" transform="translate(0 -0.869)"/>
      <path id="Trazado_1261355" data-name="Trazado 1261355" d="M9.727,24.032A19.082,19.082,0,0,0,6,35.332c0,11.207,9.877,20.33,22.024,20.33s22.024-9.123,22.024-20.33A18.976,18.976,0,0,0,47.109,25.2v3.719a17.093,17.093,0,0,1,.483,11.453l-5.811-2.829a.7.7,0,0,1-.4-.635V32.494a2.326,2.326,0,0,0-.542-1.5l-2.584-3.143a2.484,2.484,0,0,0-2.211-.889l-6.192.669a.75.75,0,0,1-.61-.2l-1.8-1.753a.715.715,0,0,1-.22-.5.706.706,0,0,1,.212-.5,2.389,2.389,0,0,0,.686-2.185l-.61-2.931a.729.729,0,0,1,.051-.424l1.059-2.406a21.567,21.567,0,0,1,2.787.237V15.256a23.546,23.546,0,0,0-3.388-.246,22.99,22.99,0,0,0-14.909,5.379v2.3a20.231,20.231,0,0,1,4.82-3.524,5.316,5.316,0,0,0-.051,4.108,3.691,3.691,0,0,1,.263,1.372,3.62,3.62,0,0,1-.618,2.041l-1.338,2a2.486,2.486,0,0,0,.313,3.117.778.778,0,0,1,.237.551.77.77,0,0,1-.44.7l-.923.466a5.54,5.54,0,0,0-2.982,4.041l-.11.661A5.483,5.483,0,0,0,13.42,42.6a3.851,3.851,0,0,1,.254,4.439l-.593.94a17.757,17.757,0,0,1-5.4-12.63A17.229,17.229,0,0,1,9.71,27.234V24.048ZM14.75,41.515a3.8,3.8,0,0,1-.788-3.033l.11-.661a3.858,3.858,0,0,1,2.067-2.8l.915-.466a2.462,2.462,0,0,0,1.381-2.219,2.489,2.489,0,0,0-.728-1.753.8.8,0,0,1-.1-.983l1.33-1.991a5.332,5.332,0,0,0,.906-2.99,5.464,5.464,0,0,0-.381-1.991,3.636,3.636,0,0,1,.22-3.185l.813-1.432a21.83,21.83,0,0,1,6.226-1.288l-.754,1.72a2.347,2.347,0,0,0-.161,1.423l.61,2.931a.7.7,0,0,1-.2.652,2.373,2.373,0,0,0-.728,1.7,2.34,2.34,0,0,0,.728,1.7l1.8,1.753a2.552,2.552,0,0,0,2.033.695l6.2-.669a.756.756,0,0,1,.652.263l2.592,3.151a.664.664,0,0,1,.152.44V36.9a2.365,2.365,0,0,0,1.372,2.152l6.006,2.922a18.583,18.583,0,0,1-4.379,6.294,4.26,4.26,0,0,0-1.576-.618l-1.3-.22a1.247,1.247,0,0,1-1.008-.974,2.938,2.938,0,0,0-4.329-1.965l-2.55,1.465v1.889a2.186,2.186,0,0,0,.457-.195l2.931-1.686a1.223,1.223,0,0,1,1.135-.051,1.21,1.21,0,0,1,.695.881,2.955,2.955,0,0,0,2.38,2.313l1.3.22a2.26,2.26,0,0,1,.483.136,21.318,21.318,0,0,1-13.223,4.5,21.859,21.859,0,0,1-6.794-1.076l.144-.356a1.782,1.782,0,0,1,1.643-1.11,3.441,3.441,0,0,0,3.092-1.906L26.389,49a1.74,1.74,0,0,1,1.576-.974h.525V46.335h-.525a3.441,3.441,0,0,0-3.092,1.906l-.263.508a1.74,1.74,0,0,1-1.576.974A3.459,3.459,0,0,0,19.816,51.9l-.161.39a20.6,20.6,0,0,1-5.277-3.177l.754-1.2a5.557,5.557,0,0,0-.364-6.412Z" transform="translate(-0.461 -2.248)"/>
      <path id="Trazado_1261356" data-name="Trazado 1261356" d="M48.92,23.684V21.261A22.37,22.37,0,0,0,40,16.17v1.77A20.515,20.515,0,0,1,48.92,23.684Z" transform="translate(-5.66 -2.425)"/>
    </g>
  </g>
</svg>
