<svg xmlns="http://www.w3.org/2000/svg" xmlns:xlink="http://www.w3.org/1999/xlink" width="420" height="423.275" viewBox="0 0 420 423.275">
  <defs>
    <clipPath id="clip-path">
      <rect id="Rectángulo_411711" data-name="Rectángulo 411711" width="348.236" height="247.993" fill="none"/>
    </clipPath>
    <clipPath id="clip-path-2">
      <path id="Trazado_1261705" data-name="Trazado 1261705" d="M224.384,120.256h-5.153a.545.545,0,0,0-.544.544v2.408s.226,8.824-10.816,13.567a5.541,5.541,0,0,0-3.1,6.634l2.8,9.711s-7.706,70.636-2.385,86.056a2.94,2.94,0,0,0,2.786,1.971h32.815a2.937,2.937,0,0,0,2.784-1.963c1.295-3.745,1.819-10.761,1.871-19.233.037-6.074-.169-12.9-.508-19.8-1.132-23.06-3.746-47.027-3.746-47.027l2.8-9.711a5.541,5.541,0,0,0-3.1-6.634c-11.041-4.743-10.814-13.567-10.814-13.567V120.8a.545.545,0,0,0-.545-.544Z" transform="translate(-203.318 -120.256)" fill="none"/>
    </clipPath>
  </defs>
  <g id="Grupo_1204405" data-name="Grupo 1204405" transform="translate(-285 -17834.637)">
    <rect id="Rectángulo_411577" data-name="Rectángulo 411577" width="420" height="423.275" transform="translate(285 17834.637)" fill="#3e5b2c"/>
    <g id="Grupo_1204404" data-name="Grupo 1204404" transform="translate(315.785 17933.889)">
      <g id="Grupo_1204399" data-name="Grupo 1204399">
        <g id="Grupo_1204398" data-name="Grupo 1204398" clip-path="url(#clip-path)">
          <path id="Trazado_1261628" data-name="Trazado 1261628" d="M106.176,236.154c0,3.543-23.761,6.415-53.072,6.415S.032,239.7.032,236.154s23.761-6.415,53.072-6.415,53.072,2.872,53.072,6.415" transform="translate(-0.001 -8.761)" fill="#cdad86"/>
          <path id="Trazado_1261629" data-name="Trazado 1261629" d="M100.337,202.943,99.853,192.7l-.092-1.925L97.314,139.2l-.049-1.033-1.136-24.024-.619-13.118-.484-10.242L93.764,64.168a13.245,13.245,0,0,0-6.926-11.019L78.254,48.5,68.191,43.059a9.6,9.6,0,0,1-5.029-8.443V19.2H37.992V34.616a9.6,9.6,0,0,1-5.029,8.443L14.316,53.149A13.242,13.242,0,0,0,7.391,64.168l-3.507,74L3.835,139.2l-.706,14.923L1.764,183.062,1.307,192.7.823,202.943.008,220.117a6.76,6.76,0,0,0,6.752,7.077H94.395a6.759,6.759,0,0,0,6.757-7.077ZM18.508,76.341l-.359-1.55a9.115,9.115,0,0,1-.24-2.364v-.012c.6-17.6,20.533-16.7,20.533.924v44.312c0,17.614-19.935,18.516-20.533.919-.016-.413-.021-.832-.021-1.25l.228-.88a85.536,85.536,0,0,0,.391-40.1" transform="translate(0 -0.732)" fill="#678cc6"/>
          <path id="Trazado_1261630" data-name="Trazado 1261630" d="M65.97,24.985H37.947V4.876a4.2,4.2,0,0,1,4.2-4.2H61.767a4.2,4.2,0,0,1,4.2,4.2Z" transform="translate(-1.447 -0.026)" fill="#7598da"/>
          <path id="Trazado_1261631" data-name="Trazado 1261631" d="M66.132,6.02a.649.649,0,0,1-.648-.648A4.081,4.081,0,0,0,61.407,1.3H42.833a.648.648,0,0,1,0-1.3H61.407A5.379,5.379,0,0,1,66.78,5.372a.649.649,0,0,1-.648.648" transform="translate(-1.609)" fill="#dce9ef"/>
          <path id="Trazado_1261632" data-name="Trazado 1261632" d="M66.08,29.058H37.742a2.812,2.812,0,0,1-2.812-2.812v-6.59H68.892v6.59a2.812,2.812,0,0,1-2.812,2.812" transform="translate(-1.332 -0.75)" fill="#7598da"/>
          <path id="Trazado_1261633" data-name="Trazado 1261633" d="M34.917,26.208a.324.324,0,0,1-.324-.324V19.319H68.879a.324.324,0,0,1,0,.648H35.241v5.916a.324.324,0,0,1-.324.324" transform="translate(-1.319 -0.737)" fill="#46332a"/>
          <path id="Trazado_1261634" data-name="Trazado 1261634" d="M97.5,92.018a.648.648,0,0,1-.646-.618l-1.26-26.615A12.664,12.664,0,0,0,89.007,54.3L70.36,44.217A10.255,10.255,0,0,1,65,35.205a.648.648,0,1,1,1.3,0,8.956,8.956,0,0,0,4.687,7.872L89.624,53.165a13.965,13.965,0,0,1,7.266,11.559L98.15,91.34a.648.648,0,0,1-.617.677H97.5" transform="translate(-2.479 -1.318)" fill="#dce9ef"/>
          <path id="Trazado_1261635" data-name="Trazado 1261635" d="M96.4,53.557l-3.241-8.11-3.241,8.11-7.89,3.02,7.758,2.491,3.373,8.64,3.373-8.64,7.757-2.491Z" transform="translate(-3.128 -1.733)" fill="#dce9ef"/>
          <path id="Trazado_1261636" data-name="Trazado 1261636" d="M93.583,68.461a.313.313,0,0,1-.117-.022.323.323,0,0,1-.185-.419l3.429-8.784,7.9-2.538a.324.324,0,1,1,.2.617L97.2,59.758l-3.317,8.5a.324.324,0,0,1-.3.206" transform="translate(-3.556 -2.162)" fill="#46332a"/>
          <path id="Trazado_1261637" data-name="Trazado 1261637" d="M3.243,155.781H3.228a.325.325,0,0,1-.31-.339L7.18,65.486a13.638,13.638,0,0,1,7.1-11.289.324.324,0,1,1,.309.569A12.992,12.992,0,0,0,7.826,65.517l-4.26,89.955a.324.324,0,0,1-.323.309" transform="translate(-0.111 -2.065)" fill="#46332a"/>
          <path id="Trazado_1261638" data-name="Trazado 1261638" d="M17.947,163.628a31.5,31.5,0,0,0-2.933,5.094v25.813H34.55l9.032-12.762Z" transform="translate(-0.573 -6.24)" fill="#efbc51"/>
          <path id="Trazado_1261639" data-name="Trazado 1261639" d="M62.387,194.76l-18.03-12.268-9.033,12.762Z" transform="translate(-1.347 -6.959)" fill="#efbc51"/>
          <path id="Trazado_1261640" data-name="Trazado 1261640" d="M73.414,194.238a31.413,31.413,0,0,0-10.555-38.4L44.715,181.476l18.03,12.762Z" transform="translate(-1.705 -5.943)" fill="#efbc51"/>
          <path id="Trazado_1261641" data-name="Trazado 1261641" d="M18.064,163.1,43.7,181.247l18.145-25.636A31.409,31.409,0,0,0,18.064,163.1" transform="translate(-0.689 -5.714)" fill="#efbc51"/>
          <path id="Trazado_1261642" data-name="Trazado 1261642" d="M30.028,162c0-5.667,3.529-9.467,8.72-9.467s8.414,3.834,8.414,9.975a1.459,1.459,0,0,1-1.459,1.459H35.219a3.813,3.813,0,0,0,3.9,2.58,5.04,5.04,0,0,0,2.8-.789,2.416,2.416,0,0,1,2.882,3.873,8.682,8.682,0,0,1-5.714,1.936c-5.463,0-9.06-3.8-9.06-9.568m11.842-2.07a2.867,2.867,0,0,0-3.054-2.409,3.454,3.454,0,0,0-3.392,2.409Z" transform="translate(-1.145 -5.817)" fill="#fff"/>
          <path id="Trazado_1261643" data-name="Trazado 1261643" d="M50.31,161.97c0-5.531,3.427-9.432,8.245-9.432a7.691,7.691,0,0,1,5.956,2.68,2.539,2.539,0,0,1-1.3,4.119h0a2.562,2.562,0,0,1-2.579-.86,2.364,2.364,0,0,0-1.9-.883c-1.934,0-3.257,1.8-3.257,4.376,0,2.647,1.391,4.547,3.324,4.547A2.6,2.6,0,0,0,61,165.311a2.488,2.488,0,0,1,2.686-.971,2.523,2.523,0,0,1,1.557,3.73,7.191,7.191,0,0,1-6.417,3.5c-5.158,0-8.516-3.8-8.516-9.6" transform="translate(-1.919 -5.817)" fill="#fff"/>
          <path id="Trazado_1261644" data-name="Trazado 1261644" d="M69.322,162.072a9.366,9.366,0,1,1,9.365,9.5,9.254,9.254,0,0,1-9.365-9.5m13.5,0a4.155,4.155,0,1,0-4.139,4.513,4.282,4.282,0,0,0,4.139-4.513" transform="translate(-2.644 -5.817)" fill="#fff"/>
          <path id="Trazado_1261645" data-name="Trazado 1261645" d="M87.5,169.055v26.089H14.54V191.5a19.222,19.222,0,0,1,4.963-1.351c1.279-.189,2.759-.424,4.383-.713a124.721,124.721,0,0,0,16.065-3.883c.275-.089.551-.178.825-.269l.216-.073c2.129-.713,4.224-1.509,6.216-2.4,1.431-.637,2.81-1.321,4.108-2.053a95.892,95.892,0,0,1,17.573-8.025c2.145-.683,4.186-1.241,6.081-1.695,1.447-.348,2.806-.635,4.057-.872.968-.185,1.872-.34,2.7-.468,1.1-.172,2.07-.3,2.885-.394.77-.089,1.4-.148,1.876-.187.655-.055,1.009-.069,1.009-.069" transform="translate(-0.554 -6.447)" fill="#7f9922"/>
          <path id="Trazado_1261646" data-name="Trazado 1261646" d="M83.529,169.731l-.234.214q-.938.861-1.843,1.746-1.812,1.767-3.5,3.612a5.761,5.761,0,0,1-.836.926c-.244.417-.237,1.333-.82.934.19.854.253,1.3-.8.944.742.734.331.856-.787.952.851.233.386.334-.387.479.567.112.015.29-.382.481.164.107-.233.354-.36.535a1.519,1.519,0,0,1-.39.435c-.182.434,0,1.285-.731.977.38.793.416,1.153-.71.987.767.674-.214.911-.915,1.328.174.369-.59.893-.874,1.343a50,50,0,0,0-3.041,5.519,37.815,37.815,0,0,0-1.62,4.027H61.764l.2-.516a41.094,41.094,0,0,1,2.077-4.462,57.648,57.648,0,0,1,5.529-8.31c1.042-1.322,2.138-2.61,3.275-3.873q.427-.472.863-.94t.878-.93c.293-.321.486-1.074.893-.92.1-.666.138-1.184.909-.909-.343-.7,0-.857.923-.9-.46-.406.4-.6.938-.888.049-.265.633-.587.953-.877s.642-.579.967-.867c.22-.194.441-.388.664-.58.968-.185,1.872-.339,2.7-.468" transform="translate(-2.355 -6.473)" fill="#afc547"/>
          <path id="Trazado_1261647" data-name="Trazado 1261647" d="M76.037,171.125l-.139.073q-.719.377-1.426.769-1.417.783-2.8,1.613-2.76,1.656-5.374,3.463-.652.45-1.3.909c-.425.327-.667,1.108-1.279.925-.088.7-.38,1-1.26.942.211.567-.732.663-1.24.959a4.627,4.627,0,0,1-.816.647q-.812.651-1.605,1.316-1.189,1-2.336,2.025t-2.249,2.085c-.734.705-1.45,1.423-2.155,2.145-.347.365-.7.726-1.039,1.1-.171.185-.344.366-.512.552l-.5.557c-.666.745-1.322,1.5-1.95,2.26q-.726.871-1.414,1.761H42.494q1.369-1.689,2.852-3.312c.7-.769,1.418-1.521,2.149-2.265l.553-.556c.185-.185.374-.366.56-.55s.375-.366.566-.547.364-.642.569-.543c.2-.481.293-1.083.772-.715-.091-.724-.02-1.03.78-.709-.446-.639-.121-.737.79-.7-.52-.377.179-.5.8-.693-.144-.214.536-.459.809-.686s.544-.454.819-.678q1.236-1.01,2.51-1.986t2.588-1.916q.655-.47,1.321-.931c.441-.33.724-1.174,1.34-.914.1-.744.43-1.017,1.357-.9-.212-.586.839-.61,1.374-.877q.606-.381,1.219-.754,1.838-1.121,3.733-2.175c2.145-.682,4.188-1.239,6.082-1.694" transform="translate(-1.621 -6.526)" fill="#afc547"/>
          <path id="Trazado_1261648" data-name="Trazado 1261648" d="M89.126,169.126l-.044.089c-.045.09-.087.185-.13.277-.083.188-.165.376-.241.568-.156.381-.293.77-.426,1.162s-.251.786-.362,1.183.309,1.433-.308,1.2c.476.836,1.079,1.513-.257,1.206,1.264.68,1.243.868-.214,1.213,1.4.025.6.52-.173,1.219.7-.1-.1.814-.133,1.222q-.029.307-.052.613c-.016.2.038.491-.043.613.043.474.726,1.4-.06,1.227.767.736,1.205,1.128-.025,1.228,1.227.314,1,.575.007,1.229,1-.289.662.03.009.614.657-.434.3.367.027.615.269-.247.041.6.026.615a2.182,2.182,0,0,1,.014.307l.022.307.089,1.227c.038.409.083.818.124,1.225.022.2.039.409.065.613l.081.612.081.612.041.306.019.152c.008.051.016.1.024.153l.2,1.22.049.3c.016.1.032.2.053.3l.117.608.234,1.216.169.765H84.887l-.065-.4-.167-1.261-.084-.63c-.015-.1-.025-.211-.037-.315l-.033-.316-.131-1.263c0-.053-.011-.106-.015-.159l-.012-.159-.024-.316-.046-.633-.047-.633c-.013-.211-.02-.422-.031-.634s-.144-.487-.028-.634c-.135-.26-.4-.548-.026-.634-.384-.1-.562-.416-.009-.634-.561-.316-.571-.582-.01-.635-.562.053-.5-.225,0-.317-.5,0-.389-.115,0-.317-.391.108-.126-.572.01-.635-.136.063.011-.634.011-.634.007-.212.018-.423.027-.635q.052-1.268.167-2.535.059-.633.136-1.266c.051-.421-.1-1.116.172-1.263-.156-.61-.586-1.307.212-1.26-.692-.619-.681-.909.252-1.255-.812-.209-.182-.7.3-1.25-.293-.166.219-.831.34-1.245s.254-.825.393-1.235.29-.819.451-1.226.334-.811.524-1.213c.044-.1.089-.191.137-.288.771-.089,1.4-.148,1.877-.188" transform="translate(-3.192 -6.45)" fill="#afc547"/>
          <path id="Trazado_1261649" data-name="Trazado 1261649" d="M23.886,190.247c-.4.209-.8.431-1.2.657s-.808.48-1.2.731-.882,1.267-1.173.768c-.286.891-.348,1.725-1.143.8.447,1.173.285,1.308-1.113.829,1.062.736.06.711-1.087.853.62.283-.709.582-1.056.878l-.217.186H14.54v-1.763c.262-.474.491-.917.965-.552-.051-.834.184-1.052,1.175-.843-.466-.577.4-.631,1.206-.816-.1-.279.818-.53,1.236-.789q.188-.115.381-.23c1.279-.19,2.759-.424,4.383-.713" transform="translate(-0.554 -7.255)" fill="#afc547"/>
          <path id="Trazado_1261650" data-name="Trazado 1261650" d="M47.8,183.364q-.884.617-1.753,1.253-2.1,1.541-4.1,3.172a6.222,6.222,0,0,1-.99.821c-.314.387-.467,1.293-.975.83.038.868.023,1.318-.96.842.605.813.177.887-.946.852.8.328.323.374-.467.43.542.176-.036.289-.462.433.143.124-.291.323-.449.488a1.651,1.651,0,0,1-.464.386c-.255.408-.22,1.273-.895.883.238.828.211,1.189-.874.895.522.616-.049.811-.694,1.041H30.114q1.161-1.2,2.387-2.35c1.262-1.188,2.573-2.338,3.92-3.457.338-.279.676-.556,1.02-.832s.685-.548,1.031-.82.668-1.007,1.046-.807c.211-.648.341-1.156,1.058-.8a.82.82,0,0,1-.03-.526c.087-.22.363-.283.824-.269.086,0,.178.006.277.013a.5.5,0,0,1-.06-.087c2.129-.713,4.224-1.508,6.216-2.4" transform="translate(-1.148 -6.993)" fill="#afc547"/>
          <path id="Trazado_1261651" data-name="Trazado 1261651" d="M87.809,194.618H14.2V147.093a.324.324,0,1,1,.648,0V193.97H87.16V165.94a.324.324,0,0,1,.648,0Z" transform="translate(-0.542 -5.597)" fill="#dce9ef"/>
          <path id="Trazado_1261652" data-name="Trazado 1261652" d="M89.434,146.321A.324.324,0,0,1,89.11,146v-2.3H65.656a.324.324,0,1,1,0-.648h24.1V146a.324.324,0,0,1-.324.324" transform="translate(-2.491 -5.455)" fill="#dce9ef"/>
          <path id="Trazado_1261653" data-name="Trazado 1261653" d="M82.284,204.429H30.075a.972.972,0,0,1,0-1.944H82.284a.972.972,0,0,1,0,1.944" transform="translate(-1.11 -7.722)" fill="#fff"/>
          <path id="Trazado_1261654" data-name="Trazado 1261654" d="M82.284,210.418H30.075a.972.972,0,0,1,0-1.944H82.284a.972.972,0,0,1,0,1.944" transform="translate(-1.11 -7.95)" fill="#fff"/>
          <path id="Trazado_1261655" data-name="Trazado 1261655" d="M66.509,216.406H43.91a.972.972,0,1,1,0-1.944h22.6a.972.972,0,0,1,0,1.944" transform="translate(-1.637 -8.179)" fill="#fff"/>
          <path id="Trazado_1261656" data-name="Trazado 1261656" d="M53.513,98.818a.324.324,0,0,1-.324-.324V74.272a6.026,6.026,0,0,1,6.019-6.018H78.573a.324.324,0,0,1,0,.648H59.208a5.377,5.377,0,0,0-5.371,5.37V98.494a.324.324,0,0,1-.324.324" transform="translate(-2.028 -2.603)" fill="#dce9ef"/>
          <path id="Trazado_1261657" data-name="Trazado 1261657" d="M78.573,123.5H59.207a6.025,6.025,0,0,1-6.018-6.018.324.324,0,1,1,.648,0,5.376,5.376,0,0,0,5.37,5.37H78.573a5.376,5.376,0,0,0,5.37-5.37.324.324,0,1,1,.648,0,6.025,6.025,0,0,1-6.018,6.018" transform="translate(-2.028 -4.468)" fill="#dce9ef"/>
          <path id="Trazado_1261658" data-name="Trazado 1261658" d="M69.558,88.215s9.4,6.458,9.374,14.385-9.47,14.322-9.47,14.322Z" transform="translate(-2.649 -3.364)" fill="#7f9922"/>
          <path id="Trazado_1261659" data-name="Trazado 1261659" d="M69.187,88.215l-.1,28.707s-9.4-6.458-9.374-14.385,9.47-14.322,9.47-14.322" transform="translate(-2.277 -3.364)" fill="#97b246"/>
          <path id="Trazado_1261660" data-name="Trazado 1261660" d="M75.552,93.022c0,4.1-2.792,7.417-6.238,7.417s-6.237-3.321-6.237-7.417,6.237-11.271,6.237-11.271,6.238,7.176,6.238,11.271" transform="translate(-2.406 -3.118)" fill="#dce9ef"/>
          <path id="Trazado_1261661" data-name="Trazado 1261661" d="M63.786,84.826a3.32,3.32,0,0,1-3,3.567,3.321,3.321,0,0,1-3-3.567c0-1.97,3-5.421,3-5.421s3,3.451,3,5.421" transform="translate(-2.204 -3.028)" fill="#dce9ef"/>
          <path id="Trazado_1261662" data-name="Trazado 1261662" d="M81,84.826a3.045,3.045,0,1,1-6,0c0-1.97,3-5.421,3-5.421s3,3.451,3,5.421" transform="translate(-2.86 -3.028)" fill="#dce9ef"/>
          <path id="Trazado_1261663" data-name="Trazado 1261663" d="M75.955,74.892H60.486a.648.648,0,1,1,0-1.3H75.955a.648.648,0,1,1,0,1.3" transform="translate(-2.282 -2.807)" fill="#fff"/>
          <path id="Trazado_1261664" data-name="Trazado 1261664" d="M39.14,119.567a.324.324,0,0,1-.324-.324V74.931c0-9.057-5.167-13.271-9.969-13.353-4.579-.063-9.622,3.783-9.917,12.439A.324.324,0,1,1,18.283,74c.31-9.094,5.726-13.133,10.575-13.065,5.271.089,10.606,4.928,10.606,14v44.312a.324.324,0,0,1-.324.324" transform="translate(-0.697 -2.324)" fill="#46332a"/>
          <path id="Trazado_1261665" data-name="Trazado 1261665" d="M98.124,234.791a.324.324,0,1,1,0-.648,6.436,6.436,0,0,0,6.434-6.738l-.816-17.175a.323.323,0,0,1,.308-.338.314.314,0,0,1,.34.308l.816,17.173a7.085,7.085,0,0,1-7.081,7.418" transform="translate(-3.73 -8.004)" fill="#46332a"/>
          <path id="Trazado_1261666" data-name="Trazado 1261666" d="M338.558,232.564c0,3.691-27.848,6.682-62.2,6.682s-62.2-2.991-62.2-6.682,27.848-6.682,62.2-6.682,62.2,2.991,62.2,6.682" transform="translate(-8.167 -8.614)" fill="#cdad86"/>
          <path id="Trazado_1261667" data-name="Trazado 1261667" d="M285.233,47.955h33.03V25.323a2.187,2.187,0,0,0-2.187-2.186H287.419a2.187,2.187,0,0,0-2.186,2.186Z" transform="translate(-10.877 -0.882)" fill="#afc547"/>
          <path id="Trazado_1261668" data-name="Trazado 1261668" d="M206.948,143.971c.018.645.023,64.307.023,64.307a16.886,16.886,0,0,0,16.886,16.886H321a16.915,16.915,0,0,0,14.072-7.532,124.879,124.879,0,0,0,13.939-27.239c4.9-13.689,6.452-26.672,6.469-39.641.014-11.024-1.633-23.524-4.738-32.243a180.012,180.012,0,0,0-18.215-36.294,125.232,125.232,0,0,0-11.592-15.632H275.678a137.364,137.364,0,0,0-32.872,16.453,74.252,74.252,0,0,0-31.758,39.2,60.306,60.306,0,0,0-4.1,21.733m23.006-28.741c9.51-16.471,23.932-25.947,32.213-21.166s7.285,22.008-2.224,38.48-23.932,25.947-32.213,21.166-7.285-22.009,2.224-38.48" transform="translate(-7.892 -2.539)" fill="#dce9ef"/>
          <path id="Trazado_1261669" data-name="Trazado 1261669" d="M285.22,48.266a.324.324,0,0,1-.324-.324V25.385a2.588,2.588,0,0,1,2.585-2.585h11.988a.324.324,0,1,1,0,.648H287.481a1.938,1.938,0,0,0-1.936,1.936V47.942a.324.324,0,0,1-.324.324" transform="translate(-10.865 -0.869)" fill="#46332a"/>
          <path id="Trazado_1261670" data-name="Trazado 1261670" d="M279.956,39.263H322.3a1.363,1.363,0,0,1,1.363,1.363V65.541H278.593V40.626a1.363,1.363,0,0,1,1.363-1.363" transform="translate(-10.624 -1.497)" fill="#afc547"/>
          <path id="Trazado_1261671" data-name="Trazado 1261671" d="M323.693,49.921a.648.648,0,0,1-.648-.648V40.538a.653.653,0,0,0-.652-.653H279.918a.648.648,0,0,1,0-1.3h42.474a1.952,1.952,0,0,1,1.949,1.949v8.735a.648.648,0,0,1-.648.648" transform="translate(-10.65 -1.472)" fill="#dfea8c"/>
          <path id="Trazado_1261672" data-name="Trazado 1261672" d="M238.115,185.687v1.4a24.557,24.557,0,0,0,24.556,24.557h33.548a34.735,34.735,0,0,0,33.292-24.829l3.169-10.651a96.871,96.871,0,0,0-6.14-70.819,20.715,20.715,0,0,0-39.129,6.924c-1.879,16.339-9.265,39.368-34.661,50.954a24.751,24.751,0,0,0-14.637,22.463" transform="translate(-9.081 -3.58)" fill="#678cc6"/>
          <path id="Trazado_1261673" data-name="Trazado 1261673" d="M306.642,129.614a1.3,1.3,0,0,1-1.3-1.3V121.05a1.3,1.3,0,1,1,2.59,0v7.269a1.3,1.3,0,0,1-1.295,1.3" transform="translate(-11.645 -4.567)" fill="#afc547"/>
          <path id="Trazado_1261674" data-name="Trazado 1261674" d="M300.13,128.038s27.68-8,32.4,17.526c0,0-29.252,15.691-32.4-17.526" transform="translate(-11.446 -4.837)" fill="#97b246"/>
          <path id="Trazado_1261675" data-name="Trazado 1261675" d="M318.1,155.008c0,9.635-5.406,14.373-12.073,14.373s-12.073-4.738-12.073-14.373c0-8.379,9.129-25.307,11.511-28.779a.653.653,0,0,1,1.125,0c2.382,3.472,11.511,19.107,11.511,28.779" transform="translate(-11.21 -4.802)" fill="#dce9ef"/>
          <path id="Trazado_1261676" data-name="Trazado 1261676" d="M325.363,126.641c0,3.434-1.927,5.123-4.3,5.123s-4.3-1.689-4.3-5.123c0-2.987,3.254-9.02,4.1-10.257a.233.233,0,0,1,.4,0c.848,1.237,4.1,6.81,4.1,10.257" transform="translate(-12.08 -4.434)" fill="#fff"/>
          <path id="Trazado_1261677" data-name="Trazado 1261677" d="M306.475,170.717a.648.648,0,1,1,0-1.3c7.048,0,11.425-5.259,11.425-13.726a32.665,32.665,0,0,0-2.458-10.878.648.648,0,1,1,1.214-.454A33.887,33.887,0,0,1,319.2,155.7c0,9.125-4.994,15.021-12.722,15.021" transform="translate(-11.663 -5.489)" fill="#fff"/>
          <path id="Trazado_1261678" data-name="Trazado 1261678" d="M306.432,125.1s-33.179-3.728-32.125,28.284c0,0,35.093,7.248,32.125-28.284" transform="translate(-10.46 -4.766)" fill="#afc547"/>
          <path id="Trazado_1261679" data-name="Trazado 1261679" d="M263.937,195.046h0a1.762,1.762,0,0,1-1.762,1.762h-2.431a1.762,1.762,0,0,1-1.762-1.762v-24.88a2.977,2.977,0,1,1,5.955,0v6.778a6.653,6.653,0,0,1,4.584-1.685c5.055,0,8.933,4.623,8.933,11.009,0,6.426-3.8,11.01-8.933,11.01a5.144,5.144,0,0,1-4.584-2.232m7.562-8.7c0-2.939-1.606-5.094-3.761-5.094s-3.762,2.155-3.762,5.094,1.606,5.093,3.762,5.093,3.761-2.155,3.761-5.093" transform="translate(-9.838 -6.376)" fill="#fff"/>
          <path id="Trazado_1261680" data-name="Trazado 1261680" d="M282.1,169.166a3.526,3.526,0,1,1,3.526,3.526,3.512,3.512,0,0,1-3.526-3.526m3.526,6.426h0a2.939,2.939,0,0,1,2.938,2.939V193.81a2.939,2.939,0,0,1-5.877,0V178.531a2.939,2.939,0,0,1,2.939-2.939" transform="translate(-10.758 -6.317)" fill="#fff"/>
          <path id="Trazado_1261681" data-name="Trazado 1261681" d="M293.011,186.629a10.815,10.815,0,1,1,10.814,10.97,10.686,10.686,0,0,1-10.814-10.97m15.594,0a4.8,4.8,0,1,0-4.78,5.211,4.944,4.944,0,0,0,4.78-5.211" transform="translate(-11.174 -6.697)" fill="#fff"/>
          <path id="Trazado_1261682" data-name="Trazado 1261682" d="M317.1,142.061l-1.526-3.82-1.527,3.82-3.716,1.423,3.653,1.173,1.589,4.069,1.589-4.069,3.653-1.173Z" transform="translate(-11.835 -5.272)" fill="#fff"/>
          <path id="Trazado_1261683" data-name="Trazado 1261683" d="M317.919,104.689H303.54a.972.972,0,1,1,0-1.944h14.379a.972.972,0,0,1,0,1.944" transform="translate(-11.539 -3.918)" fill="#fff"/>
          <path id="Trazado_1261684" data-name="Trazado 1261684" d="M317.919,108.826H303.54a.972.972,0,1,1,0-1.944h14.379a.972.972,0,0,1,0,1.944" transform="translate(-11.539 -4.076)" fill="#fff"/>
          <path id="Trazado_1261685" data-name="Trazado 1261685" d="M360.433,151.994h0a.649.649,0,0,1-.647-.648c.015-11.569-1.786-23.841-4.7-32.024a176.5,176.5,0,0,0-18.149-36.162.648.648,0,1,1,1.091-.7A177.841,177.841,0,0,1,356.3,118.886c2.962,8.315,4.791,20.753,4.777,32.461a.648.648,0,0,1-.648.647" transform="translate(-12.845 -3.133)" fill="#fff"/>
          <path id="Trazado_1261686" data-name="Trazado 1261686" d="M341.329,81.028l-3-7.5-3,7.5-7.293,2.792,7.171,2.3,3.117,7.986,3.118-7.986,7.171-2.3Z" transform="translate(-12.51 -2.804)" fill="#fff"/>
          <path id="Trazado_1261687" data-name="Trazado 1261687" d="M338.728,94.827a.314.314,0,0,1-.117-.022.323.323,0,0,1-.185-.419l3.174-8.13,7.317-2.35a.324.324,0,1,1,.2.617l-7.025,2.256-3.062,7.843a.325.325,0,0,1-.3.206" transform="translate(-12.905 -3.199)" fill="#46332a"/>
          <path id="Trazado_1261688" data-name="Trazado 1261688" d="M206.958,210.8a.324.324,0,0,1-.324-.324c0-.637,0-63.664-.023-64.3a60.5,60.5,0,0,1,4.121-21.855.324.324,0,1,1,.607.225,59.843,59.843,0,0,0-4.08,21.611c.018.643.024,61.717.024,64.317a.324.324,0,0,1-.324.324" transform="translate(-7.879 -4.733)" fill="#46332a"/>
          <path id="Trazado_1261689" data-name="Trazado 1261689" d="M233.423,156.357a9.938,9.938,0,0,1-5.043-1.289.324.324,0,1,1,.323-.561c3.894,2.247,9.329,1.324,15.306-2.6,6.042-3.971,11.89-10.522,16.464-18.445s7.324-16.261,7.74-23.48c.414-7.139-1.5-12.309-5.4-14.557a.324.324,0,0,1,.324-.561c4.117,2.377,6.148,7.758,5.721,15.155-.423,7.318-3.2,15.757-7.827,23.767s-10.544,14.637-16.669,18.662c-3.947,2.592-7.684,3.912-10.942,3.912" transform="translate(-8.703 -3.616)" fill="#46332a"/>
          <path id="Trazado_1261690" data-name="Trazado 1261690" d="M325.509,230.385a.324.324,0,1,1,0-.648,16.556,16.556,0,0,0,13.8-7.388,124.109,124.109,0,0,0,13.9-27.169.324.324,0,1,1,.61.219,124.71,124.71,0,0,1-13.975,27.309,17.2,17.2,0,0,1-14.341,7.677" transform="translate(-12.401 -7.435)" fill="#46332a"/>
          <path id="Trazado_1261691" data-name="Trazado 1261691" d="M299.215,66.894H278.58a.324.324,0,0,1,0-.648h20.635a.324.324,0,1,1,0,.648" transform="translate(-10.611 -2.526)" fill="#46332a"/>
          <path id="Trazado_1261692" data-name="Trazado 1261692" d="M302,206.74H267.815a.972.972,0,1,1,0-1.944H302a.972.972,0,0,1,0,1.944" transform="translate(-10.176 -7.81)" fill="#fff"/>
          <path id="Trazado_1261693" data-name="Trazado 1261693" d="M296.449,211.067h-22.79a.972.972,0,0,1,0-1.944h22.79a.972.972,0,0,1,0,1.944" transform="translate(-10.399 -7.975)" fill="#fff"/>
          <path id="Trazado_1261694" data-name="Trazado 1261694" d="M250.07,246.4c0,1.771-10.243,3.206-22.879,3.206s-22.878-1.435-22.878-3.206,10.243-3.206,22.878-3.206,22.879,1.435,22.879,3.206" transform="translate(-7.792 -9.274)" fill="#cdad86"/>
          <path id="Trazado_1261695" data-name="Trazado 1261695" d="M243.992,143.409a5.54,5.54,0,0,0-3.1-6.633c-11.041-4.744-10.815-13.568-10.815-13.568V120.8a.544.544,0,0,0-.544-.544H219.23a.545.545,0,0,0-.544.544v2.407s.226,8.824-10.815,13.568a5.541,5.541,0,0,0-3.1,6.633l2.8,9.711s-7.705,70.637-2.385,86.056a2.941,2.941,0,0,0,2.787,1.971h32.815a2.937,2.937,0,0,0,2.783-1.962c1.3-3.746,1.82-10.761,1.871-19.234.038-6.074-.168-12.9-.507-19.8-1.132-23.06-3.746-47.027-3.746-47.027Z" transform="translate(-7.754 -4.586)" fill="#afc547"/>
        </g>
      </g>
      <g id="Grupo_1204401" data-name="Grupo 1204401" transform="translate(195.564 115.67)">
        <g id="Grupo_1204400" data-name="Grupo 1204400" clip-path="url(#clip-path-2)">
          <path id="Trazado_1261696" data-name="Trazado 1261696" d="M274.2,200.016h-2.851a2.057,2.057,0,0,1-2.055-2.056,3.646,3.646,0,0,0-7.293,0,2.055,2.055,0,1,1-4.11,0,3.646,3.646,0,0,0-7.292,0,2.055,2.055,0,1,1-4.11,0,3.646,3.646,0,0,0-7.293,0,2.049,2.049,0,1,1-4.1.012,3.652,3.652,0,0,0-7.3-.012,2.05,2.05,0,1,1-4.1.012,3.652,3.652,0,0,0-7.3-.012,2.05,2.05,0,1,1-4.1.012,3.63,3.63,0,0,0-1.019-2.522l-.011-.012c-.063-.064-.128-.125-.194-.185l-.066-.06c-.053-.045-.108-.087-.164-.129-.04-.031-.08-.062-.121-.09s-.088-.057-.132-.085-.114-.073-.174-.106c-.033-.018-.066-.035-.1-.052-.074-.038-.148-.076-.225-.109-.023-.011-.046-.019-.069-.028-.09-.038-.182-.071-.276-.1l-.034-.01a3.654,3.654,0,0,0-.911-.162v.011c-.05,0-.1-.008-.15-.008A3.65,3.65,0,0,0,205,197.972a2.055,2.055,0,0,1-4.11,0,3.646,3.646,0,0,0-7.293,0,2.055,2.055,0,0,1-4.11,0,3.646,3.646,0,1,0-7.292,0,2.055,2.055,0,0,1-4.11,0,3.651,3.651,0,0,0-3.646-3.646h-2.851a.8.8,0,0,0,0,1.591h2.851a2.058,2.058,0,0,1,2.056,2.056,3.646,3.646,0,1,0,7.292,0,2.055,2.055,0,1,1,4.11,0,3.646,3.646,0,0,0,7.293,0,2.055,2.055,0,1,1,4.11,0,3.646,3.646,0,1,0,7.292,0,2.058,2.058,0,0,1,2.055-2.056,2.114,2.114,0,0,1,.284.029,2,2,0,0,1,.2.036c.052.013.1.031.153.047a2.192,2.192,0,0,1,.226.086c.035.016.067.037.1.055a2.092,2.092,0,0,1,.237.143c.019.014.037.031.055.046a2.033,2.033,0,0,1,.236.21l.008.01a2.024,2.024,0,0,1,.544,1.383,3.652,3.652,0,1,0,7.3.012,2.049,2.049,0,1,1,4.1-.012,3.652,3.652,0,1,0,7.3.012,2.05,2.05,0,1,1,4.1-.012,3.672,3.672,0,0,0,3.657,3.658h.018V201.6a3.649,3.649,0,0,0,3.617-3.645,2.055,2.055,0,0,1,4.11,0,3.646,3.646,0,1,0,7.293,0,2.055,2.055,0,0,1,4.11,0,3.646,3.646,0,1,0,7.293,0,2.055,2.055,0,0,1,4.11,0,3.65,3.65,0,0,0,3.645,3.646H274.2a.8.8,0,1,0,0-1.591" transform="translate(-202.077 -123.08)" fill="#c4d359"/>
          <path id="Trazado_1261697" data-name="Trazado 1261697" d="M274.2,190.242h-2.851a2.057,2.057,0,0,1-2.055-2.056,3.646,3.646,0,0,0-7.293,0,2.055,2.055,0,1,1-4.11,0,3.646,3.646,0,0,0-7.292,0,2.055,2.055,0,1,1-4.11,0,3.646,3.646,0,0,0-7.293,0,2.049,2.049,0,1,1-4.1.012,3.652,3.652,0,0,0-7.3-.012,2.05,2.05,0,1,1-4.1.012,3.652,3.652,0,0,0-7.3-.012,2.05,2.05,0,1,1-4.1.012,3.63,3.63,0,0,0-1.019-2.522l-.011-.012c-.063-.064-.128-.125-.194-.185-.023-.019-.044-.04-.066-.06-.053-.045-.108-.087-.164-.129-.04-.03-.08-.062-.121-.09s-.088-.057-.132-.085-.114-.072-.174-.106c-.033-.018-.066-.035-.1-.052-.074-.038-.148-.076-.225-.109-.023-.011-.046-.019-.069-.028-.09-.038-.182-.071-.276-.1l-.034-.011a3.651,3.651,0,0,0-.911-.162v.011c-.05,0-.1-.008-.15-.008A3.65,3.65,0,0,0,205,188.2a2.055,2.055,0,1,1-4.11,0,3.646,3.646,0,1,0-7.293,0,2.055,2.055,0,1,1-4.11,0,3.646,3.646,0,1,0-7.292,0,2.055,2.055,0,1,1-4.11,0,3.651,3.651,0,0,0-3.646-3.646h-2.851a.8.8,0,0,0,0,1.591h2.851a2.058,2.058,0,0,1,2.056,2.056,3.646,3.646,0,1,0,7.292,0,2.055,2.055,0,1,1,4.11,0,3.646,3.646,0,1,0,7.293,0,2.055,2.055,0,1,1,4.11,0,3.646,3.646,0,1,0,7.292,0,2.058,2.058,0,0,1,2.055-2.056,2.119,2.119,0,0,1,.284.029c.067.011.136.019.2.036s.1.031.153.048a1.989,1.989,0,0,1,.226.085c.035.016.067.038.1.055a1.969,1.969,0,0,1,.237.144c.019.013.037.031.055.045a2.033,2.033,0,0,1,.236.21l.008.01a2.024,2.024,0,0,1,.544,1.383,3.652,3.652,0,1,0,7.3.012,2.049,2.049,0,1,1,4.1-.012,3.652,3.652,0,1,0,7.3.012,2.05,2.05,0,1,1,4.1-.012,3.672,3.672,0,0,0,3.657,3.658h.018v-.013a3.65,3.65,0,0,0,3.617-3.645,2.055,2.055,0,0,1,4.11,0,3.646,3.646,0,1,0,7.293,0,2.055,2.055,0,0,1,4.11,0,3.646,3.646,0,1,0,7.293,0,2.055,2.055,0,0,1,4.11,0,3.65,3.65,0,0,0,3.645,3.646H274.2a.8.8,0,1,0,0-1.591" transform="translate(-202.077 -122.708)" fill="#c4d359"/>
          <path id="Trazado_1261698" data-name="Trazado 1261698" d="M274.2,180.468h-2.851a2.057,2.057,0,0,1-2.055-2.055,3.646,3.646,0,0,0-7.293,0,2.055,2.055,0,1,1-4.11,0,3.646,3.646,0,0,0-7.292,0,2.055,2.055,0,1,1-4.11,0,3.646,3.646,0,0,0-7.293,0,2.049,2.049,0,1,1-4.1.012,3.652,3.652,0,0,0-7.3-.012,2.05,2.05,0,1,1-4.1.012,3.652,3.652,0,0,0-7.3-.012,2.05,2.05,0,1,1-4.1.012,3.63,3.63,0,0,0-1.019-2.522l-.011-.012c-.063-.064-.128-.125-.194-.185-.023-.019-.044-.04-.066-.06-.053-.045-.108-.087-.164-.129-.04-.03-.08-.062-.121-.09s-.088-.057-.132-.085-.114-.073-.174-.106c-.033-.018-.066-.035-.1-.052-.074-.038-.148-.076-.225-.109-.023-.011-.046-.018-.069-.028-.09-.038-.182-.071-.276-.1l-.034-.011a3.653,3.653,0,0,0-.911-.162v.011c-.05,0-.1-.008-.15-.008A3.65,3.65,0,0,0,205,178.424a2.055,2.055,0,1,1-4.11,0,3.646,3.646,0,0,0-7.293,0,2.055,2.055,0,1,1-4.11,0,3.646,3.646,0,1,0-7.292,0,2.055,2.055,0,1,1-4.11,0,3.651,3.651,0,0,0-3.646-3.646h-2.851a.8.8,0,0,0,0,1.591h2.851a2.058,2.058,0,0,1,2.056,2.055,3.646,3.646,0,1,0,7.292,0,2.055,2.055,0,1,1,4.11,0,3.646,3.646,0,0,0,7.293,0,2.055,2.055,0,1,1,4.11,0,3.646,3.646,0,1,0,7.292,0,2.058,2.058,0,0,1,2.055-2.055,2.112,2.112,0,0,1,.284.029,1.993,1.993,0,0,1,.2.036c.052.013.1.031.153.048a1.992,1.992,0,0,1,.226.085c.035.016.067.037.1.055a2.092,2.092,0,0,1,.237.143c.019.014.037.031.055.046a2.031,2.031,0,0,1,.236.21l.008.01a2.024,2.024,0,0,1,.544,1.383,3.652,3.652,0,1,0,7.3.012,2.049,2.049,0,1,1,4.1-.012,3.652,3.652,0,1,0,7.3.012,2.05,2.05,0,1,1,4.1-.012,3.672,3.672,0,0,0,3.657,3.658h.018v-.013a3.65,3.65,0,0,0,3.617-3.645,2.055,2.055,0,0,1,4.11,0,3.646,3.646,0,0,0,7.293,0,2.055,2.055,0,0,1,4.11,0,3.646,3.646,0,1,0,7.293,0,2.055,2.055,0,0,1,4.11,0,3.65,3.65,0,0,0,3.645,3.646H274.2a.8.8,0,1,0,0-1.591" transform="translate(-202.077 -122.335)" fill="#c4d359"/>
          <path id="Trazado_1261699" data-name="Trazado 1261699" d="M274.2,170.694h-2.851a2.057,2.057,0,0,1-2.055-2.055,3.646,3.646,0,0,0-7.293,0,2.055,2.055,0,1,1-4.11,0,3.646,3.646,0,0,0-7.292,0,2.055,2.055,0,1,1-4.11,0,3.646,3.646,0,0,0-7.293,0,2.049,2.049,0,1,1-4.1.012,3.652,3.652,0,0,0-7.3-.012,2.05,2.05,0,1,1-4.1.012,3.652,3.652,0,0,0-7.3-.012,2.05,2.05,0,1,1-4.1.012,3.63,3.63,0,0,0-1.019-2.522l-.011-.012c-.063-.064-.128-.125-.194-.185-.023-.019-.044-.04-.066-.06-.053-.045-.108-.087-.164-.129-.04-.03-.08-.062-.121-.09s-.088-.057-.132-.085-.114-.073-.174-.106c-.033-.018-.066-.035-.1-.052-.074-.038-.148-.076-.225-.109-.023-.011-.046-.019-.069-.028-.09-.038-.182-.071-.276-.1l-.034-.01A3.653,3.653,0,0,0,208.8,165v.011c-.05,0-.1-.008-.15-.008A3.65,3.65,0,0,0,205,168.65a2.055,2.055,0,0,1-4.11,0,3.646,3.646,0,1,0-7.293,0,2.055,2.055,0,0,1-4.11,0,3.646,3.646,0,1,0-7.292,0,2.055,2.055,0,0,1-4.11,0A3.651,3.651,0,0,0,174.439,165h-2.851a.8.8,0,0,0,0,1.591h2.851a2.058,2.058,0,0,1,2.056,2.056,3.646,3.646,0,1,0,7.292,0,2.055,2.055,0,1,1,4.11,0,3.646,3.646,0,1,0,7.293,0,2.055,2.055,0,1,1,4.11,0,3.646,3.646,0,1,0,7.292,0,2.058,2.058,0,0,1,2.055-2.056,2.114,2.114,0,0,1,.284.029c.067.011.136.019.2.036s.1.031.153.047a2.188,2.188,0,0,1,.226.086c.035.016.067.037.1.055a2.088,2.088,0,0,1,.237.143c.019.014.037.032.055.046a2.03,2.03,0,0,1,.236.21l.008.01a2.025,2.025,0,0,1,.544,1.383,3.652,3.652,0,1,0,7.3.012,2.049,2.049,0,1,1,4.1-.012,3.652,3.652,0,1,0,7.3.012,2.05,2.05,0,1,1,4.1-.012,3.672,3.672,0,0,0,3.657,3.658h.018v-.013a3.65,3.65,0,0,0,3.617-3.645,2.055,2.055,0,0,1,4.11,0,3.646,3.646,0,0,0,7.293,0,2.055,2.055,0,0,1,4.11,0,3.646,3.646,0,1,0,7.293,0,2.055,2.055,0,0,1,4.11,0,3.65,3.65,0,0,0,3.645,3.646H274.2a.8.8,0,1,0,0-1.591" transform="translate(-202.077 -121.962)" fill="#c4d359"/>
          <path id="Trazado_1261700" data-name="Trazado 1261700" d="M274.2,160.92h-2.851a2.057,2.057,0,0,1-2.055-2.056,3.646,3.646,0,0,0-7.293,0,2.055,2.055,0,1,1-4.11,0,3.646,3.646,0,0,0-7.292,0,2.055,2.055,0,1,1-4.11,0,3.646,3.646,0,0,0-7.293,0,2.049,2.049,0,1,1-4.1.012,3.652,3.652,0,0,0-7.3-.012,2.05,2.05,0,1,1-4.1.012,3.652,3.652,0,0,0-7.3-.012,2.05,2.05,0,1,1-4.1.012,3.63,3.63,0,0,0-1.019-2.522l-.011-.012c-.063-.064-.128-.125-.194-.185-.023-.019-.044-.04-.066-.06-.053-.045-.108-.087-.164-.129-.04-.03-.08-.062-.121-.09s-.088-.057-.132-.085-.114-.072-.174-.106c-.033-.018-.066-.035-.1-.052-.074-.038-.148-.075-.225-.109-.023-.011-.046-.018-.069-.028-.09-.038-.182-.071-.276-.1l-.034-.011a3.653,3.653,0,0,0-.911-.162v.011c-.05,0-.1-.008-.15-.008A3.65,3.65,0,0,0,205,158.876a2.055,2.055,0,1,1-4.11,0,3.646,3.646,0,1,0-7.293,0,2.055,2.055,0,1,1-4.11,0,3.646,3.646,0,1,0-7.292,0,2.055,2.055,0,1,1-4.11,0,3.651,3.651,0,0,0-3.646-3.646h-2.851a.8.8,0,0,0,0,1.591h2.851a2.058,2.058,0,0,1,2.056,2.055,3.646,3.646,0,1,0,7.292,0,2.055,2.055,0,1,1,4.11,0,3.646,3.646,0,1,0,7.293,0,2.055,2.055,0,1,1,4.11,0,3.646,3.646,0,1,0,7.292,0,2.058,2.058,0,0,1,2.055-2.055,2.114,2.114,0,0,1,.284.029c.067.011.136.019.2.036s.1.031.153.048a1.981,1.981,0,0,1,.226.085c.035.016.067.038.1.055a1.963,1.963,0,0,1,.237.144c.019.013.037.031.055.045a2.03,2.03,0,0,1,.236.21l.008.01a2.024,2.024,0,0,1,.544,1.383,3.652,3.652,0,1,0,7.3.012,2.049,2.049,0,1,1,4.1-.012,3.652,3.652,0,1,0,7.3.012,2.05,2.05,0,1,1,4.1-.012,3.672,3.672,0,0,0,3.657,3.658h.018v-.013a3.65,3.65,0,0,0,3.617-3.645,2.055,2.055,0,0,1,4.11,0,3.646,3.646,0,1,0,7.293,0,2.055,2.055,0,0,1,4.11,0,3.646,3.646,0,1,0,7.293,0,2.055,2.055,0,0,1,4.11,0,3.65,3.65,0,0,0,3.645,3.646H274.2a.8.8,0,1,0,0-1.591" transform="translate(-202.077 -121.589)" fill="#c4d359"/>
          <path id="Trazado_1261701" data-name="Trazado 1261701" d="M274.2,239.153h-2.851a2.057,2.057,0,0,1-2.055-2.055,3.646,3.646,0,0,0-7.293,0,2.055,2.055,0,1,1-4.11,0,3.646,3.646,0,0,0-7.292,0,2.055,2.055,0,1,1-4.11,0,3.646,3.646,0,0,0-7.293,0,2.049,2.049,0,1,1-4.1.012,3.652,3.652,0,0,0-7.3-.012,2.05,2.05,0,1,1-4.1.012,3.652,3.652,0,0,0-7.3-.012,2.05,2.05,0,1,1-4.1.012,3.63,3.63,0,0,0-1.019-2.522l-.011-.012c-.063-.064-.128-.125-.194-.185-.023-.019-.044-.04-.066-.06-.053-.045-.108-.087-.164-.129-.04-.03-.08-.062-.121-.09s-.088-.057-.132-.085-.114-.073-.174-.106c-.033-.018-.066-.035-.1-.052-.074-.038-.148-.076-.225-.109-.023-.011-.046-.019-.069-.028-.09-.038-.182-.071-.276-.1l-.034-.011a3.652,3.652,0,0,0-.911-.162v.011c-.05,0-.1-.008-.15-.008A3.65,3.65,0,0,0,205,237.109a2.055,2.055,0,1,1-4.11,0,3.646,3.646,0,0,0-7.293,0,2.055,2.055,0,1,1-4.11,0,3.646,3.646,0,1,0-7.292,0,2.055,2.055,0,1,1-4.11,0,3.651,3.651,0,0,0-3.646-3.646h-2.851a.8.8,0,0,0,0,1.591h2.851a2.058,2.058,0,0,1,2.056,2.056,3.646,3.646,0,1,0,7.292,0,2.055,2.055,0,1,1,4.11,0,3.646,3.646,0,0,0,7.293,0,2.055,2.055,0,1,1,4.11,0,3.646,3.646,0,1,0,7.292,0,2.058,2.058,0,0,1,2.055-2.056,2.114,2.114,0,0,1,.284.029,1.976,1.976,0,0,1,.2.036c.052.012.1.031.153.048a1.984,1.984,0,0,1,.226.085c.035.016.067.037.1.055a2.1,2.1,0,0,1,.237.143c.019.014.037.031.055.046a2.033,2.033,0,0,1,.236.21l.008.01a2.025,2.025,0,0,1,.544,1.383,3.652,3.652,0,1,0,7.3.012,2.049,2.049,0,1,1,4.1-.012,3.652,3.652,0,1,0,7.3.012,2.05,2.05,0,1,1,4.1-.012,3.672,3.672,0,0,0,3.657,3.658h.018v-.013a3.649,3.649,0,0,0,3.617-3.645,2.055,2.055,0,0,1,4.11,0,3.646,3.646,0,1,0,7.293,0,2.055,2.055,0,0,1,4.11,0,3.646,3.646,0,1,0,7.293,0,2.055,2.055,0,0,1,4.11,0,3.65,3.65,0,0,0,3.645,3.646H274.2a.8.8,0,1,0,0-1.591" transform="translate(-202.077 -124.573)" fill="#c4d359"/>
          <path id="Trazado_1261702" data-name="Trazado 1261702" d="M274.2,229.379h-2.851a2.057,2.057,0,0,1-2.055-2.055,3.646,3.646,0,0,0-7.293,0,2.055,2.055,0,1,1-4.11,0,3.646,3.646,0,0,0-7.292,0,2.055,2.055,0,1,1-4.11,0,3.646,3.646,0,0,0-7.293,0,2.049,2.049,0,1,1-4.1.012,3.652,3.652,0,0,0-7.3-.012,2.05,2.05,0,1,1-4.1.012,3.652,3.652,0,0,0-7.3-.012,2.05,2.05,0,1,1-4.1.012,3.63,3.63,0,0,0-1.019-2.522l-.011-.012c-.063-.064-.128-.125-.194-.185l-.066-.06c-.053-.045-.108-.087-.164-.129-.04-.03-.08-.062-.121-.09s-.088-.057-.132-.085-.114-.073-.174-.106c-.033-.018-.066-.035-.1-.052-.074-.038-.148-.076-.225-.109-.023-.011-.046-.019-.069-.028-.09-.038-.182-.071-.276-.1l-.034-.01a3.654,3.654,0,0,0-.911-.162v.011c-.05,0-.1-.008-.15-.008A3.65,3.65,0,0,0,205,227.335a2.055,2.055,0,0,1-4.11,0,3.646,3.646,0,0,0-7.293,0,2.055,2.055,0,0,1-4.11,0,3.646,3.646,0,1,0-7.292,0,2.055,2.055,0,0,1-4.11,0,3.651,3.651,0,0,0-3.646-3.646h-2.851a.8.8,0,0,0,0,1.591h2.851a2.058,2.058,0,0,1,2.056,2.056,3.646,3.646,0,1,0,7.292,0,2.055,2.055,0,1,1,4.11,0,3.646,3.646,0,1,0,7.293,0,2.055,2.055,0,1,1,4.11,0,3.646,3.646,0,1,0,7.292,0,2.058,2.058,0,0,1,2.055-2.056,2.114,2.114,0,0,1,.284.029,1.993,1.993,0,0,1,.2.036c.052.013.1.031.153.047a2.2,2.2,0,0,1,.226.086c.035.016.067.037.1.055a2.092,2.092,0,0,1,.237.143c.019.014.037.031.055.046a2.033,2.033,0,0,1,.236.21l.008.01a2.025,2.025,0,0,1,.544,1.383,3.652,3.652,0,1,0,7.3.012,2.049,2.049,0,1,1,4.1-.012,3.652,3.652,0,1,0,7.3.012,2.05,2.05,0,1,1,4.1-.012,3.672,3.672,0,0,0,3.657,3.658h.018v-.013a3.65,3.65,0,0,0,3.617-3.645,2.055,2.055,0,0,1,4.11,0,3.646,3.646,0,1,0,7.293,0,2.055,2.055,0,0,1,4.11,0,3.646,3.646,0,1,0,7.293,0,2.055,2.055,0,0,1,4.11,0,3.65,3.65,0,0,0,3.645,3.646H274.2a.8.8,0,1,0,0-1.591" transform="translate(-202.077 -124.2)" fill="#c4d359"/>
          <path id="Trazado_1261703" data-name="Trazado 1261703" d="M274.2,219.6h-2.851a2.057,2.057,0,0,1-2.055-2.055,3.646,3.646,0,1,0-7.293,0,2.055,2.055,0,0,1-4.11,0,3.646,3.646,0,1,0-7.292,0,2.055,2.055,0,0,1-4.11,0,3.646,3.646,0,1,0-7.293,0,2.049,2.049,0,1,1-4.1.011,3.652,3.652,0,1,0-7.3-.011,2.05,2.05,0,1,1-4.1.011,3.652,3.652,0,0,0-7.3-.011,2.05,2.05,0,1,1-4.1.011,3.63,3.63,0,0,0-1.019-2.522l-.011-.012c-.063-.064-.128-.125-.194-.185-.023-.019-.044-.04-.066-.06-.053-.045-.108-.087-.164-.129-.04-.03-.08-.062-.121-.09s-.088-.057-.132-.085-.114-.072-.174-.106c-.033-.018-.066-.035-.1-.052-.074-.038-.148-.076-.225-.109-.023-.011-.046-.018-.069-.028-.09-.038-.182-.071-.276-.1l-.034-.011a3.651,3.651,0,0,0-.911-.162v.011c-.05,0-.1-.008-.15-.008A3.65,3.65,0,0,0,205,217.561a2.055,2.055,0,1,1-4.11,0,3.646,3.646,0,1,0-7.293,0,2.055,2.055,0,1,1-4.11,0,3.646,3.646,0,1,0-7.292,0,2.055,2.055,0,1,1-4.11,0,3.651,3.651,0,0,0-3.646-3.646h-2.851a.8.8,0,0,0,0,1.591h2.851a2.058,2.058,0,0,1,2.056,2.056,3.646,3.646,0,1,0,7.292,0,2.055,2.055,0,1,1,4.11,0,3.646,3.646,0,0,0,7.293,0,2.055,2.055,0,1,1,4.11,0,3.646,3.646,0,1,0,7.292,0,2.058,2.058,0,0,1,2.055-2.056,2.109,2.109,0,0,1,.284.029c.067.011.136.019.2.036s.1.031.153.048a1.989,1.989,0,0,1,.226.085c.035.016.067.038.1.055a1.961,1.961,0,0,1,.237.144c.019.013.037.031.055.045a2.033,2.033,0,0,1,.236.21l.008.01a2.025,2.025,0,0,1,.544,1.384,3.652,3.652,0,0,0,7.3.011,2.049,2.049,0,1,1,4.1-.011,3.652,3.652,0,0,0,7.3.011,2.05,2.05,0,1,1,4.1-.011,3.672,3.672,0,0,0,3.657,3.657h.018v-.013a3.65,3.65,0,0,0,3.617-3.644,2.055,2.055,0,1,1,4.11,0,3.646,3.646,0,0,0,7.293,0,2.055,2.055,0,1,1,4.11,0,3.646,3.646,0,0,0,7.293,0,2.055,2.055,0,1,1,4.11,0,3.649,3.649,0,0,0,3.645,3.645H274.2a.8.8,0,1,0,0-1.591" transform="translate(-202.077 -123.827)" fill="#c4d359"/>
          <path id="Trazado_1261704" data-name="Trazado 1261704" d="M274.2,209.831h-2.851a2.057,2.057,0,0,1-2.055-2.056,3.646,3.646,0,0,0-7.293,0,2.055,2.055,0,1,1-4.11,0,3.646,3.646,0,0,0-7.292,0,2.055,2.055,0,1,1-4.11,0,3.646,3.646,0,0,0-7.293,0,2.049,2.049,0,1,1-4.1.012,3.652,3.652,0,0,0-7.3-.012,2.05,2.05,0,1,1-4.1.012,3.652,3.652,0,0,0-7.3-.012,2.05,2.05,0,1,1-4.1.012,3.63,3.63,0,0,0-1.019-2.522l-.011-.012c-.063-.064-.128-.125-.194-.185-.023-.019-.044-.04-.066-.06-.053-.045-.108-.087-.164-.129-.04-.03-.08-.062-.121-.09s-.088-.057-.132-.085-.114-.072-.174-.106c-.033-.018-.066-.035-.1-.052-.074-.038-.148-.076-.225-.109-.023-.011-.046-.018-.069-.028-.09-.038-.182-.071-.276-.1l-.034-.011a3.654,3.654,0,0,0-.911-.162v.011c-.05,0-.1-.008-.15-.008A3.65,3.65,0,0,0,205,207.787a2.055,2.055,0,1,1-4.11,0,3.646,3.646,0,0,0-7.293,0,2.055,2.055,0,1,1-4.11,0,3.646,3.646,0,1,0-7.292,0,2.055,2.055,0,1,1-4.11,0,3.651,3.651,0,0,0-3.646-3.646h-2.851a.8.8,0,0,0,0,1.591h2.851a2.058,2.058,0,0,1,2.056,2.056,3.646,3.646,0,1,0,7.292,0,2.055,2.055,0,1,1,4.11,0,3.646,3.646,0,0,0,7.293,0,2.055,2.055,0,1,1,4.11,0,3.646,3.646,0,1,0,7.292,0,2.058,2.058,0,0,1,2.055-2.056,2.114,2.114,0,0,1,.284.029,1.993,1.993,0,0,1,.2.036c.052.013.1.031.153.048a1.989,1.989,0,0,1,.226.085c.035.016.067.037.1.055a2.092,2.092,0,0,1,.237.143c.019.014.037.032.055.046a2.033,2.033,0,0,1,.236.21l.008.01a2.025,2.025,0,0,1,.544,1.383,3.652,3.652,0,1,0,7.3.012,2.049,2.049,0,1,1,4.1-.012,3.652,3.652,0,1,0,7.3.012,2.05,2.05,0,1,1,4.1-.012,3.672,3.672,0,0,0,3.657,3.658h.018v-.013a3.65,3.65,0,0,0,3.617-3.645,2.055,2.055,0,0,1,4.11,0,3.646,3.646,0,1,0,7.293,0,2.055,2.055,0,0,1,4.11,0,3.646,3.646,0,1,0,7.293,0,2.055,2.055,0,0,1,4.11,0,3.65,3.65,0,0,0,3.645,3.646H274.2a.8.8,0,1,0,0-1.591" transform="translate(-202.077 -123.455)" fill="#c4d359"/>
        </g>
      </g>
      <g id="Grupo_1204403" data-name="Grupo 1204403">
        <g id="Grupo_1204402" data-name="Grupo 1204402" clip-path="url(#clip-path)">
          <path id="Trazado_1261706" data-name="Trazado 1261706" d="M244.16,245.411a.318.318,0,0,1-.191-.063.323.323,0,0,1-.069-.452c1.766-2.4,2.7-9.469,2.767-21.007a.323.323,0,0,1,.323-.321h0a.323.323,0,0,1,.322.325c-.071,11.678-1.045,18.874-2.892,21.387a.324.324,0,0,1-.262.132" transform="translate(-9.299 -8.526)" fill="#46332a"/>
          <path id="Trazado_1261707" data-name="Trazado 1261707" d="M219.885,119.754v-8.637l-2.047-1.315a2.194,2.194,0,0,1-.819-2.736l5.2,1.071a82.034,82.034,0,0,1,14.144-.83c5.967.188,12.607,1.179,17.307,4.117l-3.1,3.63H230.088v4.7Z" transform="translate(-8.269 -4.083)" fill="#efbc51"/>
          <path id="Trazado_1261708" data-name="Trazado 1261708" d="M253.855,112.053a.639.639,0,0,1-.342-.1c-3.9-2.434-9.611-3.786-16.985-4.018a82.182,82.182,0,0,0-14.019.822.648.648,0,0,1-.21-1.279,82.845,82.845,0,0,1,14.269-.838c7.605.239,13.537,1.656,17.63,4.214a.648.648,0,0,1-.343,1.2" transform="translate(-8.457 -4.065)" fill="#f9df9b"/>
          <path id="Trazado_1261709" data-name="Trazado 1261709" d="M250.769,115.485l-20.75-.021L219.757,111.5l-1.546-.994a.324.324,0,0,1,.349-.545l1.52.975,10.116,3.9H250.47l1.846-2.164a.324.324,0,0,1,.493.42Z" transform="translate(-8.316 -4.191)" fill="#46332a"/>
          <path id="Trazado_1261710" data-name="Trazado 1261710" d="M214.458,220.378s-19.45-41.4,20.671-48.45c0,0,19.547,33.261-20.671,48.45" transform="translate(-7.999 -6.557)" fill="#7f9922"/>
          <path id="Trazado_1261711" data-name="Trazado 1261711" d="M242,153.743a.683.683,0,0,1-.18-.025.649.649,0,0,1-.443-.8l2.8-9.712a4.892,4.892,0,0,0-2.73-5.858c-11.314-4.861-11.216-13.8-11.207-14.18v-2.287h-5.05a.648.648,0,0,1,0-1.3h5.154a1.194,1.194,0,0,1,1.193,1.193v2.407c-.008.358-.054,8.472,10.423,12.973a6.19,6.19,0,0,1,3.463,7.408l-2.8,9.711a.649.649,0,0,1-.622.468" transform="translate(-8.563 -4.56)" fill="#dfea8c"/>
          <path id="Trazado_1261712" data-name="Trazado 1261712" d="M235.584,143.416c0,3.4-4.744,6.162-10.595,6.162s-10.595-2.759-10.595-6.162,4.743-3.078,10.595-3.078,10.595-.325,10.595,3.078" transform="translate(-8.176 -5.352)" fill="#7f9922"/>
          <path id="Trazado_1261713" data-name="Trazado 1261713" d="M214.262,193.882a3.453,3.453,0,0,1,3.485-3.784c2.075,0,3.364,1.533,3.364,3.987a.584.584,0,0,1-.584.584h-4.19a1.524,1.524,0,0,0,1.559,1.03,2.013,2.013,0,0,0,1.119-.315.966.966,0,0,1,1.152,1.548,3.473,3.473,0,0,1-2.284.774,3.509,3.509,0,0,1-3.62-3.824m4.732-.827a1.146,1.146,0,0,0-1.221-.963,1.382,1.382,0,0,0-1.356.963Z" transform="translate(-8.171 -7.249)" fill="#fff"/>
          <path id="Trazado_1261714" data-name="Trazado 1261714" d="M222.368,193.869c0-2.21,1.37-3.77,3.3-3.77a3.075,3.075,0,0,1,2.381,1.071,1.015,1.015,0,0,1-.52,1.647h0a1.022,1.022,0,0,1-1.03-.344.946.946,0,0,0-.762-.353c-.772,0-1.3.719-1.3,1.75,0,1.058.556,1.817,1.329,1.817a1.038,1.038,0,0,0,.882-.482.993.993,0,0,1,1.073-.388,1.008,1.008,0,0,1,.622,1.491,2.875,2.875,0,0,1-2.564,1.4c-2.061,0-3.4-1.519-3.4-3.838" transform="translate(-8.48 -7.249)" fill="#fff"/>
          <path id="Trazado_1261715" data-name="Trazado 1261715" d="M229.967,193.909a3.743,3.743,0,1,1,3.743,3.8,3.7,3.7,0,0,1-3.743-3.8m5.4,0a1.661,1.661,0,1,0-1.654,1.8,1.711,1.711,0,0,0,1.654-1.8" transform="translate(-8.77 -7.249)" fill="#fff"/>
          <path id="Trazado_1261716" data-name="Trazado 1261716" d="M205.176,240.405a.322.322,0,0,1-.3-.218c-5.251-15.214,1.96-82.44,2.361-86.133l-2.784-9.649a.324.324,0,1,1,.623-.18L207.892,154l-.008.063c-.077.706-7.637,70.74-2.4,85.915a.324.324,0,0,1-.2.413.343.343,0,0,1-.106.017" transform="translate(-7.74 -5.491)" fill="#46332a"/>
          <path id="Trazado_1261717" data-name="Trazado 1261717" d="M231.7,201.595H214.961a.648.648,0,0,1,0-1.3H231.7a.648.648,0,1,1,0,1.3" transform="translate(-8.173 -7.639)" fill="#fff"/>
          <path id="Trazado_1261718" data-name="Trazado 1261718" d="M222.29,204.265h-7.327a.648.648,0,1,1,0-1.3h7.327a.648.648,0,1,1,0,1.3" transform="translate(-8.173 -7.74)" fill="#fff"/>
          <path id="Trazado_1261719" data-name="Trazado 1261719" d="M245.549,137.9l-1.221-3.054-1.221,3.054-2.971,1.138,2.921.938,1.271,3.253,1.271-3.253,2.921-.938Z" transform="translate(-9.158 -5.143)" fill="#dfea8c"/>
          <path id="Trazado_1261720" data-name="Trazado 1261720" d="M244.482,143.709a.314.314,0,0,1-.117-.022.324.324,0,0,1-.185-.419l1.326-3.4,3.068-.985a.324.324,0,0,1,.2.617l-2.775.891-1.214,3.111a.325.325,0,0,1-.3.206" transform="translate(-9.311 -5.296)" fill="#46332a"/>
          <path id="Trazado_1261721" data-name="Trazado 1261721" d="M180.163,253.595c0,2.165-14.118,3.92-31.535,3.92s-31.534-1.754-31.534-3.92,14.118-3.92,31.534-3.92,31.535,1.754,31.535,3.92" transform="translate(-4.465 -9.521)" fill="#cdad86"/>
          <path id="Trazado_1261722" data-name="Trazado 1261722" d="M174.658,168.489v71.252a8.576,8.576,0,0,1-8.572,8.577h-43.14a8.576,8.576,0,0,1-8.572-8.577V171.684a49.722,49.722,0,0,1,8.219-27.339l6.183-9.354,6.522-9.87a4.577,4.577,0,0,1,6.083-1.451l10.9,6.207a4.578,4.578,0,0,1,2.08,5.425l-.514,1.534a12.158,12.158,0,0,0,7.546,15.334l2.208.768a16.461,16.461,0,0,1,11.061,15.552" transform="translate(-4.362 -4.693)" fill="#fff"/>
          <path id="Trazado_1261723" data-name="Trazado 1261723" d="M168.123,252.8a.324.324,0,1,1,0-.648,8.26,8.26,0,0,0,8.248-8.253V232.326a.324.324,0,0,1,.648,0V243.9a8.909,8.909,0,0,1-8.9,8.9" transform="translate(-6.399 -8.848)" fill="#46332a"/>
          <path id="Trazado_1261724" data-name="Trazado 1261724" d="M122,252.147a.294.294,0,0,1-.05,0c-8.347-1.3-7.914-8.844-7.908-8.92V215.3a.324.324,0,0,1,.647,0v27.945c-.02.309-.388,7.048,7.362,8.257a.324.324,0,0,1-.05.644" transform="translate(-4.349 -8.198)" fill="#46332a"/>
          <path id="Trazado_1261725" data-name="Trazado 1261725" d="M128.408,144.411a.324.324,0,0,1-.271-.5l10.5-15.889a.324.324,0,0,1,.542.357l-10.5,15.889a.325.325,0,0,1-.27.145" transform="translate(-4.885 -4.877)" fill="#46332a"/>
          <path id="Trazado_1261726" data-name="Trazado 1261726" d="M146.014,150.491a.316.316,0,0,1-.1-.015.324.324,0,0,1-.211-.407L150.811,134a.324.324,0,0,1,.618.2l-5.106,16.071a.325.325,0,0,1-.309.226" transform="translate(-5.556 -5.101)" fill="#46332a"/>
          <path id="Trazado_1261727" data-name="Trazado 1261727" d="M138.928,144.286a.307.307,0,0,1-.14-.033.323.323,0,0,1-.151-.432l6.723-13.946a.324.324,0,1,1,.583.281L139.221,144.1a.324.324,0,0,1-.292.184" transform="translate(-5.286 -4.946)" fill="#46332a"/>
          <rect id="Rectángulo_411712" data-name="Rectángulo 411712" width="12.087" height="16.117" transform="translate(134.245 120.788) rotate(-60)" fill="#fff"/>
          <path id="Trazado_1261728" data-name="Trazado 1261728" d="M175.716,168.824a.324.324,0,0,1-.324-.324,16.145,16.145,0,0,0-10.843-15.246l-2.209-.768a12.53,12.53,0,0,1-7.746-15.743l.514-1.535a4.262,4.262,0,0,0-1.932-5.039l-10.9-6.208a.324.324,0,0,1,.321-.564l10.9,6.208a4.913,4.913,0,0,1,2.227,5.808l-.514,1.535a11.878,11.878,0,0,0,7.344,14.925l2.209.768A16.8,16.8,0,0,1,176.04,168.5a.324.324,0,0,1-.324.324" transform="translate(-5.42 -4.704)" fill="#46332a"/>
          <path id="Trazado_1261729" data-name="Trazado 1261729" d="M158.79,127.209l-16.336-9.432a.7.7,0,0,1-.258-.962l5.339-9.248a.7.7,0,0,1,.962-.258l16.336,9.432a.7.7,0,0,1,.258.962l-5.339,9.248a.7.7,0,0,1-.962.258" transform="translate(-5.419 -4.089)" fill="#efbc51"/>
          <path id="Trazado_1261730" data-name="Trazado 1261730" d="M162.215,123.686a.648.648,0,0,1-.561-.971l3.124-5.41-16.616-9.593a.648.648,0,0,1,.647-1.123l16.8,9.7a1.087,1.087,0,0,1,.4,1.482l-3.229,5.593a.646.646,0,0,1-.562.324m2.745-6.276h0Z" transform="translate(-5.638 -4.061)" fill="#f9df9b"/>
          <path id="Trazado_1261731" data-name="Trazado 1261731" d="M149.649,122.637a.319.319,0,0,1-.162-.043l-7.331-4.234a.886.886,0,0,1-.325-1.211.324.324,0,1,1,.561.323.242.242,0,0,0-.024.183.239.239,0,0,0,.112.144l7.332,4.234a.324.324,0,0,1-.163.6" transform="translate(-5.404 -4.461)" fill="#46332a"/>
          <path id="Trazado_1261732" data-name="Trazado 1261732" d="M175.141,158.082l-1.742-4.359-1.742,4.359-4.241,1.624,4.17,1.339,1.813,4.643,1.813-4.643,4.17-1.339Z" transform="translate(-6.384 -5.862)" fill="#dce9ef"/>
          <path id="Trazado_1261733" data-name="Trazado 1261733" d="M173.623,166.235a.314.314,0,0,1-.117-.022.323.323,0,0,1-.185-.419l1.869-4.787,4.317-1.386a.324.324,0,0,1,.2.617l-4.023,1.293-1.756,4.5a.325.325,0,0,1-.3.206" transform="translate(-6.609 -6.087)" fill="#46332a"/>
          <path id="Trazado_1261734" data-name="Trazado 1261734" d="M136.984,235.282a15.828,15.828,0,0,1-15.809-15.809v-32.1a15.827,15.827,0,0,1,15.809-15.809.324.324,0,1,1,0,.647,15.179,15.179,0,0,0-15.161,15.162v32.1a15.178,15.178,0,0,0,15.161,15.161.324.324,0,0,1,0,.648" transform="translate(-4.621 -6.543)" fill="#46332a"/>
          <path id="Trazado_1261735" data-name="Trazado 1261735" d="M172.235,220.41a.324.324,0,0,1-.324-.324v-32.1a.324.324,0,0,1,.648,0v32.1a.324.324,0,0,1-.324.324" transform="translate(-6.556 -7.156)" fill="#46332a"/>
          <path id="Trazado_1261736" data-name="Trazado 1261736" d="M141.148,225.228s-11.763,2.336-17.711-3.5-3.831-17.643-3.831-17.643Z" transform="translate(-4.547 -7.783)" fill="#97b246"/>
          <path id="Trazado_1261737" data-name="Trazado 1261737" d="M141.163,225.209l-21.542-21.145s11.763-2.336,17.711,3.5,3.831,17.643,3.831,17.643" transform="translate(-4.562 -7.764)" fill="#7f9922"/>
          <path id="Trazado_1261738" data-name="Trazado 1261738" d="M153.967,236.892h-15.14a6.831,6.831,0,0,1,0-13.661h1.739a3.915,3.915,0,0,0,3.91-3.911v-1.2a1.46,1.46,0,0,1,2.92,0v1.2a6.839,6.839,0,0,1-6.83,6.831h-1.739a3.91,3.91,0,1,0,0,7.821h15.14a1.46,1.46,0,1,1,0,2.92" transform="translate(-5.034 -8.262)" fill="#7f9922"/>
          <path id="Trazado_1261739" data-name="Trazado 1261739" d="M144.5,207.753l-5.057-3.579a1.938,1.938,0,0,0-2.916.846,10.316,10.316,0,0,0,1.824,10.663,1.94,1.94,0,0,0,3.033-.171l3.579-5.057a1.939,1.939,0,0,0-.463-2.7" transform="translate(-5.178 -7.773)" fill="#efbc51"/>
          <path id="Trazado_1261740" data-name="Trazado 1261740" d="M152.928,213.8l-5.057-3.579a1.938,1.938,0,0,0-2.7.463l-3.579,5.057a1.939,1.939,0,0,0,.845,2.916,10.318,10.318,0,0,0,10.663-1.824,1.94,1.94,0,0,0-.171-3.033" transform="translate(-5.386 -8.003)" fill="#e2a842"/>
          <path id="Trazado_1261741" data-name="Trazado 1261741" d="M148.1,209.9l5.057,3.579a1.938,1.938,0,0,0,2.916-.846,10.316,10.316,0,0,0-1.824-10.663,1.94,1.94,0,0,0-3.033.171l-3.579,5.057a1.939,1.939,0,0,0,.463,2.7" transform="translate(-5.617 -7.677)" fill="#efbc51"/>
          <path id="Trazado_1261742" data-name="Trazado 1261742" d="M139.554,203.966l5.057,3.579a1.938,1.938,0,0,0,2.7-.463l3.579-5.057a1.938,1.938,0,0,0-.846-2.916,10.312,10.312,0,0,0-10.661,1.824,1.939,1.939,0,0,0,.17,3.033" transform="translate(-5.291 -7.565)" fill="#e2a842"/>
          <path id="Trazado_1261743" data-name="Trazado 1261743" d="M142.36,214.817a.321.321,0,0,1-.187-.06.325.325,0,0,1-.078-.452l3.749-5.3-4.278-3.029a.324.324,0,0,1,.374-.529l4.807,3.4-4.124,5.825a.321.321,0,0,1-.265.137" transform="translate(-5.393 -7.833)" fill="#46332a"/>
          <path id="Trazado_1261744" data-name="Trazado 1261744" d="M151.622,212.834a.321.321,0,0,1-.187-.06l-5.415-3.833,3.692-5.217a.324.324,0,1,1,.529.375l-3.318,4.688,4.887,3.458a.324.324,0,0,1-.188.589" transform="translate(-5.569 -7.764)" fill="#46332a"/>
          <path id="Trazado_1261745" data-name="Trazado 1261745" d="M171.967,211s3.262,13.448-3.229,20.486c-6.045,6.554-20.081,5.184-20.081,5.184Z" transform="translate(-5.669 -8.047)" fill="#97b246"/>
          <path id="Trazado_1261746" data-name="Trazado 1261746" d="M171.935,210.994l-23.31,25.67s-3.207-13.4,3.23-20.486,20.08-5.184,20.08-5.184" transform="translate(-5.637 -8.037)" fill="#7f9922"/>
          <path id="Trazado_1261747" data-name="Trazado 1261747" d="M149.678,208.942a3.32,3.32,0,1,1-3.32-3.32,3.32,3.32,0,0,1,3.32,3.32" transform="translate(-5.455 -7.842)" fill="#46332a"/>
          <path id="Trazado_1261748" data-name="Trazado 1261748" d="M132.795,185.567h-6.827a.972.972,0,1,1,0-1.944h6.827a.972.972,0,0,1,0,1.944" transform="translate(-4.767 -7.003)" fill="#7f9922"/>
          <path id="Trazado_1261749" data-name="Trazado 1261749" d="M139.352,190.276H125.967a.972.972,0,1,1,0-1.944h13.384a.972.972,0,0,1,0,1.944" transform="translate(-4.767 -7.182)" fill="#7f9922"/>
          <path id="Trazado_1261750" data-name="Trazado 1261750" d="M132.659,198.332h-6.692a.972.972,0,1,1,0-1.944h6.692a.972.972,0,0,1,0,1.944" transform="translate(-4.767 -7.489)" fill="#7f9922"/>
          <path id="Trazado_1261751" data-name="Trazado 1261751" d="M173.329,222.622l-.047,0-9.809-.7a.648.648,0,0,1-.6-.693.637.637,0,0,1,.693-.6l9.809.7a.648.648,0,0,1-.046,1.294" transform="translate(-6.211 -8.413)" fill="#7f9922"/>
          <path id="Trazado_1261752" data-name="Trazado 1261752" d="M171.835,228.113l-.047,0-13.165-.945a.647.647,0,0,1-.6-.692.639.639,0,0,1,.693-.6l13.166.946a.648.648,0,0,1-.046,1.294" transform="translate(-6.026 -8.614)" fill="#7f9922"/>
          <path id="Trazado_1261753" data-name="Trazado 1261753" d="M173.4,220.444l-.047,0-8.008-.575a.647.647,0,0,1-.6-.693.638.638,0,0,1,.693-.6l8.008.575a.648.648,0,0,1-.046,1.294" transform="translate(-6.283 -8.335)" fill="#7f9922"/>
          <path id="Trazado_1261754" data-name="Trazado 1261754" d="M127.894,213.148h-8.467a.648.648,0,0,1,0-1.3h8.467a.648.648,0,1,1,0,1.3" transform="translate(-4.53 -8.079)" fill="#7f9922"/>
          <path id="Trazado_1261755" data-name="Trazado 1261755" d="M132.316,217.661H120.24a.648.648,0,1,1,0-1.3h12.075a.648.648,0,1,1,0,1.3" transform="translate(-4.561 -8.251)" fill="#7f9922"/>
          <path id="Trazado_1261756" data-name="Trazado 1261756" d="M167.47,204.426h0a.816.816,0,0,1,.818.813l0,1.123a.814.814,0,0,1-.812.818l-11.5.035a1.376,1.376,0,1,1-.009-2.753l3.134-.01a3.073,3.073,0,0,1-.785-2.117c-.008-2.336,2.124-4.136,5.077-4.145,2.97-.009,5.094,1.742,5.1,4.114a2.377,2.377,0,0,1-1.026,2.122m-4.031-3.483c-1.358,0-2.353.749-2.35,1.746s1,1.735,2.36,1.731,2.352-.749,2.349-1.746-1-1.735-2.359-1.731" transform="translate(-5.896 -7.558)" fill="#7f9922"/>
          <path id="Trazado_1261757" data-name="Trazado 1261757" d="M155.481,196.3a1.63,1.63,0,1,1,1.625-1.635,1.624,1.624,0,0,1-1.625,1.635m2.965-1.639h0a1.359,1.359,0,0,1,1.354-1.363l7.063-.021a1.359,1.359,0,1,1,.009,2.717l-7.063.021a1.359,1.359,0,0,1-1.363-1.354" transform="translate(-5.867 -7.362)" fill="#7f9922"/>
          <path id="Trazado_1261758" data-name="Trazado 1261758" d="M163.539,190.96a5,5,0,1,1,5.056-5.014,4.94,4.94,0,0,1-5.056,5.014m-.022-7.208a2.218,2.218,0,1,0,2.415,2.2,2.287,2.287,0,0,0-2.415-2.2" transform="translate(-6.042 -6.901)" fill="#7f9922"/>
        </g>
      </g>
    </g>
  </g>
</svg>
