<svg xmlns="http://www.w3.org/2000/svg" width="92.002" height="92.002" viewBox="0 0 92.002 92.002">
  <g id="Grupo_1204393" data-name="Grupo 1204393" transform="translate(-1174.051 -19013)">
    <g id="Grupo_1204050" data-name="Grupo 1204050" transform="translate(152.084 15920.345)">
      <g id="Grupo_1200255" data-name="Grupo 1200255" transform="translate(1021.967 3092.655)">
        <g id="Grupo_1187152" data-name="Grupo 1187152">
          <g id="Grupo_1185946" data-name="Grupo 1185946">
            <g id="Grupo_1184280" data-name="Grupo 1184280">
              <g id="Grupo_1182168" data-name="Grupo 1182168">
                <g id="Grupo_1178877" data-name="Grupo 1178877">
                  <g id="Grupo_1111311" data-name="Grupo 1111311">
                    <g id="Grupo_1098742" data-name="Grupo 1098742" transform="translate(0 0)">
                      <rect id="Rect치ngulo_400898" data-name="Rect치ngulo 400898" width="92.001" height="92.001" rx="46.001" transform="translate(0.001 0)" fill="#ffc94a" opacity="0.859"/>
                      <rect id="Rect치ngulo_400907" data-name="Rect치ngulo 400907" width="92.001" height="92.001" rx="46.001" transform="translate(0 0)" fill="none"/>
                    </g>
                  </g>
                </g>
              </g>
            </g>
          </g>
        </g>
      </g>
    </g>
    <g id="humedal" transform="translate(1188.051 19027)">
      <circle id="Elipse_12841" data-name="Elipse 12841" cx="31.081" cy="31.081" r="31.081" transform="translate(1.025 1.025)" fill="#c4f5ff"/>
      <path id="Trazado_1261541" data-name="Trazado 1261541" d="M40.851,256a27.194,27.194,0,0,0,.309,4.1l2.649,8.2a26.987,26.987,0,0,0,45.454,4.1l4.283-8.2a26.96,26.96,0,0,0,1.269-8.2H40.851Z" transform="translate(-35.728 -223.894)" fill="#7fb21e"/>
      <g id="Grupo_1204391" data-name="Grupo 1204391" transform="translate(5.433 36.204)">
        <path id="Trazado_1261542" data-name="Trazado 1261542" d="M64.97,288.681H43.318a26.791,26.791,0,0,0,2.649,8.2h19a4.1,4.1,0,1,0,0-8.2Z" transform="translate(-43.318 -288.681)" fill="#4de1ff"/>
        <path id="Trazado_1261543" data-name="Trazado 1261543" d="M344.395,321.362H331.769a4.1,4.1,0,1,0,0,8.2h8.343A26.908,26.908,0,0,0,344.395,321.362Z" transform="translate(-292.009 -317.263)" fill="#4de1ff"/>
      </g>
      <path id="Trazado_1261544" data-name="Trazado 1261544" d="M295.584,132.293l-4.513,11.416H300.1Z" transform="translate(-254.567 -115.702)" fill="#7fb21e"/>
      <path id="Trazado_1261545" data-name="Trazado 1261545" d="M102.643,81.064a5.165,5.165,0,0,0-6.4-5.011,6.275,6.275,0,0,0-12.157,0,5.165,5.165,0,0,0-6.4,5.011Z" transform="translate(-67.942 -62.39)" fill="#89ebff"/>
      <path id="Trazado_1261546" data-name="Trazado 1261546" d="M400.231,132.293l-4.513,11.416h9.026Z" transform="translate(-346.09 -115.702)" fill="#557714"/>
      <path id="Trazado_1261547" data-name="Trazado 1261547" d="M189.275,386.723h-9.39a2.049,2.049,0,1,0,0,4.1h9.39a2.049,2.049,0,0,0,0-4.1Z" transform="translate(-155.533 -338.223)" fill="#4de1ff"/>
      <g id="Grupo_1204392" data-name="Grupo 1204392" transform="translate(0 0)">
        <path id="Trazado_1261548" data-name="Trazado 1261548" d="M54.807,9.4a32.105,32.105,0,1,0-45.4,45.4,32.105,32.105,0,1,0,45.4-45.4Zm-22.7,52.758A30.056,30.056,0,1,1,62.162,32.105,30.09,30.09,0,0,1,32.105,62.162Z" transform="translate(0 0)" fill="#03242b"/>
        <path id="Trazado_1261549" data-name="Trazado 1261549" d="M70.541,74.944H95.5a1.025,1.025,0,0,0,1.025-1.025,6.193,6.193,0,0,0-6.186-6.186q-.27,0-.539.023a7.3,7.3,0,0,0-13.559,0q-.268-.023-.539-.023a6.193,6.193,0,0,0-6.186,6.186A1.024,1.024,0,0,0,70.541,74.944ZM75.7,69.783a4.147,4.147,0,0,1,.994.12,1.024,1.024,0,0,0,1.238-.741,5.251,5.251,0,0,1,10.172,0,1.024,1.024,0,0,0,1.238.741,4.141,4.141,0,0,1,5,2.991H71.694A4.144,4.144,0,0,1,75.7,69.783Z" transform="translate(-60.798 -55.245)" fill="#03242b"/>
        <path id="Trazado_1261550" data-name="Trazado 1261550" d="M78.494,313.191a1.025,1.025,0,1,0,0,2.049h2.732a1.025,1.025,0,1,0,0-2.049Z" transform="translate(-67.753 -273.913)" fill="#03242b"/>
        <path id="Trazado_1261551" data-name="Trazado 1261551" d="M131.937,314.217a1.025,1.025,0,0,0,1.025,1.025h9.513a1.025,1.025,0,1,0,0-2.049h-9.513A1.025,1.025,0,0,0,131.937,314.217Z" transform="translate(-115.391 -273.914)" fill="#03242b"/>
        <path id="Trazado_1261552" data-name="Trazado 1261552" d="M82.9,157.7a27.958,27.958,0,0,0,4.472-8.529l0-.013a27.9,27.9,0,0,0,1.319-8.5,1.025,1.025,0,0,0-1.025-1.025H83.748v-2.049h3.488a1.025,1.025,0,0,0,.953-1.4l-4.513-11.416a1.025,1.025,0,0,0-1.906,0l-4.513,11.416a1.025,1.025,0,0,0,.953,1.4H81.7v2.049H70.623v-2.049h3.488a1.025,1.025,0,0,0,.953-1.4l-4.512-11.416a1.025,1.025,0,0,0-1.906,0l-4.513,11.416a1.025,1.025,0,0,0,.953,1.4h3.488v2.049H55.36V137.93a1.025,1.025,0,0,0-2.049,0v1.708H47.163V137.93a1.025,1.025,0,0,0-2.049,0v1.708H43.065V137.93a1.025,1.025,0,0,0-2.049,0v1.708H38.966V137.93a1.025,1.025,0,0,0-2.049,0v1.708H33.706a1.025,1.025,0,0,0-1.025,1.025,27.66,27.66,0,0,0,2.975,12.553c.024.048.05.094.074.142a1.032,1.032,0,0,0,.068.13,28.347,28.347,0,0,0,7.812,9.357,1.025,1.025,0,1,0,1.252-1.622,26.143,26.143,0,0,1-6.46-7.239H55.667a5.123,5.123,0,0,0,0-10.246H52.306a1.025,1.025,0,1,0,0,2.049h3.361a3.074,3.074,0,0,1,0,6.148H37.293a25.664,25.664,0,0,1-2.057-6.148H48.207a1.025,1.025,0,1,0,0-2.049h-13.3q-.119-1.016-.161-2.049H86.625a25.842,25.842,0,0,1-.989,6.148H73.775a5.123,5.123,0,1,0,0,10.246h6.141a25.915,25.915,0,0,1-31.759,5.307,1.025,1.025,0,0,0-.993,1.793,27.968,27.968,0,0,0,35.728-7.472Zm-.176-29.766,3.006,7.6H79.717Zm-13.124,0,3.006,7.6H66.593Zm4.176,28.1a3.074,3.074,0,0,1,0-6.148H84.952a25.935,25.935,0,0,1-3.359,6.148H73.775Z" transform="translate(-28.582 -108.556)" fill="#03242b"/>
        <path id="Trazado_1261553" data-name="Trazado 1261553" d="M182.129,384.7a3.074,3.074,0,0,0,0-6.148h-9.39a3.074,3.074,0,0,0,0,6.148Zm-10.414-3.074a1.026,1.026,0,0,1,1.025-1.025h9.39a1.025,1.025,0,0,1,0,2.049h-9.39A1.026,1.026,0,0,1,171.714,381.626Z" transform="translate(-148.387 -331.077)" fill="#03242b"/>
        <path id="Trazado_1261554" data-name="Trazado 1261554" d="M355.938,345.872h-2.732a1.025,1.025,0,1,0,0,2.049h2.732a1.025,1.025,0,0,0,0-2.049Z" transform="translate(-308.013 -302.496)" fill="#03242b"/>
      </g>
    </g>
  </g>
</svg>
