<svg xmlns="http://www.w3.org/2000/svg" width="92.002" height="92.002" viewBox="0 0 92.002 92.002">
  <g id="Grupo_1204394" data-name="Grupo 1204394" transform="translate(-753.999 -19012.781)">
    <g id="Grupo_1204049" data-name="Grupo 1204049" transform="translate(-267.968 15920.127)">
      <g id="Grupo_1200255" data-name="Grupo 1200255" transform="translate(1021.967 3092.655)">
        <g id="Grupo_1187152" data-name="Grupo 1187152">
          <g id="Grupo_1185946" data-name="Grupo 1185946">
            <g id="Grupo_1184280" data-name="Grupo 1184280">
              <g id="Grupo_1182168" data-name="Grupo 1182168">
                <g id="Grupo_1178877" data-name="Grupo 1178877">
                  <g id="Grupo_1111311" data-name="Grupo 1111311">
                    <g id="Grupo_1098742" data-name="Grupo 1098742" transform="translate(0 0)">
                      <rect id="Rect치ngulo_400898" data-name="Rect치ngulo 400898" width="92.001" height="92.001" rx="46.001" transform="translate(0.001 0)" fill="#ffc94a" opacity="0.859"/>
                      <rect id="Rect치ngulo_400907" data-name="Rect치ngulo 400907" width="92.001" height="92.001" rx="46.001" transform="translate(0 0)" fill="none"/>
                    </g>
                  </g>
                </g>
              </g>
            </g>
          </g>
        </g>
      </g>
    </g>
    <g id="Layer_32" data-name="Layer 32" transform="translate(762.391 19021.34)">
      <circle id="Elipse_12840" data-name="Elipse 12840" cx="14" cy="14" r="14" transform="translate(23.66 20.661)" fill="#e2e7f6"/>
      <path id="Trazado_1261531" data-name="Trazado 1261531" d="M46.018,31.008a14.165,14.165,0,0,0-6.707-12.041,14.177,14.177,0,0,0-12.6,25.266A14.166,14.166,0,0,0,46.018,31.008Z" transform="translate(3.468 3.104)" fill="#f2f2f2"/>
      <path id="Trazado_1261532" data-name="Trazado 1261532" d="M12.283,34.151A24.834,24.834,0,0,1,36.9,12.643v3.548l7.1-7.1L36.9,2V5.548A31.931,31.931,0,0,0,5.186,33.713v0l3.328-3.328Z" transform="translate(0.764 0.183)" fill="#4d8c28"/>
      <path id="Trazado_1261533" data-name="Trazado 1261533" d="M34.151,57.709l-3.769,3.769,3.328,3.328h0A31.93,31.93,0,0,1,5.548,33.1H2L9.1,26l7.1,7.1H12.643a24.835,24.835,0,0,0,21.51,24.614Z" transform="translate(0.183 4.565)" fill="#559b2d"/>
      <path id="Trazado_1261534" data-name="Trazado 1261534" d="M64.805,35.254l-3.328,3.328-3.769-3.769h0A24.834,24.834,0,0,1,33.1,56.321V52.773l-7.1,7.1,7.1,7.1V63.416a31.931,31.931,0,0,0,31.71-28.165Z" transform="translate(4.565 6.174)" fill="#6bc13b"/>
      <path id="Trazado_1261535" data-name="Trazado 1261535" d="M35.254,5.186l3.328,3.328-3.769,3.769h0A24.834,24.834,0,0,1,56.321,36.9H52.773l7.1,7.1,7.1-7.1H63.416A31.931,31.931,0,0,0,35.251,5.186Z" transform="translate(6.174 0.764)" fill="#7bdf45"/>
      <path id="Trazado_1261536" data-name="Trazado 1261536" d="M31.592,55.288l3.327-3.327v3.548a24.781,24.781,0,0,0,18.9-8.729h0a5.883,5.883,0,0,0-7.013-5.35,5.945,5.945,0,0,0-2.882-2.157l.017-.013a14.191,14.191,0,0,1-18.038.013h0a5.945,5.945,0,0,0-2.881,2.163,5.883,5.883,0,0,0-7.013,5.35h0a24.792,24.792,0,0,0,15.578,8.508Z" transform="translate(2.741 6.986)" fill="#976947"/>
      <path id="Trazado_1261537" data-name="Trazado 1261537" d="M24,26h0a9.461,9.461,0,0,1,9.461,9.461v4.73h0A9.461,9.461,0,0,1,24,30.73Z" transform="translate(4.199 4.565)" fill="#559b2d"/>
      <path id="Trazado_1261538" data-name="Trazado 1261538" d="M9.461,0h0V4.73A9.461,9.461,0,0,1,0,14.191H0V9.461A9.461,9.461,0,0,1,9.461,0Z" transform="translate(47.121 44.756) rotate(180)" fill="#6bc13b"/>
      <path id="Trazado_1261539" data-name="Trazado 1261539" d="M74.231,37.207a1.183,1.183,0,0,0-1.093-.73H70.751A33.094,33.094,0,0,0,41.984,4.834L38.5,1.346a1.183,1.183,0,0,0-2.019.836V4.569A33.094,33.094,0,0,0,4.834,33.337L1.346,36.824a1.183,1.183,0,0,0,.836,2.019H4.569A33.094,33.094,0,0,0,33.337,70.486l3.487,3.487a1.183,1.183,0,0,0,.836.346,1.167,1.167,0,0,0,.453-.09,1.183,1.183,0,0,0,.73-1.093V70.751A33.1,33.1,0,0,0,70.486,41.984L73.974,38.5a1.183,1.183,0,0,0,.257-1.289Zm-5.823.453a1.183,1.183,0,0,0,1.183,1.183h.693l-4.241,4.241L61.8,38.843h.693a1.183,1.183,0,0,0,1.183-1.183A26.1,26.1,0,0,0,43.418,12.288l2.174-2.174a1.183,1.183,0,0,0,0-1.672l-.658-.658A30.738,30.738,0,0,1,68.407,37.66ZM38.113,57.854a1.183,1.183,0,0,0-1.289.257L33.933,61a23.533,23.533,0,0,1-13.913-7.63,4.676,4.676,0,0,1,5.527-3.794A1.2,1.2,0,0,0,26.73,49.1,4.754,4.754,0,0,1,28.5,47.609a15.255,15.255,0,0,0,18.33,0A4.754,4.754,0,0,1,48.6,49.1a1.194,1.194,0,0,0,1.183.473,4.677,4.677,0,0,1,5.529,3.8,23.688,23.688,0,0,1-16.47,7.908V58.947a1.183,1.183,0,0,0-.73-1.093ZM37.66,48.3A13.008,13.008,0,1,1,50.669,35.3,13.008,13.008,0,0,1,37.66,48.3Zm19.394,2.838a7.048,7.048,0,0,0-7.006-3.994A7.132,7.132,0,0,0,48.7,45.965a15.374,15.374,0,1,0-22.088,0,7.132,7.132,0,0,0-1.348,1.183,7.042,7.042,0,0,0-7,3.983,23.565,23.565,0,0,1-4.225-12.288h2.336a1.183,1.183,0,0,0,.836-2.019l-2.89-2.891A23.707,23.707,0,0,1,36.478,14.038v2.336a1.183,1.183,0,0,0,2.019.836l2.891-2.89A23.707,23.707,0,0,1,61.282,36.478H58.947a1.183,1.183,0,0,0-.836,2.019L61,41.388A23.372,23.372,0,0,1,57.055,51.142ZM37.66,6.913A1.183,1.183,0,0,0,38.843,5.73V5.037l4.241,4.241-4.241,4.241v-.693a1.183,1.183,0,0,0-1.183-1.183A26.1,26.1,0,0,0,12.288,31.9l-2.174-2.174a1.183,1.183,0,0,0-1.672,0l-.658.658A30.738,30.738,0,0,1,37.66,6.913ZM6.913,37.66A1.183,1.183,0,0,0,5.73,36.478H5.037l4.241-4.241,4.241,4.241h-.693a1.183,1.183,0,0,0-1.183,1.183A26.1,26.1,0,0,0,31.9,63.033l-2.174,2.174a1.183,1.183,0,0,0,0,1.672l.658.658A30.738,30.738,0,0,1,6.913,37.66ZM37.66,68.407a1.183,1.183,0,0,0-1.183,1.183v.693l-4.241-4.241L36.478,61.8v.693a1.183,1.183,0,0,0,1.183,1.183A26.1,26.1,0,0,0,63.033,43.418l2.174,2.174a1.183,1.183,0,0,0,1.672,0l.658-.658A30.747,30.747,0,0,1,37.66,68.407Z"/>
      <path id="Trazado_1261540" data-name="Trazado 1261540" d="M43.1,25a10.643,10.643,0,0,0-9.461,5.795A10.643,10.643,0,0,0,24.183,25,1.183,1.183,0,0,0,23,26.183v4.73a10.643,10.643,0,1,0,21.287,0v-4.73A1.183,1.183,0,0,0,43.1,25ZM25.365,30.913V27.449a8.291,8.291,0,0,1,7.1,8.194v3.464a8.291,8.291,0,0,1-7.1-8.194Zm16.556,0a8.291,8.291,0,0,1-7.1,8.194V35.643a8.291,8.291,0,0,1,7.1-8.194Z" transform="translate(4.017 4.382)"/>
    </g>
  </g>
</svg>
