<svg xmlns="http://www.w3.org/2000/svg" xmlns:xlink="http://www.w3.org/1999/xlink" width="315" height="223.916" viewBox="0 0 315 223.916">
  <defs>
    <clipPath id="clip-path">
      <rect id="Rect치ngulo_411714" data-name="Rect치ngulo 411714" width="209.88" height="176.734" fill="none"/>
    </clipPath>
  </defs>
  <g id="Grupo_1204408" data-name="Grupo 1204408" transform="translate(-390 -18550.637)">
    <rect id="Rect치ngulo_411579" data-name="Rect치ngulo 411579" width="315" height="223.916" transform="translate(390 18550.637)" fill="#5a8441"/>
    <g id="Grupo_1204407" data-name="Grupo 1204407" transform="translate(429.171 18574.227)">
      <g id="Grupo_1204406" data-name="Grupo 1204406" clip-path="url(#clip-path)">
        <path id="Trazado_1261759" data-name="Trazado 1261759" d="M278.523,78.818h-45.5c2.255-1.917,4.988-3.443,7.938-3.2A4.131,4.131,0,0,1,245,72.33a6.55,6.55,0,0,1,.992-8.526,7.966,7.966,0,0,1,8.821-.89,10.222,10.222,0,0,1,5.091,7.535,4.713,4.713,0,0,1,6.008,4.214,4.38,4.38,0,0,1,7.767,1.6c1.891-1.283,4.026.417,4.846,2.551" transform="translate(-121.138 -32.225)" fill="#ffe5d4"/>
        <path id="Trazado_1261760" data-name="Trazado 1261760" d="M384.821,49.624H338.356a18.482,18.482,0,0,1,12.817-4.244,4.149,4.149,0,1,1,6.867-4.658c-.98-2.62,1.251-5.713,4.018-6.122s5.539,1.419,6.826,3.9a12.161,12.161,0,0,1,.689,8.192c5.044-.737,10.566.91,15.247,2.929" transform="translate(-175.898 -17.957)" fill="#ffe5d4"/>
        <path id="Trazado_1261761" data-name="Trazado 1261761" d="M303.032,35.058a4.525,4.525,0,0,0-1.273-3.7,3.111,3.111,0,0,0-2.776-.728,2.424,2.424,0,0,0-1.62,2.23,2.487,2.487,0,0,0,.377,1.372,1.857,1.857,0,0,0-.373-.135,2.117,2.117,0,0,0-1.922.423,1.487,1.487,0,0,0-.278,1.861,2.658,2.658,0,0,0-2.53-.529,3.454,3.454,0,0,0-2.161,1.789h18.538c-.675-2.289-4-3.916-5.982-2.583" transform="translate(-151.007 -15.881)" fill="#ffe5d4"/>
        <path id="Trazado_1261762" data-name="Trazado 1261762" d="M312.455,131.931l-1.055-5.108a.667.667,0,0,0-.1-.278.229.229,0,0,0-.263-.087c-.1.046-.127.168-.145.274q-.514,3.106-1.029,6.211a3.483,3.483,0,0,0-.069.937,1.172,1.172,0,0,0,.414.818,1.625,1.625,0,0,0,.838.265h0c0,.169,0,.337,0,.506a5.866,5.866,0,0,0-.007.891c.022.134.132.425.309.164a.525.525,0,0,0,.044-.345c-.04-.4-.066-.806-.076-1.211h0a1.47,1.47,0,0,0,1.07-.394,2.547,2.547,0,0,0,.24-1.393,5.791,5.791,0,0,0-.164-1.248" transform="translate(-161.042 -65.732)" fill="#81941f"/>
        <path id="Trazado_1261763" data-name="Trazado 1261763" d="M260.921,146.21l-.753-3.646a.478.478,0,0,0-.073-.2.163.163,0,0,0-.188-.062c-.07.032-.091.12-.1.2q-.367,2.217-.734,4.433a2.491,2.491,0,0,0-.049.669.837.837,0,0,0,.3.584,1.162,1.162,0,0,0,.6.189h0l0,.362a4.128,4.128,0,0,0,0,.635c.015.1.094.3.22.117a.373.373,0,0,0,.031-.246c-.028-.288-.047-.575-.054-.864h0a1.048,1.048,0,0,0,.763-.281,1.818,1.818,0,0,0,.171-.995,4.115,4.115,0,0,0-.117-.891" transform="translate(-134.65 -73.972)" fill="#81941f"/>
        <path id="Trazado_1261764" data-name="Trazado 1261764" d="M412.881,139.18l-1.136-5.5a.717.717,0,0,0-.11-.3.246.246,0,0,0-.283-.094c-.106.048-.137.181-.156.3l-1.108,6.69a3.761,3.761,0,0,0-.075,1.009,1.266,1.266,0,0,0,.446.881,1.748,1.748,0,0,0,.9.284h0c0,.182,0,.363,0,.545a6.332,6.332,0,0,0-.007.959c.024.145.142.458.333.177a.563.563,0,0,0,.047-.372q-.065-.651-.082-1.3h0a1.583,1.583,0,0,0,1.152-.425,2.738,2.738,0,0,0,.258-1.5,6.194,6.194,0,0,0-.177-1.344" transform="translate(-213.143 -69.281)" fill="#81941f"/>
        <path id="Trazado_1261765" data-name="Trazado 1261765" d="M421.942,150.915l-.854-4.134a.539.539,0,0,0-.083-.225.185.185,0,0,0-.213-.07c-.079.036-.1.136-.117.222l-.833,5.026a2.823,2.823,0,0,0-.056.759.948.948,0,0,0,.335.662,1.311,1.311,0,0,0,.677.214h0l0,.41a4.756,4.756,0,0,0-.005.721c.018.109.107.344.25.133a.424.424,0,0,0,.036-.279c-.033-.326-.053-.653-.062-.98h0a1.189,1.189,0,0,0,.866-.319,2.055,2.055,0,0,0,.193-1.127,4.674,4.674,0,0,0-.133-1.01" transform="translate(-218.226 -76.146)" fill="#81941f"/>
        <path id="Trazado_1261766" data-name="Trazado 1261766" d="M265.159,106.831a4.233,4.233,0,0,1-1.495-2.952,12.565,12.565,0,0,1,.25-3.383q1.857-11.211,3.714-22.421c.064-.384.169-.826.523-.99a.824.824,0,0,1,.949.314,2.4,2.4,0,0,1,.371,1q1.9,9.22,3.808,18.44a20.83,20.83,0,0,1,.592,4.506c-.023,1.518.08,3.842-.865,5.03-1.391,1.751-5.953,1.889-7.847.452" transform="translate(-137.048 -40.045)" fill="#bec320"/>
        <path id="Trazado_1261767" data-name="Trazado 1261767" d="M272.9,135.7a12.767,12.767,0,0,0-7.679.595c-.007,0-.01.008-.016.011a3.371,3.371,0,0,0,.777.851c1.894,1.437,6.456,1.3,7.847-.452a2.625,2.625,0,0,0,.253-.4,2.142,2.142,0,0,0-1.182-.609" transform="translate(-137.867 -70.373)" fill="#81941f"/>
        <path id="Trazado_1261768" data-name="Trazado 1261768" d="M274.085,143.751c-.639.943-1.036-.107-1.115-.592a21.133,21.133,0,0,1,.024-3.214c0-.611.009-1.218.014-1.829.009-.9.014-1.8.023-2.705q.469-.042.938-.042c-.028.924-.023,1.843,0,2.766q.056,2.19.275,4.371a1.884,1.884,0,0,1-.158,1.245" transform="translate(-141.872 -70.373)" fill="#7d4031"/>
        <path id="Trazado_1261769" data-name="Trazado 1261769" d="M270.985,127.471a7.512,7.512,0,0,0-4.182.749c-.269.133-.033.536.235.4a7.084,7.084,0,0,1,3.946-.686c.3.034.3-.433,0-.466" transform="translate(-138.639 -66.243)" fill="#e3e868"/>
        <path id="Trazado_1261770" data-name="Trazado 1261770" d="M270.252,121.689h-1.445a.233.233,0,0,0,0,.467h1.445a.233.233,0,1,0,0-.467" transform="translate(-139.621 -63.261)" fill="#e3e868"/>
        <path id="Trazado_1261771" data-name="Trazado 1261771" d="M271.911,107.192a.236.236,0,0,0-.287-.163l-.813.271a.233.233,0,0,0,.124.45l.812-.271a.238.238,0,0,0,.163-.287" transform="translate(-140.694 -55.635)" fill="#e3e868"/>
        <path id="Trazado_1261772" data-name="Trazado 1261772" d="M272.58,99.4a.266.266,0,0,0-.107-.139.706.706,0,0,0-.773-.005.247.247,0,0,0-.107.14.239.239,0,0,0,.023.18.235.235,0,0,0,.14.107.23.23,0,0,0,.18-.024c.015-.01.032-.018.048-.026a.524.524,0,0,1,.067-.018.494.494,0,0,1,.065,0,.512.512,0,0,1,.066.018.394.394,0,0,1,.056.031.236.236,0,0,0,.18.024.24.24,0,0,0,.139-.108.235.235,0,0,0,.024-.18" transform="translate(-141.186 -51.542)" fill="#e3e868"/>
        <path id="Trazado_1261773" data-name="Trazado 1261773" d="M353.049,110.044c1.934,2.035,4.99,2.409,7.785,2.662l12.054,1.093a97.236,97.236,0,0,0,11.3.583c1.667-.044,3.651-.385,4.322-1.911a3.064,3.064,0,0,0-.395-2.859,7.409,7.409,0,0,0-2.23-1.991c-6.616-4.282-14.75-5.467-22.623-5.822a18.494,18.494,0,0,0-6.153.463c-3.1.932-7.108,4.578-4.063,7.782" transform="translate(-182.971 -52.894)" fill="#81941f"/>
        <path id="Trazado_1261774" data-name="Trazado 1261774" d="M381.606,126.8a14.765,14.765,0,0,0,.771-17.667,1.453,1.453,0,0,1,.534-.808,9.652,9.652,0,0,1,2.713,3.6c.161.387.394.857.812.854a.676.676,0,0,0,.567-.408,1.806,1.806,0,0,0,.135-.717,12.593,12.593,0,0,0-.835-5.032c.45-.132,1.029-.187,1.48-.319a11.163,11.163,0,0,1,.8,6.912c-.442,2.126-1.512,4.267-.953,6.366a13.425,13.425,0,0,0,5.749-10.006c.19.006.659-.064.849-.058a12.241,12.241,0,0,1-2.148,7.762c-1.834,2.634-4.722,4.567-5.874,7.562-.27.7-.435,1.442-.755,2.122a2.8,2.8,0,0,1-1.55,1.547c-.93.3-1.968-.789-2.291-1.712" transform="translate(-198.382 -55.265)" fill="#7d4031"/>
        <path id="Trazado_1261775" data-name="Trazado 1261775" d="M349.423,96.765a8.1,8.1,0,0,1,1.314-6.95,16.873,16.873,0,0,1,5.531-4.719c7.951-4.644,18-6.179,26.526-2.7,2.573,1.052,5.076,2.646,6.381,5.1,1.182,2.222,1.236,4.853,1.217,7.37-.021,2.711-.316,5.851-2.563,7.367a6.472,6.472,0,0,1-5.421.431c-4.534-1.35-8.3-5.264-13.032-5.3-3.924-.027-7.219,2.516-10.957,3.306-3.374.713-7.8-.244-8.995-3.912" transform="translate(-181.489 -41.847)" fill="#bec320"/>
        <path id="Trazado_1261776" data-name="Trazado 1261776" d="M381.539,96.657a44.083,44.083,0,0,0-14.989-.608,41.955,41.955,0,0,0-8.232,1.945c-.282.1-.16.549.124.45a42.27,42.27,0,0,1,14.686-2.3,43.677,43.677,0,0,1,14.561,2.8,41.42,41.42,0,0,1,5.726,2.686q.007-.262.01-.521a42.919,42.919,0,0,0-11.888-4.46m6.326,6.162a34.668,34.668,0,0,0-12.68-3.77,35.869,35.869,0,0,0-13.181,1.132,33.927,33.927,0,0,0-6.937,2.792c-.265.142-.029.545.235.4a34.062,34.062,0,0,1,12.456-3.83,35.518,35.518,0,0,1,12.973.983,33.377,33.377,0,0,1,6.9,2.692c.266.14.5-.263.236-.4m-24-8.94a36.848,36.848,0,0,1,18.779.094,36.023,36.023,0,0,1,5.1,1.792c.273.12.51-.282.236-.4a37.316,37.316,0,0,0-18.9-2.91,36.863,36.863,0,0,0-5.342.977.233.233,0,0,0,.124.45" transform="translate(-184.525 -47.952)" fill="#e3e868"/>
        <path id="Trazado_1261777" data-name="Trazado 1261777" d="M265.757,145.789A36.581,36.581,0,0,1,293.91,157.5a2.218,2.218,0,0,1,.793,1.727c-.157.931-1.306,1.258-2.242,1.385-14.905,2.014-29.951,2.747-44.974,3.479-2.757.134-5.675.234-8.1-1.084-2.81-1.526-.978-2.989.414-4.519a41.922,41.922,0,0,1,5.21-4.977,37.033,37.033,0,0,1,12.7-6.425,35.276,35.276,0,0,1,8.043-1.295" transform="translate(-123.682 -75.774)" fill="#bec320"/>
        <path id="Trazado_1261778" data-name="Trazado 1261778" d="M277.789,167.876,266.16,167.8l-3.3-.023a.233.233,0,0,0,0,.467l11.629.08,3.3.022a.233.233,0,0,0,0-.466" transform="translate(-136.534 -87.219)" fill="#81941f"/>
        <path id="Trazado_1261779" data-name="Trazado 1261779" d="M285.132,163.308l-4.214.354c-.3.025-.3.492,0,.466l4.214-.354c.3-.024.3-.491,0-.466" transform="translate(-145.922 -84.897)" fill="#81941f"/>
        <path id="Trazado_1261780" data-name="Trazado 1261780" d="M287.183,150.221a31.673,31.673,0,0,0-15.107,2.331c-.273.114-.153.566.124.449a31.357,31.357,0,0,1,14.983-2.314c.3.027.3-.439,0-.466" transform="translate(-141.361 -78.028)" fill="#e3e868"/>
        <path id="Trazado_1261781" data-name="Trazado 1261781" d="M295.361,155.166l-1.924.252a.241.241,0,0,0-.233.233.235.235,0,0,0,.233.233l1.924-.252a.241.241,0,0,0,.233-.233.235.235,0,0,0-.233-.233" transform="translate(-152.424 -80.664)" fill="#e3e868"/>
        <path id="Trazado_1261782" data-name="Trazado 1261782" d="M304.342,153.669a3.381,3.381,0,0,1,1.637-3.833,4.18,4.18,0,0,1,4.28.322,2.017,2.017,0,0,1,2.487-2.174,1.717,1.717,0,0,1,1.737-2.845,3.778,3.778,0,0,1-1.908-5.019,4.645,4.645,0,0,1,5.1-2.33,6.07,6.07,0,0,1,4.237,3.948,2.957,2.957,0,0,1,4.947-1.361,3.348,3.348,0,0,1,4.285-1.822,4.54,4.54,0,0,1,2.676,4.119,7.187,7.187,0,0,1-1.876,4.732,18.048,18.048,0,0,1-4.025,3.274,38.823,38.823,0,0,1-9.269,4.63c-2.958.938-12.873,2.817-14.3-1.642" transform="translate(-158.146 -71.578)" fill="#81941f"/>
        <path id="Trazado_1261783" data-name="Trazado 1261783" d="M333.577,147a54.431,54.431,0,0,1,9.226-1.375,33.313,33.313,0,0,1,10.389.283c6.975,1.633,12.407,7.426,15.321,13.97.187.421.353.953.057,1.305a1.283,1.283,0,0,1-.967.314l-52.7,1.994a5.324,5.324,0,0,1-2.845-.418c-2.727-1.542.378-3.493,1.629-4.513,2.012-1.642,4.053-3.252,6.175-4.751A42.975,42.975,0,0,1,333.577,147" transform="translate(-161.661 -75.567)" fill="#bec320"/>
        <path id="Trazado_1261784" data-name="Trazado 1261784" d="M384.847,170.455q-5.83-.382-11.668-.609t-11.68-.3q-3.313-.04-6.626-.029a.233.233,0,0,0,0,.466q5.842-.018,11.683.119t11.676.432q3.309.166,6.616.383c.3.02.3-.447,0-.466" transform="translate(-184.366 -88.126)" fill="#81941f"/>
        <path id="Trazado_1261785" data-name="Trazado 1261785" d="M396.838,164.555l-9.872-.828c-.3-.025-.3.441,0,.466l9.872.828c.3.025.3-.442,0-.467" transform="translate(-201.052 -85.115)" fill="#81941f"/>
        <path id="Trazado_1261786" data-name="Trazado 1261786" d="M403.1,160.033l-3.853-.1a.233.233,0,0,0,0,.466l3.853.1a.233.233,0,0,0,0-.467" transform="translate(-207.437 -83.144)" fill="#81941f"/>
        <path id="Trazado_1261787" data-name="Trazado 1261787" d="M370.529,150.05q-6.286.808-12.47,2.235c-.292.068-.169.518.124.45q6.113-1.414,12.346-2.219c.293-.037.3-.5,0-.466" transform="translate(-186.054 -78.004)" fill="#e3e868"/>
        <path id="Trazado_1261788" data-name="Trazado 1261788" d="M290.477,120.4a2.5,2.5,0,0,1-.881-1.741,7.4,7.4,0,0,1,.147-1.994q1.1-6.609,2.19-13.217c.037-.226.1-.487.308-.583a.486.486,0,0,1,.559.185,1.425,1.425,0,0,1,.218.592q1.122,5.435,2.245,10.871a12.29,12.29,0,0,1,.349,2.656c-.013.895.047,2.265-.51,2.965-.82,1.032-3.509,1.113-4.626.266" transform="translate(-150.537 -53.456)" fill="#bec320"/>
        <path id="Trazado_1261789" data-name="Trazado 1261789" d="M295.038,137.416a7.528,7.528,0,0,0-4.527.351l-.01.006a2,2,0,0,0,.459.5c1.116.847,3.806.766,4.626-.266a1.551,1.551,0,0,0,.149-.233,1.264,1.264,0,0,0-.7-.359" transform="translate(-151.02 -71.335)" fill="#81941f"/>
        <path id="Trazado_1261790" data-name="Trazado 1261790" d="M295.74,142.16c-.376.556-.61-.063-.657-.349a12.483,12.483,0,0,1,.014-1.895c0-.36.005-.718.008-1.078.006-.531.008-1.064.014-1.6.184-.016.368-.024.553-.024-.016.544-.014,1.086,0,1.631q.033,1.291.162,2.576a1.114,1.114,0,0,1-.094.734" transform="translate(-153.381 -71.335)" fill="#7d4031"/>
        <path id="Trazado_1261791" data-name="Trazado 1261791" d="M293.618,130.04a.238.238,0,0,0-.287-.163l-.961.246a.233.233,0,1,0,.124.45l.962-.246a.236.236,0,0,0,.163-.287" transform="translate(-151.901 -67.514)" fill="#e3e868"/>
        <path id="Trazado_1261792" data-name="Trazado 1261792" d="M293.671,124.885h-.482a.241.241,0,0,0-.165.068.233.233,0,0,0,.165.4h.482a.242.242,0,0,0,.165-.068.233.233,0,0,0-.165-.4" transform="translate(-152.296 -64.923)" fill="#e3e868"/>
        <path id="Trazado_1261793" data-name="Trazado 1261793" d="M147.055,50.9q0-3.456-.015-6.911c-.038-9.042-.1-18.087-.375-27.124-.135-4.492-.33-15.368-.468-16.395-.055-.4-4.411-.882-4.581.147-.077.466-.189,2.618-.208,3.168q-.064,1.81-.125,3.621-.116,3.363-.23,6.725-.22,6.811-.411,13.621-.223,7.587-.457,15.173c-.081,2.528-.752,13.983-.955,15.8-.033.3.106.549.361.559,1.8.065,3.61.221,5.409.211,1.22-.007,1.871-.861,1.994-2.335.171-2.053.063-4.2.061-6.264" transform="translate(-72.377 0)" fill="#ffddc7"/>
        <path id="Trazado_1261794" data-name="Trazado 1261794" d="M103.166,64.6q0-2.956-.013-5.913c-.033-7.736-.088-15.476-.321-23.208-.116-3.843-.282-13.149-.4-14.027-.047-.345-3.774-.754-3.92.125-.066.4-.161,2.24-.178,2.71q-.055,1.549-.107,3.1-.1,2.877-.2,5.754-.188,5.827-.352,11.654-.19,6.491-.39,12.982c-.07,2.164-.644,11.964-.817,13.523-.029.254.09.47.309.478,1.539.056,3.088.19,4.628.181,1.043-.006,1.6-.737,1.706-2,.146-1.756.053-3.595.052-5.36" transform="translate(-50.149 -10.941)" fill="#ffddc7"/>
        <path id="Trazado_1261795" data-name="Trazado 1261795" d="M176.278,67.751q0-2.956-.013-5.913c-.033-7.736-.088-15.476-.321-23.208-.116-3.843-.282-13.149-.4-14.028-.047-.344-3.774-.754-3.92.126-.066.4-.161,2.24-.178,2.71q-.055,1.549-.107,3.1-.1,2.877-.2,5.754-.188,5.827-.352,11.654-.19,6.491-.39,12.982c-.07,2.164-.644,11.964-.817,13.523-.029.254.09.47.309.478,1.539.056,3.088.19,4.628.181,1.043-.006,1.6-.737,1.706-2,.147-1.756.054-3.595.052-5.36" transform="translate(-88.157 -12.58)" fill="#ffddc7"/>
        <path id="Trazado_1261796" data-name="Trazado 1261796" d="M128.025,136.648q.224-17.668.447-35.336a2.166,2.166,0,0,0-.416-1.606c-.4-.4-1.637-.05-1.6.517a63.759,63.759,0,0,1-8.1,7.361,3.535,3.535,0,0,1-1.155.663,1.622,1.622,0,0,1-1.377-.5q-.218-3.445-.437-6.892A1.69,1.69,0,0,0,115,99.679c-.31-.287-.64-.253-1.151.229-3.4,2.673-6.113,5.071-9.093,7.492-.323.263-.622.637-1.037.616s-.337-.325-.414-.767q.022-2.563.044-5.127a1.859,1.859,0,0,0-.363-1.377c-.348-.342-.55-.184-1.258.215l-8.475,5.821a38.389,38.389,0,0,1-4.064,2.549,3.678,3.678,0,0,1-.141-.82q.3-3.471.26-6.961a1.9,1.9,0,0,0-.276-1.172.786.786,0,0,0-1.083-.092,152.853,152.853,0,0,0-13.281,12.545,3.67,3.67,0,0,0-1.051,2.657q.224,10.136-.023,20.276a28.975,28.975,0,0,0,6.423,1.088c15.142,1.424,30.388,1.07,45.592.715.87-.021,2.407-.05,2.418-.92" transform="translate(-38.258 -51.724)" fill="#ffddc7"/>
        <path id="Trazado_1261797" data-name="Trazado 1261797" d="M37.812,94.024a50.615,50.615,0,0,1,.583-8.994,16.942,16.942,0,0,1,3.651-8.136c3.036-3.464,7.839-5.031,12.443-4.913,3.678.1,7.474,1.27,10.01,3.936,3.413,3.587,3.894,8.982,4.063,13.931.38,11.142.115,22.3-.607,33.424l-25.433.08c-1.941.006-4.642-.142-4.921-2.443-.323-2.661.1-5.686.113-8.382q.048-9.251.1-18.5" transform="translate(-19.485 -37.416)" fill="#7d4031"/>
        <path id="Trazado_1261798" data-name="Trazado 1261798" d="M69,112.076c-3.616.134-7.233.238-10.852.288q-6.726.092-13.453-.011-3.257-.05-6.513-.148,0,.243,0,.485,6.209.181,12.421.2,6.727.017,13.452-.161,2.481-.066,4.962-.161c0-.166-.01-.331-.013-.5m-4.948-1.992q2.446-.065,4.89-.158c-.005-.166-.008-.332-.013-.5-3.592.133-7.186.236-10.78.286q-6.726.092-13.453-.011-3.227-.049-6.454-.147c-.006.162-.014.323-.019.485q6.187.181,12.377.2,6.727.017,13.452-.161" transform="translate(-19.848 -56.887)" fill="#c7816f"/>
        <path id="Trazado_1261799" data-name="Trazado 1261799" d="M20.924,152.162q.238-6.873.478-13.746c.066-1.91.181-3.959,1.352-5.469a6.17,6.17,0,0,1,3.518-2.072,18.405,18.405,0,0,1,4.141-.326c.026,1.006.246,2.142.273,3.148-1.945-.048-4.175.245-5.275,1.85a6.575,6.575,0,0,0-.762,3.786l.017,10.171a6.362,6.362,0,0,1-.211,2.008,2.153,2.153,0,0,1-1.32,1.437c-.647.2-2.236-.111-2.212-.787" transform="translate(-10.877 -67.868)" fill="#7d4031"/>
        <path id="Trazado_1261800" data-name="Trazado 1261800" d="M90.41,155.394c.058-6.142.014-12.264.072-18.406a.852.852,0,0,0-.815-.858c-14.337-.592-27.984-.391-42.384-.81a.846.846,0,0,0-.874.833c-.069,6.137-.17,12.662-.239,18.8a.849.849,0,0,0,.777.855,320.888,320.888,0,0,0,42.651.433.853.853,0,0,0,.813-.844" transform="translate(-24.001 -70.347)" fill="#c7816f"/>
        <path id="Trazado_1261801" data-name="Trazado 1261801" d="M112.891,153.627c.029-3.225.02-6.44.048-9.665,0-.241-.132-.44-.3-.449-5.323-.293-10.39-.172-15.737-.375-.176-.007-.323.189-.326.438-.033,3.222-.078,6.649-.111,9.869a.413.413,0,0,0,.287.448,84.343,84.343,0,0,0,15.836.177c.168-.012.3-.207.3-.444" transform="translate(-50.148 -74.411)" fill="#5788c3"/>
        <path id="Trazado_1261802" data-name="Trazado 1261802" d="M102.016,154.2c.163.013.326.023.489.035l.02-10.947-.489-.01q-.01,5.461-.021,10.922m3.975.2.489.008q.01-5.53.021-11.061l-.489-.006q-.01,5.529-.021,11.059m7.15-10.922-.02,10.8.488-.024q.01-5.38.021-10.76l-.489-.017m-3.807,10.933.489-.01q.011-5.5.021-11.008l-.489-.009q-.011,5.513-.021,11.026" transform="translate(-53.034 -74.485)" fill="#37567a"/>
        <path id="Trazado_1261803" data-name="Trazado 1261803" d="M328.47,181.35c-.134,0-4,34.575-42.9,34.489-3.166-.007-6.334.11-9.5-.059-7.87-.42-15.8-2.206-22.562-6.249a42,42,0,0,1-19.637-29.778l94.6,1.6" transform="translate(-121.581 -93.447)" fill="#5788c3"/>
        <path id="Trazado_1261804" data-name="Trazado 1261804" d="M326.239,179.425a2.239,2.239,0,0,0,.906-4.14,3.377,3.377,0,0,0-2.052-.328c-.7.056-63.747-1.412-94.581-1.443a3.07,3.07,0,0,0-2.652.915c-.665.86.328,3.161,1.268,3.188,27.415.788,96.206,1.962,97.111,1.808" transform="translate(-118.343 -90.203)" fill="#37567a"/>
        <path id="Trazado_1261805" data-name="Trazado 1261805" d="M281.906,212.776a34.151,34.151,0,0,1-32.691-21.286c-.113-.277-.519-.047-.407.229a34.61,34.61,0,0,0,33.09,21.524c.3-.009.309-.475.008-.466" transform="translate(-129.335 -99.483)" fill="#fff"/>
        <path id="Trazado_1261806" data-name="Trazado 1261806" d="M278.251,213.125a15.8,15.8,0,0,1-6.585-5.077c-.181-.239-.515.087-.335.324a16.231,16.231,0,0,0,6.788,5.2c.278.114.407-.335.132-.447" transform="translate(-141.027 -108.112)" fill="#fff"/>
        <path id="Trazado_1261807" data-name="Trazado 1261807" d="M100.019,181.35c-.135,0-4,34.575-42.9,34.489-3.166-.007-6.334.11-9.5-.059-7.87-.42-15.8-2.206-22.562-6.249A42,42,0,0,1,5.422,179.754l94.6,1.6" transform="translate(-2.819 -93.447)" fill="#5788c3"/>
        <path id="Trazado_1261808" data-name="Trazado 1261808" d="M98.595,179.425a2.239,2.239,0,0,0,.906-4.14,3.379,3.379,0,0,0-2.052-.328c-.7.056-63.746-1.412-94.581-1.443a3.07,3.07,0,0,0-2.652.915c-.664.86.328,3.161,1.268,3.188,27.415.788,96.207,1.962,97.111,1.808" transform="translate(0 -90.203)" fill="#37567a"/>
        <path id="Trazado_1261809" data-name="Trazado 1261809" d="M54.262,212.776A34.151,34.151,0,0,1,21.571,191.49c-.113-.277-.519-.047-.407.229a34.61,34.61,0,0,0,33.09,21.524c.3-.009.309-.475.008-.466" transform="translate(-10.992 -99.483)" fill="#fff"/>
        <path id="Trazado_1261810" data-name="Trazado 1261810" d="M50.607,213.125a15.792,15.792,0,0,1-6.585-5.077c-.181-.239-.515.087-.336.324a16.231,16.231,0,0,0,6.788,5.2c.278.114.407-.335.132-.447" transform="translate(-22.684 -108.112)" fill="#fff"/>
        <path id="Trazado_1261811" data-name="Trazado 1261811" d="M210.6,357.072c0,1.922-46.835,3.481-104.609,3.481S1.38,358.994,1.38,357.072s46.835-3.481,104.609-3.481S210.6,355.149,210.6,357.072" transform="translate(-0.717 -183.818)" fill="#ffe5d4"/>
        <path id="Trazado_1261812" data-name="Trazado 1261812" d="M185.147,348.579a28.2,28.2,0,0,0-1.038,4.65c-.09,1.128-.09,1.67.226,1.805a24.666,24.666,0,0,0,4.333.316c1.761,0,4.243-.271,6.139-.181a61.575,61.575,0,0,0,6.907.09,1.017,1.017,0,0,0,.542-1.354,3.468,3.468,0,0,0-2.8-2.708,38.575,38.575,0,0,1-5.236-1.219,9.058,9.058,0,0,1-1.945-1.491,5.414,5.414,0,0,0-3.021-.676c-1.354,0-3.927.406-4.108.767" transform="translate(-95.684 -180.813)" fill="#eaad42"/>
        <path id="Trazado_1261813" data-name="Trazado 1261813" d="M151.441,349.306a1.673,1.673,0,0,0-1.219.451,25.064,25.064,0,0,0-1.9,3.656,3.774,3.774,0,0,0,0,2.347c.316.361,1.264.767,3.2,1.084a21.516,21.516,0,0,0,5.959,0,2.23,2.23,0,0,0,1.49-1.445,3.886,3.886,0,0,0-.271-1.761,10.188,10.188,0,0,0-1.535-2.121c-.5-.5-.677-1.174-1.038-1.445a13.948,13.948,0,0,0-4.695-.767" transform="translate(-77.011 -181.585)" fill="#eaad42"/>
        <path id="Trazado_1261814" data-name="Trazado 1261814" d="M168.46,223.141c2.715,8.842,4.323,18.008,7.284,26.77.722,2.138.1,20.876.011,31.148a27.255,27.255,0,0,0,8.412-.376s.485-11.179.605-16.716-.12-14.566-.241-15.408-.361-2.046-.361-2.046L181.4,225.205l-.963-7.824s-10.713.843-11.074.963-.9,4.8-.9,4.8" transform="translate(-87.576 -113.008)" fill="#37567a"/>
        <path id="Trazado_1261815" data-name="Trazado 1261815" d="M157.749,249.543c1.131-10.32,2.208-20.728,3.339-31.048a92.938,92.938,0,0,0-15.029.334c1.088,9.968,2.817,20.311,2.55,30.334q-.431,16.19-.863,32.38a19.687,19.687,0,0,0,8.4.808c.454-10.551.448-22.311,1.6-32.808" transform="translate(-75.93 -113.494)" fill="#37567a"/>
        <path id="Trazado_1261816" data-name="Trazado 1261816" d="M174.826,228.356a44.014,44.014,0,0,1-.464,6.978c-.043.294.406.421.45.124a44.727,44.727,0,0,0,.48-7.1.233.233,0,0,0-.466,0" transform="translate(-90.642 -118.596)" fill="#5788c3"/>
        <path id="Trazado_1261817" data-name="Trazado 1261817" d="M160.565,361.575a13.624,13.624,0,0,1-4.569.158c-.294-.04-.421.41-.124.45a14.3,14.3,0,0,0,4.817-.158c.294-.06.169-.51-.124-.45" transform="translate(-80.944 -187.965)" fill="#f4d7a7"/>
        <path id="Trazado_1261818" data-name="Trazado 1261818" d="M202.663,360.663a78.11,78.11,0,0,0-13.223.187c-.3.029-.3.5,0,.467a78.107,78.107,0,0,1,13.223-.187c.3.022.3-.445,0-.466" transform="translate(-98.366 -187.393)" fill="#f4d7a7"/>
        <path id="Trazado_1261819" data-name="Trazado 1261819" d="M190.253,173.336l-3.913,1a1.227,1.227,0,0,1-1.81-1.12,119.16,119.16,0,0,1-2.379-12.066,3.2,3.2,0,0,1,.069-1.705,2.738,2.738,0,0,1,1.174-1.176,7.027,7.027,0,0,1,3.65-1.222c1.084.095,1.241,1.962,1.488,2.838a45.763,45.763,0,0,1,1.719,13.453" transform="translate(-94.651 -81.637)" fill="#c7816f"/>
        <path id="Trazado_1261820" data-name="Trazado 1261820" d="M177.911,131.156c4.175,1.375,8.378,6.975,8.569,12.213a22.982,22.982,0,0,1-5.986,2.268,2.431,2.431,0,0,1-1.938-.1,2.574,2.574,0,0,1-.793-2.03q-.333-4.387-.667-8.774a5.15,5.15,0,0,1,.816-3.573" transform="translate(-92.052 -68.183)" fill="#eaad42"/>
        <path id="Trazado_1261821" data-name="Trazado 1261821" d="M142.726,154.1c-.313-4.558-.45-9.03-.734-13.59a38.791,38.791,0,0,1-.075-5.693,12.962,12.962,0,0,1,1.568-5.43,28.628,28.628,0,0,1,15.641.38c1.832,2.535,2.5,5.73,2.881,8.833.575,4.631.642,9.446,1.113,14.089.55,5.418,2.273,12.655,3.454,19.015a16.8,16.8,0,0,1-5.609,1.695c-6.169.74-13.942,1.9-20.03.665.558-5.963,1.962-17.462,1.79-19.964" transform="translate(-73.267 -66.792)" fill="#eaad42"/>
        <path id="Trazado_1261822" data-name="Trazado 1261822" d="M161.581,132.424a3.452,3.452,0,0,0,.488-3.335,28.809,28.809,0,0,0-10.558-.216,8.414,8.414,0,0,0,.979,1.519,10.564,10.564,0,0,0,1.343,1.623,6.607,6.607,0,0,0,3.839,1.934,4.422,4.422,0,0,0,3.908-1.525" transform="translate(-78.765 -66.796)" fill="#c7816f"/>
        <path id="Trazado_1261823" data-name="Trazado 1261823" d="M152.6,185.123l-2.926-2.08a.235.235,0,0,0-.319.084.238.238,0,0,0,.084.319l2.925,2.08a.235.235,0,0,0,.319-.084.238.238,0,0,0-.084-.319" transform="translate(-77.629 -95.139)" fill="#bd7a35"/>
        <path id="Trazado_1261824" data-name="Trazado 1261824" d="M164.037,139.634a3.479,3.479,0,0,1-3.017,1.3,9.811,9.811,0,0,1-3.968-1.35c-.267-.135-.5.267-.236.4a9.949,9.949,0,0,0,4.373,1.416,3.9,3.9,0,0,0,3.251-1.538c.172-.247-.232-.48-.4-.235" transform="translate(-81.461 -72.536)" fill="#bd7a35"/>
        <path id="Trazado_1261825" data-name="Trazado 1261825" d="M180.2,132.777c-.127-.272-.53-.035-.4.235a27.614,27.614,0,0,1,2.6,12.036.233.233,0,0,0,.467,0,28.144,28.144,0,0,0-2.659-12.271" transform="translate(-93.456 -68.963)" fill="#bd7a35"/>
        <path id="Trazado_1261826" data-name="Trazado 1261826" d="M154.132,123.426a22.587,22.587,0,0,0,1.1-5.33,8.763,8.763,0,0,1,5.576,1.734c.047,1.321.079,2.716.126,4.038a.639.639,0,0,1-.065.379.627.627,0,0,1-.461.211,11.427,11.427,0,0,1-6.279-1.032" transform="translate(-80.127 -61.391)" fill="#c7816f"/>
        <path id="Trazado_1261827" data-name="Trazado 1261827" d="M155.754,103.317a17.516,17.516,0,0,0,1.4,2.609c.788,1.131,2.81,1.486,4.051,1.735a9.369,9.369,0,0,0,2.654.321c.9-.1.864-1.471.95-2.174.071-.581.158-1.632.751-1.914a2.038,2.038,0,0,0,.739-.409.933.933,0,0,0,.049-.983,16.115,16.115,0,0,1-.785-1.586,2.85,2.85,0,0,1-.158-1.372,7.277,7.277,0,0,1,.419-1.248,5.273,5.273,0,0,0-2.193-6.179,6.467,6.467,0,0,0-3.822-.888,5.656,5.656,0,0,0-3.738,1.613,6.27,6.27,0,0,0-1.441,2.913,11.826,11.826,0,0,0,1.12,7.562" transform="translate(-80.269 -47.418)" fill="#c7816f"/>
        <path id="Trazado_1261828" data-name="Trazado 1261828" d="M154.015,94.115a17.841,17.841,0,0,0,.314,2.6,1.187,1.187,0,0,0,.118.46.418.418,0,0,0,.388.23,14.273,14.273,0,0,1,1.642-6.1,1.253,1.253,0,0,0,.232.573c.026.044.068.091.118.081s.07-.064.084-.111l.343-1.175a5.12,5.12,0,0,1,4.231,1.594,3.26,3.26,0,0,0,2.765-2.69,6.188,6.188,0,0,0-.7-4.065,6.043,6.043,0,0,0-1.835-2.307,7.4,7.4,0,0,0-3.357-1.071,11.412,11.412,0,0,0-4.361.091,5.006,5.006,0,0,0-3.358,2.6,6.6,6.6,0,0,0-4.443,3.864,9.578,9.578,0,0,0-.358,5.975,9.777,9.777,0,0,0,4.26,6.175,1.052,1.052,0,0,0,.428.171.394.394,0,0,0,.394-.189c.084-.174-.018-.379,0-.571.03-.334.387-.516.641-.734a3.114,3.114,0,0,0,.77-2.245,3.963,3.963,0,0,1-1.583-2.478,2.851,2.851,0,0,1,.3-1.968,1.88,1.88,0,0,1,1.689-.938c.676.053,1.276,1.544,1.278,2.222" transform="translate(-75.657 -42.616)" fill="#7d4031"/>
        <path id="Trazado_1261829" data-name="Trazado 1261829" d="M151.31,107.2a8.942,8.942,0,0,1-1.863-7.528c.063-.293-.387-.418-.45-.124a9.44,9.44,0,0,0,1.983,7.982c.193.23.521-.1.33-.33" transform="translate(-77.351 -51.661)" fill="#573027"/>
        <path id="Trazado_1261830" data-name="Trazado 1261830" d="M173.841,86.259a5.627,5.627,0,0,0-4.116-1.741.233.233,0,0,0,0,.467,5.06,5.06,0,0,1,5.131,5.491c-.022.3.445.3.466,0a5.618,5.618,0,0,0-1.481-4.217" transform="translate(-88.116 -43.937)" fill="#c7816f"/>
        <path id="Trazado_1261831" data-name="Trazado 1261831" d="M172.821,88.484a.235.235,0,0,0-.287.163.238.238,0,0,0,.163.287,2.81,2.81,0,0,1,1.745,2.569.233.233,0,0,0,.466,0,3.288,3.288,0,0,0-2.088-3.019" transform="translate(-89.689 -45.993)" fill="#c7816f"/>
        <path id="Trazado_1261832" data-name="Trazado 1261832" d="M173.633,107c.055-.122.147-.255.281-.255a.246.246,0,0,1,.2.127.517.517,0,0,1,.062.24,2.371,2.371,0,0,1-.217.962c-.036.1-.083.2-.179.235-.56.2-.224-1.144-.15-1.307" transform="translate(-90.178 -55.492)" fill="#7d4031"/>
        <path id="Trazado_1261833" data-name="Trazado 1261833" d="M174.148,104.735a.117.117,0,0,1-.1.017,1.939,1.939,0,0,0-1.7.372.118.118,0,0,1-.164-.015.117.117,0,0,1,.016-.164,2.174,2.174,0,0,1,1.912-.418.116.116,0,0,1,.037.208" transform="translate(-89.497 -54.303)" fill="#7d4031"/>
        <path id="Trazado_1261834" data-name="Trazado 1261834" d="M173.247,120.146a2.3,2.3,0,0,1-1.424-.5.116.116,0,1,1,.145-.182,2.069,2.069,0,0,0,1.444.438.117.117,0,0,1,.02.232c-.062.005-.124.008-.185.008" transform="translate(-89.301 -62.093)" fill="#7d4031"/>
        <path id="Trazado_1261835" data-name="Trazado 1261835" d="M162.61,121.979a4.9,4.9,0,0,1-3.583-2.342c-.152-.257-.566-.042-.413.218a5.4,5.4,0,0,0,3.976,2.59c.3.036.317-.43.021-.466" transform="translate(-82.44 -62.135)" fill="#7d4031"/>
        <path id="Trazado_1261836" data-name="Trazado 1261836" d="M166.318,181.286a2.116,2.116,0,0,1-.965-.762,1.972,1.972,0,0,1,.1-1.792,3.4,3.4,0,0,1,1.375-1.579,2.07,2.07,0,0,1,2.032-.029,1.366,1.366,0,0,1,1.335-1.239,3.576,3.576,0,0,1-2.083-3.6,3.361,3.361,0,0,1,2.957-2.866,3.172,3.172,0,0,1,3.265,2.439,2.907,2.907,0,0,1,1.544-1.072c.631-.1,1.381.448,1.209,1.064a1.824,1.824,0,0,1,3.03,1.022,2.43,2.43,0,1,1,3.7,1.907,1.654,1.654,0,0,1,1.562,1.977,2.857,2.857,0,0,1-1.954,1.99,12.4,12.4,0,0,1-2.877.452,28.957,28.957,0,0,0-7.987,2.313,5.747,5.747,0,0,1-2.762.7,10.486,10.486,0,0,1-3.478-.927" transform="translate(-85.868 -88.07)" fill="#81941f"/>
        <path id="Trazado_1261837" data-name="Trazado 1261837" d="M214.018,183.954a1.286,1.286,0,0,1,1.982-.04,3.062,3.062,0,0,1,1.651-2.53,2.3,2.3,0,0,1,2.816.713,1.844,1.844,0,0,1-.784,2.643,1.928,1.928,0,0,1,2.139,1.111,1.872,1.872,0,0,1-.787,2.264,1.707,1.707,0,0,1,2.455,1.826,2.367,2.367,0,0,1-2.757,1.6,6.883,6.883,0,0,1-3.054-1.692c-1.686-1.358-3.4-2.687-5.062-4.077-.581-.487-1.407-1.157-.706-1.9a1.407,1.407,0,0,1,1.177-.395c.093.011,1.031.332.931.478" transform="translate(-110.024 -94.185)" fill="#81941f"/>
        <path id="Trazado_1261838" data-name="Trazado 1261838" d="M187.019,149.394a5.383,5.383,0,0,0,2.2.828,31.46,31.46,0,0,0,7.567-.057c1.656-.1,3.321-.118,4.963-.352a11.131,11.131,0,0,0,4.66-1.624,3.087,3.087,0,0,0,1.211-1.317,2.507,2.507,0,0,0-.576-2.522,5.836,5.836,0,0,0-2.294-1.425,18.293,18.293,0,0,0-15.236.846c-1.314.691-2.8,1.3-3.425,2.737a2.346,2.346,0,0,0,.932,2.886" transform="translate(-96.641 -73.642)" fill="#81941f"/>
        <path id="Trazado_1261839" data-name="Trazado 1261839" d="M231.939,157.866a11.563,11.563,0,0,1-5.058-.506c-1.637-.49-3.2-1.187-4.8-1.787-.673-.253-1.456-.605-1.578-1.314a1.332,1.332,0,0,1,.454-1.156,3.184,3.184,0,0,1,1.129-.615A13.529,13.529,0,0,1,228.8,152a23.278,23.278,0,0,1,6.428,2.178c.359.176,1.035.545,1.017,1.031-.016.431-.728.983-1.043,1.243a6.783,6.783,0,0,1-3.266,1.417" transform="translate(-114.621 -78.909)" fill="#81941f"/>
        <path id="Trazado_1261840" data-name="Trazado 1261840" d="M214.334,154.752a8.685,8.685,0,0,1-7.956,4.877,12.451,12.451,0,0,1,1.38-4.525l1.429-3.168c-.3-.1-.777-.165-1.078-.265a8.6,8.6,0,0,1-2.861,5l-1.519-3.7c-.2-.041-.379-.038-.58-.079.3,1.6,1.323,2.943,1.421,4.57a15.274,15.274,0,0,1-4.385,11.557c.786.186,1.617.471,2.4.657,1.965-2.5,2.651-5.506,3.612-8.538a10.837,10.837,0,0,0,8.791-6.117Z" transform="translate(-104.069 -78.848)" fill="#7d4031"/>
        <path id="Trazado_1261841" data-name="Trazado 1261841" d="M218.913,147.564a2.843,2.843,0,0,0,1.54,2.8,6.256,6.256,0,0,0,2.565.085c2.109-.078,4.093.9,6.124,1.466s4.5.629,5.949-.9c1.511-1.6,1.165-4.357-.3-5.991a8.834,8.834,0,0,0-5.932-2.5,17.091,17.091,0,0,0-7.147.941,4.114,4.114,0,0,0-2.795,4.1" transform="translate(-113.802 -74.064)" fill="#bec320"/>
        <path id="Trazado_1261842" data-name="Trazado 1261842" d="M234.478,155.847a24.516,24.516,0,0,0-10.474-2c-.3.01-.3.476,0,.467a23.974,23.974,0,0,1,10.239,1.934c.273.118.51-.284.235-.4" transform="translate(-116.333 -79.973)" fill="#e3e868"/>
        <path id="Trazado_1261843" data-name="Trazado 1261843" d="M235.73,151.587a14.171,14.171,0,0,0-6.211-1.137c-.3.013-.3.48,0,.466a13.656,13.656,0,0,1,5.976,1.074c.273.117.511-.285.235-.4" transform="translate(-119.201 -78.205)" fill="#e3e868"/>
        <path id="Trazado_1261844" data-name="Trazado 1261844" d="M240.746,147.052a11.145,11.145,0,0,0-2.954-.6c-.3-.019-.3.447,0,.467a10.643,10.643,0,0,1,2.83.581c.284.1.406-.351.124-.45" transform="translate(-123.502 -76.135)" fill="#e3e868"/>
        <path id="Trazado_1261845" data-name="Trazado 1261845" d="M199.72,142.552a17.3,17.3,0,0,0,5.506-.58c1.748-.619,3.334-2.142,3.368-4,.035-1.9-1.508-3.454-3.136-4.428a14.058,14.058,0,0,0-19.706,5.6c-.741,1.431-1.153,3.375-.005,4.506a2.979,2.979,0,0,0,2.363.717c1.674-.153,3.361-.952,5.046-1.227a45.7,45.7,0,0,1,6.564-.592" transform="translate(-96.191 -68.395)" fill="#bec320"/>
        <path id="Trazado_1261846" data-name="Trazado 1261846" d="M204.559,137.891a16.7,16.7,0,0,0-13.261,2.215,15.785,15.785,0,0,0-2.974,2.522c-.2.221.126.552.33.33a16.226,16.226,0,0,1,12.039-5.127,15.3,15.3,0,0,1,3.742.51.233.233,0,0,0,.124-.45" transform="translate(-97.869 -71.412)" fill="#e3e868"/>
        <path id="Trazado_1261847" data-name="Trazado 1261847" d="M206.852,141.454a14.478,14.478,0,0,0-5.992,1.574c-.267.136-.032.539.236.4a13.931,13.931,0,0,1,5.756-1.511c.3-.012.3-.479,0-.466" transform="translate(-104.358 -73.536)" fill="#e3e868"/>
        <path id="Trazado_1261848" data-name="Trazado 1261848" d="M206.551,147.682a7.072,7.072,0,0,0-2.286.264.233.233,0,0,0,.124.45,6.643,6.643,0,0,1,2.162-.247c.3.014.3-.452,0-.467" transform="translate(-106.104 -76.769)" fill="#e3e868"/>
        <path id="Trazado_1261849" data-name="Trazado 1261849" d="M162.509,211.8a3.875,3.875,0,0,0,2.933,2.144,3.835,3.835,0,0,1,1.82.244c.38.245.6.7,1.007.894.5.23,1.091-.011,1.623.115,1.322.313,1.555,2.588,2.913,2.606,1.04.013,1.591-1.391,2.618-1.555,1.5-.239,2.474,2.246,3.934,1.847,1.308-.357,1.088-2.512,2.251-3.2,1.223-.728,2.712.74,4.122.531.931-.138,1.718-1,2.649-.862.876.134,1.348,1.073,2.051,1.609a2.587,2.587,0,0,0,3.635-.705c.394-.667.569-1.609,1.316-1.83a6.752,6.752,0,0,1,.816-.084c.919-.151,1.4-1.142,1.732-2.006.442-1.147.846-2.561.052-3.5a3.252,3.252,0,0,0-1.3-.817c-5.414-2.23-11.5-2.24-17.318-1.563-3.013.351-6,.876-9,1.347-1.509.237-3.02.461-4.537.642-1.039.124-2.8-.062-3.674.614-1.008.781-.115,2.669.354,3.535" transform="translate(-84.058 -106.713)" fill="#7d4031"/>
        <path id="Trazado_1261850" data-name="Trazado 1261850" d="M161.814,197.716a18.969,18.969,0,0,1,15.4-11.573,22.364,22.364,0,0,1,18.286,6.909,10.619,10.619,0,0,1,2.849,4.617,1.367,1.367,0,0,1-.014.934,1.159,1.159,0,0,1-1.15.507c-.444-.033-.87-.2-1.315-.224-2.05-.132-3.358,2.462-5.4,2.708-.836.1-1.68-.218-2.517-.121-.986.114-1.833.787-2.813.943-2.56.407-4.612-2.739-7.192-2.491-1.868.18-3.22,2.1-5.09,2.261a7.289,7.289,0,0,1-3.49-1.087c-1.123-.511-2.525-.841-3.524-.118a8.821,8.821,0,0,1-1.786-.131,3.482,3.482,0,0,1-2-1,2.118,2.118,0,0,1-.242-2.138" transform="translate(-84.029 -96.703)" fill="#bec320"/>
        <path id="Trazado_1261851" data-name="Trazado 1261851" d="M194.577,208.52l-3.3,1.348a14.443,14.443,0,0,1-3.224,1.1c-2.137.321-3.774-1.284-5.737-1.779a6,6,0,0,0-2.981.017,11.007,11.007,0,0,0-2.634,1.3,3.266,3.266,0,0,1-2.7.453c-.85-.261-1.6-.76-2.431-1.073a3.679,3.679,0,0,0-1.421-.266,7.151,7.151,0,0,0-1.706.382c-.77.222-2.14.391-2.438-.63a.233.233,0,0,0-.45.124,1.793,1.793,0,0,0,1.733,1.154c1.051.06,1.992-.594,3.039-.565a6.774,6.774,0,0,1,2.588.934,4.081,4.081,0,0,0,2.61.481,9.963,9.963,0,0,0,2.63-1.32,5.592,5.592,0,0,1,3.116-.7c2.112.151,3.732,1.814,5.833,1.98a8.3,8.3,0,0,0,3.71-.917l3.89-1.587c.274-.112.155-.564-.124-.45" transform="translate(-86.059 -108.392)" fill="#81941f"/>
        <path id="Trazado_1261852" data-name="Trazado 1261852" d="M190.372,206.919c-2.85.119-5.491-1.4-8.348-1.221a5.933,5.933,0,0,0-1.875.417,6.89,6.89,0,0,1-1.779.648c-1.17.129-2.048-.95-3.18-1.073a7.734,7.734,0,0,0-2.237.344,1.917,1.917,0,0,1-1.781-.378c-.207-.218-.536.112-.33.33.872.92,2.2.493,3.257.259a2.792,2.792,0,0,1,1.973.214,7.675,7.675,0,0,0,1.551.715c1.292.317,2.421-.665,3.637-.91a9.945,9.945,0,0,1,4.281.334,17.44,17.44,0,0,0,4.832.786c.3-.012.3-.479,0-.466" transform="translate(-88.779 -106.875)" fill="#81941f"/>
        <path id="Trazado_1261853" data-name="Trazado 1261853" d="M204.54,200.788a9.309,9.309,0,0,1-3.07.046.241.241,0,0,0-.287.163.235.235,0,0,0,.163.287,10,10,0,0,0,3.318-.046c.295-.054.17-.5-.124-.45" transform="translate(-104.583 -104.379)" fill="#81941f"/>
        <path id="Trazado_1261854" data-name="Trazado 1261854" d="M205.252,191.741A19.715,19.715,0,0,0,191.68,189.6c-.294.059-.169.508.124.449a19.407,19.407,0,0,1,10.446.816,18.981,18.981,0,0,1,2.766,1.278.233.233,0,0,0,.235-.4" transform="translate(-99.56 -98.363)" fill="#e3e868"/>
        <path id="Trazado_1261855" data-name="Trazado 1261855" d="M214.769,197.137l-1.8-.9a.239.239,0,0,0-.319.084.235.235,0,0,0,.084.319l1.8.9a.239.239,0,0,0,.319-.084.236.236,0,0,0-.084-.319" transform="translate(-110.53 -101.998)" fill="#e3e868"/>
        <path id="Trazado_1261856" data-name="Trazado 1261856" d="M229.846,216.949c.061.434-.424.73-.749.89a3.7,3.7,0,0,0-1.121.695,4.591,4.591,0,0,0-.964,2.185c-.07.292.38.416.449.124a3.553,3.553,0,0,1,1.1-2.2c.4-.278.883-.392,1.258-.7a1.212,1.212,0,0,0,.48-1.115c-.042-.3-.492-.17-.45.124" transform="translate(-118.011 -112.631)" fill="#c7816f"/>
        <path id="Trazado_1261857" data-name="Trazado 1261857" d="M225.547,219.112a.239.239,0,0,0-.319.084,5.262,5.262,0,0,0-.828,1.6.236.236,0,0,0,.163.287.238.238,0,0,0,.287-.163,4.872,4.872,0,0,1,.781-1.484.235.235,0,0,0-.084-.319" transform="translate(-116.652 -113.891)" fill="#c7816f"/>
        <path id="Trazado_1261858" data-name="Trazado 1261858" d="M198.281,218.727a6.029,6.029,0,0,0-.872,3.508c.019.3.485.3.467,0a5.59,5.59,0,0,1,.808-3.273c.157-.256-.246-.491-.4-.235" transform="translate(-102.619 -113.65)" fill="#c7816f"/>
        <path id="Trazado_1261859" data-name="Trazado 1261859" d="M194.6,221.077a.236.236,0,0,0-.287.163l-.192.991a.233.233,0,0,0,.45.124q.1-.5.192-.991a.238.238,0,0,0-.163-.287" transform="translate(-100.911 -114.926)" fill="#c7816f"/>
        <path id="Trazado_1261860" data-name="Trazado 1261860" d="M184.243,223.414a.239.239,0,0,0-.233.233q-.022.339-.045.677a.235.235,0,0,0,.233.233.239.239,0,0,0,.233-.233q.022-.338.045-.677a.235.235,0,0,0-.233-.233" transform="translate(-95.636 -116.144)" fill="#c7816f"/>
        <path id="Trazado_1261861" data-name="Trazado 1261861" d="M217.187,221.269a.262.262,0,0,0-.139-.107.236.236,0,0,0-.18.024l-.047.036a.232.232,0,0,0-.06.1l-.091.271a.174.174,0,0,0,0,.093.238.238,0,0,0,.167.194.235.235,0,0,0,.18-.024l.047-.036a.232.232,0,0,0,.06-.1l.091-.271a.179.179,0,0,0,0-.093.177.177,0,0,0-.028-.087" transform="translate(-112.634 -114.969)" fill="#c7816f"/>
        <path id="Trazado_1261862" data-name="Trazado 1261862" d="M137.537,160.784c-1.108,2.982-2.075,6.5-3.37,9.408,5.417,2.768,8.065,5.959,13.4,9.011a2.611,2.611,0,0,1,1.755-.629,14.505,14.505,0,0,1,1.826.148,9.427,9.427,0,0,0,3.905-.471.766.766,0,0,1,.079.862,1.518,1.518,0,0,1-.692.553,6.9,6.9,0,0,1-2.454.474c.01.1.05.214.06.314,1.776.426,3.637.748,5.447.994.189.026.24.366.117.511a.782.782,0,0,1-.519.205,16.359,16.359,0,0,1-4.173-.02c1.5.293,3.009.715,4.505,1.009a1.45,1.45,0,0,1,.508.167.493.493,0,0,1,.25.445c-.035.317-.43.436-.748.464a9.7,9.7,0,0,1-4.5-.677c.812.233,1.6.562,2.416.8a8.058,8.058,0,0,1,1.19.409c.272.126.568.362.512.656a.5.5,0,0,1-.364.356,1.354,1.354,0,0,1-.532.015,11.57,11.57,0,0,1-3.409-.92c.663.247,1.372.589,2.035.836a1.183,1.183,0,0,1,.465.259.405.405,0,0,1,.073.491c-.127.178-.392.161-.607.122a24.975,24.975,0,0,1-7.823-3.33c-.814-.47-11.964-4.488-17.775-9.5a7.219,7.219,0,0,1-1.562-2.881c-1.365-3.52.331-7.709,1.317-11.353a1.658,1.658,0,0,1,.542-.986,1.611,1.611,0,0,1,1.015-.181,17.124,17.124,0,0,1,7.118,2.445" transform="translate(-66.04 -82.31)" fill="#c7816f"/>
        <path id="Trazado_1261863" data-name="Trazado 1261863" d="M136.672,130.365c-4.565,1.1-7.6,7.759-8.842,12.948a17.508,17.508,0,0,0,10.12,2.933,26.492,26.492,0,0,0,1.411-8.059,13.445,13.445,0,0,0-2.689-7.822" transform="translate(-66.454 -67.772)" fill="#eaad42"/>
        <path id="Trazado_1261864" data-name="Trazado 1261864" d="M149.7,135.961a17.937,17.937,0,0,0-.946-2.809c-.118-.275-.52-.037-.4.236a17.623,17.623,0,0,1,.418,12.672c-.1.284.351.406.45.124a18.1,18.1,0,0,0,.481-10.223" transform="translate(-77.112 -69.157)" fill="#bd7a35"/>
        <path id="Trazado_1261865" data-name="Trazado 1261865" d="M334.794,291.382c.108-2.8.017-14.242.125-17.042-3.5.1-8.012-.179-11.51-.073-.024,2.58-.357,14.535-.38,17.116-1.924.139-4.81.254-6.733.394a86.3,86.3,0,0,0,11.9,12.464c5.421-2.972,9.44-7.921,13.181-12.842-2.493.044-4.088-.06-6.581-.016" transform="translate(-164.43 -142.568)" fill="#bec320"/>
        <path id="Trazado_1261866" data-name="Trazado 1261866" d="M76.931,282.588c-.108,2.8-.017,14.242-.125,17.042,3.5-.1,8.012.179,11.51.073.023-2.58.357-14.535.38-17.116,1.924-.139,4.81-.254,6.733-.394a86.3,86.3,0,0,0-11.9-12.464c-5.421,2.972-9.44,7.921-13.181,12.842,2.493-.044,4.088.06,6.581.016" transform="translate(-36.572 -140.222)" fill="#5788c3"/>
      </g>
    </g>
  </g>
</svg>
