<svg xmlns="http://www.w3.org/2000/svg" width="76.345" height="76.345" viewBox="0 0 76.345 76.345">
  <g id="Grupo_1204335" data-name="Grupo 1204335" transform="translate(-1078.051 -965)">
    <g id="Grupo_1202988" data-name="Grupo 1202988" transform="translate(56.084 -2127.655)">
      <g id="Grupo_1200255" data-name="Grupo 1200255">
        <g id="Grupo_1187152" data-name="Grupo 1187152">
          <g id="Grupo_1185946" data-name="Grupo 1185946" transform="translate(-3.07)">
            <g id="Grupo_1184280" data-name="Grupo 1184280">
              <g id="Grupo_1182168" data-name="Grupo 1182168">
                <g id="Grupo_1178877" data-name="Grupo 1178877">
                  <g id="Grupo_1111311" data-name="Grupo 1111311">
                    <g id="Grupo_1098742" data-name="Grupo 1098742" transform="translate(1025.482 3093.101)">
                      <rect id="Rect치ngulo_400898" data-name="Rect치ngulo 400898" width="76.345" height="76.345" rx="38.172" transform="translate(-0.445 -0.445)" fill="#ffc94a" opacity="0.859"/>
                      <rect id="Rect치ngulo_400907" data-name="Rect치ngulo 400907" width="76.345" height="76.345" rx="38.172" transform="translate(-0.446 -0.445)" fill="none"/>
                    </g>
                  </g>
                </g>
              </g>
            </g>
          </g>
        </g>
      </g>
    </g>
    <g id="el-ciclo-del-agua" transform="translate(1092.013 979)">
      <g id="Grupo_1204334" data-name="Grupo 1204334" transform="translate(0.774 0.745)">
        <path id="Trazado_1261357" data-name="Trazado 1261357" d="M20.584,63.995,18.35,70.7,16.745,69.09a19.433,19.433,0,0,0-2.68,24.471l1.066,1.633a1.489,1.489,0,1,1-2.494,1.627l-1.066-1.633a22.418,22.418,0,0,1,3.067-28.2l-1.5-1.5,7.445-1.489Z" transform="translate(-7.943 -58.784)" fill="#79cb9c"/>
        <path id="Trazado_1261358" data-name="Trazado 1261358" d="M178.143,319.23l-.882,1.739A22.417,22.417,0,0,1,151.3,332.415l-.549,2.048-5.012-5.7,6.92-1.416-.588,2.193a19.434,19.434,0,0,0,22.532-9.914c.9-1.773.952-2.016,1.378-2.3a1.489,1.489,0,0,1,2.16,1.908Z" transform="translate(-132.918 -288.306)" fill="#79cb9c"/>
        <path id="Trazado_1261359" data-name="Trazado 1261359" d="M228.181,24.24c-2.377,7.028-2.162,6.392-2.433,7.193l-4.686-5.285,2.193-.587A19.432,19.432,0,0,0,203.4,11l-1.948.106a1.489,1.489,0,0,1-.162-2.973l1.948-.106a22.416,22.416,0,0,1,22.891,16.758Z" transform="translate(-182.024 -7.998)" fill="#79cb9c"/>
      </g>
      <path id="Trazado_1261360" data-name="Trazado 1261360" d="M187.575,149.768a7.817,7.817,0,1,1-15.634,0c0-4.317,7.817-13.773,7.817-13.773S187.575,145.45,187.575,149.768Z" transform="translate(-155.906 -123.339)" fill="#c8effd"/>
      <path id="Trazado_1261361" data-name="Trazado 1261361" d="M240.177,149.768a7.823,7.823,0,0,1-10.236,7.434,7.819,7.819,0,0,0,5.4-7.434c0-2.719-3.1-7.477-5.4-10.627,1.348-1.85,2.42-3.145,2.42-3.145S240.177,145.451,240.177,149.768Z" transform="translate(-208.508 -123.339)" fill="#a0e1fd"/>
      <path id="Trazado_1261362" data-name="Trazado 1261362" d="M41.9,64.085l.453-.09-2.233,6.7L38.51,69.09a19.433,19.433,0,0,0-2.68,24.471,10.955,10.955,0,0,1,1.237,1.991A20.852,20.852,0,0,1,41.9,64.085Z" transform="translate(-28.934 -58.039)" fill="#63ac7d"/>
      <path id="Trazado_1261363" data-name="Trazado 1261363" d="M175.983,319.8A20.873,20.873,0,0,1,147,332.677l-1.261-1.434,6.92-1.416-.588,2.193a19.434,19.434,0,0,0,22.532-9.914C175.5,320.332,175.557,320.089,175.983,319.8Z" transform="translate(-132.144 -290.044)" fill="#63ac7d"/>
      <path id="Trazado_1261364" data-name="Trazado 1261364" d="M231.093,52.522l-.2.584-4.686-5.285,2.193-.587A19.432,19.432,0,0,0,208.55,32.679l-1.948.106a1.48,1.48,0,0,1-1.041-.35A20.856,20.856,0,0,1,231.093,52.522Z" transform="translate(-186.397 -28.927)" fill="#63ac7d"/>
      <path id="Trazado_1261365" data-name="Trazado 1261365" d="M13.269,56,5.824,57.493a.745.745,0,0,0-.38,1.256l.976.976A23.2,23.2,0,0,0,3.778,88.333l1.066,1.634a2.233,2.233,0,0,0,3.741-2.441L7.519,85.893A18.709,18.709,0,0,1,9.58,62.886l1.074,1.074a.745.745,0,0,0,1.233-.291l2.233-6.7A.745.745,0,0,0,13.269,56Zm-2.413,6.052L10.1,61.3A.744.744,0,0,0,9.055,61.3a20.2,20.2,0,0,0-2.783,25.41L7.338,88.34a.744.744,0,0,1-1.247.813L5.026,87.52A21.7,21.7,0,0,1,7.991,60.254.745.745,0,0,0,8,59.2L7.48,58.68l4.823-.965Z" transform="translate(0 -50.779)"/>
      <path id="Trazado_1261366" data-name="Trazado 1261366" d="M170.568,309.3a2.232,2.232,0,0,0-3,.982l-.882,1.739a18.709,18.709,0,0,1-20.955,9.718l.393-1.468a.745.745,0,0,0-.868-.922l-6.919,1.416a.745.745,0,0,0-.41,1.221l5.012,5.7a.745.745,0,0,0,1.278-.3l.357-1.334a23.2,23.2,0,0,0,26.1-12.016l.882-1.74a2.233,2.233,0,0,0-.982-3Zm-.346,2.329-.882,1.739a21.7,21.7,0,0,1-25.1,11.065.745.745,0,0,0-.919.525l-.189.7-3.247-3.694,4.482-.917-.276,1.029a.744.744,0,0,0,.518.91,20.2,20.2,0,0,0,23.4-10.295l.882-1.74a.744.744,0,0,1,1.328.673Z" transform="translate(-124.887 -280.299)"/>
      <path id="Trazado_1261367" data-name="Trazado 1261367" d="M220.733,16.268l-1.334.357A23.2,23.2,0,0,0,195.945.034L194,.14a2.233,2.233,0,0,0,.243,4.46l1.947-.106a18.708,18.708,0,0,1,18.894,13.288l-1.468.393a.745.745,0,0,0-.364,1.213l4.686,5.284a.745.745,0,0,0,1.262-.255l2.433-7.192A.745.745,0,0,0,220.733,16.268ZM218.2,22.725,215.163,19.3l1.029-.276a.745.745,0,0,0,.529-.9A20.2,20.2,0,0,0,196.107,3.007l-1.947.106a.744.744,0,0,1-.08-1.486l1.947-.106a21.7,21.7,0,0,1,22.131,16.2.745.745,0,0,0,.914.533l.7-.189Z" transform="translate(-173.995)"/>
      <path id="Trazado_1261368" data-name="Trazado 1261368" d="M181.064,142.514c0-3.886-5.687-11.458-7.988-14.247a.745.745,0,0,0-1.148,0c-2.34,2.836-7.988,10.376-7.988,14.247a8.561,8.561,0,1,0,17.123,0Zm-15.634,0c0-3.053,4.668-9.561,7.072-12.589,2.4,3.028,7.072,9.536,7.072,12.589a7.072,7.072,0,0,1-14.145,0Z" transform="translate(-148.65 -116.085)"/>
    </g>
  </g>
</svg>
