<svg xmlns="http://www.w3.org/2000/svg" width="97.391" height="97.391" viewBox="0 0 97.391 97.391">
  <g id="Grupo_1204338" data-name="Grupo 1204338" transform="translate(-332.051 -2976)">
    <g id="Grupo_1202985" data-name="Grupo 1202985" transform="translate(-689.916 -116.655)">
      <g id="Grupo_1200255" data-name="Grupo 1200255" transform="translate(1021.967 3092.655)">
        <g id="Grupo_1187152" data-name="Grupo 1187152">
          <g id="Grupo_1185946" data-name="Grupo 1185946">
            <g id="Grupo_1184280" data-name="Grupo 1184280" transform="translate(0)">
              <g id="Grupo_1182168" data-name="Grupo 1182168">
                <g id="Grupo_1178877" data-name="Grupo 1178877">
                  <g id="Grupo_1111311" data-name="Grupo 1111311">
                    <g id="Grupo_1098742" data-name="Grupo 1098742" transform="translate(0 0)">
                      <rect id="Rect치ngulo_400898" data-name="Rect치ngulo 400898" width="97.391" height="97.391" rx="48.695" transform="translate(0.001 0)" fill="#ffc94a" opacity="0.859"/>
                      <rect id="Rect치ngulo_400907" data-name="Rect치ngulo 400907" width="97.391" height="97.391" rx="48.695" transform="translate(0 0)" fill="none"/>
                    </g>
                  </g>
                </g>
              </g>
            </g>
          </g>
        </g>
      </g>
    </g>
    <g id="techo" transform="translate(345.051 3005.502)">
      <path id="Trazado_1261369" data-name="Trazado 1261369" d="M7.5,38.076,18.911,11.624a5.225,5.225,0,0,1,1.51-2.019A7.272,7.272,0,0,1,24.985,8H59.11a7.273,7.273,0,0,1,4.565,1.6,5.226,5.226,0,0,1,1.511,2.019L76.6,38.076a11.089,11.089,0,0,0-17.274,0,11.089,11.089,0,0,0-17.274,0,11.089,11.089,0,0,0-17.274,0,11.089,11.089,0,0,0-17.274,0Zm0,0" transform="translate(-6.458 -6.462)" fill="#ea6789"/>
      <path id="Trazado_1261370" data-name="Trazado 1261370" d="M373.609,11.624A5.231,5.231,0,0,0,372.1,9.605a7.318,7.318,0,0,0-6.371-1.376,7.3,7.3,0,0,1,3.88,2.5L379.862,34.5a11.1,11.1,0,0,1,5.158,3.577Zm0,0" transform="translate(-314.882 -6.462)" fill="#c7416a"/>
      <path id="Trazado_1261371" data-name="Trazado 1261371" d="M7.5,198.7a11.089,11.089,0,0,1,17.274,0,11.089,11.089,0,0,1,17.274,0,11.089,11.089,0,0,1,17.274,0,11.089,11.089,0,0,1,17.274,0v3.788a.612.612,0,0,1-1.031.446,11.088,11.088,0,0,0-15.792.588.614.614,0,0,1-.9,0,11.089,11.089,0,0,0-16.371,0,.614.614,0,0,1-.9,0,11.088,11.088,0,0,0-16.37,0,.615.615,0,0,1-.9,0,11.088,11.088,0,0,0-15.792-.588.611.611,0,0,1-1.03-.446Zm0,0" transform="translate(-6.458 -167.091)" fill="#eab875"/>
      <path id="Trazado_1261372" data-name="Trazado 1261372" d="M467.4,198.578v5.348a11.079,11.079,0,0,1,4.128,2.463.611.611,0,0,0,1.03-.446v-3.788A11.1,11.1,0,0,0,467.4,198.578Zm0,0" transform="translate(-402.418 -170.542)" fill="#c68d4e"/>
      <path id="Trazado_1261373" data-name="Trazado 1261373" d="M71.1,31.209l0,0,0,0L59.685,4.748A6.285,6.285,0,0,0,57.869,2.33,8.368,8.368,0,0,0,52.652.5H24.842c-.027,0-.055,0-.081,0H19.787a1.043,1.043,0,1,0,0,2.085h3.724L21.632,11.3a9.786,9.786,0,0,0-10.157-1.236L13.41,5.575a4.215,4.215,0,0,1,1.215-1.626A11.76,11.76,0,0,1,16,3.113,1.043,1.043,0,0,0,15.163,1.2a8.32,8.32,0,0,0-1.824,1.1l-.015.012A6.3,6.3,0,0,0,11.5,4.749L4.149,21.779c-.01.021-.019.042-.027.064L.085,31.2l0,0,0,0A1.037,1.037,0,0,0,0,31.625V35.4a1.654,1.654,0,0,0,2.789,1.2,10.047,10.047,0,0,1,14.307.532,1.657,1.657,0,0,0,2.443,0,10.047,10.047,0,0,1,14.831,0,1.657,1.657,0,0,0,2.443,0,10.047,10.047,0,0,1,14.831,0,1.657,1.657,0,0,0,2.443,0,9.993,9.993,0,0,1,5.11-3,1.043,1.043,0,1,0-.477-2.03A12.058,12.058,0,0,0,52.864,35.4a12.132,12.132,0,0,0-17.274,0,12.131,12.131,0,0,0-17.274,0,12.133,12.133,0,0,0-16.231-.943V31.992a10.054,10.054,0,0,1,15.419.276,1.043,1.043,0,0,0,1.634-.012,10,10,0,0,1,7.814-3.733,9.9,9.9,0,0,1,7.846,3.77c.015.017.027.031.041.045a.928.928,0,0,0,.084.078,1.042,1.042,0,0,0,1.354-.017l.041-.037c.017-.017.029-.029.045-.047s.022-.025.037-.043l0,0a10,10,0,0,1,7.824-3.746A10.152,10.152,0,0,1,52.174,32.4a1.053,1.053,0,0,0,1.485-.106,10.037,10.037,0,0,1,15.437-.3v2.463a12.036,12.036,0,0,0-5.8-2.537,1.043,1.043,0,0,0-.306,2.063,9.973,9.973,0,0,1,5.4,2.626,1.653,1.653,0,0,0,2.788-1.2V31.625A1.027,1.027,0,0,0,71.1,31.209ZM17.711,29.474A12.155,12.155,0,0,0,3.745,27.981l2.239-5.189a8.953,8.953,0,0,1,13.167.007Zm1.956-9.069A11.076,11.076,0,0,0,7.626,18.984l2.241-5.2a7.656,7.656,0,0,1,11.254-.124Zm14.88,8.7A12.15,12.15,0,0,0,20.033,28.6l1.238-5.735a8.952,8.952,0,0,1,13.277-.014Zm0-9.075a11.089,11.089,0,0,0-12.56-.49l1.241-5.754a7.657,7.657,0,0,1,11.319-.049Zm0-9.067a9.8,9.8,0,0,0-10.618-.428l1.715-7.951h8.9Zm18.1-8.378a6.191,6.191,0,0,1,3.912,1.372A4.2,4.2,0,0,1,57.77,5.574l1.936,4.488A9.786,9.786,0,0,0,49.549,11.3l-1.88-8.715Zm-16.019,0h8.9l1.715,7.951a9.8,9.8,0,0,0-10.618.428Zm0,11.152a7.657,7.657,0,0,1,11.319.049l1.241,5.754a11.089,11.089,0,0,0-12.56.49Zm7.593,12.7A12.07,12.07,0,0,0,36.633,29.1V22.85a8.951,8.951,0,0,1,13.277.013L51.147,28.6A12.082,12.082,0,0,0,44.226,26.436Zm5.833-12.772a7.657,7.657,0,0,1,11.255.124l2.241,5.2a11.076,11.076,0,0,0-12.042,1.421Zm3.41,15.809L52.03,22.8A8.953,8.953,0,0,1,65.2,22.792l2.239,5.189A12.147,12.147,0,0,0,53.469,29.474Zm0,0" transform="translate(0)"/>
    </g>
  </g>
</svg>
