<svg xmlns="http://www.w3.org/2000/svg" width="97.391" height="97.391" viewBox="0 0 97.391 97.391">
  <g id="Grupo_1204337" data-name="Grupo 1204337" transform="translate(-751.305 -2975.655)">
    <g id="Grupo_1203291" data-name="Grupo 1203291" transform="translate(-270.662 -117)">
      <g id="Grupo_1200255" data-name="Grupo 1200255" transform="translate(1021.967 3092.655)">
        <g id="Grupo_1187152" data-name="Grupo 1187152">
          <g id="Grupo_1185946" data-name="Grupo 1185946">
            <g id="Grupo_1184280" data-name="Grupo 1184280" transform="translate(0)">
              <g id="Grupo_1182168" data-name="Grupo 1182168">
                <g id="Grupo_1178877" data-name="Grupo 1178877">
                  <g id="Grupo_1111311" data-name="Grupo 1111311">
                    <g id="Grupo_1098742" data-name="Grupo 1098742" transform="translate(0 0)">
                      <rect id="Rect치ngulo_400898" data-name="Rect치ngulo 400898" width="97.391" height="97.391" rx="48.695" transform="translate(0.001 0)" fill="#ffc94a" opacity="0.859"/>
                      <rect id="Rect치ngulo_400907" data-name="Rect치ngulo 400907" width="97.391" height="97.391" rx="48.695" transform="translate(0 0)" fill="none"/>
                    </g>
                  </g>
                </g>
              </g>
            </g>
          </g>
        </g>
      </g>
    </g>
    <g id="variante-de-tuberia" transform="translate(775.521 2994.668)">
      <path id="Trazado_1261374" data-name="Trazado 1261374" d="M37.522,69.5H29.667A8.877,8.877,0,0,1,20.8,60.63V52.719H7.5V60.63A22.192,22.192,0,0,0,29.667,82.8h7.855Z" transform="translate(-4.175 -29.382)" fill="#5b6ea2"/>
      <path id="Trazado_1261375" data-name="Trazado 1261375" d="M7.5,12.688H20.8V25.559H7.5Z" transform="translate(-4.175 -7.098)" fill="#5b6ea2"/>
      <path id="Trazado_1261376" data-name="Trazado 1261376" d="M86.218,90.563H99.089v13.3H86.218Z" transform="translate(-47.994 -50.448)" fill="#5b6ea2"/>
      <path id="Trazado_1261377" data-name="Trazado 1261377" d="M26.526,25.361a.776.776,0,0,1-.776-.776V11.714a.776.776,0,0,1,1.552,0V24.585a.776.776,0,0,1-.776.776Z" transform="translate(-14.334 -6.124)" fill="#4a5983"/>
      <path id="Trazado_1261378" data-name="Trazado 1261378" d="M47.681,73.732H39.826A14.092,14.092,0,0,1,25.75,59.656v-7.91a.776.776,0,0,1,1.552,0v7.91A12.539,12.539,0,0,0,39.826,72.181h7.855a.776.776,0,0,1,0,1.552Z" transform="translate(-14.334 -28.408)" fill="#4a5983"/>
      <path id="Trazado_1261379" data-name="Trazado 1261379" d="M98.115,100.365H85.244a.776.776,0,1,1,0-1.552H98.115a.776.776,0,0,1,0,1.552Z" transform="translate(-47.02 -55.04)" fill="#4a5983"/>
      <g id="Grupo_1204336" data-name="Grupo 1204336" transform="translate(0.776 0.713)">
        <path id="Trazado_1261380" data-name="Trazado 1261380" d="M1.75,1.688h18.4V6.565H1.75Z" transform="translate(-1.75 -1.688)" fill="#86dbd5"/>
        <path id="Trazado_1261381" data-name="Trazado 1261381" d="M1.75,41.719h18.4V46.6H1.75Z" transform="translate(-1.75 -23.972)" fill="#86dbd5"/>
        <path id="Trazado_1261382" data-name="Trazado 1261382" d="M0,0H18.4V4.877H0Z" transform="translate(55.196 36.852) rotate(90)" fill="#86dbd5"/>
        <path id="Trazado_1261383" data-name="Trazado 1261383" d="M0,0H18.4V4.877H0Z" transform="translate(37.448 36.852) rotate(90)" fill="#86dbd5"/>
      </g>
      <path id="Trazado_1261384" data-name="Trazado 1261384" d="M125.276,105.31a.775.775,0,0,0-.776.776v2.33a.776.776,0,0,0,1.552,0v-2.33a.775.775,0,0,0-.776-.776Z" transform="translate(-69.304 -58.657)"/>
      <path id="Trazado_1261385" data-name="Trazado 1261385" d="M55.972,36.79H51.095a.775.775,0,0,0-.776.776v1.773H39V37.566a.775.775,0,0,0-.776-.776H33.347a.775.775,0,0,0-.776.776v1.773H25.492A8.1,8.1,0,0,1,17.4,31.248V24.114h1.773a.776.776,0,0,0,.776-.776V18.461a.776.776,0,0,0-.776-.776H17.4V6.366h1.773a.776.776,0,0,0,.776-.776V.713a.776.776,0,0,0-.776-.776H.776A.776.776,0,0,0,0,.713V5.59a.776.776,0,0,0,.776.776H2.549V17.685H.776A.776.776,0,0,0,0,18.461v4.877a.776.776,0,0,0,.776.776H2.549v7.135a.776.776,0,0,0,1.552,0V24.114h7.315v7.135A14.092,14.092,0,0,0,25.492,45.324h7.079v7.315H25.492A21.4,21.4,0,0,1,5.237,38.13a.776.776,0,0,0-1.471.5A22.951,22.951,0,0,0,25.492,54.191h7.079v1.773a.776.776,0,0,0,.776.776h4.877A.776.776,0,0,0,39,55.964V54.191H50.319v1.773a.776.776,0,0,0,.776.776h4.877a.776.776,0,0,0,.776-.776V53.415a.776.776,0,0,0-1.552,0v1.773H51.871V38.342H55.2v5.431a.776.776,0,0,0,1.552,0V37.566a.775.775,0,0,0-.776-.776Zm-5.653,4.1v2.882H39V40.891ZM15.849,17.685H12.968V6.366h2.882Zm-14.3-16.2H18.4V4.814H1.552ZM4.1,6.366h7.315V17.685H4.1Zm-.776,16.2H1.552V19.237H18.4v3.325ZM25.492,43.773A12.539,12.539,0,0,1,12.968,31.248V24.114h2.882v7.135a9.654,9.654,0,0,0,9.643,9.643h7.079v2.882ZM37.448,55.189H34.123V38.342h3.325ZM39,52.639V45.324H50.319v7.315Z" transform="translate(0)"/>
    </g>
  </g>
</svg>
