<svg xmlns="http://www.w3.org/2000/svg" xmlns:xlink="http://www.w3.org/1999/xlink" width="76.345" height="76.345" viewBox="0 0 76.345 76.345">
  <defs>
    <clipPath id="clip-path">
      <path id="path4029" d="M0-682.665H49.472v49.472H0Z" transform="translate(0 682.665)"/>
    </clipPath>
  </defs>
  <g id="Grupo_1204354" data-name="Grupo 1204354" transform="translate(-761.777 -12311.655)">
    <g id="Grupo_1203921" data-name="Grupo 1203921" transform="translate(-260.189 9219)">
      <g id="Grupo_1200255" data-name="Grupo 1200255">
        <g id="Grupo_1187152" data-name="Grupo 1187152">
          <g id="Grupo_1185946" data-name="Grupo 1185946" transform="translate(-3.07)">
            <g id="Grupo_1184280" data-name="Grupo 1184280">
              <g id="Grupo_1182168" data-name="Grupo 1182168">
                <g id="Grupo_1178877" data-name="Grupo 1178877">
                  <g id="Grupo_1111311" data-name="Grupo 1111311">
                    <g id="Grupo_1098742" data-name="Grupo 1098742" transform="translate(1025.482 3093.101)">
                      <rect id="Rect치ngulo_400898" data-name="Rect치ngulo 400898" width="76.345" height="76.345" rx="38.172" transform="translate(-0.445 -0.445)" fill="#ffc94a" opacity="0.859"/>
                      <rect id="Rect치ngulo_400907" data-name="Rect치ngulo 400907" width="76.345" height="76.345" rx="38.172" transform="translate(-0.446 -0.445)" fill="none"/>
                    </g>
                  </g>
                </g>
              </g>
            </g>
          </g>
        </g>
      </g>
    </g>
    <g id="g4023" transform="translate(775.264 13008.665)">
      <g id="g4025" transform="translate(0 -682.665)">
        <g id="g4027" clip-path="url(#clip-path)">
          <g id="g4033" transform="translate(4.777 12.754)">
            <path id="path4035" d="M-409.5-205.293a16.018,16.018,0,0,1-16,16.04,16.018,16.018,0,0,1-16-16.04,16.018,16.018,0,0,1,16-16.04,16.018,16.018,0,0,1,16,16.04" transform="translate(441.494 221.333)" fill="#97c9e8"/>
          </g>
          <g id="g4037" transform="translate(18.359 12.754)">
            <path id="path4039" d="M-30.918,0a16.084,16.084,0,0,0-2.416.182A16.03,16.03,0,0,1-19.752,16.04,16.03,16.03,0,0,1-33.333,31.9a16.084,16.084,0,0,0,2.416.182,16.018,16.018,0,0,0,16-16.04A16.018,16.018,0,0,0-30.918,0" transform="translate(33.333 0)" fill="#60b6ff"/>
          </g>
          <g id="g4041" transform="translate(15.293 12.787)">
            <path id="path4043" d="M-43.54-79.372c-2.464,1.544-4.313,4.015-2.926,6.795s4.466,1.7,7.316,1.313.693,8.416,2.387,10.578,6.469-2.162,6.007-4.942c-.684-4.116-.924-5.559,4.62-8.493l.015-.006A16.015,16.015,0,0,0-40.459-85.573v.024s-.616,4.633-3.08,6.177" transform="translate(46.941 85.573)" fill="#baeb6c"/>
          </g>
          <g id="g4045" transform="translate(21.776 12.787)">
            <path id="path4047" d="M0,0Z" fill="#baeb6c"/>
          </g>
          <g id="g4049" transform="translate(30.797 16.294)">
            <path id="path4051" d="M0,0,0,0,0,0" fill="#baeb6c"/>
          </g>
          <g id="g4053" transform="translate(32.753 18.165)">
            <path id="path4055" d="M0,0H0" fill="#baeb6c"/>
          </g>
          <g id="g4057" transform="translate(4.777 23.205)">
            <path id="path4059" d="M-68.73-164.432c-.74-1.129,1.309-3.783,1.771-5.791s-2.31-1.853-3.157-2.548-2-3.706-2.849-4.4l-.136-.107a16.042,16.042,0,0,0-1,5.589,16.029,16.029,0,0,0,6.52,12.922l.005-.336a7.384,7.384,0,0,0-1.155-5.328" transform="translate(74.1 177.28)" fill="#baeb6c"/>
          </g>
          <g id="g4061" transform="translate(30.14 32.672)">
            <path id="path4063" d="M-17.138-.768l-.01-.06a15.956,15.956,0,0,1-1.329,3.521A4.677,4.677,0,0,0-17.138-.768" transform="translate(18.477 0.828)" fill="#baeb6c"/>
          </g>
          <g id="g4065" transform="translate(21.591 12.787)">
            <path id="path4067" d="M-2.363,0V.024S-2.416.411-2.548,1A16.046,16.046,0,0,1,7.734,14.534a12.26,12.26,0,0,1,4.226-3.082l.015-.005A16.015,16.015,0,0,0-2.363,0" transform="translate(2.548)" fill="#96d629"/>
          </g>
          <g id="g4069" transform="translate(3.818 0.755)">
            <path id="path4071" d="M-160.437-224.042c-7.736-1.312-12.535-11.052-12.535-11.052s7.744-7.612,15.48-6.3,12.535,11.052,12.535,11.052-7.743,7.612-15.479,6.3" transform="translate(172.972 241.546)" fill="#49cb5c"/>
          </g>
          <g id="g4073" transform="translate(14.92 0.755)">
            <path id="path4075" d="M-56.033-1.944a12.008,12.008,0,0,0-4.378.11C-53-.169-48.426,9.109-48.426,9.109s-5.069,4.982-11.1,6.19c.182.041.365.079.55.11,7.736,1.312,15.48-6.3,15.48-6.3S-48.3-.631-56.033-1.944" transform="translate(60.411 2.095)" fill="#07b128"/>
          </g>
          <g id="g4077" transform="translate(36.477 2.241)">
            <path id="path4079" d="M-7.9-84.013c2.075-4.911,9.266-6.564,9.266-6.564S5.2-84.269,3.12-79.358s-9.266,6.564-9.266,6.564S-9.971-79.1-7.9-84.013" transform="translate(8.513 90.577)" fill="#49cb5c"/>
          </g>
          <g id="g4081" transform="translate(38.165 2.241)">
            <path id="path4083" d="M-104.895,0a19.227,19.227,0,0,0-3.571,1.3c.993,2.1,2.567,6.374,1.07,9.917-1.086,2.569-3.571,4.246-5.695,5.262.383.812.68,1.3.68,1.3s7.191-1.653,9.266-6.564S-104.895,0-104.895,0" transform="translate(113.09)" fill="#07b128"/>
          </g>
          <g id="g4085" transform="translate(0.018 0.004)">
            <path id="path4087" d="M-450.992-307.515c-2.613,1.392-3.892,2.485-4.5,3.819-.652,1.432-.413,2.969-.082,5.1.2,1.254-1.3,3.59-3.25,4.427-.723.309-1.237.273-1.531-.109-.576-.75-.56-3.018-.548-4.84.017-2.521.032-4.7-1.008-5.624a1.708,1.708,0,0,0-1.384-.408c-.456.057-.918.13-1.365.2-2.664.425-4.34.595-5.209-1.191-1.407-2.892,1.441-5.034,2.731-5.82a4.627,4.627,0,0,0,.733-.559,21.074,21.074,0,0,0,8.688-3.385,15.381,15.381,0,0,1,6.722,8.391m-19.665-14.152,6.01,1.171-7.714,5.655a15,15,0,0,1-3.91-2.711Zm.451-1.389-4.263-5.815a16.3,16.3,0,0,1,4.05-1.121l5.9,8.044Zm-5.613-5.2,3.516,4.8-8.459-1.649a28.528,28.528,0,0,1,4.943-3.147m-1.485,9.668A28.207,28.207,0,0,1-481-323.683l8.4,1.638Zm7.33,4.534c-.256-.05-.509-.111-.758-.181l8.021-5.88,6.6,1.287c-2.406,1.9-8.261,5.872-13.867,4.773m26.132.413a19.3,19.3,0,0,1-2.218.939l2.183-5.22,5.557-2.293a7.012,7.012,0,0,1-.484,1.832c-.982,2.323-3.282,3.862-5.039,4.743m-4.643-8.834a6.88,6.88,0,0,1,.809-1.407l2.344,5.681-2.1,5.031a19.351,19.351,0,0,1-.939-2.386c-.592-1.874-1.092-4.595-.111-6.918m8.664-5.145a19.324,19.324,0,0,1,.906,2.317,13.828,13.828,0,0,1,.656,3.494l-4.826,1.991Zm-4.721,7.532-2.06-4.991a13.565,13.565,0,0,1,3.155-2.14,19.329,19.329,0,0,1,2.29-.964ZM-479.6-305.849a9.028,9.028,0,0,0,1.579,2.432,4.153,4.153,0,0,0,1.451.644c1.416.435,1.581.649,1.445,1.209a12.667,12.667,0,0,1-.958,2.306c-.748,1.531-1.455,2.977-.785,4.022a6.894,6.894,0,0,1,1.1,3.845,15.445,15.445,0,0,1-4.466-15.628c.213.365.437.79.638,1.169m42.062-19.927a19.922,19.922,0,0,0-1.724-3.924.739.739,0,0,0-.782-.33,19.928,19.928,0,0,0-4.016,1.5,11.532,11.532,0,0,0-5.755,5.49,10.632,10.632,0,0,0-.331,6.454,20.558,20.558,0,0,0-3.864-3.363,29.959,29.959,0,0,0-3.358-5.148.725.725,0,0,0-1.125.914,28.977,28.977,0,0,1,2.674,3.933l-6.6-1.287-6.272-8.555a10.269,10.269,0,0,1,1.828.187,12.516,12.516,0,0,1,5.661,2.918.725.725,0,0,0,.94-1.1,13.939,13.939,0,0,0-6.323-3.237c-3.32-.65-7.193.2-11.2,2.467a28.942,28.942,0,0,0-5.068,3.62.767.767,0,0,0-.086.995,29.584,29.584,0,0,0,3.25,5.1,22.659,22.659,0,0,0,3.426,3.521q-.506.424-.984.89a16.708,16.708,0,0,0-3.852,5.762,16.741,16.741,0,0,0-1.183,6.027,16.651,16.651,0,0,0,2.876,9.571,16.73,16.73,0,0,0,7.579,6.138.725.725,0,0,0,.545-1.343,15.294,15.294,0,0,1-3.135-1.724,8.164,8.164,0,0,0-1.231-5.716c-.23-.358.457-1.763.868-2.6a13.609,13.609,0,0,0,1.064-2.6,1.983,1.983,0,0,0-.705-2.172,5.343,5.343,0,0,0-1.723-.764,3.687,3.687,0,0,1-.946-.371,9.636,9.636,0,0,1-1.227-2,12.388,12.388,0,0,0-1.324-2.177,15.414,15.414,0,0,1,4.575-6.027,12.672,12.672,0,0,0,6.107,2.269c-2.561,1.985-3.39,4.518-2.205,6.953,1.383,2.842,4.229,2.388,6.74,1.988.435-.069.884-.141,1.315-.194.161-.02.21.023.243.052.549.489.534,2.825.522,4.531-.016,2.36-.031,4.588.848,5.733a2.212,2.212,0,0,0,1.82.882,3.657,3.657,0,0,0,1.431-.323c2.186-.936,4.458-3.753,4.111-5.982-.3-1.949-.5-3.236-.031-4.274.437-.961,1.493-1.85,3.573-2.984a15.286,15.286,0,0,1,.362,3.486,15.2,15.2,0,0,1-4.6,10.769,15.389,15.389,0,0,1-12.392,4.271.725.725,0,0,0-.159,1.441,16.846,16.846,0,0,0,13.564-4.676,16.638,16.638,0,0,0,5.035-11.789,16.752,16.752,0,0,0-7.613-14.215c.957-.683,1.671-1.273,2.066-1.616a19.267,19.267,0,0,1,4.434,4.444,19.109,19.109,0,0,1,3.343,14.338,19.257,19.257,0,0,1-22.114,15.844,19.112,19.112,0,0,1-12.5-7.775,19.109,19.109,0,0,1-3.343-14.338.725.725,0,0,0-1.43-.236,20.549,20.549,0,0,0,3.595,15.418,20.551,20.551,0,0,0,13.445,8.361,20.948,20.948,0,0,0,3.415.281,20.535,20.535,0,0,0,12-3.876,20.549,20.549,0,0,0,8.361-13.444,20.54,20.54,0,0,0-1.437-11.626,20.9,20.9,0,0,0,3.341-1.316,11.531,11.531,0,0,0,5.755-5.49,11.531,11.531,0,0,0-.074-7.953" transform="translate(486.228 331.542)"/>
          </g>
        </g>
      </g>
    </g>
  </g>
</svg>
