<svg xmlns="http://www.w3.org/2000/svg" width="76.345" height="76.345" viewBox="0 0 76.345 76.345">
  <g id="Grupo_1204363" data-name="Grupo 1204363" transform="translate(-771.051 -12740)">
    <g id="Grupo_1204358" data-name="Grupo 1204358" transform="translate(219 428)">
      <g id="Grupo_1203920" data-name="Grupo 1203920" transform="translate(-469.916 9219.345)">
        <g id="Grupo_1200255" data-name="Grupo 1200255">
          <g id="Grupo_1187152" data-name="Grupo 1187152">
            <g id="Grupo_1185946" data-name="Grupo 1185946" transform="translate(-3.07)">
              <g id="Grupo_1184280" data-name="Grupo 1184280">
                <g id="Grupo_1182168" data-name="Grupo 1182168">
                  <g id="Grupo_1178877" data-name="Grupo 1178877">
                    <g id="Grupo_1111311" data-name="Grupo 1111311">
                      <g id="Grupo_1098742" data-name="Grupo 1098742" transform="translate(1025.482 3093.101)">
                        <rect id="Rect치ngulo_400898" data-name="Rect치ngulo 400898" width="76.345" height="76.345" rx="38.172" transform="translate(-0.445 -0.445)" fill="#ffc94a" opacity="0.859"/>
                        <rect id="Rect치ngulo_400907" data-name="Rect치ngulo 400907" width="76.345" height="76.345" rx="38.172" transform="translate(-0.446 -0.445)" fill="none"/>
                      </g>
                    </g>
                  </g>
                </g>
              </g>
            </g>
          </g>
        </g>
      </g>
    </g>
    <g id="Layer_2" data-name="Layer 2" transform="translate(781.746 12753.232)">
      <g id="Bi">
        <path id="Trazado_1261431" data-name="Trazado 1261431" d="M49.53,26.7c5.83-2.41,8-10,1.12-12.55-4.82-1.66-9.84.75-14,3.82a6.38,6.38,0,0,0-2-2.53A9,9,0,0,0,33,3.11l1.7-1.69L33.27,0l-2,2a9,9,0,0,0-7.56,0l-2-2L20.25,1.42,22,3.11a9,9,0,0,0-1.58,12.33,6.38,6.38,0,0,0-2,2.53c-4.2-3.07-9.22-5.48-14-3.82-7.03,2.53-4.84,10.14.99,12.55-3.62,2.58-5.2,6.71-3.56,9.73a6.57,6.57,0,0,0,6,3c3.73,0,7.05-2.11,9.91-4.85v7.25a6.54,6.54,0,0,0,6.53,6.52h2.19v5.53h2V48.4h2.19a6.54,6.54,0,0,0,6.53-6.52V34.63c2.86,2.74,6.18,4.87,9.91,4.85a6.57,6.57,0,0,0,6-3C54.73,33.41,53.15,29.28,49.53,26.7ZM17.75,31.77a23.36,23.36,0,0,1-5.45,4.51c-8.51,4.38-13-3.75-4.71-8.58.1-.05.2-.11.3-.15a25.31,25.31,0,0,0,9.86.19Zm0-6.09a22.73,22.73,0,0,1-10.07-.26,9,9,0,0,1-4.59-3c-3-3.72.48-7,4.51-6.86,3.53.06,6.78,1.93,9.86,4.19l.33.26C17.76,20.26,17.75,25.68,17.75,25.68ZM23.38,4.54a6.87,6.87,0,0,1,8.18,0,6.94,6.94,0,0,1,1.22,9.94,6.46,6.46,0,0,0-2.12-.35c-1.58.09-7.08-.28-8.5.35a6.87,6.87,0,0,1,1.22-9.94ZM30.66,46.4H24.28a4.54,4.54,0,0,1-4.53-4.67H35.19a4.54,4.54,0,0,1-4.53,4.67Zm4.53-6.67H19.75V32.26H35.19Zm0-9.47H19.75V22.8H35.19ZM19.75,20.8a4.447,4.447,0,0,1,2.02-3.89,4.45,4.45,0,0,1,2.41-.77h6.58a4.495,4.495,0,0,1,4.44,4.65Zm17.41-.74.33-.26C41.19,17.07,45.7,14.59,50,16c5.94,2.26,1.92,8.3-2.72,9.38a22.73,22.73,0,0,1-10.07.26c-.02-1.43-.01-3.98-.05-5.58Zm14.17,15.4c-1.3,2.37-5.2,2.73-8.69.82a23.36,23.36,0,0,1-5.45-4.51v-4a25.31,25.31,0,0,0,9.86-.19c.1,0,.2.1.3.15C50.84,29.62,52.63,33.1,51.33,35.46Z" fill="#1d1d1b"/>
        <path id="Trazado_1261432" data-name="Trazado 1261432" d="M35.19,41.73a4.54,4.54,0,0,1-4.53,4.67H24.28a4.54,4.54,0,0,1-4.53-4.67Z" fill="#fbe186"/>
        <path id="Trazado_1261433" data-name="Trazado 1261433" d="M19.75,32.26H35.19v7.47H19.75Z" fill="#1d1d1b"/>
        <path id="Trazado_1261434" data-name="Trazado 1261434" d="M19.75,22.8H35.19v7.46H19.75Z" fill="#fbe186"/>
        <path id="Trazado_1261435" data-name="Trazado 1261435" d="M35.19,20.8H19.75a4.447,4.447,0,0,1,2.02-3.89,4.45,4.45,0,0,1,2.41-.77h6.58a4.463,4.463,0,0,1,4.43,4.66Z" fill="#1d1d1b"/>
        <path id="Trazado_1261436" data-name="Trazado 1261436" d="M17.75,27.74v4a23.36,23.36,0,0,1-5.45,4.51c-8.51,4.38-13-3.75-4.71-8.58.1-.05.2-.11.3-.15A25.31,25.31,0,0,0,17.75,27.74Z" fill="#ecf6fe"/>
        <path id="Trazado_1261437" data-name="Trazado 1261437" d="M17.78,20.06v5.62a22.73,22.73,0,0,1-10.07-.26,9,9,0,0,1-4.59-3c-3-3.72.48-7,4.51-6.86,3.53.06,6.78,1.93,9.86,4.19Z" fill="#ecf6fe"/>
        <path id="Trazado_1261438" data-name="Trazado 1261438" d="M32.78,14.48a6.46,6.46,0,0,0-2.12-.35c-1.58.09-7.08-.28-8.5.35a6.89,6.89,0,1,1,10.62,0Z" fill="#fbe186"/>
        <g id="Grupo_1204362" data-name="Grupo 1204362">
          <path id="Trazado_1261439" data-name="Trazado 1261439" d="M51.33,35.46c-1.3,2.37-5.2,2.73-8.69.82a23.36,23.36,0,0,1-5.45-4.51v-4a25.31,25.31,0,0,0,9.86-.19c.1,0,.2.1.3.15C50.84,29.62,52.63,33.1,51.33,35.46Z" fill="#ecf6fe"/>
          <path id="Trazado_1261440" data-name="Trazado 1261440" d="M47.27,25.42a22.73,22.73,0,0,1-10.07.26c0-1.47,0-4,0-5.62l.33-.26C41.19,17.07,45.7,14.59,50,16c5.93,2.3,1.91,8.34-2.73,9.42Z" fill="#ecf6fe"/>
        </g>
      </g>
    </g>
  </g>
</svg>
