<svg xmlns="http://www.w3.org/2000/svg" width="76.345" height="76.345" viewBox="0 0 76.345 76.345">
  <g id="Grupo_1204364" data-name="Grupo 1204364" transform="translate(-1086.051 -12740)">
    <g id="Grupo_1204359" data-name="Grupo 1204359" transform="translate(534 428)">
      <g id="Grupo_1203920" data-name="Grupo 1203920" transform="translate(-469.916 9219.345)">
        <g id="Grupo_1200255" data-name="Grupo 1200255">
          <g id="Grupo_1187152" data-name="Grupo 1187152">
            <g id="Grupo_1185946" data-name="Grupo 1185946" transform="translate(-3.07)">
              <g id="Grupo_1184280" data-name="Grupo 1184280">
                <g id="Grupo_1182168" data-name="Grupo 1182168">
                  <g id="Grupo_1178877" data-name="Grupo 1178877">
                    <g id="Grupo_1111311" data-name="Grupo 1111311">
                      <g id="Grupo_1098742" data-name="Grupo 1098742" transform="translate(1025.482 3093.101)">
                        <rect id="Rect치ngulo_400898" data-name="Rect치ngulo 400898" width="76.345" height="76.345" rx="38.172" transform="translate(-0.445 -0.445)" fill="#ffc94a" opacity="0.859"/>
                        <rect id="Rect치ngulo_400907" data-name="Rect치ngulo 400907" width="76.345" height="76.345" rx="38.172" transform="translate(-0.446 -0.445)" fill="none"/>
                      </g>
                    </g>
                  </g>
                </g>
              </g>
            </g>
          </g>
        </g>
      </g>
    </g>
    <g id="grillo" transform="translate(1096.051 12660.799)">
      <path id="Trazado_1261441" data-name="Trazado 1261441" d="M118.05,269.448l3.28,2.9a1.232,1.232,0,0,1-.238,2.007c-8.341,4.566-26.9,5.612-40.78,2.177v-9.844Z" transform="translate(-71.347 -147.901)" fill="#afd755"/>
      <path id="Trazado_1261442" data-name="Trazado 1261442" d="M121.27,272.534l.061-.186-3.28-2.9-37.737-2.759v9.844c1.278.316,2.6.594,3.941.835a33.765,33.765,0,0,0,3.764-5.454,1.783,1.783,0,0,1,1.848-.9,152.37,152.37,0,0,0,23.682,1.666C116.415,272.679,119.034,272.617,121.27,272.534Z" transform="translate(-71.347 -147.9)" fill="#8cc846"/>
      <path id="Trazado_1261443" data-name="Trazado 1261443" d="M63.613,219.44l3.692,3.915c16.24,4.111,35.924,3.35,43.578,2.914a.61.61,0,0,0,.275-1.136A59.5,59.5,0,0,0,63.613,219.44Z" transform="translate(-56.511 -103.635)" fill="#d4f582"/>
      <path id="Trazado_1261444" data-name="Trazado 1261444" d="M18.239,242.225c0,4.448-2.685,8.949-5.37,8.949s-5.37-4.5-5.37-8.949,2.4-6.265,5.37-6.265S18.239,237.776,18.239,242.225Z" transform="translate(-6.663 -120.602)" fill="#afd755"/>
      <path id="Trazado_1261445" data-name="Trazado 1261445" d="M181.616,178.96,164.681,198.2a1.1,1.1,0,0,0,.212,1.645c1.583,1.044,4.722,2.559,7.052.148,1.067-1.1,8.065-11.777,12.479-18.563a2.145,2.145,0,0,0,.217-1.906h0A1.79,1.79,0,0,0,181.616,178.96Z" transform="translate(-146.049 -69.426)" fill="#bee86e"/>
      <path id="Trazado_1261446" data-name="Trazado 1261446" d="M41.8,273.395h0a2.237,2.237,0,0,1-2.237-2.237v-.895a2.237,2.237,0,0,1,2.237-2.237h0a2.237,2.237,0,0,1,2.237,2.237v.895A2.237,2.237,0,0,1,41.8,273.395Z" transform="translate(-35.148 -149.088)" fill="#4b3f4e"/>
      <path id="Trazado_1261447" data-name="Trazado 1261447" d="M63.613,268.428v2.64a.895.895,0,0,0,1.79,0v-.447A2.238,2.238,0,0,0,63.613,268.428Z" transform="translate(-56.511 -149.446)" fill="#5d5360"/>
      <circle id="Elipse_12825" data-name="Elipse 12825" cx="0.895" cy="0.895" r="0.895" transform="translate(6.206 119.832)" fill="#fff"/>
      <path id="Trazado_1261448" data-name="Trazado 1261448" d="M9.29,246.322a7.909,7.909,0,0,1,.583-3.142c-1.431.922-2.373,2.675-2.373,5.459,0,4.448,2.685,8.949,5.37,8.949a4.1,4.1,0,0,0,2.99-1.8C12.552,255.653,9.29,250.965,9.29,246.322Z" transform="translate(-6.663 -127.016)" fill="#8cc846"/>
      <path id="Trazado_1261449" data-name="Trazado 1261449" d="M38.214,264.046a.837.837,0,0,0-1.675,0v.448a1.4,1.4,0,0,1-2.8,0v-.9a1.4,1.4,0,0,1,1.4-1.4.837.837,0,1,0,0-1.675,3.078,3.078,0,0,0-3.075,3.075v.9a3.075,3.075,0,0,0,6.149,0Z" transform="translate(-28.485 -142.424)"/>
      <path id="Trazado_1261450" data-name="Trazado 1261450" d="M56.77,121.809a60.215,60.215,0,0,0-15.553-6.957l-1.85-5.067a2.627,2.627,0,0,0-4.429-.8l-3.455,3.926A61.041,61.041,0,0,0,7.594,114.65a7.307,7.307,0,0,0-1.387-.13q-.172,0-.34.007a13.449,13.449,0,0,1-1.11-7.693,5.6,5.6,0,0,1,1.152-2.524.837.837,0,0,0-1.189-1.179c-.147.147-3.242,3.358-1.068,10.222A9.859,9.859,0,0,1,1.675,107.3c0-4.01,1.536-5.663,1.545-5.673a.837.837,0,0,0-1.184-1.184C1.952,100.529,0,102.536,0,107.3a11.426,11.426,0,0,0,3.087,7.962,5.307,5.307,0,0,0-1.28.976A7.487,7.487,0,0,0,0,121.622,13.152,13.152,0,0,0,1.8,128.2c1.223,2.042,2.831,3.214,4.41,3.214a4.66,4.66,0,0,0,3.361-1.776c.176.039.494.107.942.195l-2.075,3.459a.058.058,0,0,1-.049.028H3.522a.837.837,0,0,0,0,1.675H8.385a1.741,1.741,0,0,0,1.486-.841l2.4-4c.6.1,1.289.215,2.05.328v2.778a.058.058,0,0,1-.058.058h-1.79a.837.837,0,0,0,0,1.675h1.79a1.734,1.734,0,0,0,1.732-1.732v-2.545c.679.088,1.4.175,2.16.257a11.3,11.3,0,0,0,2.188,1.192,6.96,6.96,0,0,0,2.578.543,4.783,4.783,0,0,0,3.229-1.217q.864.017,1.712.019A56.99,56.99,0,0,0,44.7,129.26l1.462,4a2.636,2.636,0,0,0,2.468,1.726h5.013a.837.837,0,0,0,0-1.675H48.626a.956.956,0,0,1-.895-.626l-1.447-3.961a32.435,32.435,0,0,0,5.351-2.466.837.837,0,0,0,.114-1.368l-1.5-1.245q3.042-.105,6.123-.3a.837.837,0,0,0,.394-1.544Zm-17.529-7.486q-.559-.14-1.122-.269l.656-1.007ZM17.175,129.171c-1.029-.124-1.977-.255-2.827-.383a27.143,27.143,0,0,0,4.068-6.749c1.318.205,2.814.415,4.49.614C22.907,122.653,17.184,129.16,17.175,129.171Zm-6.53-1.025a13.158,13.158,0,0,0,1.768-6.523c0-.248-.008-.488-.022-.724.886.207,2.331.519,4.323.862a25.98,25.98,0,0,1-4.3,6.714C11.68,128.347,11.084,128.233,10.646,128.146Zm13.609-7.024c-3.912-.433-6.957-.938-9.055-1.344.893-.257,1.889-.568,2.9-.928,4.044-1.448,6.346-2.989,7-4.692,1.605.027,3.288.117,5.031.288Zm-1.079-6.967c-1.564,1.892-6.931,3.77-11.11,4.715a6.134,6.134,0,0,0-1.458-2.628,5.28,5.28,0,0,0-.57-.51A60.989,60.989,0,0,1,23.176,114.154ZM6.207,129.734c-.962,0-2.074-.9-2.973-2.4a11.428,11.428,0,0,1-1.559-5.713c0-3.5,1.61-5.427,4.532-5.427s4.532,1.928,4.532,5.427a11.429,11.429,0,0,1-1.559,5.713C8.281,128.837,7.169,129.734,6.207,129.734ZM21,130.619a9.642,9.642,0,0,1-1.937-1.061L36.2,110.087a.953.953,0,0,1,1.6.282l.259.71c-3.3,5.079-11.538,17.643-12.763,18.911C24.2,131.121,22.795,131.327,21,130.619Zm17.67-1.654a64.364,64.364,0,0,1-11.131.863c1.057-1.449,2.672-3.818,4.385-6.378,1.828.11,3.7.194,5.583.248h.025a.837.837,0,0,0,.024-1.674c-1.528-.044-3.054-.108-4.554-.189,1.474-2.217,2.948-4.46,4.14-6.283q1.41.308,2.8.683l2.142,5.864c-.321,0-.643,0-.963-.006H41.11a.837.837,0,0,0-.008,1.675c.528.005,1.06.007,1.592.008l1.425,3.9A44.225,44.225,0,0,1,38.668,128.965ZM49.737,125.4a31.64,31.64,0,0,1-4.029,1.75l-1.233-3.377q1.613-.011,3.247-.049Zm-5.872-3.3-1.931-5.287a58.455,58.455,0,0,1,11.619,5.021C50.281,122,47.04,122.087,43.865,122.1Z"/>
    </g>
  </g>
</svg>
