<svg xmlns="http://www.w3.org/2000/svg" xmlns:xlink="http://www.w3.org/1999/xlink" width="97.391" height="97.391" viewBox="0 0 97.391 97.391">
  <defs>
    <clipPath id="clip-path">
      <path id="path9258" d="M0-682.665H48.927v48.927H0Z" transform="translate(0 682.665)"/>
    </clipPath>
  </defs>
  <g id="Grupo_1204350" data-name="Grupo 1204350" transform="translate(-751.305 -6182.702)">
    <g id="Grupo_1203438" data-name="Grupo 1203438" transform="translate(-270.662 3090.047)">
      <g id="Grupo_1200255" data-name="Grupo 1200255" transform="translate(1021.967 3092.655)">
        <g id="Grupo_1187152" data-name="Grupo 1187152">
          <g id="Grupo_1185946" data-name="Grupo 1185946">
            <g id="Grupo_1184280" data-name="Grupo 1184280" transform="translate(0)">
              <g id="Grupo_1182168" data-name="Grupo 1182168">
                <g id="Grupo_1178877" data-name="Grupo 1178877">
                  <g id="Grupo_1111311" data-name="Grupo 1111311">
                    <g id="Grupo_1098742" data-name="Grupo 1098742" transform="translate(0 0)">
                      <rect id="Rectángulo_400898" data-name="Rectángulo 400898" width="97.391" height="97.391" rx="48.695" transform="translate(0.001 0)" fill="#ffc94a" opacity="0.859"/>
                      <rect id="Rectángulo_400907" data-name="Rectángulo 400907" width="97.391" height="97.391" rx="48.695" transform="translate(0 0)" fill="none"/>
                    </g>
                  </g>
                </g>
              </g>
            </g>
          </g>
        </g>
      </g>
    </g>
    <g id="g9252" transform="translate(765.073 6880.056)">
      <g id="g9254" transform="translate(0 -682.665)">
        <g id="g9256" clip-path="url(#clip-path)">
          <g id="g9262" transform="translate(22.88 0.717)">
            <path id="path9264" d="M0-61.517a1.583,1.583,0,0,0,1.583,1.583,1.583,1.583,0,0,0,1.583-1.583v-3.166a1.583,1.583,0,0,0-1.583-1.583A1.583,1.583,0,0,0,0-64.683Z" transform="translate(0 66.267)" fill="#ffd900"/>
          </g>
          <g id="g9266" transform="translate(22.88 41.878)">
            <path id="path9268" d="M0-61.517a1.583,1.583,0,0,0,1.583,1.583,1.583,1.583,0,0,0,1.583-1.583v-3.166a1.583,1.583,0,0,0-1.583-1.583A1.583,1.583,0,0,0,0-64.683Z" transform="translate(0 66.267)" fill="#ffd900"/>
          </g>
          <g id="g9270" transform="translate(41.878 22.88)">
            <path id="path9272" d="M-20.5,0a1.583,1.583,0,0,0-1.583,1.583A1.583,1.583,0,0,0-20.5,3.166h3.166a1.583,1.583,0,0,0,1.583-1.583A1.583,1.583,0,0,0-17.339,0Z" transform="translate(22.088)" fill="#ffd900"/>
          </g>
          <g id="g9274" transform="translate(0.717 22.88)">
            <path id="path9276" d="M-20.506,0a1.583,1.583,0,0,0-1.583,1.583,1.583,1.583,0,0,0,1.583,1.583h3.166a1.583,1.583,0,0,0,1.583-1.583A1.583,1.583,0,0,0-17.34,0Z" transform="translate(22.089)" fill="#ffd900"/>
          </g>
          <g id="g9278" transform="translate(10.215 10.215)">
            <path id="path9280" d="M-369.1-184.552A14.248,14.248,0,0,1-383.351-170.3,14.248,14.248,0,0,1-397.6-184.552,14.248,14.248,0,0,1-383.351-198.8,14.248,14.248,0,0,1-369.1-184.552" transform="translate(397.599 198.8)" fill="#ffd900"/>
          </g>
          <g id="g9282" transform="translate(36.313 7.208)">
            <path id="path9284" d="M-6.006-35.005a1.583,1.583,0,0,0,0,2.239,1.583,1.583,0,0,0,2.239,0l2.239-2.239a1.583,1.583,0,0,0,0-2.239,1.583,1.583,0,0,0-2.239,0Z" transform="translate(6.47 37.708)" fill="#ffd900"/>
          </g>
          <g id="g9286" transform="translate(7.208 36.313)">
            <path id="path9288" d="M-6.006-35.005a1.583,1.583,0,0,0,0,2.239,1.583,1.583,0,0,0,2.239,0l2.239-2.239a1.583,1.583,0,0,0,0-2.239,1.583,1.583,0,0,0-2.239,0Z" transform="translate(6.47 37.708)" fill="#ffd900"/>
          </g>
          <g id="g9290" transform="translate(36.313 36.313)">
            <path id="path9292" d="M-35.005-6.006a1.583,1.583,0,0,0-2.239,0,1.583,1.583,0,0,0,0,2.239l2.239,2.239a1.583,1.583,0,0,0,2.239,0,1.583,1.583,0,0,0,0-2.239Z" transform="translate(37.708 6.47)" fill="#ffd900"/>
          </g>
          <g id="g9294" transform="translate(7.208 7.208)">
            <path id="path9296" d="M-35.005-6.006a1.583,1.583,0,0,0-2.239,0,1.583,1.583,0,0,0,0,2.239l2.239,2.239a1.583,1.583,0,0,0,2.239,0,1.583,1.583,0,0,0,0-2.239Z" transform="translate(37.708 6.47)" fill="#ffd900"/>
          </g>
          <g id="g9298" transform="translate(23.364 10.215)">
            <path id="path9300" d="M-14.234,0q-.555,0-1.1.042A14.249,14.249,0,0,1-2.184,14.248,14.249,14.249,0,0,1-15.333,28.454q.544.041,1.1.042A14.248,14.248,0,0,0,.014,14.248,14.248,14.248,0,0,0-14.234,0" transform="translate(15.333)" fill="#fb0"/>
          </g>
          <g id="g9302" transform="translate(3.268 22.88)">
            <path id="path9304" d="M-28.469,0h-2.2a1.583,1.583,0,0,1,1.583,1.583,1.583,1.583,0,0,1-1.583,1.583h2.2a1.583,1.583,0,0,0,1.583-1.583A1.583,1.583,0,0,0-28.469,0" transform="translate(30.667)" fill="#fb0"/>
          </g>
          <g id="g9306" transform="translate(44.429 22.88)">
            <path id="path9308" d="M-28.469,0h-2.2a1.583,1.583,0,0,1,1.583,1.583,1.583,1.583,0,0,1-1.583,1.583h2.2a1.583,1.583,0,0,0,1.583-1.583A1.583,1.583,0,0,0-28.469,0" transform="translate(30.667)" fill="#fb0"/>
          </g>
          <g id="g9310" transform="translate(23.364 0.717)">
            <path id="path9312" d="M-14.234,0a1.576,1.576,0,0,0-1.1.445,1.578,1.578,0,0,1,.484,1.138V4.749a1.577,1.577,0,0,1-.484,1.138,1.576,1.576,0,0,0,1.1.445,1.583,1.583,0,0,0,1.583-1.583V1.583A1.583,1.583,0,0,0-14.234,0" transform="translate(15.333)" fill="#fb0"/>
          </g>
          <g id="g9314" transform="translate(23.364 41.878)">
            <path id="path9316" d="M-14.234,0a1.576,1.576,0,0,0-1.1.445,1.578,1.578,0,0,1,.484,1.138V4.749a1.577,1.577,0,0,1-.484,1.138,1.576,1.576,0,0,0,1.1.445,1.583,1.583,0,0,0,1.583-1.583V1.583A1.583,1.583,0,0,0-14.234,0" transform="translate(15.333)" fill="#fb0"/>
          </g>
          <g id="g9318" transform="translate(36.798 7.209)">
            <path id="path9320" d="M-57.733-6a1.582,1.582,0,0,0-2.218-.019l.02.019a1.583,1.583,0,0,1,0,2.239L-62.17-1.522l-.02.019a1.582,1.582,0,0,0,2.218-.019l2.239-2.239a1.583,1.583,0,0,0,0-2.239" transform="translate(62.191 6.462)" fill="#fb0"/>
          </g>
          <g id="g9322" transform="translate(36.798 36.314)">
            <path id="path9324" d="M-57.733-35l-2.239-2.239a1.582,1.582,0,0,0-2.218-.018l.02.018L-59.931-35a1.583,1.583,0,0,1,0,2.239l-.02.019a1.582,1.582,0,0,0,2.218-.019,1.583,1.583,0,0,0,0-2.239" transform="translate(62.191 37.701)" fill="#fb0"/>
          </g>
          <g id="g9326" transform="translate(7.695 7.209)">
            <path id="path9328" d="M-57.7-35l-2.239-2.239a1.582,1.582,0,0,0-2.216-.021l.023.021L-59.9-35a1.583,1.583,0,0,1,0,2.239l-.023.021A1.582,1.582,0,0,0-57.7-32.76,1.583,1.583,0,0,0-57.7-35" transform="translate(62.157 37.701)" fill="#fb0"/>
          </g>
          <g id="g9330" transform="translate(7.695 36.314)">
            <path id="path9332" d="M-57.7-6a1.582,1.582,0,0,0-2.216-.021L-59.9-6a1.583,1.583,0,0,1,0,2.239l-2.239,2.239-.023.021a1.582,1.582,0,0,0,2.216-.021L-57.7-3.76A1.583,1.583,0,0,0-57.7-6" transform="translate(62.157 6.462)" fill="#fb0"/>
          </g>
          <g id="g9334" transform="translate(22.164 0)">
            <path id="path9336" d="M-7.7-68.5A2.3,2.3,0,0,1-10-70.8v-3.166a2.3,2.3,0,0,1,2.3-2.3,2.3,2.3,0,0,1,2.3,2.3V-70.8A2.3,2.3,0,0,1-7.7-68.5Zm0-6.332a.867.867,0,0,0-.866.866V-70.8a.867.867,0,0,0,.866.866.867.867,0,0,0,.866-.866v-3.166A.867.867,0,0,0-7.7-74.833Z" transform="translate(10 76.266)"/>
          </g>
          <g id="g9338" transform="translate(22.164 41.161)">
            <path id="path9340" d="M-7.7-68.5A2.3,2.3,0,0,1-10-70.8v-3.166a2.3,2.3,0,0,1,2.3-2.3,2.3,2.3,0,0,1,2.3,2.3V-70.8A2.3,2.3,0,0,1-7.7-68.5Zm0-6.332a.867.867,0,0,0-.866.866V-70.8a.867.867,0,0,0,.866.866.867.867,0,0,0,.866-.866v-3.166A.867.867,0,0,0-7.7-74.833Z" transform="translate(10 76.266)"/>
          </g>
          <g id="g9342" transform="translate(41.161 22.164)">
            <path id="path9344" d="M-29.788-10h3.166a2.3,2.3,0,0,1,2.3,2.3,2.3,2.3,0,0,1-2.3,2.3h-3.166a2.3,2.3,0,0,1-2.3-2.3A2.3,2.3,0,0,1-29.788-10Zm3.166,3.166a.867.867,0,0,0,.866-.866.867.867,0,0,0-.866-.866h-3.166a.867.867,0,0,0-.866.866.867.867,0,0,0,.866.866Z" transform="translate(32.088 10)"/>
          </g>
          <g id="g9346" transform="translate(0 22.164)">
            <path id="path9348" d="M-29.789-10h3.166a2.3,2.3,0,0,1,2.3,2.3,2.3,2.3,0,0,1-2.3,2.3h-3.166a2.3,2.3,0,0,1-2.3-2.3A2.3,2.3,0,0,1-29.789-10Zm3.166,3.166a.867.867,0,0,0,.866-.866.867.867,0,0,0-.866-.866h-3.166a.867.867,0,0,0-.866.866.867.867,0,0,0,.866.866Z" transform="translate(32.089 10)"/>
          </g>
          <g id="g9350" transform="translate(9.499 9.499)">
            <path id="path9352" d="M-67.38-25.467A14.982,14.982,0,0,1-82.345-40.431a15,15,0,0,1,3.338-9.422.717.717,0,0,1,1.008-.1.717.717,0,0,1,.1,1.008,13.56,13.56,0,0,0-3.018,8.519A13.547,13.547,0,0,0-67.38-26.9,13.547,13.547,0,0,0-53.849-40.431,13.547,13.547,0,0,0-67.38-53.962a13.551,13.551,0,0,0-8.607,3.09.717.717,0,0,1-1.009-.1.717.717,0,0,1,.1-1.009A14.987,14.987,0,0,1-67.38-55.4,14.982,14.982,0,0,1-52.416-40.431,14.982,14.982,0,0,1-67.38-25.467Z" transform="translate(82.345 55.396)"/>
          </g>
          <g id="g9354" transform="translate(35.598 6.492)">
            <path id="path9356" d="M-11.917-47.708a2.285,2.285,0,0,1,1.626.674,2.3,2.3,0,0,1,0,3.252l-2.239,2.239a2.285,2.285,0,0,1-1.626.674,2.285,2.285,0,0,1-1.626-.674,2.3,2.3,0,0,1,0-3.252l2.239-2.239A2.285,2.285,0,0,1-11.917-47.708ZM-14.156-42.3a.861.861,0,0,0,.613-.254L-11.3-44.8a.867.867,0,0,0,0-1.225.861.861,0,0,0-.613-.254.861.861,0,0,0-.613.254l-2.239,2.239a.861.861,0,0,0-.254.613.861.861,0,0,0,.254.613A.861.861,0,0,0-14.156-42.3Z" transform="translate(16.455 47.708)"/>
          </g>
          <g id="g9358" transform="translate(6.493 35.597)">
            <path id="path9360" d="M-11.917-47.708a2.285,2.285,0,0,1,1.626.674,2.3,2.3,0,0,1,0,3.252l-2.239,2.239a2.285,2.285,0,0,1-1.626.674,2.285,2.285,0,0,1-1.626-.674,2.3,2.3,0,0,1,0-3.252l2.239-2.239A2.285,2.285,0,0,1-11.917-47.708ZM-14.156-42.3a.861.861,0,0,0,.613-.254L-11.3-44.8a.867.867,0,0,0,0-1.225.861.861,0,0,0-.613-.254.861.861,0,0,0-.613.254l-2.239,2.239a.861.861,0,0,0-.254.613.861.861,0,0,0,.254.613A.861.861,0,0,0-14.156-42.3Z" transform="translate(16.455 47.708)"/>
          </g>
          <g id="g9362" transform="translate(35.598 35.597)">
            <path id="path9364" d="M-45.393-16.47a2.285,2.285,0,0,1,1.626.674l2.239,2.239a2.285,2.285,0,0,1,.674,1.626,2.285,2.285,0,0,1-.674,1.626,2.285,2.285,0,0,1-1.626.674,2.285,2.285,0,0,1-1.626-.674l-2.239-2.239a2.3,2.3,0,0,1,0-3.252A2.285,2.285,0,0,1-45.393-16.47Zm2.239,5.405a.861.861,0,0,0,.613-.254.861.861,0,0,0,.254-.613.861.861,0,0,0-.254-.613l-2.239-2.239a.861.861,0,0,0-.613-.254.861.861,0,0,0-.613.254.868.868,0,0,0,0,1.225l2.239,2.239A.861.861,0,0,0-43.154-11.065Z" transform="translate(47.692 16.47)"/>
          </g>
          <g id="g9366" transform="translate(6.493 6.492)">
            <path id="path9368" d="M-45.393-16.47a2.285,2.285,0,0,1,1.626.674l2.239,2.239a2.285,2.285,0,0,1,.674,1.626,2.285,2.285,0,0,1-.674,1.626,2.285,2.285,0,0,1-1.626.674,2.285,2.285,0,0,1-1.626-.674l-2.239-2.239a2.3,2.3,0,0,1,0-3.252A2.285,2.285,0,0,1-45.393-16.47Zm2.239,5.405a.861.861,0,0,0,.613-.254.861.861,0,0,0,.254-.613.861.861,0,0,0-.254-.613l-2.239-2.239a.861.861,0,0,0-.613-.254.861.861,0,0,0-.613.254.868.868,0,0,0,0,1.225l2.239,2.239A.861.861,0,0,0-43.154-11.065Z" transform="translate(47.692 16.47)"/>
          </g>
          <g id="g9370" transform="translate(15.871 4.733)">
            <path id="path9372" d="M-17.133-27.514a.717.717,0,0,1-.662-.443l-.606-1.463a.717.717,0,0,1,.388-.936.717.717,0,0,1,.936.388l.606,1.463a.717.717,0,0,1-.388.936A.715.715,0,0,1-17.133-27.514Z" transform="translate(18.456 30.411)"/>
          </g>
          <g id="g9374" transform="translate(31.017 41.299)">
            <path id="path9376" d="M-17.133-27.514a.717.717,0,0,1-.662-.443l-.606-1.463a.717.717,0,0,1,.388-.936.717.717,0,0,1,.936.388l.606,1.463a.717.717,0,0,1-.388.936A.715.715,0,0,1-17.133-27.514Z" transform="translate(18.456 30.411)"/>
          </g>
          <g id="g9378" transform="translate(4.734 15.873)">
            <path id="path9380" d="M-28.231-16.416a.714.714,0,0,1-.274-.055l-1.463-.606a.717.717,0,0,1-.388-.936.717.717,0,0,1,.936-.388l1.463.606a.717.717,0,0,1,.388.936A.717.717,0,0,1-28.231-16.416Z" transform="translate(30.411 18.456)"/>
          </g>
          <g id="g9382" transform="translate(41.299 31.018)">
            <path id="path9384" d="M-28.231-16.416a.714.714,0,0,1-.274-.055l-1.463-.606a.717.717,0,0,1-.388-.936.717.717,0,0,1,.936-.388l1.463.606a.717.717,0,0,1,.388.936A.717.717,0,0,1-28.231-16.416Z" transform="translate(30.411 18.456)"/>
          </g>
          <g id="g9386" transform="translate(4.735 31.018)">
            <path id="path9388" d="M-29.693-7.963a.717.717,0,0,1-.662-.443.717.717,0,0,1,.388-.936l1.463-.606a.717.717,0,0,1,.936.388.717.717,0,0,1-.388.936l-1.463.606A.715.715,0,0,1-29.693-7.963Z" transform="translate(30.411 10.003)"/>
          </g>
          <g id="g9390" transform="translate(41.301 15.873)">
            <path id="path9392" d="M-29.693-7.963a.717.717,0,0,1-.662-.443.717.717,0,0,1,.388-.936l1.463-.606a.717.717,0,0,1,.936.388.717.717,0,0,1-.388.936l-1.463.606A.715.715,0,0,1-29.693-7.963Z" transform="translate(30.411 10.003)"/>
          </g>
          <g id="g9394" transform="translate(15.875 41.299)">
            <path id="path9396" d="M-17.739-7.106a.714.714,0,0,1-.274-.055A.717.717,0,0,1-18.4-8.1L-17.8-9.56a.717.717,0,0,1,.936-.388.717.717,0,0,1,.388.936l-.606,1.463A.717.717,0,0,1-17.739-7.106Z" transform="translate(18.456 10.003)"/>
          </g>
          <g id="g9398" transform="translate(31.02 4.733)">
            <path id="path9400" d="M-17.739-7.106a.714.714,0,0,1-.274-.055A.717.717,0,0,1-18.4-8.1L-17.8-9.56a.717.717,0,0,1,.936-.388.717.717,0,0,1,.388.936l-.606,1.463A.717.717,0,0,1-17.739-7.106Z" transform="translate(18.456 10.003)"/>
          </g>
        </g>
      </g>
    </g>
    <g id="agua" transform="translate(645.082 6197.391)">
      <path id="Trazado_1261408" data-name="Trazado 1261408" d="M152.063,60.934l10.648-13.842H169.1l10.648,13.842Z" transform="translate(-6.951 -40.836)" fill="#baf0ff"/>
      <g id="Grupo_1204346" data-name="Grupo 1204346" transform="translate(145.112 6.256)">
        <path id="Trazado_1261409" data-name="Trazado 1261409" d="M162.711,47.092,152.063,60.934h2.8l10.648-13.842Z" transform="translate(-152.063 -47.092)" fill="#8adeff"/>
        <path id="Trazado_1261410" data-name="Trazado 1261410" d="M219.887,49.222l1.638-2.13h6.389l1.638,2.13Z" transform="translate(-210.877 -47.092)" fill="#8adeff"/>
        <path id="Trazado_1261411" data-name="Trazado 1261411" d="M179.748,137.394H152.063l1.638-2.13h24.408Z" transform="translate(-152.063 -123.551)" fill="#8adeff"/>
        <path id="Trazado_1261412" data-name="Trazado 1261412" d="M179.747,160.878V151.3H152.062v9.583a4.259,4.259,0,0,0,4.259,4.259h-.532a3.727,3.727,0,0,0-3.727,3.727h0a3.727,3.727,0,0,0,3.727,3.727,3.727,3.727,0,0,0-3.727,3.727h0a3.727,3.727,0,0,0,3.727,3.727h.532a4.259,4.259,0,0,0-4.259,4.259v8.518a4.259,4.259,0,0,0,4.259,4.259h5.7a4.242,4.242,0,0,0,2.816,1.065h2.13a4.242,4.242,0,0,0,2.816-1.065h5.7a4.259,4.259,0,0,0,4.259-4.259V184.3a4.259,4.259,0,0,0-4.259-4.259h.532a3.727,3.727,0,0,0,3.727-3.727h0a3.727,3.727,0,0,0-3.727-3.727,3.727,3.727,0,0,0,3.727-3.727h0a3.727,3.727,0,0,0-3.727-3.727h-.532A4.259,4.259,0,0,0,179.747,160.878Z" transform="translate(-152.062 -137.453)" fill="#8adeff"/>
      </g>
      <g id="Grupo_1204347" data-name="Grupo 1204347" transform="translate(145.112 20.098)">
        <path id="Trazado_1261413" data-name="Trazado 1261413" d="M154.725,192.821V184.3a4.259,4.259,0,0,1,4.259-4.259h-.532a3.727,3.727,0,1,1,0-7.454,3.727,3.727,0,1,1,0-7.454h.532a4.259,4.259,0,0,1-4.259-4.259v-9.583h-2.662v9.583a4.259,4.259,0,0,0,4.259,4.259h-.532a3.727,3.727,0,1,0,0,7.454,3.727,3.727,0,1,0,0,7.454h.532a4.259,4.259,0,0,0-4.259,4.259v8.518a4.259,4.259,0,0,0,4.259,4.259h2.662A4.259,4.259,0,0,1,154.725,192.821Z" transform="translate(-152.063 -151.294)" fill="#2fb6eb"/>
        <path id="Trazado_1261414" data-name="Trazado 1261414" d="M229.716,495.969h-2.662a4.242,4.242,0,0,0,2.816,1.065H232c.089,0,.178,0,.266-.009A4.242,4.242,0,0,1,229.716,495.969Z" transform="translate(-217.092 -450.182)" fill="#2fb6eb"/>
        <path id="Trazado_1261415" data-name="Trazado 1261415" d="M175.488,367.718H156.321a4.259,4.259,0,0,0-4.259,4.259V380.5a4.259,4.259,0,0,0,4.259,4.259h5.7a4.242,4.242,0,0,0,2.816,1.065h2.13a4.242,4.242,0,0,0,2.816-1.065h5.7a4.259,4.259,0,0,0,4.259-4.259v-8.518A4.259,4.259,0,0,0,175.488,367.718Z" transform="translate(-152.062 -338.968)" fill="#2fb6eb"/>
        <path id="Trazado_1261416" data-name="Trazado 1261416" d="M176.02,262.953H155.789a3.727,3.727,0,0,1-3.727-3.727h0a3.727,3.727,0,0,1,3.727-3.727H176.02a3.727,3.727,0,0,1,3.727,3.727h0A3.727,3.727,0,0,1,176.02,262.953Z" transform="translate(-152.062 -241.656)" fill="#2fb6eb"/>
      </g>
      <path id="Trazado_1261417" data-name="Trazado 1261417" d="M154.725,380.5v-8.518a4.259,4.259,0,0,1,4.259-4.259h-2.662a4.259,4.259,0,0,0-4.259,4.259V380.5a4.259,4.259,0,0,0,4.259,4.259h2.662A4.259,4.259,0,0,1,154.725,380.5Z" transform="translate(-6.951 -318.87)" fill="#0097c6"/>
      <path id="Trazado_1261418" data-name="Trazado 1261418" d="M229.716,495.969h-2.662a4.242,4.242,0,0,0,2.816,1.065H232c.089,0,.178,0,.266-.009A4.242,4.242,0,0,1,229.716,495.969Z" transform="translate(-71.98 -430.084)" fill="#00a1d3"/>
      <path id="Trazado_1261419" data-name="Trazado 1261419" d="M154.725,259.226a3.727,3.727,0,0,1,3.727-3.727H155.79a3.727,3.727,0,1,0,0,7.454h2.662A3.727,3.727,0,0,1,154.725,259.226Z" transform="translate(-6.951 -221.558)" fill="#0097c6"/>
      <rect id="Rectángulo_411683" data-name="Rectángulo 411683" width="12.778" height="5.324" transform="translate(152.566 0.932)" fill="#ff6243"/>
      <g id="Grupo_1204348" data-name="Grupo 1204348" transform="translate(152.566 0.932)">
        <rect id="Rectángulo_411684" data-name="Rectángulo 411684" width="2.13" height="5.324" fill="#d80027"/>
        <rect id="Rectángulo_411685" data-name="Rectángulo 411685" width="12.778" height="2.13" transform="translate(0 3.194)" fill="#d80027"/>
      </g>
      <path id="Trazado_1261420" data-name="Trazado 1261420" d="M173.778,45.121a4.711,4.711,0,0,0-1.817-3.727,4.693,4.693,0,0,0-.206-7.587,5.222,5.222,0,0,0,1.974-4.126V19.759L164.176,7.321h2.1V0H151.5V7.321h2.232l-9.685,12.438v9.923a5.279,5.279,0,0,0,2.038,4.126,4.723,4.723,0,0,0-.154,7.587,4.743,4.743,0,0,0,.152,7.587,5.277,5.277,0,0,0-2.036,4.126v8.518a5.378,5.378,0,0,0,5.324,5.324h5.324v-.088a5.288,5.288,0,0,0,3.194,1.152h2.13a5.287,5.287,0,0,0,3.194-1.152v.088h5.324a5.264,5.264,0,0,0,5.191-5.324V53.107a5.22,5.22,0,0,0-1.972-4.126A4.737,4.737,0,0,0,173.778,45.121ZM153.5,5.324V2h10.781V5.324Zm2.754,2h5.406l9.112,11.846h-23.63M169.07,42.459a2.729,2.729,0,1,1,0,5.457h-2.662v2h2.13a3.152,3.152,0,0,1,3.194,3.194v8.518a3.266,3.266,0,0,1-3.194,3.328h-3.743a6.02,6.02,0,0,0,.482-2.263h-2a3.322,3.322,0,0,1-3.261,3.328h-2.13a3.322,3.322,0,0,1-3.261-3.328h-2a6.022,6.022,0,0,0,.482,2.263h-3.743a3.38,3.38,0,0,1-3.327-3.328V53.107a3.266,3.266,0,0,1,3.327-3.194h10.648v-2h-11.18a2.729,2.729,0,1,1,0-5.457h11.18v-2h-11.18a2.729,2.729,0,1,1,0-5.457h11.18v-2H149.371a3.38,3.38,0,0,1-3.327-3.328V21.163h25.688v8.518a3.266,3.266,0,0,1-3.194,3.328h-2.13v2h2.662a2.729,2.729,0,0,1,0,5.457h-2.662v2Z"/>
      <g id="Grupo_1204349" data-name="Grupo 1204349" transform="translate(151.501 12.711)">
        <rect id="Rectángulo_411686" data-name="Rectángulo 411686" width="2.13" height="1.996" transform="translate(0 2.13)" fill="#fff"/>
        <rect id="Rectángulo_411687" data-name="Rectángulo 411687" width="2.13" height="1.996" transform="translate(2.13)" fill="#fff"/>
        <rect id="Rectángulo_411688" data-name="Rectángulo 411688" width="2.13" height="1.996" transform="translate(10.648 27.685)" fill="#fff"/>
        <rect id="Rectángulo_411689" data-name="Rectángulo 411689" width="2.13" height="1.996" transform="translate(10.648 20.231)" fill="#fff"/>
        <rect id="Rectángulo_411690" data-name="Rectángulo 411690" width="2.13" height="1.996" transform="translate(10.648 35.138)" fill="#fff"/>
      </g>
    </g>
  </g>
</svg>
