<svg xmlns="http://www.w3.org/2000/svg" width="97.391" height="97.391" viewBox="0 0 97.391 97.391">
  <g id="Grupo_1204352" data-name="Grupo 1204352" transform="translate(-1171.051 -6183)">
    <g id="Grupo_1203439" data-name="Grupo 1203439" transform="translate(149.084 3090.345)">
      <g id="Grupo_1200255" data-name="Grupo 1200255" transform="translate(1021.967 3092.655)">
        <g id="Grupo_1187152" data-name="Grupo 1187152">
          <g id="Grupo_1185946" data-name="Grupo 1185946">
            <g id="Grupo_1184280" data-name="Grupo 1184280" transform="translate(0)">
              <g id="Grupo_1182168" data-name="Grupo 1182168">
                <g id="Grupo_1178877" data-name="Grupo 1178877">
                  <g id="Grupo_1111311" data-name="Grupo 1111311">
                    <g id="Grupo_1098742" data-name="Grupo 1098742" transform="translate(0 0)">
                      <rect id="Rect치ngulo_400898" data-name="Rect치ngulo 400898" width="97.391" height="97.391" rx="48.695" transform="translate(0.001 0)" fill="#ffc94a" opacity="0.859"/>
                      <rect id="Rect치ngulo_400907" data-name="Rect치ngulo 400907" width="97.391" height="97.391" rx="48.695" transform="translate(0 0)" fill="none"/>
                    </g>
                  </g>
                </g>
              </g>
            </g>
          </g>
        </g>
      </g>
    </g>
    <g id="Page-1" transform="translate(1184.049 6202)">
      <g id="_018---Boiling-Water" data-name="018---Boiling-Water" transform="translate(0.002)">
        <path id="Shape" d="M57.624,21.33c0,1.834-1.381,3.536-4,4.905C49.362,24,42.087,22.52,33.812,22.52S18.263,24,14,26.235c-2.619-1.369-4-3.06-4-4.905,0-4.489,8.239-8.144,22.622-8.3C48.469,12.841,57.624,16.591,57.624,21.33Z" transform="translate(1.904 2.483)" fill="#707070"/>
        <path id="Shape-2" data-name="Shape" d="M57.624,20V33.978l-1.286.429a2.381,2.381,0,0,0,.75,4.643,2.055,2.055,0,0,0,.536-.06V45c0,4.608-8.691,8.334-23.812,8.334S10,49.61,10,45V38.99a2.055,2.055,0,0,0,.536.06,2.381,2.381,0,0,0,.75-4.643L10,33.978V20c0,1.845,1.381,3.536,4,4.905,3.953,2.084,10.715,3.429,19.812,3.429s15.859-1.345,19.812-3.429c2.619-1.369,4-3.072,4-4.905Z" transform="translate(1.904 3.812)" fill="#9e9e9e"/>
        <path id="Shape-3" data-name="Shape" d="M52.812,34.406l1.286-.429V20c0,1.728-1.241,3.334-3.572,4.66v9.318l-1.286.429a2.381,2.381,0,0,0,.75,4.643,2.055,2.055,0,0,0,.536-.06V45c0,4.421-8.02,8.021-22.026,8.307.6.012,1.174.027,1.786.027C45.407,53.337,54.1,49.61,54.1,45V38.99a2.055,2.055,0,0,1-.536.06,2.381,2.381,0,0,1-.75-4.643Z" transform="translate(5.43 3.812)" fill="#707070"/>
        <path id="Shape-4" data-name="Shape" d="M14.514,36.847a2.381,2.381,0,0,1-2.262,1.631,2.055,2.055,0,0,1-.536-.06,1.586,1.586,0,0,1-.226-.06L5.715,36.43A6.891,6.891,0,0,1,7.894,23h3.822v4.762H7.894a2.127,2.127,0,0,0-.679,4.143l4.5,1.5L13,33.835a2.391,2.391,0,0,1,1.512,3.012Z" transform="translate(0.188 4.384)" fill="#cfd8dc"/>
        <path id="Shape-5" data-name="Shape" d="M60.66,32.525a6.906,6.906,0,0,1-4.191,3.905l-5.774,1.929a1.586,1.586,0,0,1-.226.06,2.055,2.055,0,0,1-.536.06,2.381,2.381,0,0,1-.75-4.643l1.286-.429,4.5-1.5a2.127,2.127,0,0,0-.679-4.143H50.468V23H54.29a6.889,6.889,0,0,1,6.37,9.525Z" transform="translate(9.06 4.384)" fill="#cfd8dc"/>
        <path id="Shape-6" data-name="Shape" d="M52.983,24.715c-3.953,2.084-10.715,3.429-19.812,3.429S17.313,26.8,13.36,24.715C17.622,22.476,24.9,21,33.172,21s15.549,1.476,19.812,3.715Z" transform="translate(2.544 4.003)" fill="#02a9f4"/>
        <path id="Shape-7" data-name="Shape" d="M24.963,45.871a1.2,1.2,0,0,1-.145-.008c-6.9-.833-10.532-2.594-11.549-3.843A1.191,1.191,0,0,1,13,41.267V39.191a1.191,1.191,0,0,1,2.381,0v1.567c.982.735,4.081,2.055,9.725,2.738a1.191,1.191,0,0,1-.143,2.372Z" transform="translate(2.476 7.243)" fill="#f5f5f5"/>
        <g id="Grupo_1204351" data-name="Grupo 1204351" transform="translate(26.191)">
          <path id="Shape-8" data-name="Shape" d="M25.572,21.431a1.191,1.191,0,0,1-1.191-1.191c0-.67-.258-.952-.842-1.548a4.147,4.147,0,0,1,0-6.45c.583-.585.842-.872.842-1.542s-.258-.952-.842-1.537a4.14,4.14,0,0,1,0-6.442c.583-.579.842-.863.842-1.531a1.191,1.191,0,1,1,2.381,0,4.241,4.241,0,0,1-1.539,3.222c-.583.588-.842.868-.842,1.541s.258.952.842,1.537a4.143,4.143,0,0,1,0,6.446c-.583.585-.842.872-.842,1.548s.258.952.842,1.541a4.247,4.247,0,0,1,1.539,3.216A1.191,1.191,0,0,1,25.572,21.431Z" transform="translate(-22)" fill="#f44335"/>
          <path id="Shape-9" data-name="Shape" d="M31.572,21.431a1.191,1.191,0,0,1-1.191-1.191c0-.67-.258-.952-.842-1.548a4.147,4.147,0,0,1,0-6.45c.583-.585.842-.872.842-1.542s-.258-.952-.842-1.537a4.14,4.14,0,0,1,0-6.442c.583-.579.842-.863.842-1.531a1.191,1.191,0,1,1,2.381,0,4.241,4.241,0,0,1-1.539,3.222c-.583.588-.842.868-.842,1.541s.258.952.842,1.537a4.143,4.143,0,0,1,0,6.446c-.583.585-.842.872-.842,1.548s.258.952.842,1.541a4.247,4.247,0,0,1,1.539,3.216A1.191,1.191,0,0,1,31.572,21.431Z" transform="translate(-20.856)" fill="#f44335"/>
          <path id="Shape-10" data-name="Shape" d="M37.572,21.431a1.191,1.191,0,0,1-1.191-1.191c0-.67-.258-.952-.842-1.548a4.147,4.147,0,0,1,0-6.45c.583-.585.842-.872.842-1.542s-.258-.952-.842-1.537a4.14,4.14,0,0,1,0-6.442c.583-.579.842-.863.842-1.531a1.191,1.191,0,1,1,2.381,0,4.241,4.241,0,0,1-1.539,3.222c-.583.588-.842.868-.842,1.541s.258.952.842,1.537a4.143,4.143,0,0,1,0,6.446c-.583.585-.842.872-.842,1.548s.258.952.842,1.541a4.247,4.247,0,0,1,1.539,3.216A1.191,1.191,0,0,1,37.572,21.431Z" transform="translate(-19.713)" fill="#f44335"/>
        </g>
        <circle id="Oval" cx="1.191" cy="1.191" r="1.191" transform="translate(30.954 51.196)" fill="#f5f5f5"/>
        <path id="Shape-11" data-name="Shape" d="M5.526,39.5l5.189,1.729v5.145c0,5.786,9.814,9.525,25,9.525s25-3.739,25-9.525V41.228l5.189-1.73A8.081,8.081,0,0,0,63.354,23.75H60.721V21.369c0-3.921-4.626-7.025-12.688-8.53a1.335,1.335,0,0,0-.218-.019H47.8a1.191,1.191,0,0,0-.179,2.366c6.614,1.232,10.715,3.6,10.715,6.183,0,1.238-.966,2.478-2.827,3.572-4.636-2.242-11.961-3.572-19.8-3.572s-15.159,1.33-19.8,3.572c-1.861-1.094-2.827-2.334-2.827-3.572,0-2.448,3.774-4.747,9.849-6a1.191,1.191,0,1,0-.476-2.332C15,14.582,10.715,17.615,10.715,21.369V23.75H8.081A8.082,8.082,0,0,0,5.526,39.5ZM63.354,26.131a5.7,5.7,0,0,1,1.8,11.107l-5.782,1.928a1.2,1.2,0,0,1-1.507-.752,1.191,1.191,0,0,1,.752-1.506L64.4,34.98a3.319,3.319,0,0,0-1.05-6.467H60.721V26.131Zm-2.634,4.762h2.634a.937.937,0,0,1,.866,1.3.9.9,0,0,1-.569.53l-2.93.976Zm-25-7.144a50.86,50.86,0,0,1,16.859,2.529c-3.8,1.338-9.446,2.234-16.859,2.234s-13.061-.9-16.859-2.234A50.86,50.86,0,0,1,35.718,23.75Zm0,7.144c8.93,0,15.985-1.3,20.3-3.543a1.2,1.2,0,0,0,.173-.092,12.557,12.557,0,0,0,2.153-1.429v8.66l-.476.157a3.572,3.572,0,0,0,.476,6.895v4.829c0,3.549-7.77,7.144-22.622,7.144S13.1,49.921,13.1,46.371V41.542a3.572,3.572,0,0,0,.476-6.895L13.1,34.49V25.83C16.868,29,24.925,30.893,35.718,30.893Zm-25,2.8-2.93-.976a.937.937,0,0,1-.542-1.31.918.918,0,0,1,.833-.518h2.638ZM2.983,29.281a5.671,5.671,0,0,1,5.1-3.15h2.634v2.381H8.081a3.319,3.319,0,0,0-1.05,6.467l5.784,1.928a1.191,1.191,0,0,1,.752,1.506,1.207,1.207,0,0,1-1.506.752L6.279,37.238a5.7,5.7,0,0,1-3.3-7.957Z" transform="translate(-0.002 2.444)"/>
      </g>
    </g>
  </g>
</svg>
