<svg xmlns="http://www.w3.org/2000/svg" xmlns:xlink="http://www.w3.org/1999/xlink" width="76.345" height="76.345" viewBox="0 0 76.345 76.345">
  <defs>
    <clipPath id="clip-path">
      <path id="path5356" d="M0-682.665H49.52v49.52H0Z" transform="translate(0 682.665)"/>
    </clipPath>
  </defs>
  <g id="Grupo_1204373" data-name="Grupo 1204373" transform="translate(-762.051 -13740)">
    <g id="Grupo_1203932" data-name="Grupo 1203932" transform="translate(-259.916 10647.345)">
      <g id="Grupo_1200255" data-name="Grupo 1200255">
        <g id="Grupo_1187152" data-name="Grupo 1187152">
          <g id="Grupo_1185946" data-name="Grupo 1185946" transform="translate(-3.07)">
            <g id="Grupo_1184280" data-name="Grupo 1184280">
              <g id="Grupo_1182168" data-name="Grupo 1182168">
                <g id="Grupo_1178877" data-name="Grupo 1178877">
                  <g id="Grupo_1111311" data-name="Grupo 1111311">
                    <g id="Grupo_1098742" data-name="Grupo 1098742" transform="translate(1025.482 3093.101)">
                      <rect id="Rect치ngulo_400898" data-name="Rect치ngulo 400898" width="76.345" height="76.345" rx="38.172" transform="translate(-0.445 -0.445)" fill="#ffe9b5" opacity="0.859"/>
                      <rect id="Rect치ngulo_400907" data-name="Rect치ngulo 400907" width="76.345" height="76.345" rx="38.172" transform="translate(-0.446 -0.445)" fill="none"/>
                    </g>
                  </g>
                </g>
              </g>
            </g>
          </g>
        </g>
      </g>
    </g>
    <g id="g5346" transform="translate(776.051 14431.665)">
      <path id="path5348" d="M0-168.179H49.52v-13.154H0Z" transform="translate(0 -464.966)" fill="#d29380"/>
      <path id="path5350" d="M0-179.012H49.52v-2.321H0Z" transform="translate(0 -464.966)" fill="#c0694e"/>
      <g id="g5352" transform="translate(0 -682.665)">
        <g id="g5354" clip-path="url(#clip-path)">
          <g id="g5360" transform="translate(9.285 26.307)">
            <path id="path5362" d="M0-79.143H0a6.19,6.19,0,0,1,6.19-6.19h0A6.19,6.19,0,0,1,0-79.143" transform="translate(0 85.333)" fill="#52cd8d"/>
          </g>
          <g id="g5364" transform="translate(8.56 25.582)">
            <path id="path5366" d="M-9.275-87.692H-10v-.725a6.923,6.923,0,0,1,6.915-6.915h.725v.725A6.923,6.923,0,0,1-9.275-87.692Zm5.409-6.134A5.478,5.478,0,0,0-8.494-89.2,5.478,5.478,0,0,0-3.866-93.827Z" transform="translate(10 95.333)"/>
          </g>
          <g id="g5368" transform="translate(3.095 26.307)">
            <path id="path5370" d="M-79.143-79.143h0a6.19,6.19,0,0,0-6.19-6.19h0a6.19,6.19,0,0,0,6.19,6.19" transform="translate(85.333 85.333)" fill="#8edf78"/>
          </g>
          <g id="g5372" transform="translate(2.37 25.582)">
            <path id="path5374" d="M-87.692-87.692h-.725a6.923,6.923,0,0,1-6.915-6.915v-.725h.725a6.923,6.923,0,0,1,6.915,6.915Zm-6.134-6.134A5.478,5.478,0,0,0-89.2-89.2,5.478,5.478,0,0,0-93.827-93.827Z" transform="translate(95.333 95.333)"/>
          </g>
          <g id="g5376" transform="translate(9.285 18.57)">
            <path id="path5378" d="M0-79.143H0a6.19,6.19,0,0,1,6.19-6.19h0A6.19,6.19,0,0,1,0-79.143" transform="translate(0 85.333)" fill="#52cd8d"/>
          </g>
          <g id="g5380" transform="translate(8.56 17.844)">
            <path id="path5382" d="M-9.275-87.692H-10v-.725a6.923,6.923,0,0,1,6.915-6.915h.725v.725A6.923,6.923,0,0,1-9.275-87.692Zm5.409-6.134A5.478,5.478,0,0,0-8.494-89.2,5.478,5.478,0,0,0-3.866-93.827Z" transform="translate(10 95.333)"/>
          </g>
          <g id="g5384" transform="translate(3.095 18.57)">
            <path id="path5386" d="M-79.143-79.143h0a6.19,6.19,0,0,0-6.19-6.19h0a6.19,6.19,0,0,0,6.19,6.19" transform="translate(85.333 85.333)" fill="#8edf78"/>
          </g>
          <g id="g5388" transform="translate(2.37 17.844)">
            <path id="path5390" d="M-87.692-87.692h-.725a6.923,6.923,0,0,1-6.915-6.915v-.725h.725a6.923,6.923,0,0,1,6.915,6.915Zm-6.134-6.134A5.478,5.478,0,0,0-89.2-89.2,5.478,5.478,0,0,0-93.827-93.827Z" transform="translate(95.333 95.333)"/>
          </g>
          <g id="g5392" transform="translate(9.285 10.832)">
            <path id="path5394" d="M0-79.143H0a6.19,6.19,0,0,1,6.19-6.19h0A6.19,6.19,0,0,1,0-79.143" transform="translate(0 85.333)" fill="#52cd8d"/>
          </g>
          <g id="g5396" transform="translate(8.56 10.107)">
            <path id="path5398" d="M-9.275-87.692H-10v-.725a6.923,6.923,0,0,1,6.915-6.915h.725v.725A6.923,6.923,0,0,1-9.275-87.692Zm5.409-6.134A5.478,5.478,0,0,0-8.494-89.2,5.478,5.478,0,0,0-3.866-93.827Z" transform="translate(10 95.333)"/>
          </g>
          <g id="g5400" transform="translate(3.095 10.832)">
            <path id="path5402" d="M-79.143-79.143h0a6.19,6.19,0,0,0-6.19-6.19h0a6.19,6.19,0,0,0,6.19,6.19" transform="translate(85.333 85.333)" fill="#8edf78"/>
          </g>
          <g id="g5404" transform="translate(2.37 10.107)">
            <path id="path5406" d="M-87.692-87.692h-.725a6.923,6.923,0,0,1-6.915-6.915v-.725h.725a6.923,6.923,0,0,1,6.915,6.915Zm-6.134-6.134A5.478,5.478,0,0,0-89.2-89.2,5.478,5.478,0,0,0-93.827-93.827Z" transform="translate(95.333 95.333)"/>
          </g>
          <g id="g5408" transform="translate(0 35.641)">
            <path id="path5410" d="M49.52-8.549H0V-10H49.52Z" transform="translate(0 10)"/>
          </g>
          <g id="g5412" transform="translate(10.832 41.782)">
            <path id="path5414" d="M-39.572-19.786a1.547,1.547,0,0,1-1.547,1.547,1.547,1.547,0,0,1-1.547-1.547,1.547,1.547,0,0,1,1.547-1.547,1.547,1.547,0,0,1,1.547,1.547" transform="translate(42.667 21.333)" fill="#e2fc85"/>
          </g>
          <g id="g5416" transform="translate(10.107 41.057)">
            <path id="path5418" d="M-50.394-31.333a2.275,2.275,0,0,1,2.273,2.273,2.275,2.275,0,0,1-2.273,2.273,2.275,2.275,0,0,1-2.273-2.273A2.275,2.275,0,0,1-50.394-31.333Zm0,3.095a.823.823,0,0,0,.822-.822.823.823,0,0,0-.822-.822.823.823,0,0,0-.822.822A.823.823,0,0,0-50.394-28.238Z" transform="translate(52.667 31.333)"/>
          </g>
          <g id="g5420" transform="translate(1.547 44.877)">
            <path id="path5422" d="M-39.572-19.786a1.547,1.547,0,0,1-1.547,1.547,1.547,1.547,0,0,1-1.547-1.547,1.547,1.547,0,0,1,1.547-1.547,1.547,1.547,0,0,1,1.547,1.547" transform="translate(42.667 21.333)" fill="#e2fc85"/>
          </g>
          <g id="g5424" transform="translate(0.822 44.152)">
            <path id="path5426" d="M-50.394-31.333a2.275,2.275,0,0,1,2.273,2.273,2.275,2.275,0,0,1-2.273,2.273,2.275,2.275,0,0,1-2.273-2.273A2.275,2.275,0,0,1-50.394-31.333Zm0,3.095a.823.823,0,0,0,.822-.822.823.823,0,0,0-.822-.822.823.823,0,0,0-.822.822A.823.823,0,0,0-50.394-28.238Z" transform="translate(52.667 31.333)"/>
          </g>
          <g id="g5428" transform="translate(8.56 10.059)">
            <path id="path5430" d="M-39.466-414.989-42-417.522V-448h1.451v29.876l2.109,2.109Z" transform="translate(42 447.999)"/>
          </g>
          <g id="g5432" transform="translate(3.356 39.722)">
            <path id="path5434" d="M-80.712-.629l-1.026-1.026,5.416-5.416L-75.3-6.045Z" transform="translate(81.738 7.071)"/>
          </g>
          <g id="g5436" transform="translate(24.76 26.307)">
            <path id="path5438" d="M0-79.143H0a6.19,6.19,0,0,1,6.19-6.19h0A6.19,6.19,0,0,1,0-79.143" transform="translate(0 85.333)" fill="#52cd8d"/>
          </g>
          <g id="g5440" transform="translate(24.034 25.582)">
            <path id="path5442" d="M-9.275-87.692H-10v-.725a6.923,6.923,0,0,1,6.915-6.915h.725v.725A6.923,6.923,0,0,1-9.275-87.692Zm5.409-6.134A5.478,5.478,0,0,0-8.494-89.2,5.478,5.478,0,0,0-3.866-93.827Z" transform="translate(10 95.333)"/>
          </g>
          <g id="g5444" transform="translate(18.57 26.307)">
            <path id="path5446" d="M-79.143-79.143h0a6.19,6.19,0,0,0-6.19-6.19h0a6.19,6.19,0,0,0,6.19,6.19" transform="translate(85.333 85.333)" fill="#8edf78"/>
          </g>
          <g id="g5448" transform="translate(17.844 25.582)">
            <path id="path5450" d="M-87.692-87.692h-.725a6.923,6.923,0,0,1-6.915-6.915v-.725h.725a6.923,6.923,0,0,1,6.915,6.915Zm-6.134-6.134A5.478,5.478,0,0,0-89.2-89.2,5.478,5.478,0,0,0-93.827-93.827Z" transform="translate(95.333 95.333)"/>
          </g>
          <g id="g5452" transform="translate(24.76 18.57)">
            <path id="path5454" d="M0-79.143H0a6.19,6.19,0,0,1,6.19-6.19h0A6.19,6.19,0,0,1,0-79.143" transform="translate(0 85.333)" fill="#52cd8d"/>
          </g>
          <g id="g5456" transform="translate(24.034 17.844)">
            <path id="path5458" d="M-9.275-87.692H-10v-.725a6.923,6.923,0,0,1,6.915-6.915h.725v.725A6.923,6.923,0,0,1-9.275-87.692Zm5.409-6.134A5.478,5.478,0,0,0-8.494-89.2,5.478,5.478,0,0,0-3.866-93.827Z" transform="translate(10 95.333)"/>
          </g>
          <g id="g5460" transform="translate(18.57 18.57)">
            <path id="path5462" d="M-79.143-79.143h0a6.19,6.19,0,0,0-6.19-6.19h0a6.19,6.19,0,0,0,6.19,6.19" transform="translate(85.333 85.333)" fill="#8edf78"/>
          </g>
          <g id="g5464" transform="translate(17.844 17.844)">
            <path id="path5466" d="M-87.692-87.692h-.725a6.923,6.923,0,0,1-6.915-6.915v-.725h.725a6.923,6.923,0,0,1,6.915,6.915Zm-6.134-6.134A5.478,5.478,0,0,0-89.2-89.2,5.478,5.478,0,0,0-93.827-93.827Z" transform="translate(95.333 95.333)"/>
          </g>
          <g id="g5468" transform="translate(24.76 10.832)">
            <path id="path5470" d="M0-79.143H0a6.19,6.19,0,0,1,6.19-6.19h0A6.19,6.19,0,0,1,0-79.143" transform="translate(0 85.333)" fill="#52cd8d"/>
          </g>
          <g id="g5472" transform="translate(24.034 10.107)">
            <path id="path5474" d="M-9.275-87.692H-10v-.725a6.923,6.923,0,0,1,6.915-6.915h.725v.725A6.923,6.923,0,0,1-9.275-87.692Zm5.409-6.134A5.478,5.478,0,0,0-8.494-89.2,5.478,5.478,0,0,0-3.866-93.827Z" transform="translate(10 95.333)"/>
          </g>
          <g id="g5476" transform="translate(18.57 10.832)">
            <path id="path5478" d="M-79.143-79.143h0a6.19,6.19,0,0,0-6.19-6.19h0a6.19,6.19,0,0,0,6.19,6.19" transform="translate(85.333 85.333)" fill="#8edf78"/>
          </g>
          <g id="g5480" transform="translate(17.844 10.107)">
            <path id="path5482" d="M-87.692-87.692h-.725a6.923,6.923,0,0,1-6.915-6.915v-.725h.725a6.923,6.923,0,0,1,6.915,6.915Zm-6.134-6.134A5.478,5.478,0,0,0-89.2-89.2,5.478,5.478,0,0,0-93.827-93.827Z" transform="translate(95.333 95.333)"/>
          </g>
          <g id="g5484" transform="translate(26.307 41.782)">
            <path id="path5486" d="M-39.572-19.786a1.547,1.547,0,0,1-1.547,1.547,1.547,1.547,0,0,1-1.547-1.547,1.547,1.547,0,0,1,1.547-1.547,1.547,1.547,0,0,1,1.547,1.547" transform="translate(42.667 21.333)" fill="#e2fc85"/>
          </g>
          <g id="g5488" transform="translate(25.582 41.057)">
            <path id="path5490" d="M-50.394-31.333a2.275,2.275,0,0,1,2.273,2.273,2.275,2.275,0,0,1-2.273,2.273,2.275,2.275,0,0,1-2.273-2.273A2.275,2.275,0,0,1-50.394-31.333Zm0,3.095a.823.823,0,0,0,.822-.822.823.823,0,0,0-.822-.822.823.823,0,0,0-.822.822A.823.823,0,0,0-50.394-28.238Z" transform="translate(52.667 31.333)"/>
          </g>
          <g id="g5492" transform="translate(17.022 44.877)">
            <path id="path5494" d="M-39.572-19.786a1.547,1.547,0,0,1-1.547,1.547,1.547,1.547,0,0,1-1.547-1.547,1.547,1.547,0,0,1,1.547-1.547,1.547,1.547,0,0,1,1.547,1.547" transform="translate(42.667 21.333)" fill="#e2fc85"/>
          </g>
          <g id="g5496" transform="translate(16.297 44.152)">
            <path id="path5498" d="M-50.394-31.333a2.275,2.275,0,0,1,2.273,2.273,2.275,2.275,0,0,1-2.273,2.273,2.275,2.275,0,0,1-2.273-2.273A2.275,2.275,0,0,1-50.394-31.333Zm0,3.095a.823.823,0,0,0,.822-.822.823.823,0,0,0-.822-.822.823.823,0,0,0-.822.822A.823.823,0,0,0-50.394-28.238Z" transform="translate(52.667 31.333)"/>
          </g>
          <g id="g5500" transform="translate(24.034 10.059)">
            <path id="path5502" d="M-39.466-414.989-42-417.522V-448h1.451v29.876l2.109,2.109Z" transform="translate(42 447.999)"/>
          </g>
          <g id="g5504" transform="translate(18.831 39.722)">
            <path id="path5506" d="M-80.712-.629l-1.026-1.026,5.416-5.416L-75.3-6.045Z" transform="translate(81.738 7.071)"/>
          </g>
          <g id="g5508" transform="translate(40.235 26.307)">
            <path id="path5510" d="M0-79.143H0a6.19,6.19,0,0,1,6.19-6.19h0A6.19,6.19,0,0,1,0-79.143" transform="translate(0 85.333)" fill="#52cd8d"/>
          </g>
          <g id="g5512" transform="translate(39.509 25.582)">
            <path id="path5514" d="M-9.275-87.692H-10v-.725a6.923,6.923,0,0,1,6.915-6.915h.725v.725A6.923,6.923,0,0,1-9.275-87.692Zm5.409-6.134A5.478,5.478,0,0,0-8.494-89.2,5.478,5.478,0,0,0-3.866-93.827Z" transform="translate(10 95.333)"/>
          </g>
          <g id="g5516" transform="translate(34.045 26.307)">
            <path id="path5518" d="M-79.143-79.143h0a6.19,6.19,0,0,0-6.19-6.19h0a6.19,6.19,0,0,0,6.19,6.19" transform="translate(85.333 85.333)" fill="#8edf78"/>
          </g>
          <g id="g5520" transform="translate(33.319 25.582)">
            <path id="path5522" d="M-87.692-87.692h-.725a6.923,6.923,0,0,1-6.915-6.915v-.725h.725a6.923,6.923,0,0,1,6.915,6.915Zm-6.134-6.134A5.478,5.478,0,0,0-89.2-89.2,5.478,5.478,0,0,0-93.827-93.827Z" transform="translate(95.333 95.333)"/>
          </g>
          <g id="g5524" transform="translate(40.235 18.57)">
            <path id="path5526" d="M0-79.143H0a6.19,6.19,0,0,1,6.19-6.19h0A6.19,6.19,0,0,1,0-79.143" transform="translate(0 85.333)" fill="#52cd8d"/>
          </g>
          <g id="g5528" transform="translate(39.509 17.844)">
            <path id="path5530" d="M-9.275-87.692H-10v-.725a6.923,6.923,0,0,1,6.915-6.915h.725v.725A6.923,6.923,0,0,1-9.275-87.692Zm5.409-6.134A5.478,5.478,0,0,0-8.494-89.2,5.478,5.478,0,0,0-3.866-93.827Z" transform="translate(10 95.333)"/>
          </g>
          <g id="g5532" transform="translate(34.045 18.57)">
            <path id="path5534" d="M-79.143-79.143h0a6.19,6.19,0,0,0-6.19-6.19h0a6.19,6.19,0,0,0,6.19,6.19" transform="translate(85.333 85.333)" fill="#8edf78"/>
          </g>
          <g id="g5536" transform="translate(33.319 17.844)">
            <path id="path5538" d="M-87.692-87.692h-.725a6.923,6.923,0,0,1-6.915-6.915v-.725h.725a6.923,6.923,0,0,1,6.915,6.915Zm-6.134-6.134A5.478,5.478,0,0,0-89.2-89.2,5.478,5.478,0,0,0-93.827-93.827Z" transform="translate(95.333 95.333)"/>
          </g>
          <g id="g5540" transform="translate(40.235 10.832)">
            <path id="path5542" d="M0-79.143H0a6.19,6.19,0,0,1,6.19-6.19h0A6.19,6.19,0,0,1,0-79.143" transform="translate(0 85.333)" fill="#52cd8d"/>
          </g>
          <g id="g5544" transform="translate(39.509 10.107)">
            <path id="path5546" d="M-9.275-87.692H-10v-.725a6.923,6.923,0,0,1,6.915-6.915h.725v.725A6.923,6.923,0,0,1-9.275-87.692Zm5.409-6.134A5.478,5.478,0,0,0-8.494-89.2,5.478,5.478,0,0,0-3.866-93.827Z" transform="translate(10 95.333)"/>
          </g>
          <g id="g5548" transform="translate(34.045 10.832)">
            <path id="path5550" d="M-79.143-79.143h0a6.19,6.19,0,0,0-6.19-6.19h0a6.19,6.19,0,0,0,6.19,6.19" transform="translate(85.333 85.333)" fill="#8edf78"/>
          </g>
          <g id="g5552" transform="translate(33.319 10.107)">
            <path id="path5554" d="M-87.692-87.692h-.725a6.923,6.923,0,0,1-6.915-6.915v-.725h.725a6.923,6.923,0,0,1,6.915,6.915Zm-6.134-6.134A5.478,5.478,0,0,0-89.2-89.2,5.478,5.478,0,0,0-93.827-93.827Z" transform="translate(95.333 95.333)"/>
          </g>
          <g id="g5556" transform="translate(41.782 41.782)">
            <path id="path5558" d="M-39.572-19.786a1.547,1.547,0,0,1-1.547,1.547,1.547,1.547,0,0,1-1.547-1.547,1.547,1.547,0,0,1,1.547-1.547,1.547,1.547,0,0,1,1.547,1.547" transform="translate(42.667 21.333)" fill="#e2fc85"/>
          </g>
          <g id="g5560" transform="translate(41.057 41.057)">
            <path id="path5562" d="M-50.394-31.333a2.275,2.275,0,0,1,2.273,2.273,2.275,2.275,0,0,1-2.273,2.273,2.275,2.275,0,0,1-2.273-2.273A2.275,2.275,0,0,1-50.394-31.333Zm0,3.095a.823.823,0,0,0,.822-.822.823.823,0,0,0-.822-.822.823.823,0,0,0-.822.822A.823.823,0,0,0-50.394-28.238Z" transform="translate(52.667 31.333)"/>
          </g>
          <g id="g5564" transform="translate(32.497 44.877)">
            <path id="path5566" d="M-39.572-19.786a1.547,1.547,0,0,1-1.547,1.547,1.547,1.547,0,0,1-1.547-1.547,1.547,1.547,0,0,1,1.547-1.547,1.547,1.547,0,0,1,1.547,1.547" transform="translate(42.667 21.333)" fill="#e2fc85"/>
          </g>
          <g id="g5568" transform="translate(31.772 44.152)">
            <path id="path5570" d="M-50.394-31.333a2.275,2.275,0,0,1,2.273,2.273,2.275,2.275,0,0,1-2.273,2.273,2.275,2.275,0,0,1-2.273-2.273A2.275,2.275,0,0,1-50.394-31.333Zm0,3.095a.823.823,0,0,0,.822-.822.823.823,0,0,0-.822-.822.823.823,0,0,0-.822.822A.823.823,0,0,0-50.394-28.238Z" transform="translate(52.667 31.333)"/>
          </g>
          <g id="g5572" transform="translate(39.509 10.059)">
            <path id="path5574" d="M-39.466-414.989-42-417.522V-448h1.451v29.876l2.109,2.109Z" transform="translate(42 447.999)"/>
          </g>
          <g id="g5576" transform="translate(34.305 39.722)">
            <path id="path5578" d="M-80.712-.629l-1.026-1.026,5.416-5.416L-75.3-6.045Z" transform="translate(81.738 7.071)"/>
          </g>
          <g id="g5580" transform="translate(23.986 46.473)">
            <path id="path5582" d="M3.869-8.549H0V-10H3.869Z" transform="translate(0 10)"/>
          </g>
          <g id="g5584" transform="translate(43.33 46.473)">
            <path id="path5586" d="M3.869-8.549H0V-10H3.869Z" transform="translate(0 10)"/>
          </g>
          <g id="g5588" transform="translate(34.818 39.509)">
            <path id="path5590" d="M5.416-8.549H0V-10H5.416Z" transform="translate(0 10)"/>
          </g>
          <g id="g5592" transform="translate(30.95 39.509)">
            <path id="path5594" d="M2.321-8.549H0V-10H2.321Z" transform="translate(0 10)"/>
          </g>
          <g id="g5596" transform="translate(20.117 39.509)">
            <path id="path5598" d="M1.547-8.549H0V-10H1.547Z" transform="translate(0 10)" fill="#fff"/>
          </g>
          <g id="g5600" transform="translate(17.022 39.509)">
            <path id="path5602" d="M1.547-8.549H0V-10H1.547Z" transform="translate(0 10)" fill="#fff"/>
          </g>
          <g id="g5604" transform="translate(45.651 39.509)">
            <path id="path5606" d="M3.869-8.549H0V-10H3.869Z" transform="translate(0 10)"/>
          </g>
          <g id="g5608" transform="translate(9.285 46.473)">
            <path id="path5610" d="M1.547-8.549H0V-10H1.547Z" transform="translate(0 10)" fill="#fff"/>
          </g>
          <g id="g5612" transform="translate(40.235 46.473)">
            <path id="path5614" d="M1.547-8.549H0V-10H1.547Z" transform="translate(0 10)" fill="#fff"/>
          </g>
          <g id="g5616" transform="translate(3.869 39.509)">
            <path id="path5618" d="M5.416-8.549H0V-10H5.416Z" transform="translate(0 10)"/>
          </g>
          <g id="g5620" transform="translate(0 39.509)">
            <path id="path5622" d="M2.321-8.549H0V-10H2.321Z" transform="translate(0 10)"/>
          </g>
        </g>
      </g>
    </g>
  </g>
</svg>
