<svg id="_003---Reusable-Coffee-Cup" data-name="003---Reusable-Coffee-Cup" xmlns="http://www.w3.org/2000/svg" width="123.406" height="185.109" viewBox="0 0 123.406 185.109">
  <path id="Path" d="M97.555,19.511,86.14,2.373A3.085,3.085,0,0,0,83.563,1H18.991a3.085,3.085,0,0,0-2.567,1.373L5,19.511v6.17H97.555Z" transform="translate(10.426 2.085)" fill="#8abf47"/>
  <path id="Path-2" data-name="Path" d="M92.544,136.491l-1.666,19.035a6.17,6.17,0,0,1-6.139,5.646H21.986a6.17,6.17,0,0,1-6.139-5.646l-1.666-19.035L6.16,43.937,4,19.255V10h98.725v9.255l-2.16,24.681Z" transform="translate(8.341 20.852)" fill="#dbdfe5"/>
  <rect id="Rectangle" width="117" height="19" rx="1" transform="translate(3 21.11)" fill="#9fd164"/>
  <path id="Path-3" data-name="Path" d="M107.9,24.35l-7.488,86.384a3.085,3.085,0,0,1-3.085,2.82H13.568a3.085,3.085,0,0,1-3.085-2.82L3.008,24.35A3.085,3.085,0,0,1,6.093,21h98.725a3.085,3.085,0,0,1,3.085,3.35Z" transform="translate(6.248 43.788)" fill="#8abf47"/>
  <g id="Grupo_1204374" data-name="Grupo 1204374" transform="translate(0 0)">
    <path id="Shape" d="M6.17,43.192H9.515l1.629,18.634A6.149,6.149,0,0,0,6.17,68.407l5.06,58.35a3.03,3.03,0,0,0,3.338,2.808,3.085,3.085,0,0,0,2.807-3.338L12.341,67.873h98.725l-7.475,86.384H19.816l-1.1-12.606a3.027,3.027,0,0,0-3.341-2.82,3.085,3.085,0,0,0-2.8,3.341l1.1,12.606a6.127,6.127,0,0,0,6.022,5.649l1.422,16.228a9.2,9.2,0,0,0,9.212,8.453H93.079a9.2,9.2,0,0,0,9.212-8.463l1.422-16.219a6.127,6.127,0,0,0,6.022-5.627l7.488-86.384a6.149,6.149,0,0,0-4.961-6.581l1.629-18.644h3.344a6.17,6.17,0,0,0,6.17-6.17V24.681a6.17,6.17,0,0,0-6.17-6.17h-7.6L99.123,2.749A6.17,6.17,0,0,0,93.989,0H29.417a6.17,6.17,0,0,0-5.134,2.749L13.775,18.511H6.17A6.17,6.17,0,0,0,0,24.681V37.022a6.17,6.17,0,0,0,6.17,6.17ZM96.146,176.113a3.1,3.1,0,0,1-3.067,2.826H30.327a3.107,3.107,0,0,1-3.067-2.829l-1.373-15.682H97.519ZM106.08,61.7H17.326l-1.62-18.511H107.7ZM29.417,6.17H93.989l8.228,12.341H21.189ZM6.17,24.681H117.236V37.022H6.17Z" transform="translate(0 0)" fill="#373737"/>
    <path id="Path-4" data-name="Path" d="M9.56,60.682a6.112,6.112,0,0,0,5.34,3.085H31.178a3.085,3.085,0,1,0,0-6.17H14.9l5.862-10.258.231.956a3.085,3.085,0,0,0,3,2.354,3.178,3.178,0,0,0,.734-.086,3.085,3.085,0,0,0,2.268-3.73l-2.067-8.478a3.085,3.085,0,0,0-3.73-2.268l-8.478,2.067a3.087,3.087,0,1,0,1.462,6l1.512-.37L9.538,54.537a6.115,6.115,0,0,0,.022,6.146Z" transform="translate(18.185 75.064)" fill="#373737"/>
    <path id="Path-5" data-name="Path" d="M33.436,52.279a3.085,3.085,0,0,0-4.362,0l-6.17,6.17a3.085,3.085,0,0,0,0,4.362l6.17,6.17a3.085,3.085,0,0,0,4.362-4.362l-.9-.9H44.447a6.17,6.17,0,0,0,5.362-9.231L40.1,37.516a3.085,3.085,0,0,0-5.356,3.06l9.7,16.968H32.532l.9-.9a3.085,3.085,0,0,0,0-4.362Z" transform="translate(45.874 75.116)" fill="#373737"/>
    <path id="Path-6" data-name="Path" d="M44.771,34.925a3.085,3.085,0,0,0-3.563,2.514l-.025.139-5.4-9.456a6.17,6.17,0,0,0-10.712,0l-9.663,16.9a3.084,3.084,0,1,0,5.356,3.06l9.663-16.894L36.839,42.41l-2.16-.37a3.085,3.085,0,0,0-1.049,6.081l8.6,1.481a3.085,3.085,0,0,0,3.563-2.514l1.484-8.6a3.085,3.085,0,0,0-2.505-3.563Z" transform="translate(31.278 52.163)" fill="#373737"/>
  </g>
</svg>
