<svg xmlns="http://www.w3.org/2000/svg" width="76.345" height="76.344" viewBox="0 0 76.345 76.344">
  <g id="Grupo_1204369" data-name="Grupo 1204369" transform="translate(4413 -1121)">
    <g id="Grupo_1204361" data-name="Grupo 1204361" transform="translate(-4965.05 -11191)">
      <g id="Grupo_1203920" data-name="Grupo 1203920" transform="translate(-469.916 9219.345)">
        <g id="Grupo_1200255" data-name="Grupo 1200255">
          <g id="Grupo_1187152" data-name="Grupo 1187152">
            <g id="Grupo_1185946" data-name="Grupo 1185946" transform="translate(-3.07)">
              <g id="Grupo_1184280" data-name="Grupo 1184280">
                <g id="Grupo_1182168" data-name="Grupo 1182168">
                  <g id="Grupo_1178877" data-name="Grupo 1178877">
                    <g id="Grupo_1111311" data-name="Grupo 1111311">
                      <g id="Grupo_1098742" data-name="Grupo 1098742" transform="translate(1025.482 3093.101)">
                        <rect id="Rect치ngulo_400898" data-name="Rect치ngulo 400898" width="76.345" height="76.345" rx="38.172" transform="translate(-0.445 -0.445)" fill="#ffc94a" opacity="0.859"/>
                        <rect id="Rect치ngulo_400907" data-name="Rect치ngulo 400907" width="76.345" height="76.345" rx="38.172" transform="translate(-0.446 -0.445)" fill="none"/>
                      </g>
                    </g>
                  </g>
                </g>
              </g>
            </g>
          </g>
        </g>
      </g>
    </g>
    <g id="pisaje" transform="translate(-4398 1135.499)">
      <path id="Trazado_1261466" data-name="Trazado 1261466" d="M105,216.164h20.426v9.979H105Zm0,0" transform="translate(-95.524 -196.2)" fill="#fea02c"/>
      <path id="Trazado_1261467" data-name="Trazado 1261467" d="M142.971,253.045V250H139v1.749Zm0,0" transform="translate(-126.456 -226.979)" fill="#ff5d5d"/>
      <path id="Trazado_1261468" data-name="Trazado 1261468" d="M18.851,276.562a41.614,41.614,0,0,1,13.018-13.329l.2-.28A41.634,41.634,0,0,0,10,256.625v22.189h7.475Zm0,0" transform="translate(-9.098 -233.009)" fill="#62cd4d"/>
      <path id="Trazado_1261469" data-name="Trazado 1261469" d="M92.832,278.662l1.375-2.253a41.65,41.65,0,0,1,35.551-19.952v22.2Zm0,0" transform="translate(-84.454 -232.857)" fill="#a0e557"/>
      <path id="Trazado_1261470" data-name="Trazado 1261470" d="M105,164.916l5.054-5.084,5.054,5.084Zm0,0" transform="translate(-95.524 -144.952)" fill="#fe8f8d"/>
      <path id="Trazado_1261471" data-name="Trazado 1261471" d="M176.372,164.916l-5.054-5.084H161l5.054,5.084Zm0,0" transform="translate(-146.47 -144.952)" fill="#ff5d5d"/>
      <g id="Grupo_1204368" data-name="Grupo 1204368" transform="translate(0.902 1.403)">
        <path id="Trazado_1261472" data-name="Trazado 1261472" d="M356.465,30.116c-6.737-5.417-6.737-14.2,0-19.616C363.2,15.917,363.2,24.7,356.465,30.116Zm0,0" transform="translate(-320.6 -10.5)" fill="#a0e557"/>
        <path id="Trazado_1261473" data-name="Trazado 1261473" d="M25.492,61.163c-5.093-4.1-5.093-10.735,0-14.831C30.585,50.427,30.585,57.067,25.492,61.163Zm0,0" transform="translate(-20.619 -43.098)" fill="#a0e557"/>
        <path id="Trazado_1261474" data-name="Trazado 1261474" d="M26.265,335.179A34.9,34.9,0,0,0,10,331.125v7.265a27.571,27.571,0,0,1,11.268,2.424" transform="translate(-10 -302.189)" fill="#a0e557"/>
      </g>
      <path id="Trazado_1261475" data-name="Trazado 1261475" d="M180.547,346.438a35.155,35.155,0,0,1,29.011-15.481v7.265a27.849,27.849,0,0,0-19.656,8.216Zm0,0" transform="translate(-164.253 -300.633)" fill="#62cd4d"/>
      <path id="Trazado_1261476" data-name="Trazado 1261476" d="M294.756,401.457a28.838,28.838,0,0,0-20.3,8.482.9.9,0,0,0,1.28,1.273,27.021,27.021,0,0,1,19.016-7.95.9.9,0,1,0,0-1.8Zm0,0" transform="translate(-249.451 -364.771)"/>
      <path id="Trazado_1261477" data-name="Trazado 1261477" d="M181.637,388.189a.9.9,0,0,0-1.253-.243,35.622,35.622,0,0,0-9.688,9.694.9.9,0,1,0,1.5,1.006,33.816,33.816,0,0,1,9.2-9.2A.9.9,0,0,0,181.637,388.189Zm0,0" transform="translate(-155.152 -352.338)"/>
      <path id="Trazado_1261478" data-name="Trazado 1261478" d="M376.285,320.957a35.494,35.494,0,0,0-11.869,2.049.9.9,0,1,0,.6,1.7,33.694,33.694,0,0,1,11.267-1.945.9.9,0,0,0,0-1.8Zm0,0" transform="translate(-330.981 -291.535)"/>
      <path id="Trazado_1261479" data-name="Trazado 1261479" d="M12.931,40.515A41.134,41.134,0,0,1,36.946,25.384h0A40.224,40.224,0,0,1,45.3,24.5a.9.9,0,1,0,0-1.8,42.468,42.468,0,0,0-7.635.694V21.444a13.366,13.366,0,0,0,5.052-10.233A13.463,13.463,0,0,0,37.332.7.9.9,0,0,0,36.2.7a13.464,13.464,0,0,0-5.39,10.511,13.367,13.367,0,0,0,5.052,10.233v2.317a42.733,42.733,0,0,0-5.06,1.487V19.964a.9.9,0,0,0-.262-.636h0l-5.054-5.084a.9.9,0,0,0-.64-.266H14.53a.9.9,0,0,0-.64.266L8.836,19.328h0a.9.9,0,0,0-.263.636v3.446q-.943-.173-1.9-.3V19.89a10.3,10.3,0,0,0,3.82-7.837A10.4,10.4,0,0,0,6.341,3.934a.9.9,0,0,0-1.131,0,10.4,10.4,0,0,0-4.157,8.119,10.3,10.3,0,0,0,3.82,7.837V22.9Q2.9,22.715.9,22.713a.9.9,0,0,0,0,1.8A40.7,40.7,0,0,1,21.4,30.05a42.6,42.6,0,0,0-4.263,3.311A35.9,35.9,0,0,0,.9,29.437a.9.9,0,0,0,0,1.8,34.07,34.07,0,0,1,14.816,3.43,42.653,42.653,0,0,0-3.838,4.248A28.231,28.231,0,0,0,.9,36.7a.9.9,0,1,0,0,1.8,26.412,26.412,0,0,1,9.854,1.905q-.935,1.3-1.774,2.67L7.608,45.335a.9.9,0,1,0,1.541.94l1.375-2.253a40.065,40.065,0,0,1,2.318-3.391A.854.854,0,0,0,12.931,40.515Zm19.686-29.3a11.516,11.516,0,0,1,4.15-8.627,11.516,11.516,0,0,1,4.15,8.627,11.235,11.235,0,0,1-3.248,7.752V12.053a.9.9,0,0,0-1.8,0v6.911A11.233,11.233,0,0,1,32.617,11.212Zm-29.759.841A8.445,8.445,0,0,1,5.776,5.827a8.445,8.445,0,0,1,2.918,6.226,8.159,8.159,0,0,1-2.015,5.283V11.331a.9.9,0,0,0-1.8,0v6.005A8.159,8.159,0,0,1,2.858,12.053Zm24.874,7.009H19.959L16.7,15.783h7.773Zm-13.2-2.9,2.884,2.9H11.646Zm-4.151,4.706h8.3v5.739q-.628-.289-1.263-.557V23.017a.9.9,0,0,0-.9-.9H12.544a.9.9,0,0,0-.9.9v1.073q-.629-.164-1.263-.31Zm5.234,4.47q-1.073-.4-2.166-.733V23.92h2.166Zm4.873,2.153V20.867H29v5.082a42.358,42.358,0,0,0-4.521,2.194q-.7.394-1.388.815Q21.811,28.176,20.486,27.489Zm0,0"/>
      <path id="Trazado_1261480" data-name="Trazado 1261480" d="M398.3,82.3a.9.9,0,1,0-.638-.265A.909.909,0,0,0,398.3,82.3Zm0,0" transform="translate(-361.534 -72.779)"/>
      <path id="Trazado_1261481" data-name="Trazado 1261481" d="M317.932,363.1a.9.9,0,1,0,.638-.265A.91.91,0,0,0,317.932,363.1Zm0,0" transform="translate(-288.999 -329.635)"/>
    </g>
  </g>
</svg>
