<svg xmlns="http://www.w3.org/2000/svg" width="92.002" height="92.002" viewBox="0 0 92.002 92.002">
  <g id="Grupo_1204378" data-name="Grupo 1204378" transform="translate(-1174.051 -17026)">
    <g id="Grupo_1204047" data-name="Grupo 1204047" transform="translate(152.084 13933.345)">
      <g id="Grupo_1200255" data-name="Grupo 1200255" transform="translate(1021.967 3092.655)">
        <g id="Grupo_1187152" data-name="Grupo 1187152">
          <g id="Grupo_1185946" data-name="Grupo 1185946">
            <g id="Grupo_1184280" data-name="Grupo 1184280">
              <g id="Grupo_1182168" data-name="Grupo 1182168">
                <g id="Grupo_1178877" data-name="Grupo 1178877">
                  <g id="Grupo_1111311" data-name="Grupo 1111311">
                    <g id="Grupo_1098742" data-name="Grupo 1098742" transform="translate(0 0)">
                      <rect id="Rect치ngulo_400898" data-name="Rect치ngulo 400898" width="92.001" height="92.001" rx="46.001" transform="translate(0.001 0)" fill="#5a8441" opacity="0.859"/>
                      <rect id="Rect치ngulo_400907" data-name="Rect치ngulo 400907" width="92.001" height="92.001" rx="46.001" transform="translate(0 0)" fill="none"/>
                    </g>
                  </g>
                </g>
              </g>
            </g>
          </g>
        </g>
      </g>
    </g>
    <g id="aceite" transform="translate(1193.222 17045)">
      <path id="Trazado_1261505" data-name="Trazado 1261505" d="M15.742,9.37l-4.387,2.966-.011-.011c-.057-.114-2.024-3.513-2.081-3.627-.136-.261-.75-.011-.75-.011a.682.682,0,0,1-.7-.364c-.25-.443-1.137-1.966-1.137-1.966a.682.682,0,0,1,.25-.932l5.251-3.034a.673.673,0,0,1,.921.25s.943,1.659,1.216,2.1a.494.494,0,0,1-.182.7s-.443.341-.3.6c.068.125.455.784.852,1.489.511.864,1.058,1.831,1.058,1.831Z" transform="translate(0.102 0.314)" fill="#fcca6e"/>
      <path id="Trazado_1261506" data-name="Trazado 1261506" d="M14.308,4.743c-.273-.443-1.216-2.1-1.216-2.1a.673.673,0,0,0-.921-.25L6.921,5.425a.682.682,0,0,0-.25.932S7.557,7.88,7.807,8.323a.682.682,0,0,0,.7.364l5.614-3.239a.494.494,0,0,0,.182-.7Z" transform="translate(0.102 0.314)" fill="#fcbd55"/>
      <path id="Trazado_1261507" data-name="Trazado 1261507" d="M15.281,8.7l-4.387,2.966s-.638-1.1-.942-1.637l4.478-2.8C14.734,7.73,15.281,8.7,15.281,8.7Z" transform="translate(0.563 0.987)" fill="#fcbd55"/>
      <path id="Trazado_1261508" data-name="Trazado 1261508" d="M43.438.75h-20.7a1.9,1.9,0,0,0-1.637.932L17.06,8.546l-1.477.989L11.2,12.5,8.832,14.1A2.856,2.856,0,0,0,7.57,16.468V51a2.6,2.6,0,0,0,2.6,2.6H43.438a2.6,2.6,0,0,0,2.6-2.6V3.341A2.6,2.6,0,0,0,43.438.75ZM38.87,4.387A1.4,1.4,0,0,1,40.1,6.455L39.37,7.808a1.682,1.682,0,0,1-.091.148,1.416,1.416,0,0,1-1.148.58H22.981l1.864-3.421a1.415,1.415,0,0,1,1.227-.727Z" transform="translate(0.238 0.102)" fill="#fcca6e"/>
      <path id="Trazado_1261509" data-name="Trazado 1261509" d="M42.87.75H23.514a1.79,1.79,0,0,0-1.125.818L18.241,9.02a2.965,2.965,0,0,1-.846.956c-.841.613-2.215,1.6-4.442,3.169a2.673,2.673,0,0,0-1.137,2.175V37.154a12.693,12.693,0,0,0,12.7,12.694H45.461V3.341A2.591,2.591,0,0,0,42.87.75ZM39.517,6.455,38.79,7.808a1.683,1.683,0,0,1-.091.148,1.416,1.416,0,0,1-1.148.58H22.4l1.864-3.421a1.415,1.415,0,0,1,1.227-.727h12.8a1.4,1.4,0,0,1,1.227,2.068Z" transform="translate(0.817 0.102)" fill="#ffd385"/>
      <path id="Trazado_1261510" data-name="Trazado 1261510" d="M36.161,18.3a18.525,18.525,0,0,0-4.6,7.125c-.8,2.641-.864,7.762-3.569,11.252-.175.227-.363.439-.55.639-2.892,3.092-5.785,3.856-7.956,3.831a5.372,5.372,0,0,1-1.015-.1,5.28,5.28,0,0,1-4.257-4.22,10.359,10.359,0,0,1,.99-6.924,13.07,13.07,0,0,1,.7-1.29c.138-.227.275-.455.425-.682s.3-.476.476-.714a17.184,17.184,0,0,1,4.307-4.205,29.339,29.339,0,0,1,12.321-4.47c1.666-.216,2.722-.242,2.722-.242Z" transform="translate(1.116 2.498)" fill="#1fc091"/>
      <path id="Trazado_1261511" data-name="Trazado 1261511" d="M35.761,18.3a18.525,18.525,0,0,0-4.6,7.125c-.8,2.641-.864,7.762-3.569,11.252a9.563,9.563,0,0,1-5.171,1.5A5.323,5.323,0,0,1,17.15,33.87a10.358,10.358,0,0,1,.994-6.933,15.437,15.437,0,0,1,2.58-3.92C27.23,18.489,35.761,18.3,35.761,18.3Z" transform="translate(1.517 2.498)" fill="#4fd79c"/>
      <path id="Trazado_1261512" data-name="Trazado 1261512" d="M21.236,9.058h15.15a2.249,2.249,0,0,0,1.979-1.176L39.1,6.528A2.251,2.251,0,0,0,37.122,3.2H24.327a2.254,2.254,0,0,0-1.98,1.177L20.488,7.8a.851.851,0,0,0,.749,1.259Zm2.608-3.864a.549.549,0,0,1,.482-.286H37.122a.547.547,0,0,1,.481.808l-.735,1.349a.546.546,0,0,1-.481.285H22.675Z" transform="translate(1.987 0.437)"/>
      <path id="Trazado_1261513" data-name="Trazado 1261513" d="M15.134,4.611c-.272-.435-1.192-2.071-1.2-2.079a1.533,1.533,0,0,0-2.095-.568L6.592,5a1.537,1.537,0,0,0-.558,2.093L7.17,9.068a1.533,1.533,0,0,0,1.591.773l.069-.016c.358.624,1.023,1.77,1.457,2.519L8.586,13.5A3.7,3.7,0,0,0,6.96,16.569V51.1a3.456,3.456,0,0,0,3.447,3.456H43.675A3.46,3.46,0,0,0,47.131,51.1V3.447A3.455,3.455,0,0,0,43.675,0h-20.7a2.763,2.763,0,0,0-2.365,1.347L16.655,8.052l-.551.373L14.9,6.327a1.364,1.364,0,0,0,.417-.676,1.306,1.306,0,0,0-.18-1.04Zm2.892,4.47,4.053-6.866a1.05,1.05,0,0,1,.9-.51h20.7a1.749,1.749,0,0,1,1.751,1.742V51.1a1.753,1.753,0,0,1-1.751,1.751H10.407A1.749,1.749,0,0,1,8.665,51.1V16.567a2,2,0,0,1,.882-1.655l8.222-5.559a.858.858,0,0,0,.258-.273ZM9.092,8.043a1.912,1.912,0,0,0-.5.069l-1-1.722,4.946-2.859c.2.353.688,1.215.983,1.715A1.25,1.25,0,0,0,13.2,6.8l1.491,2.581-2.975,2.009c-.7-1.214-1.523-2.629-1.6-2.772a1.094,1.094,0,0,0-1.023-.571Z" transform="translate(0 0)"/>
      <path id="Trazado_1261514" data-name="Trazado 1261514" d="M17.905,41.889a.892.892,0,0,0,.227.031.852.852,0,0,0,.227-1.673,4.444,4.444,0,0,1-3.2-3.457c-.4-2.139-.43-4.877,2.453-8.961,4.344-6.157,12.641-7.9,16.551-8.387a17.691,17.691,0,0,0-3.3,5.837,25.624,25.624,0,0,0-.619,2.906,29.292,29.292,0,0,1-1.255,5.2.853.853,0,0,0,1.6.6,30.669,30.669,0,0,0,1.339-5.5,25.19,25.19,0,0,1,.568-2.7,17.783,17.783,0,0,1,4.361-6.747.852.852,0,0,0-.6-1.477c-.558.013-13.763.392-20.042,9.294-3.249,4.6-3.206,7.771-2.736,10.263a6.137,6.137,0,0,0,4.424,4.78Z" transform="translate(1.013 2.396)"/>
      <path id="Trazado_1261515" data-name="Trazado 1261515" d="M28.313,23.817a.852.852,0,1,0-.949-1.416,31.75,31.75,0,0,0-7.212,7.1,38.175,38.175,0,0,0-3.687,6.058.853.853,0,1,0,1.556.7A36.449,36.449,0,0,1,21.53,30.5a30.625,30.625,0,0,1,6.783-6.68Z" transform="translate(1.442 3.038)"/>
      <path id="Trazado_1261516" data-name="Trazado 1261516" d="M32.447,35.219a3.637,3.637,0,1,0,3.637,3.637,3.637,3.637,0,0,0-3.637-3.637Zm0,5.558a1.932,1.932,0,1,1,1.932-1.932A1.932,1.932,0,0,1,32.447,40.777Z" transform="translate(3.137 4.808)"/>
      <path id="Trazado_1261517" data-name="Trazado 1261517" d="M27.409,35.219a.852.852,0,0,0-.852.852V41.54a.852.852,0,1,0,1.7,0V36.071A.852.852,0,0,0,27.409,35.219Z" transform="translate(2.83 4.808)"/>
      <path id="Trazado_1261518" data-name="Trazado 1261518" d="M27.409,33.292a.863.863,0,0,0-.852.864.852.852,0,0,0,1.7,0v-.024a.842.842,0,0,0-.852-.84Z" transform="translate(2.83 4.545)"/>
      <path id="Trazado_1261519" data-name="Trazado 1261519" d="M23.772,33.364h-3.41a.852.852,0,0,0-.852.852v7.577a.852.852,0,0,0,.852.852h3.41a2.745,2.745,0,0,0,1.988-4.64,2.746,2.746,0,0,0-1.988-4.642Zm0,7.577H21.212V38.86h2.559a1.042,1.042,0,1,1,0,2.083Zm0-3.788H21.212V35.069h2.559a1.042,1.042,0,1,1,0,2.084Z" transform="translate(1.868 4.555)"/>
    </g>
  </g>
</svg>
