<svg xmlns="http://www.w3.org/2000/svg" width="92.002" height="92.002" viewBox="0 0 92.002 92.002">
  <g id="Grupo_1204377" data-name="Grupo 1204377" transform="translate(-334.051 -17026.398)">
    <g id="Grupo_1204045" data-name="Grupo 1204045" transform="translate(-687.916 13933.744)">
      <g id="Grupo_1200255" data-name="Grupo 1200255" transform="translate(1021.967 3092.655)">
        <g id="Grupo_1187152" data-name="Grupo 1187152">
          <g id="Grupo_1185946" data-name="Grupo 1185946">
            <g id="Grupo_1184280" data-name="Grupo 1184280">
              <g id="Grupo_1182168" data-name="Grupo 1182168">
                <g id="Grupo_1178877" data-name="Grupo 1178877">
                  <g id="Grupo_1111311" data-name="Grupo 1111311">
                    <g id="Grupo_1098742" data-name="Grupo 1098742" transform="translate(0 0)">
                      <rect id="Rect치ngulo_400898" data-name="Rect치ngulo 400898" width="92.001" height="92.001" rx="46.001" transform="translate(0.001 0)" fill="#fff4da" opacity="0.859"/>
                      <rect id="Rect치ngulo_400907" data-name="Rect치ngulo 400907" width="92.001" height="92.001" rx="46.001" transform="translate(0 0)" fill="none"/>
                    </g>
                  </g>
                </g>
              </g>
            </g>
          </g>
        </g>
      </g>
    </g>
    <g id="Page-1" transform="translate(355.051 17044)">
      <g id="_014---Plant-Grower" data-name="014---Plant-Grower">
        <path id="Shape" d="M46.578,10.836,43.72,2.97A2.992,2.992,0,0,0,40.908,1H27a3,3,0,0,0-3,3V5a3,3,0,0,1-3,3H8L2.757,13.243A6,6,0,0,0,1,17.485V46.86a20.466,20.466,0,0,0,.87,5.88,20.813,20.813,0,0,0,2.574,5.415A1.946,1.946,0,0,0,6.07,59h3.1a2.013,2.013,0,0,0,1.424-.59l1-1a1.994,1.994,0,0,1,2.82,0l1,1A2,2,0,0,0,16.83,59h3.34a2,2,0,0,0,1.417-.587l1-1a1.994,1.994,0,0,1,2.82,0l1,1A2,2,0,0,0,27.83,59h3.34a2,2,0,0,0,1.417-.587l1-1a1.994,1.994,0,0,1,2.82,0l1,1A2,2,0,0,0,38.83,59h3.1a1.981,1.981,0,0,0,1.66-.89A20.3,20.3,0,0,0,47,46.86V13.23a7,7,0,0,0-.422-2.394ZM41.313,12H29a1,1,0,0,1-1-1V6a1,1,0,0,1,1-1H39.5a1,1,0,0,1,.94.659l1.814,5A1,1,0,0,1,41.313,12Z" fill="#60a917"/>
        <path id="Shape-2" data-name="Shape" d="M46.578,10.836,43.72,2.97A2.992,2.992,0,0,0,40.908,1h-3A2.992,2.992,0,0,1,40.72,2.97l2.858,7.866A7,7,0,0,1,44,13.23V46.86a20.3,20.3,0,0,1-3.41,11.25,1.981,1.981,0,0,1-1.66.89h3a1.981,1.981,0,0,0,1.66-.89A20.3,20.3,0,0,0,47,46.86V13.23a7,7,0,0,0-.422-2.394Z" fill="#549414"/>
        <rect id="Rectangle-path" width="36" height="26" rx="3" transform="translate(6 24)" fill="#f5f5f5"/>
        <path id="Shape-3" data-name="Shape" d="M39,24H36a3,3,0,0,1,3,3V47a3,3,0,0,1-3,3h3a3,3,0,0,0,3-3V27A3,3,0,0,0,39,24Z" fill="#cfd8dc"/>
        <path id="Shape-4" data-name="Shape" d="M23.99,41.72a2.018,2.018,0,0,1-.24.27c-2.43,2.43-6.93,1.87-10.06-1.25a11.49,11.49,0,0,1-3.14-11.95,11.489,11.489,0,0,1,11.94,3.15,10.156,10.156,0,0,1,1.52,1.93c1.64,2.72,1.7,5.87-.02,7.85Z" fill="#60a917"/>
        <path id="Shape-5" data-name="Shape" d="M24.01,33.87a10.156,10.156,0,0,0-1.52-1.93,11.651,11.651,0,0,0-10.01-3.594,11.98,11.98,0,0,1,7.01,3.594,10.156,10.156,0,0,1,1.52,1.93c1.64,2.72,1.7,5.87-.02,7.85a2.018,2.018,0,0,1-.24.27,5.091,5.091,0,0,1-2.45,1.339,5.8,5.8,0,0,0,5.45-1.339,2.018,2.018,0,0,0,.24-.27C25.71,39.74,25.65,36.59,24.01,33.87Z" fill="#549414"/>
        <path id="Shape-6" data-name="Shape" d="M34.31,40.74c-2.95,2.95-7.15,3.62-9.66,1.61a4.553,4.553,0,0,1-.4-.35c-.09-.1-.17-.18-.25-.27l-.01-.01c1.72-1.98,1.66-5.13.02-7.85a9.027,9.027,0,0,1,1.5-1.94,11.513,11.513,0,0,1,11.95-3.14,11.53,11.53,0,0,1-3.15,11.95Z" fill="#60a917"/>
        <path id="Shape-7" data-name="Shape" d="M37.46,28.79a10.932,10.932,0,0,0-4.943-.445,9.382,9.382,0,0,1,1.943.445,11.53,11.53,0,0,1-3.15,11.95,9.415,9.415,0,0,1-4.626,2.588A8.4,8.4,0,0,0,34.31,40.74a11.53,11.53,0,0,0,3.15-11.95Z" fill="#549414"/>
        <path id="Shape-8" data-name="Shape" d="M10,1h8a2,2,0,0,1,2,2V8H8V3A2,2,0,0,1,10,1Z" fill="#f44335"/>
        <path id="Shape-9" data-name="Shape" d="M18,1H15a2,2,0,0,1,2,2V8h3V3A2,2,0,0,0,18,1Z" fill="#c81e1e"/>
        <g id="Grupo_1204375" data-name="Grupo 1204375">
          <path id="Shape-10" data-name="Shape" d="M39,23H9a4,4,0,0,0-4,4V47a4,4,0,0,0,4,4H39a4,4,0,0,0,4-4V27A4,4,0,0,0,39,23ZM30.668,36.914a1,1,0,0,0-.9-1.788A19.8,19.8,0,0,0,26.2,37.3a9.442,9.442,0,0,0-1.032-3.375,8.8,8.8,0,0,1,1.043-1.287,10.551,10.551,0,0,1,10.443-3.057,10.639,10.639,0,0,1-3.053,10.447c-2.516,2.515-6.088,3.2-8.224,1.606.726-2.058,2.493-3.319,5.286-4.72ZM23.19,34.458l.009.015a6.408,6.408,0,0,1,.77,5.341c-1.251-2.24-3.475-3.552-5.741-4.688a1,1,0,0,0-.9,1.788c2.8,1.4,4.57,2.668,5.293,4.734-2.115,1.592-5.672.934-8.225-1.618a10.535,10.535,0,0,1-3.058-10.443,10.536,10.536,0,0,1,10.444,3.058A9.127,9.127,0,0,1,23.19,34.458ZM41,47a2,2,0,0,1-2,2H25V44.09c0-.113.018-.207.022-.316a6.736,6.736,0,0,0,3.127.741,9.942,9.942,0,0,0,6.872-3.073,12.419,12.419,0,0,0,3.365-13.02,1,1,0,0,0-.564-.564A12.421,12.421,0,0,0,24.8,31.224a10.949,10.949,0,0,0-.8.909,11.412,11.412,0,0,0-.8-.9,12.4,12.4,0,0,0-13.018-3.365.992.992,0,0,0-.561.561,12.4,12.4,0,0,0,3.365,13.018A9.945,9.945,0,0,0,19.867,44.5a6.786,6.786,0,0,0,3.111-.719c0,.109.022.2.022.316V49H9a2,2,0,0,1-2-2V27a2,2,0,0,1,2-2H39a2,2,0,0,1,2,2Z"/>
          <path id="Shape-11" data-name="Shape" d="M18,0H10A3,3,0,0,0,7,3V7.586l-4.95,4.95A6.954,6.954,0,0,0,0,17.485V46.86a21.446,21.446,0,0,0,.915,6.175,21.786,21.786,0,0,0,2.7,5.675A2.934,2.934,0,0,0,6.07,60h3.1a3.035,3.035,0,0,0,2.131-.883l1-1a1,1,0,0,1,1.406,0l1,1A2.982,2.982,0,0,0,16.83,60h3.34a2.982,2.982,0,0,0,2.124-.88l1-1a1.019,1.019,0,0,1,1.406,0l1,1a2.982,2.982,0,0,0,2.13.88h3.34a2.982,2.982,0,0,0,2.124-.88l1-1a1,1,0,0,1,1.406,0l1,1a2.982,2.982,0,0,0,2.13.88h3.1a2.977,2.977,0,0,0,2.492-1.335A21.214,21.214,0,0,0,48,46.86V13.23a7.993,7.993,0,0,0-.481-2.735L44.66,2.628A4,4,0,0,0,40.908,0H27a4,4,0,0,0-4,4V5a2,2,0,0,1-2,2V3A3,3,0,0,0,18,0Zm7,5V4a2,2,0,0,1,2-2H40.908A2,2,0,0,1,42.78,3.312l2.859,7.866A6,6,0,0,1,46,13.23V46.86a19.223,19.223,0,0,1-3.245,10.7.984.984,0,0,1-.825.44h-3.1a1,1,0,0,1-.71-.294l-1-1a3,3,0,0,0-4.234,0l-1,1a1,1,0,0,1-.71.294H27.83a1,1,0,0,1-.71-.294l-1-1a3,3,0,0,0-4.234,0l-1,1a1,1,0,0,1-.71.294H16.83a1,1,0,0,1-.71-.294l-1-1a3,3,0,0,0-4.234,0l-1,1a1.02,1.02,0,0,1-.717.3h-3.1a.957.957,0,0,1-.8-.4,19.83,19.83,0,0,1-2.447-5.147A19.433,19.433,0,0,1,2,46.86V17.485A4.967,4.967,0,0,1,3.464,13.95L8.414,9H21a4,4,0,0,0,4-4ZM9,7V3a1,1,0,0,1,1-1h1V4a1,1,0,0,0,2,0V2h2V4a1,1,0,0,0,2,0V2h1a1,1,0,0,1,1,1V7Z"/>
          <path id="Shape-12" data-name="Shape" d="M29,13H41.313a2,2,0,0,0,1.88-2.683l-1.814-5A2.006,2.006,0,0,0,39.5,4H29a2,2,0,0,0-2,2v5A2,2,0,0,0,29,13Zm0-7H39.5l1.814,5H29Z"/>
          <path id="Shape-13" data-name="Shape" d="M9.524,17.339l-2.649-2.12a1,1,0,1,0-1.25,1.562L8.274,18.9A5.014,5.014,0,0,0,11.4,20H36.6a5.014,5.014,0,0,0,3.125-1.1l2.65-2.12a1,1,0,0,0-1.25-1.562L38.474,17.34A3,3,0,0,1,36.6,18H11.4a3.007,3.007,0,0,1-1.876-.661Z"/>
        </g>
      </g>
    </g>
  </g>
</svg>
