<svg xmlns="http://www.w3.org/2000/svg" width="92.002" height="92.002" viewBox="0 0 92.002 92.002">
  <g id="Grupo_1204390" data-name="Grupo 1204390" transform="translate(-334.051 -19012.781)">
    <g id="Grupo_1204048" data-name="Grupo 1204048" transform="translate(-687.916 15920.127)">
      <g id="Grupo_1200255" data-name="Grupo 1200255" transform="translate(1021.967 3092.655)">
        <g id="Grupo_1187152" data-name="Grupo 1187152">
          <g id="Grupo_1185946" data-name="Grupo 1185946">
            <g id="Grupo_1184280" data-name="Grupo 1184280">
              <g id="Grupo_1182168" data-name="Grupo 1182168">
                <g id="Grupo_1178877" data-name="Grupo 1178877">
                  <g id="Grupo_1111311" data-name="Grupo 1111311">
                    <g id="Grupo_1098742" data-name="Grupo 1098742" transform="translate(0 0)">
                      <rect id="Rect치ngulo_400898" data-name="Rect치ngulo 400898" width="92.001" height="92.001" rx="46.001" transform="translate(0.001 0)" fill="#ffc94a" opacity="0.859"/>
                      <rect id="Rect치ngulo_400907" data-name="Rect치ngulo 400907" width="92.001" height="92.001" rx="46.001" transform="translate(0 0)" fill="none"/>
                    </g>
                  </g>
                </g>
              </g>
            </g>
          </g>
        </g>
      </g>
    </g>
    <g id="hojas-de-coca" transform="translate(349.945 19028.982)">
      <g id="Grupo_1204388" data-name="Grupo 1204388" transform="translate(5.957 1.197)">
        <g id="Grupo_1204387" data-name="Grupo 1204387" transform="translate(0)">
          <g id="Grupo_1204379" data-name="Grupo 1204379" transform="translate(0.004)">
            <path id="Trazado_1261520" data-name="Trazado 1261520" d="M44.055,38.138c-.049-13.109-7.505-19.614-15.846-27.532-3.108,2.661-9.951,10.268-9.951,10.268a28.238,28.238,0,0,0,2.369,37.212L28.21,65.67C36.535,57.7,44.1,51.247,44.055,38.138Z" transform="translate(-12.37 -10.606)" fill="#6ad34d"/>
          </g>
          <g id="Grupo_1204380" data-name="Grupo 1204380" transform="translate(0 0)">
            <path id="Trazado_1261521" data-name="Trazado 1261521" d="M44.022,38.139q0-.868-.05-1.7c-.662,11.839-7.887,18.045-15.8,25.612L22.921,56.8c-10.66-10.457-10.4-28.385.744-38.338l6.329-6.034-1.818-1.818c-9.411,9.029-14.9,14.264-15.779,25.724a28.187,28.187,0,0,0,8.2,21.756l7.583,7.583C36.394,57.817,44.1,51.232,44.022,38.139Z" transform="translate(-12.333 -10.607)" fill="#31a469"/>
          </g>
          <g id="Grupo_1204381" data-name="Grupo 1204381" transform="translate(15.915 16.453)">
            <path id="Trazado_1261522" data-name="Trazado 1261522" d="M192.3,156.5c-4.079-.316-14.3.224-14.3.224a27.775,27.775,0,0,0-9.85,3.171,28.875,28.875,0,0,1,.986,7.585c.049,13.071-7.477,19.529-15.773,27.463v.494c11.155-.079,21.437,1.04,30.672-8.264S192.6,167.995,192.3,156.5Z" transform="translate(-153.366 -156.399)" fill="#6ad34d"/>
          </g>
          <g id="Grupo_1204382" data-name="Grupo 1204382" transform="translate(15.916 18.773)">
            <path id="Trazado_1261523" data-name="Trazado 1261523" d="M192.435,180.287c.794,18.58-14.188,32.136-32.5,30.632,8.909-8.25,14.489-20.182,10.488-33.889,0,0,.685-.5-2.263,1.1,3.341,13.483-3.114,24.129-12.208,32.72-.045,0-1.755,1.539-2.58,2.328v.607c1.043-.26,12.45.2,17.369-.9h0C185.874,209.639,193.736,194.462,192.435,180.287Z" transform="translate(-153.368 -176.956)" fill="#31a469"/>
          </g>
          <g id="Grupo_1204383" data-name="Grupo 1204383" transform="translate(14.997 12.269)">
            <path id="Trazado_1261524" data-name="Trazado 1261524" d="M145.23,119.329h1.693v1.693H145.23Z" transform="translate(-145.23 -119.329)" fill="#fff"/>
          </g>
          <g id="Grupo_1204384" data-name="Grupo 1204384" transform="translate(14.997 8.884)">
            <path id="Trazado_1261525" data-name="Trazado 1261525" d="M145.225,89.329h1.693v1.693h-1.693Z" transform="translate(-145.225 -89.329)" fill="#fff"/>
          </g>
          <g id="Grupo_1204385" data-name="Grupo 1204385" transform="translate(44.299 24.649)">
            <path id="Trazado_1261526" data-name="Trazado 1261526" d="M0,0H1.693V1.693H0Z" transform="translate(0 1.197) rotate(-45)" fill="#fff"/>
          </g>
          <g id="Grupo_1204386" data-name="Grupo 1204386" transform="translate(46.693 22.255)">
            <path id="Trazado_1261527" data-name="Trazado 1261527" d="M0,0H1.693V1.693H0Z" transform="translate(0 1.197) rotate(-45)" fill="#fff"/>
          </g>
        </g>
      </g>
      <g id="Grupo_1204389" data-name="Grupo 1204389" transform="translate(5.146 0)">
        <path id="Trazado_1261528" data-name="Trazado 1261528" d="M205.225,494.956h1.693v1.693h-1.693Z" transform="translate(-182.646 -439.1)"/>
        <path id="Trazado_1261529" data-name="Trazado 1261529" d="M94.965,16.919a29.132,29.132,0,0,0-12.874,3C80.2,12.262,72.124,5.432,66.752,0,64.6,2.26,57.516,8.91,55.817,11.361l1.356,1.013c1.56-2.254,7.613-7.921,9.579-9.98C74.635,9.869,82,17,81.752,28.729h1.693a29.246,29.246,0,0,0-.882-7.152c6.216-3.626,15.326-2.964,22.278-2.966v9.878A27.486,27.486,0,0,1,76.063,55.856v1.693c16.116,1.028,30.823-12.869,30.47-29.059,0,0,0-11.57,0-11.57H94.965Z" transform="translate(-50.099 0)"/>
        <path id="Trazado_1261530" data-name="Trazado 1261530" d="M29.84,150.4H40.31v-1.693H31.533l5.489-5.489H47.492v-1.693H38.715l5.489-5.489H52.74v-1.693H45.9l4.368-4.368-1.2-1.2-4.345,4.345v-6.8H43.03v8.49l-7.762,7.762a29.007,29.007,0,0,0,3.175-11.593l-1.69-.1c-.367,10.422-6.97,17.167-14.105,23.873v-8.482l7.4-7.4-1.2-1.2-6.206,6.206v-7.763l7.4-7.4-1.2-1.2-6.206,6.206v-7.762l6.037-6.037-1.2-1.2-4.84,4.84v-6.177H20.955v6.144l-4.807-4.807-1.2,1.2,6,6v7.762l-6.173-6.173-1.2,1.2,7.37,7.37v7.763l-6.173-6.173-1.2,1.2,7.37,7.37v8.515l-6.138-6.138a27.457,27.457,0,0,1-3.539-34.36l-1.415-.93c-7.519,11.1-5.89,27.126,3.757,36.486L21.8,158v.092h4.233V156.4H23.843Z" transform="translate(-5.146 -100.542)"/>
      </g>
    </g>
  </g>
</svg>
