<svg xmlns="http://www.w3.org/2000/svg" xmlns:xlink="http://www.w3.org/1999/xlink" width="76.345" height="76.345" viewBox="0 0 76.345 76.345">
  <defs>
    <clipPath id="clip-path">
      <path id="path4146" d="M0-682.665H52.415v52.415H0Z" transform="translate(0 682.665)"/>
    </clipPath>
  </defs>
  <g id="Grupo_1204333" data-name="Grupo 1204333" transform="translate(-867.051 -965)">
    <g id="Grupo_1202987" data-name="Grupo 1202987" transform="translate(-154.916 -2127.655)">
      <g id="Grupo_1200255" data-name="Grupo 1200255">
        <g id="Grupo_1187152" data-name="Grupo 1187152">
          <g id="Grupo_1185946" data-name="Grupo 1185946" transform="translate(-3.07)">
            <g id="Grupo_1184280" data-name="Grupo 1184280">
              <g id="Grupo_1182168" data-name="Grupo 1182168">
                <g id="Grupo_1178877" data-name="Grupo 1178877">
                  <g id="Grupo_1111311" data-name="Grupo 1111311">
                    <g id="Grupo_1098742" data-name="Grupo 1098742" transform="translate(1025.482 3093.101)">
                      <rect id="Rect치ngulo_400898" data-name="Rect치ngulo 400898" width="76.345" height="76.345" rx="38.172" transform="translate(-0.445 -0.445)" fill="#ffc94a" opacity="0.859"/>
                      <rect id="Rect치ngulo_400907" data-name="Rect치ngulo 400907" width="76.345" height="76.345" rx="38.172" transform="translate(-0.446 -0.445)" fill="none"/>
                    </g>
                  </g>
                </g>
              </g>
            </g>
          </g>
        </g>
      </g>
    </g>
    <g id="g4140" transform="translate(879.051 1659.665)">
      <g id="g4142" transform="translate(0 -682.665)">
        <g id="g4144" transform="translate(0 0)" clip-path="url(#clip-path)">
          <g id="g4150" transform="translate(0.768 30.765)">
            <path id="path4152" d="M-166.371-4.353-180.047,9.369a.547.547,0,0,0,.387.933h35.623a1.231,1.231,0,0,0,.872-.362l13.675-13.721a.547.547,0,0,0-.387-.933H-165.5a1.231,1.231,0,0,0-.872.362" transform="translate(180.207 4.715)" fill="#ffa78f"/>
          </g>
          <g id="g4154" transform="translate(11.02 42.383)">
            <path id="path4156" d="M-30.32,0a2.36,2.36,0,0,0-2.522,2.155A1.94,1.94,0,0,0-32.379,3.4h4.118A1.94,1.94,0,0,0-27.8,2.155,2.36,2.36,0,0,0-30.32,0" transform="translate(32.841 0)" fill="#f89580"/>
          </g>
          <g id="g4158" transform="translate(33.56 30.765)">
            <path id="path4160" d="M-210.885,0h-3.378a.547.547,0,0,1,.387.933l-13.675,13.721a1.231,1.231,0,0,1-.872.362h3.378a1.231,1.231,0,0,0,.872-.362L-210.5.933A.547.547,0,0,0-210.885,0" transform="translate(228.423)" fill="#f89580"/>
          </g>
          <g id="g4162" transform="translate(22.741 36.522)">
            <path id="path4164" d="M-82.322-28.6c0,1.314-1.533,2.379-3.423,2.379s-3.423-1.065-3.423-2.379,1.533-2.379,3.423-2.379,3.423,1.065,3.423,2.379" transform="translate(89.168 30.984)" fill="#f89580"/>
          </g>
          <g id="g4166" transform="translate(0.768 22.558)">
            <path id="path4168" d="M-166.371-4.353-180.047,9.369a.547.547,0,0,0,.387.933h35.623a1.231,1.231,0,0,0,.872-.362l13.675-13.721a.547.547,0,0,0-.387-.933H-165.5a1.231,1.231,0,0,0-.872.362" transform="translate(180.207 4.715)" fill="#e8ad8c"/>
          </g>
          <g id="g4170" transform="translate(33.56 22.558)">
            <path id="path4172" d="M-210.885,0h-3.378a.547.547,0,0,1,.387.933l-13.675,13.721a1.231,1.231,0,0,1-.872.362h3.378a1.231,1.231,0,0,0,.872-.362L-210.5.933A.547.547,0,0,0-210.885,0" transform="translate(228.423)" fill="#e19a74"/>
          </g>
          <g id="g4174" transform="translate(0.768 13.849)">
            <path id="path4176" d="M-166.371-4.353-180.047,9.369a.547.547,0,0,0,.387.933h35.623a1.231,1.231,0,0,0,.872-.362l13.675-13.721a.547.547,0,0,0-.387-.933H-165.5a1.231,1.231,0,0,0-.872.362" transform="translate(180.207 4.715)" fill="#68ca44"/>
          </g>
          <g id="g4178" transform="translate(33.56 13.849)">
            <path id="path4180" d="M-210.885,0h-3.378a.547.547,0,0,1,.387.933l-13.675,13.721a1.231,1.231,0,0,1-.872.362h3.378a1.231,1.231,0,0,0,.872-.362L-210.5.933A.547.547,0,0,0-210.885,0" transform="translate(228.423)" fill="#4fc123"/>
          </g>
          <g id="g4182" transform="translate(10.282 11.28)">
            <path id="path4184" d="M-60.932-81.243a1.689,1.689,0,0,1-1.689-1.689,1.689,1.689,0,0,1,1.689-1.689,1.689,1.689,0,0,1,1.689,1.689,1.689,1.689,0,0,1-1.689,1.689m0-6.757A5.073,5.073,0,0,0-66-82.932c0,4.113,5.067,7.217,5.067,7.217s5.067-3.244,5.067-7.217A5.073,5.073,0,0,0-60.932-88" transform="translate(66 88)" fill="#fd8087"/>
          </g>
          <g id="g4186" transform="translate(35.219 6.633)">
            <path id="path4188" d="M0-5.418a.45.45,0,0,1,.5-.447A4.082,4.082,0,0,1,4.082-1.814v.793H3.2A3.2,3.2,0,0,1,0-4.217Z" transform="translate(0 5.868)" fill="#68ca44"/>
          </g>
          <g id="g4190" transform="translate(39.301 6.633)">
            <path id="path4192" d="M-49.081-5.418a.45.45,0,0,0-.5-.447,4.082,4.082,0,0,0-3.579,4.051v.793h.886a3.2,3.2,0,0,0,3.2-3.2Z" transform="translate(53.163 5.868)" fill="#4fc123"/>
          </g>
          <g id="g4194" transform="translate(10.252 41.615)">
            <path id="path4196" d="M-64.309-49.328a.765.765,0,0,1-.489-.177.768.768,0,0,1-.1-1.081,1.186,1.186,0,0,0,.286-.754,1.605,1.605,0,0,0-1.754-1.387,1.605,1.605,0,0,0-1.754,1.387,1.186,1.186,0,0,0,.286.754.768.768,0,0,1-.1,1.081.768.768,0,0,1-1.081-.1,2.7,2.7,0,0,1-.639-1.733,3.126,3.126,0,0,1,3.289-2.923,3.126,3.126,0,0,1,3.289,2.923,2.694,2.694,0,0,1-.639,1.733A.766.766,0,0,1-64.309-49.328Z" transform="translate(69.657 54.263)"/>
          </g>
          <g id="g4198" transform="translate(21.973 36.807)">
            <path id="path4200" d="M-87.422-4.76c-2.35,0-4.191-1.382-4.191-3.147a2.653,2.653,0,0,1,.8-1.86.768.768,0,0,1,1.086-.018A.768.768,0,0,1-89.713-8.7a1.173,1.173,0,0,0-.364.792c0,.858,1.241,1.611,2.656,1.611s2.656-.753,2.656-1.611a1.173,1.173,0,0,0-.364-.792.768.768,0,0,1,.018-1.086.768.768,0,0,1,1.086.018,2.653,2.653,0,0,1,.8,1.86C-83.231-6.142-85.072-4.76-87.422-4.76Z" transform="translate(91.613 10)"/>
          </g>
          <g id="g4202" transform="translate(0 36.807)">
            <path id="path4204" d="M-80.024-.258h-25.162a1.311,1.311,0,0,1-1.214-.811,1.311,1.311,0,0,1,.283-1.432l7.249-7.273a.768.768,0,0,1,1.086,0,.768.768,0,0,1,0,1.086l-6.873,6.9h24.629a.768.768,0,0,1,.768.768A.768.768,0,0,1-80.024-.258Z" transform="translate(106.501 10)"/>
          </g>
          <g id="g4206" transform="translate(29.293 29.997)">
            <path id="path4208" d="M-186.993,6.552h-6.878a.768.768,0,0,1-.768-.768.768.768,0,0,1,.768-.768h6.878a.464.464,0,0,0,.327-.135l13.3-13.345h-6.33a.768.768,0,0,1-.768-.768A.768.768,0,0,1-179.7-10h6.862a1.311,1.311,0,0,1,1.214.811,1.311,1.311,0,0,1-.283,1.433L-185.578,5.964A2.01,2.01,0,0,1-186.993,6.552Z" transform="translate(194.64 10)"/>
          </g>
          <g id="g4210" transform="translate(4.707 31.311)">
            <path id="path4212" d="M-75.312-74.545a.765.765,0,0,1-.543-.225l-5.5-5.5a.768.768,0,0,1,0-1.086.768.768,0,0,1,1.086,0l5.5,5.5a.768.768,0,0,1,0,1.086A.765.765,0,0,1-75.312-74.545Z" transform="translate(81.576 81.576)"/>
          </g>
          <g id="g4214" transform="translate(7.957 28.098)">
            <path id="path4216" d="M-113.937-113.182a.765.765,0,0,1-.543-.225l-8.708-8.709a.768.768,0,0,1,0-1.086.768.768,0,0,1,1.086,0l8.708,8.709a.768.768,0,0,1,0,1.086A.765.765,0,0,1-113.937-113.182Z" transform="translate(123.413 123.426)"/>
          </g>
          <g id="g4218" transform="translate(14.42 28.098)">
            <path id="path4220" d="M-113.95-113.182a.765.765,0,0,1-.543-.225l-8.709-8.709a.768.768,0,0,1,0-1.086.768.768,0,0,1,1.086,0l8.709,8.709a.768.768,0,0,1,0,1.086A.765.765,0,0,1-113.95-113.182Z" transform="translate(123.426 123.426)"/>
          </g>
          <g id="g4222" transform="translate(20.884 28.098)">
            <path id="path4224" d="M-113.95-113.182a.765.765,0,0,1-.543-.225l-8.709-8.709a.768.768,0,0,1,0-1.086.768.768,0,0,1,1.086,0l8.709,8.709a.768.768,0,0,1,0,1.086A.765.765,0,0,1-113.95-113.182Z" transform="translate(123.426 123.426)"/>
          </g>
          <g id="g4226" transform="translate(27.346 28.098)">
            <path id="path4228" d="M-113.962-113.182a.765.765,0,0,1-.543-.225l-8.71-8.709a.768.768,0,0,1,0-1.086.768.768,0,0,1,1.086,0l8.71,8.709a.768.768,0,0,1,0,1.086A.765.765,0,0,1-113.962-113.182Z" transform="translate(123.44 123.426)"/>
          </g>
          <g id="g4230" transform="translate(33.809 28.098)">
            <path id="path4232" d="M-78.818-78.05a.765.765,0,0,1-.543-.225l-5.787-5.787a.768.768,0,0,1,0-1.086.768.768,0,0,1,1.086,0l5.787,5.787a.768.768,0,0,1,0,1.086A.765.765,0,0,1-78.818-78.05Z" transform="translate(85.373 85.373)"/>
          </g>
          <g id="g4234" transform="translate(38.475 26.298)">
            <path id="path4236" d="M-61.511-60.743a.765.765,0,0,1-.543-.225L-66.4-65.316a.768.768,0,0,1,0-1.086.768.768,0,0,1,1.086,0l4.348,4.348a.768.768,0,0,1,0,1.086A.765.765,0,0,1-61.511-60.743Z" transform="translate(66.626 66.626)"/>
          </g>
          <g id="g4238" transform="translate(41.7 23.062)">
            <path id="path4240" d="M-61.511-60.743a.765.765,0,0,1-.543-.225L-66.4-65.316a.768.768,0,0,1,0-1.086.768.768,0,0,1,1.086,0l4.348,4.348a.768.768,0,0,1,0,1.086A.765.765,0,0,1-61.511-60.743Z" transform="translate(66.626 66.626)"/>
          </g>
          <g id="g4242" transform="translate(0 21.79)">
            <path id="path4244" d="M-532.693,6.553h-35.623a1.311,1.311,0,0,1-1.214-.811,1.311,1.311,0,0,1,.283-1.433l7.749-7.775a.768.768,0,0,1,1.086,0,.768.768,0,0,1,0,1.086l-7.375,7.4h35.092a.464.464,0,0,0,.327-.135l13.3-13.346H-525.9a.768.768,0,0,1-.768-.768A.768.768,0,0,1-525.9-10h7.363a1.311,1.311,0,0,1,1.214.811,1.311,1.311,0,0,1-.283,1.433L-531.278,5.965A2.01,2.01,0,0,1-532.693,6.553Z" transform="translate(569.632 10)"/>
          </g>
          <g id="g4246" transform="translate(0 13.081)">
            <path id="path4248" d="M-318.815,6.553h-35.623a1.311,1.311,0,0,1-1.214-.811,1.311,1.311,0,0,1,.283-1.433l9.691-9.724a.768.768,0,0,1,1.086,0,.768.768,0,0,1,0,1.086l-9.317,9.348h35.092a.465.465,0,0,0,.327-.136l13.3-13.345h-23.252a.768.768,0,0,1-.768-.768.768.768,0,0,1,.768-.768h23.784a1.311,1.311,0,0,1,1.214.811,1.311,1.311,0,0,1-.283,1.433L-317.4,5.964A2.011,2.011,0,0,1-318.815,6.553Z" transform="translate(355.754 10)"/>
          </g>
          <g id="g4250" transform="translate(18.989 13.081)">
            <path id="path4252" d="M-57.03-8.464h-3.975a.768.768,0,0,1-.768-.768A.768.768,0,0,1-61.005-10h3.975a.768.768,0,0,1,.768.768A.768.768,0,0,1-57.03-8.464Z" transform="translate(61.773 10)"/>
          </g>
          <g id="g4254" transform="translate(18.114 13.081)">
            <path id="path4256" d="M-204.512,6.553a.765.765,0,0,1-.542-.224.768.768,0,0,1,0-1.086l14.993-15.017a.768.768,0,0,1,1.086,0,.768.768,0,0,1,0,1.086L-203.968,6.327A.765.765,0,0,1-204.512,6.553Z" transform="translate(205.28 10)"/>
          </g>
          <g id="g4258" transform="translate(17.201 20.589)">
            <path id="path4260" d="M-333.466-8.464h-26.965a.768.768,0,0,1-.768-.768.768.768,0,0,1,.768-.768h26.965a.768.768,0,0,1,.768.768A.768.768,0,0,1-333.466-8.464Z" transform="translate(361.199 10)"/>
          </g>
          <g id="g4262" transform="translate(6.714 20.589)">
            <path id="path4264" d="M-71.74-8.464h-5.2a.768.768,0,0,1-.768-.768A.768.768,0,0,1-76.939-10h5.2a.768.768,0,0,1,.768.768A.768.768,0,0,1-71.74-8.464Z" transform="translate(77.706 10)"/>
          </g>
          <g id="g4266" transform="translate(9.515 10.512)">
            <path id="path4268" d="M-70.165-84.18a.767.767,0,0,1-.4-.113c-.222-.136-5.434-3.38-5.434-7.872A5.842,5.842,0,0,1-70.165-98a5.842,5.842,0,0,1,5.835,5.835c0,4.344-5.2,7.722-5.421,7.864A.767.767,0,0,1-70.165-84.18Zm0-12.285a4.3,4.3,0,0,0-4.3,4.3c0,2.994,3.146,5.482,4.291,6.288,1.144-.834,4.308-3.4,4.308-6.288A4.3,4.3,0,0,0-70.165-96.464Zm0,6.757a2.46,2.46,0,0,1-2.457-2.457,2.46,2.46,0,0,1,2.457-2.457,2.46,2.46,0,0,1,2.457,2.457A2.46,2.46,0,0,1-70.165-89.708Zm0-3.378a.922.922,0,0,0-.921.921.922.922,0,0,0,.921.921.922.922,0,0,0,.921-.921A.922.922,0,0,0-70.165-93.086Z" transform="translate(76 98)"/>
          </g>
          <g id="g4270" transform="translate(38.533 10.399)">
            <path id="path4272" d="M-9.232-1.749A.768.768,0,0,1-10-2.517V-9.232A.768.768,0,0,1-9.232-10a.768.768,0,0,1,.768.768v6.715A.768.768,0,0,1-9.232-1.749Z" transform="translate(10 10)"/>
          </g>
          <g id="g4274" transform="translate(34.451 5.865)">
            <path id="path4276" d="M-8.784-15.868c.031,0,.118.005.149.009a4.853,4.853,0,0,1,4.253,4.813v.793a.768.768,0,0,1-.768.768h-.886A3.968,3.968,0,0,1-10-13.449v-1.2A1.218,1.218,0,0,1-8.784-15.868Zm2.866,4.848v-.025a3.317,3.317,0,0,0-2.546-3.225v.822a2.431,2.431,0,0,0,2.428,2.428Z" transform="translate(10 15.868)"/>
          </g>
          <g id="g4278" transform="translate(38.533 5.865)">
            <path id="path4280" d="M-58.761-15.868h0a1.218,1.218,0,0,1,1.216,1.218v1.2a3.968,3.968,0,0,1-3.964,3.964h-.886a.768.768,0,0,1-.768-.768v-.793a4.853,4.853,0,0,1,4.253-4.813C-58.878-15.863-58.792-15.868-58.761-15.868Zm-2.748,4.848a2.431,2.431,0,0,0,2.428-2.428v-.822a3.317,3.317,0,0,0-2.546,3.225v.025Z" transform="translate(63.162 15.868)"/>
          </g>
        </g>
      </g>
    </g>
  </g>
</svg>
