<svg xmlns="http://www.w3.org/2000/svg" width="76.345" height="76.344" viewBox="0 0 76.345 76.344">
  <g id="Grupo_1204312" data-name="Grupo 1204312" transform="translate(-761.853 -1908.655)">
    <g id="Grupo_1202987" data-name="Grupo 1202987" transform="translate(-260.113 -1184)">
      <g id="Grupo_1200255" data-name="Grupo 1200255">
        <g id="Grupo_1187152" data-name="Grupo 1187152">
          <g id="Grupo_1185946" data-name="Grupo 1185946" transform="translate(-3.07)">
            <g id="Grupo_1184280" data-name="Grupo 1184280">
              <g id="Grupo_1182168" data-name="Grupo 1182168">
                <g id="Grupo_1178877" data-name="Grupo 1178877">
                  <g id="Grupo_1111311" data-name="Grupo 1111311">
                    <g id="Grupo_1098742" data-name="Grupo 1098742" transform="translate(1025.482 3093.101)">
                      <rect id="Rectángulo_400898" data-name="Rectángulo 400898" width="76.345" height="76.345" rx="38.172" transform="translate(-0.445 -0.445)" fill="#ffc94a" opacity="0.859"/>
                      <rect id="Rectángulo_400907" data-name="Rectángulo 400907" width="76.345" height="76.345" rx="38.172" transform="translate(-0.446 -0.445)" fill="none"/>
                    </g>
                  </g>
                </g>
              </g>
            </g>
          </g>
        </g>
      </g>
    </g>
    <g id="campesino" transform="translate(771.885 1920.498)">
      <g id="Grupo_1204310" data-name="Grupo 1204310" transform="translate(2.056 0.784)">
        <path id="Trazado_1261160" data-name="Trazado 1261160" d="M127.388,340.561a1.331,1.331,0,0,0,1.344-1.517,26.194,26.194,0,0,0-1.906-6.431h0a5.575,5.575,0,0,0-3.12-2.938l-9.869-3.775a1.371,1.371,0,0,1-.894-1.275v-3.083l-10.814-.111v3.194a1.371,1.371,0,0,1-.894,1.274l-9.869,3.775a5.576,5.576,0,0,0-3.12,2.938h0a26.2,26.2,0,0,0-1.906,6.431,1.331,1.331,0,0,0,1.344,1.517h39.7Z" transform="translate(-79.358 -288.626)" fill="#dc8758"/>
        <path id="Trazado_1261161" data-name="Trazado 1261161" d="M128.73,385.307a26.194,26.194,0,0,0-1.906-6.431h0a5.575,5.575,0,0,0-3.12-2.938l-7.439-2.845c-1.51,3.422-4.931,9.806-8.912,9.806-3.935,0-7.323-6.329-8.859-9.688l-7.13,2.727a5.576,5.576,0,0,0-3.12,2.938h0a26.2,26.2,0,0,0-1.906,6.431,1.331,1.331,0,0,0,1.344,1.517h39.7A1.331,1.331,0,0,0,128.73,385.307Z" transform="translate(-79.356 -334.89)" fill="#fccd7f"/>
        <path id="Trazado_1261162" data-name="Trazado 1261162" d="M203.47,18.944H180.787l1.7-9.476a2.345,2.345,0,0,1,3.189-1.759l4.568,1.85a4.659,4.659,0,0,0,3.444.021L198.6,7.662a2.345,2.345,0,0,1,3.162,1.77Z" transform="translate(-163.951 -7.5)" fill="#9e5528"/>
        <path id="Trazado_1261163" data-name="Trazado 1261163" d="M181.488,79.674l-.7,3.9H203.47l-.7-3.9Z" transform="translate(-163.951 -72.132)" fill="#fccd7f"/>
        <circle id="Elipse_12808" data-name="Elipse 12808" cx="3.321" cy="3.321" r="3.321" transform="translate(35.27 16.916)" fill="#dc8758"/>
        <path id="Trazado_1261164" data-name="Trazado 1261164" d="M203.545,148.484h-21.5a23.109,23.109,0,0,0-.254,5.364c.316,4.832,1.792,10.022,6.114,12.76a9.126,9.126,0,0,0,9.782,0c5.265-3.337,6.565-10.391,6.079-16.333C203.718,149.674,203.644,149.076,203.545,148.484Z" transform="translate(-164.804 -133.752)" fill="#dc8758"/>
        <path id="Trazado_1261165" data-name="Trazado 1261165" d="M285.766,150.275c-.049-.6-.123-1.2-.223-1.791h-2.979c.1.592.174,1.19.223,1.791.486,5.943-.814,13-6.079,16.333a9.135,9.135,0,0,1-3.4,1.3,9.125,9.125,0,0,0,6.381-1.3C284.952,163.272,286.251,156.218,285.766,150.275Z" transform="translate(-246.803 -133.752)" fill="#d4773f"/>
        <path id="Trazado_1261166" data-name="Trazado 1261166" d="M113.713,117.014h30.208a2.757,2.757,0,0,1,2.483,1.558l1.022,2.116a1.193,1.193,0,0,1-1.074,1.712h-35.07a1.193,1.193,0,0,1-1.074-1.712l1.022-2.116A2.758,2.758,0,0,1,113.713,117.014Z" transform="translate(-100.64 -105.57)" fill="#9e5528"/>
        <path id="Trazado_1261167" data-name="Trazado 1261167" d="M88.844,352.5H85.565a1.045,1.045,0,0,1-1.045-1.045V334.78h4.324Z" transform="translate(-77.744 -300.58)" fill="#c86d36"/>
        <path id="Trazado_1261168" data-name="Trazado 1261168" d="M35.888,147.282a1.854,1.854,0,0,0-2.043,1.844h0v8.561a1.688,1.688,0,0,1-1.688,1.688h0a1.688,1.688,0,0,1-1.688-1.688v-8.561a1.853,1.853,0,0,0-1.854-1.854h0a1.853,1.853,0,0,0-1.63.97l-.006.012a1.832,1.832,0,0,0-.218.871v8.561a1.688,1.688,0,0,1-1.688,1.688h0a1.688,1.688,0,0,1-1.688-1.688v-8.561a1.853,1.853,0,0,0-1.854-1.854h0a1.853,1.853,0,0,0-1.63.97l-.006.012a1.832,1.832,0,0,0-.218.871v10.808a6.932,6.932,0,0,0,6.932,6.932H30.62a6.932,6.932,0,0,0,6.932-6.932v-.559h0V149.126h0A1.854,1.854,0,0,0,35.888,147.282Z" transform="translate(-19.676 -132.666)" fill="#a8d3d8"/>
      </g>
      <g id="Grupo_1204311" data-name="Grupo 1204311" transform="translate(0 0)">
        <path id="Trazado_1261169" data-name="Trazado 1261169" d="M121.518,324.045a.784.784,0,0,1-.371-1.474,6.5,6.5,0,0,1,.754-.345l9.869-3.775a.586.586,0,0,0,.391-.542v-3.194a.784.784,0,0,1,1.567,0v3.194a2.142,2.142,0,0,1-1.4,2.006l-9.869,3.775a4.936,4.936,0,0,0-.572.262A.78.78,0,0,1,121.518,324.045Z" transform="translate(-108.117 -281.126)"/>
        <path id="Trazado_1261170" data-name="Trazado 1261170" d="M156.117,333.79H119.188a.784.784,0,1,1,0-1.567h36.929a.592.592,0,0,0,.453-.2.5.5,0,0,0,.117-.4,25.431,25.431,0,0,0-1.849-6.238,4.823,4.823,0,0,0-2.683-2.523l-9.869-3.775a2.142,2.142,0,0,1-1.4-2.007v-3.292a.784.784,0,0,1,1.567,0v3.292a.586.586,0,0,0,.391.543l9.869,3.775a6.4,6.4,0,0,1,3.557,3.354,27,27,0,0,1,1.963,6.623,2.067,2.067,0,0,1-.471,1.67A2.157,2.157,0,0,1,156.117,333.79Z" transform="translate(-106.031 -280.288)"/>
        <path id="Línea_567" data-name="Línea 567" d="M-3.862-5.933H-6.716A.784.784,0,0,1-7.5-6.716.784.784,0,0,1-6.716-7.5h2.854a.784.784,0,0,1,.784.784A.784.784,0,0,1-3.862-5.933Z" transform="translate(19.773 24.33)"/>
        <path id="Trazado_1261171" data-name="Trazado 1261171" d="M142.785,116.467H115a.784.784,0,1,1,0-1.567h27.79a.409.409,0,0,0,.368-.587l-1.022-2.116a1.985,1.985,0,0,0-1.777-1.115H110.146a1.985,1.985,0,0,0-1.777,1.115l-.775,1.6a.784.784,0,0,1-1.411-.682l.775-1.6a3.561,3.561,0,0,1,3.189-2h30.208a3.561,3.561,0,0,1,3.189,2l1.022,2.116a1.977,1.977,0,0,1-1.78,2.836Z" transform="translate(-95.017 -98.07)"/>
        <path id="Trazado_1261172" data-name="Trazado 1261172" d="M386.681,170.687a.784.784,0,0,1-.107-1.56,2.538,2.538,0,0,0,.179-5,.784.784,0,0,1,.327-1.533,4.106,4.106,0,0,1-.29,8.081A.791.791,0,0,1,386.681,170.687Z" transform="translate(-345.573 -145.592)"/>
        <path id="Trazado_1261173" data-name="Trazado 1261173" d="M194.539,180.461a9.918,9.918,0,0,1-5.311-1.533,13.367,13.367,0,0,1-5.51-7.757.784.784,0,0,1,1.5-.454,11.851,11.851,0,0,0,4.849,6.886,8.389,8.389,0,0,0,8.943,0c5.909-3.744,5.98-11.92,5.736-15.261a.784.784,0,0,1,1.563-.114c.264,3.623.164,12.5-6.46,16.7A9.918,9.918,0,0,1,194.539,180.461Z" transform="translate(-164.49 -144.625)"/>
        <path id="Trazado_1261174" data-name="Trazado 1261174" d="M196.754,13.011H174.071a.784.784,0,0,1-.771-.922L175,2.613A3.126,3.126,0,0,1,179.255.266l4.568,1.85a3.858,3.858,0,0,0,1.455.283,3.86,3.86,0,0,0,1.41-.266L191.6.216a3.126,3.126,0,0,1,4.218,2.362l1.708,9.512a.784.784,0,0,1-.771.922Zm-21.746-1.567h20.809l-1.543-8.59a1.558,1.558,0,0,0-2.105-1.179l-4.911,1.918a5.421,5.421,0,0,1-1.98.373,5.418,5.418,0,0,1-2.043-.4l-4.568-1.85a1.558,1.558,0,0,0-2.123,1.171Z" transform="translate(-155.179 0)"/>
        <path id="Línea_568" data-name="Línea 568" d="M14.138-5.933H-6.716A.784.784,0,0,1-7.5-6.716.784.784,0,0,1-6.716-7.5H14.138a.784.784,0,0,1,.784.784A.784.784,0,0,1,14.138-5.933Z" transform="translate(26.43 15.042)"/>
        <path id="Trazado_1261175" data-name="Trazado 1261175" transform="translate(0 0)"/>
        <path id="Trazado_1261176" data-name="Trazado 1261176" transform="translate(0 0)"/>
        <path id="Trazado_1261177" data-name="Trazado 1261177" d="M14.814,139.772a2.636,2.636,0,0,1,2.637,2.637v8.561a.9.9,0,1,0,1.809,0V142.41a2.638,2.638,0,0,1,5.275,0v8.561a.9.9,0,1,0,1.809,0V142.41a2.629,2.629,0,0,1,2.369-2.624,2.679,2.679,0,0,1,.538,0,2.628,2.628,0,0,1,2.368,2.624v10.808a7.724,7.724,0,0,1-7.716,7.716H19.892a7.724,7.724,0,0,1-7.716-7.716V142.409a2.638,2.638,0,0,1,2.638-2.637Zm3.542,13.67a2.475,2.475,0,0,1-2.472-2.472V142.41a1.066,1.066,0,0,0-.96-1.064,1.072,1.072,0,0,0-1.052.555,1.128,1.128,0,0,0-.081.191,1.068,1.068,0,0,0-.048.318v10.808a6.155,6.155,0,0,0,6.148,6.148H23.9a6.155,6.155,0,0,0,6.148-6.148V142.409a1.066,1.066,0,0,0-.96-1.064,1.089,1.089,0,0,0-.22,0,1.066,1.066,0,0,0-.96,1.064v8.561a2.472,2.472,0,1,1-4.944,0V142.41a1.066,1.066,0,0,0-.96-1.064,1.083,1.083,0,0,0-.11-.006,1.071,1.071,0,0,0-.941.561,1.128,1.128,0,0,0-.081.191,1.068,1.068,0,0,0-.048.318v8.561A2.475,2.475,0,0,1,18.356,153.442Z" transform="translate(-10.904 -125.166)"/>
        <path id="Trazado_1261178" data-name="Trazado 1261178" d="M82.128,346.567H78.849a1.831,1.831,0,0,1-1.829-1.829V328.064a.784.784,0,0,1,.784-.784h4.324a.784.784,0,0,1,.784.784v17.72A.784.784,0,0,1,82.128,346.567Zm-3.541-17.72v15.891a.262.262,0,0,0,.262.262h2.5V328.847Z" transform="translate(-68.972 -293.08)"/>
        <path id="Trazado_1261179" data-name="Trazado 1261179" d="M204.954,376.964c-4.076,0-7.455-5.517-9.572-10.146a.784.784,0,0,1,1.425-.652c2.683,5.866,5.652,9.23,8.146,9.23,3.781,0,7.229-7.148,8.2-9.339a.784.784,0,1,1,1.434.633C212.89,370.527,209.388,376.964,204.954,376.964Z" transform="translate(-174.902 -327.387)"/>
      </g>
    </g>
  </g>
</svg>
